<svg xmlns="http://www.w3.org/2000/svg" xmlns:xlink="http://www.w3.org/1999/xlink" viewBox="0 0 84.01 84.05"><defs><style>.cls-1{fill:url(#linear-gradient);}.cls-2{fill:url(#linear-gradient-2);}.cls-3{fill:url(#linear-gradient-3);}.cls-4{fill:url(#linear-gradient-4);}.cls-5{fill:url(#linear-gradient-5);}.cls-6{fill:url(#linear-gradient-6);}.cls-7{fill:url(#linear-gradient-7);}.cls-8{fill:url(#linear-gradient-8);}</style><linearGradient id="linear-gradient" y1="42.03" x2="84.01" y2="42.03" gradientUnits="userSpaceOnUse"><stop offset="0" stop-color="#f2a710"/><stop offset="0.53" stop-color="#f2a612"/><stop offset="0.72" stop-color="#f2a319"/><stop offset="0.85" stop-color="#f29d24"/><stop offset="0.96" stop-color="#f19635"/><stop offset="1" stop-color="#f1923d"/></linearGradient><linearGradient id="linear-gradient-2" x1="5.4" y1="31.23" x2="43.36" y2="31.23" xlink:href="#linear-gradient"/><linearGradient id="linear-gradient-3" x1="13.91" y1="49.22" x2="34.75" y2="49.22" xlink:href="#linear-gradient"/><linearGradient id="linear-gradient-4" x1="20.27" y1="61.01" x2="28.38" y2="61.01" xlink:href="#linear-gradient"/><linearGradient id="linear-gradient-5" x1="19.04" y1="71.84" x2="32.45" y2="71.84" xlink:href="#linear-gradient"/><linearGradient id="linear-gradient-6" x1="17.89" y1="53.85" x2="30.91" y2="53.85" xlink:href="#linear-gradient"/><linearGradient id="linear-gradient-7" x1="16.34" y1="6.83" x2="32.53" y2="6.83" xlink:href="#linear-gradient"/><linearGradient id="linear-gradient-8" x1="5.52" y1="6.51" x2="8.03" y2="6.51" xlink:href="#linear-gradient"/></defs><title>applications</title><g id="Layer_2" data-name="Layer 2"><g id="Layer_1-2" data-name="Layer 1"><path class="cls-1" d="M47.88,3.39c8.65-5.8,18-3.36,23.19,2.17a17.61,17.61,0,0,1,1.76,22C67.62,35.19,59.49,37,48.88,32.74V42c3.72,0,7.42,0,11.12,0,.42,0,.88-.43,1.23-.76,2.17-2.14,4.28-4.35,6.49-6.44a3.72,3.72,0,0,1,2-.84,23.08,23.08,0,0,1,3.72,0,3.75,3.75,0,0,0,3.72-1.5c1.36-1.81,4.12-1.6,5.69.06a4,4,0,0,1-.21,5.77A3.77,3.77,0,0,1,77,37.9c-.84-1.22-1.79-1.16-3-1.32a7.65,7.65,0,0,0-7.58,3.18c-1.43,1.8-3,3.92-5,4.72s-4.66.25-7,.27c-1.81,0-3.61,0-5.54,0v2.6a12.58,12.58,0,0,0,1.27.1c8.18,0,16.37,0,24.55,0a2,2,0,0,0,1.93-.94,3.92,3.92,0,0,1,6-.68,4.06,4.06,0,1,1-6.06,5.34,2.44,2.44,0,0,0-1.51-1c-8.58-.06-17.16,0-25.74,0a2.4,2.4,0,0,0-.54.14v2.55c3.27,0,6.53.13,9.77-.05a5.32,5.32,0,0,1,5,2.08c.77,1,1.86,1.68,2.6,2.67a8.08,8.08,0,0,0,8.29,3.47,2.8,2.8,0,0,0,2.34-1.16,3.67,3.67,0,0,1,4.51-1.32A4,4,0,0,1,84,62.5a4.09,4.09,0,0,1-2.92,3.75,3.76,3.76,0,0,1-4.33-1.48,1.85,1.85,0,0,0-2-1c-4.49.83-8-.72-10.57-4.42-2.22-3.16-5.2-4.27-9-3.76a51.29,51.29,0,0,1-6.35,0v1.84q0,9.57,0,19.13c0,4.72-2.75,7.48-7.45,7.49H7.46C2.76,84,0,81.28,0,76.56V7.46C0,2.77,2.78,0,7.51,0c11,0,22,0,33,0C43.58,0,46.11.7,47.88,3.39ZM2.77,13.65c0,.46,0,.79,0,1.12q0,28.37,0,56.72c0,2.84,1.66,4.41,4.6,4.42q17,0,34,0c3.13,0,4.7-1.56,4.71-4.66q0-19.81,0-39.62a3.71,3.71,0,0,0-.88-2.19,16.76,16.76,0,0,1-4.22-9.06,65.53,65.53,0,0,1,0-6.73ZM45.6,5a4,4,0,0,0-4-2.27H7.31c-2.36,0-4.12,1.1-4.42,3.1a33.53,33.53,0,0,0-.05,5c12.83,0,25.51,0,38.2,0a1.84,1.84,0,0,0,1.28-.74C43.44,8.49,44.46,6.81,45.6,5Zm.31,72.85a36.65,36.65,0,0,1-5.12.72q-15.81.1-31.63,0c-2.11,0-4.23-.44-6.27-.66C3.14,80,4.56,81.3,7,81.32c4,0,8,0,12,0,7.56,0,15.11,0,22.67,0C44.22,81.32,45.64,80,45.91,77.87ZM63.72,16.21C63.5,14.4,63.3,12.7,63.1,11H53.41l-.57,5.23Zm-.63,8.15c.21-1.74.41-3.44.63-5.25H52.81l.65,5.25Zm-13-8.13.53-5.16c-5.29-.92-7,.33-7,5.16Zm23.19,0c-.49-1.63-.84-3-1.35-4.39a1.67,1.67,0,0,0-1.15-.91c-1.6-.11-3.22,0-4.89,0,.21,1.9.39,3.61.58,5.35Zm-23.2,2.88c-.42,0-.8-.09-1.18-.1-1.78,0-3.57,0-5.64,0,.48,1.64.86,3.09,1.37,4.5a1.52,1.52,0,0,0,1,.87c1.65.09,3.3,0,5,0Zm15.83,5.2c5.85.5,7-.33,7-5.19H66.45C66.26,20.89,66.09,22.56,65.91,24.31ZM62.63,8.12A50.5,50.5,0,0,0,59.87,3.6a1.86,1.86,0,0,0-3.17,0,46.8,46.8,0,0,0-2.77,4.54ZM54,27.22a41.4,41.4,0,0,0,2.56,4.35c1.06,1.36,2.36,1.38,3.4,0a39.47,39.47,0,0,0,2.61-4.39ZM52.9,4l-.38-.38L47,7.63l.25.44H51.3ZM64,3.64,63.64,4l1.58,4.09h4.11l.24-.44Zm-11.42,28,.31-.43c-1.76-4.5-2.14-4.76-6.17-3.71Zm12.67-4.45-1.6,4.09.34.37,5.59-4-.28-.46ZM80,37.2c.61-.93,1.28-1.51,1.18-1.91s-.85-.91-1.32-1.35c-.42.44-1.17.88-1.16,1.32S79.36,36.29,80,37.2Zm-.11,9.68c-.62.92-1.29,1.5-1.2,1.9s.85.91,1.31,1.36c.42-.43,1.18-.87,1.18-1.31S80.54,47.79,79.9,46.88Zm.16,13.57c-.69.84-1.41,1.36-1.35,1.76a2,2,0,0,0,1.21,1.39c.31.1,1.23-.67,1.27-1.1S80.63,61.4,80.06,60.45Z"/><path class="cls-2" d="M24.38,43.4H14.06c-4.37,0-7.6-2.52-8.47-6.54-.83-3.78,1.14-7.32,5-9.15a2.74,2.74,0,0,0,1.21-1.24c2.19-4.67,5.83-7.3,11-7.42s9,2.43,11.4,7.06a2.09,2.09,0,0,0,1.43,1,8.24,8.24,0,0,1,7.76,8.44A8.15,8.15,0,0,1,35,43.39C31.49,43.42,27.93,43.4,24.38,43.4Zm8.26-13.12c-.16-.5-.28-.81-.37-1.13-1.27-4.52-4.63-7.31-8.94-7.42s-7.94,2.54-9.47,7A2.42,2.42,0,0,1,12.41,30c-2.84.87-4.56,3.18-4.24,5.92a5.47,5.47,0,0,0,5.62,4.8c2.37,0,4.74,0,7.11,0,4.8,0,9.59,0,14.39,0A5.4,5.4,0,1,0,34.08,30Z"/><path class="cls-3" d="M15.59,52.28l-1.68-1.6c4.37-5.67,15.34-6.36,20.84,0l-1.92,1.5C27.2,47.59,21.35,47.61,15.59,52.28Z"/><path class="cls-4" d="M24.33,65.07A4.06,4.06,0,0,1,24.19,57a4.06,4.06,0,1,1,.14,8.12ZM26.18,61c-.87-.6-1.46-1.29-1.85-1.19s-.89.88-1.32,1.36c.46.4.9,1.1,1.38,1.12S25.35,61.6,26.18,61Z"/><path class="cls-5" d="M19,73.09V70.58H32.45v2.51Z"/><path class="cls-6" d="M19.42,56.18l-1.53-1.89c2.69-3.69,9.65-3.75,13,.17l-1.83,1.62C25.94,53.61,22.7,53.57,19.42,56.18Z"/><path class="cls-7" d="M32.52,5.57c0,.67,0,1.23,0,1.79,0,.21-.05.43-.08.72H16.34V5.57Z"/><path class="cls-8" d="M6.73,4.87c.65.91,1.3,1.44,1.3,2s-.76.88-1.18,1.32c-.47-.45-1.2-.84-1.32-1.38S6.11,5.79,6.73,4.87Z"/></g></g></svg>