<svg xmlns="http://www.w3.org/2000/svg" xmlns:xlink="http://www.w3.org/1999/xlink" viewBox="0 0 103.47 93.65"><defs><style>.cls-1{fill:none;}.cls-2{fill:url(#linear-gradient);}.cls-3{fill:url(#linear-gradient-2);}.cls-4{fill:url(#linear-gradient-3);}.cls-5{fill:url(#linear-gradient-4);}.cls-6{fill:url(#linear-gradient-5);}.cls-7{fill:url(#linear-gradient-6);}.cls-8{fill:url(#linear-gradient-7);}.cls-9{fill:url(#linear-gradient-8);}.cls-10{fill:url(#linear-gradient-9);}.cls-11{fill:url(#linear-gradient-10);}.cls-12{fill:url(#linear-gradient-11);}.cls-13{fill:url(#linear-gradient-12);}.cls-14{fill:url(#linear-gradient-13);}.cls-15{fill:url(#linear-gradient-14);}.cls-16{fill:url(#linear-gradient-15);}.cls-17{fill:url(#linear-gradient-16);}</style><linearGradient id="linear-gradient" y1="46.83" x2="81.07" y2="46.83" gradientUnits="userSpaceOnUse"><stop offset="0" stop-color="#f2a710"/><stop offset="0.53" stop-color="#f2a612"/><stop offset="0.72" stop-color="#f2a319"/><stop offset="0.85" stop-color="#f29d24"/><stop offset="0.96" stop-color="#f19635"/><stop offset="1" stop-color="#f1923d"/></linearGradient><linearGradient id="linear-gradient-2" x1="31.17" y1="19.85" x2="53.04" y2="19.85" xlink:href="#linear-gradient"/><linearGradient id="linear-gradient-3" x1="61.26" y1="65.33" x2="61.49" y2="65.33" xlink:href="#linear-gradient"/><linearGradient id="linear-gradient-4" x1="28.16" y1="63.99" x2="63.78" y2="63.99" xlink:href="#linear-gradient"/><linearGradient id="linear-gradient-5" x1="35.91" y1="45.26" x2="66.99" y2="45.26" xlink:href="#linear-gradient"/><linearGradient id="linear-gradient-6" x1="18.78" y1="51.5" x2="51.38" y2="51.5" xlink:href="#linear-gradient"/><linearGradient id="linear-gradient-7" x1="35.94" y1="57.74" x2="66.97" y2="57.74" xlink:href="#linear-gradient"/><linearGradient id="linear-gradient-8" x1="18.78" y1="70.24" x2="43.62" y2="70.24" xlink:href="#linear-gradient"/><linearGradient id="linear-gradient-9" x1="31.32" y1="37.46" x2="52.95" y2="37.46" xlink:href="#linear-gradient"/><linearGradient id="linear-gradient-10" x1="46.9" y1="70.22" x2="58.23" y2="70.22" xlink:href="#linear-gradient"/><linearGradient id="linear-gradient-11" x1="18.78" y1="45.28" x2="32.7" y2="45.28" xlink:href="#linear-gradient"/><linearGradient id="linear-gradient-12" x1="18.84" y1="57.76" x2="32.7" y2="57.76" xlink:href="#linear-gradient"/><linearGradient id="linear-gradient-13" x1="54.68" y1="51.51" x2="67" y2="51.51" xlink:href="#linear-gradient"/><linearGradient id="linear-gradient-14" x1="18.81" y1="63.96" x2="24.81" y2="63.96" xlink:href="#linear-gradient"/><linearGradient id="linear-gradient-15" x1="40.09" y1="20.17" x2="46.77" y2="20.17" xlink:href="#linear-gradient"/><linearGradient id="linear-gradient-16" x1="56.27" y1="67.57" x2="103.47" y2="67.57" xlink:href="#linear-gradient"/></defs><title>contracts-and-legal-files</title><g id="Layer_2" data-name="Layer 2"><g id="Layer_1-2" data-name="Layer 1"><path class="cls-1" d="M77.85,86.78a4.14,4.14,0,0,1-3.44,3.56,11.23,11.23,0,0,1-2,.15q-22,0-44,0c-.48,0-1-.06-1.05-.06.36-3,.72-6,1.08-9.13H67.9l2,2c1.53,1.57,3,3,5.44,2.51a10.59,10.59,0,0,0,2.56-2.2A29.81,29.81,0,0,1,77.85,86.78Z"/><path class="cls-1" d="M64.07,3.15H14.86c.27,2.86.73,5.54.74,8.22.06,24.25,0,48.49,0,72.74,0,.73,0,1.47,0,2.2a4.39,4.39,0,0,0,4.14,4.12A4.43,4.43,0,0,0,24.89,86c.08-2.59,0-5.19,0-8H64.58c-2.11-2.11-4.24-4.22-6.35-6.34H46.9V68.83h9.47A4.2,4.2,0,0,1,56.74,66a6.11,6.11,0,0,1,.35-.67H28.16V62.6H63.78a3.86,3.86,0,0,0,.75-.63c1.88-1.91,3.77-3.8,5.66-5.69v-47C70.19,4.6,68.74,3.15,64.07,3.15ZM67,43.84v2.85H35.91V43.84Zm-35.67-4.9V36H53v2.95Zm3.5-30.37a17,17,0,0,1,14.62,0c3.47,1.55,3.6,1.27,3.6,3.71.11,9.47-3.14,15.61-9.72,20a1.83,1.83,0,0,1-2.41,0c-6.6-4.42-9.76-10.61-9.74-18.51C31.18,9.87,31.29,10.15,34.82,8.57Zm-16,35.27H32.7v2.89H18.78Zm0,6.24h32.6v2.83H18.78Zm0,12.46h6v2.85h-6Zm24.81,6.33v2.75H18.78V68.87ZM32.7,59.19H18.84V56.33H32.7Zm34.27,0h-31V56.33H67ZM67,53H54.68V50.08H67Z"/><path class="cls-1" d="M48.36,11.45c-1.76-.46-3.45-1.17-5.2-1.69a3.49,3.49,0,0,0-1.92,0c-2,.58-3.93,1.27-5.86,2-.41.16-1,.65-1,1-.54,6.62,2.18,13.26,7.87,16.5,5.08-3.29,7.67-8.53,7.71-15.42C50,12.53,49.69,11.8,48.36,11.45ZM41.51,24.8l-1.42-2.17c1.41-2.37,2.7-4.56,4.2-7.09l2.48.25A12.78,12.78,0,0,1,41.51,24.8Z"/><path class="cls-1" d="M99.11,87c-1.88,1.79-3.9,1.94-5.41.1C90.28,83,87,78.68,83.63,74.42l3-3.21C91,74.66,95.32,78,99.51,81.48,101.31,83,101,85.19,99.11,87Z"/><path class="cls-1" d="M8.24,3.21C6,3,3.65,4.21,3.47,6.26c-.31,3.58-.09,7.21-.09,10.86h9c0-3.45.1-6.73,0-10A4.26,4.26,0,0,0,8.24,3.21Z"/><path class="cls-2" d="M81,78h-.86a5.3,5.3,0,0,0-.9,2.83,5.18,5.18,0,0,1-1.28,2.85,29.81,29.81,0,0,1-.06,3.14,4.14,4.14,0,0,1-3.44,3.56,11.23,11.23,0,0,1-2,.15q-22,0-44,0c-.48,0-1-.06-1.05-.06.36-3,.72-6,1.08-9.13H67.9L64.58,78H24.9c0,2.8.07,5.4,0,8a4.43,4.43,0,0,1-5.07,4.48,4.39,4.39,0,0,1-4.14-4.12c-.06-.73,0-1.47,0-2.2,0-24.25,0-48.49,0-72.74,0-2.68-.47-5.36-.74-8.22H64.07c4.67,0,6.12,1.45,6.12,6.09v47l3.17-3.14V9.79c0-7-2.74-9.78-9.69-9.78H35.34c-9,0-18,0-27.05,0C3.89,0,.5,2.53.18,6.59c-.35,4.47-.08,9-.08,13.7H12.45V22.7q0,30.88,0,61.78c0,6.2,3,9.16,9.21,9.16H60.78c4.14,0,8.29,0,12.43,0s7.18-2.43,7.66-6.22C81.26,84.37,81,81.25,81,78ZM12.4,17.13h-9c0-3.66-.23-7.29.08-10.87.18-2,2.51-3.23,4.77-3a4.26,4.26,0,0,1,4.12,3.92C12.5,10.39,12.4,13.67,12.4,17.13Z"/><path class="cls-3" d="M49.44,8.58a17,17,0,0,0-14.62,0c-3.53,1.58-3.64,1.3-3.65,5.24,0,7.9,3.14,14.09,9.74,18.51a1.83,1.83,0,0,0,2.41,0c6.58-4.43,9.83-10.57,9.72-20C53,9.85,52.91,10.13,49.44,8.58ZM42.26,29.23c-5.69-3.24-8.41-9.88-7.87-16.5,0-.37.58-.86,1-1,1.93-.73,3.88-1.42,5.86-2a3.49,3.49,0,0,1,1.92,0c1.75.52,3.44,1.23,5.2,1.69,1.33.35,1.62,1.08,1.61,2.36C49.93,20.7,47.34,25.94,42.26,29.23Z"/><path class="cls-4" d="M61.49,65.37h-.23l.11-.08Z"/><path class="cls-5" d="M63.78,62.6a2.38,2.38,0,0,1-1.76.33,5,5,0,0,0-4.93,2.44H28.16V62.6Z"/><path class="cls-6" d="M35.91,46.69H67V43.84H35.91Z"/><path class="cls-7" d="M51.38,50.08H18.78v2.83h32.6Z"/><path class="cls-8" d="M35.94,59.14H67V56.33h-31Z"/><path class="cls-9" d="M18.78,71.62H43.62V68.87H18.78Z"/><path class="cls-10" d="M53,36H31.32v2.95H53Z"/><path class="cls-11" d="M58.23,71.62H46.9V68.83h9.47A5.87,5.87,0,0,0,58,71.44Z"/><path class="cls-12" d="M32.7,43.84H18.78v2.89H32.7Z"/><path class="cls-13" d="M18.84,59.19H32.7V56.33H18.84Z"/><path class="cls-14" d="M54.68,53H67V50.07H54.68Z"/><path class="cls-15" d="M18.81,65.39h6V62.54h-6Z"/><path class="cls-16" d="M46.77,15.79l-2.48-.25c-1.5,2.53-2.79,4.72-4.2,7.09l1.42,2.17A12.78,12.78,0,0,0,46.77,15.79Z"/><path class="cls-17" d="M101.29,79.33c-.81-.74-1.7-1.39-2.56-2.08L88.29,69c1.49-.84,2.64-2,3.83-2,2.4-.06,4.5-.91,5.57-3s.69-3.72-1.29-5.71c-4-4-8-8.07-12-12.09S75.12,43.88,75.38,49A4.42,4.42,0,0,1,73.7,52.8c-.11.12-.23.23-.34.34l-3.17,3.14c-1.89,1.89-3.78,3.78-5.66,5.69a3.86,3.86,0,0,1-.75.63,2.38,2.38,0,0,1-1.76.33,5,5,0,0,0-4.93,2.44,6.11,6.11,0,0,0-.35.67,4.2,4.2,0,0,0-.37,2.79A5.87,5.87,0,0,0,58,71.44l.19.18c2.11,2.12,4.24,4.23,6.35,6.34L67.9,81.3l2,2c1.53,1.57,3,3,5.44,2.51a10.59,10.59,0,0,0,2.56-2.2,5.18,5.18,0,0,0,1.28-2.85,5.3,5.3,0,0,1,.9-2.83,8.44,8.44,0,0,1,1.54-1.58c.45.55.84,1,1.21,1.49,3,3.76,5.87,7.65,9.06,11.25,2.69,3,6.35,2.72,9.42-.43C104.19,85.75,104.19,82,101.29,79.33Zm-24.82,2a2.37,2.37,0,0,1-.63,1c-1,1-2,1.09-3.13,0l-.93-.94L68.46,78q-3.17-3.15-6.3-6.34L60,69.42a2.4,2.4,0,0,1-.38-.59,2.6,2.6,0,0,1-.21-1.74c.23-.68,1.13-1.13,1.85-1.72l.11-.08.12.08a12.5,12.5,0,0,1,1.36,1l2.43,2.43L67,70.57c1,1.06,2.11,2.11,3.16,3.16l3.17,3.15L74.44,78l1.32,1.31A1.92,1.92,0,0,1,76.47,81.3Zm.83-4.93-3.94-3.94-3.17-3.16-3.89-3.9c-.11-.12-.24-.24-.36-.36l1-1,3.23-3.25,3.17-3.17L77.91,53c.6.71,1.32,1.6,2.09,2.46s1.43,1.36,2.33.48.29-1.75-.46-2.48c-1-1-2-2.1-3.1-3.1s-.89-2,0-3a1.83,1.83,0,0,1,3,0q6.4,6.51,12.89,13a2.13,2.13,0,1,1-3.08,3c-1.28-1.39-2.65-2.69-4-4-.74-.74-1.54-1.7-2.58-.59s-.15,1.78.59,2.48l3.58,3.31ZM99.11,87c-1.88,1.79-3.9,1.94-5.41.1C90.28,83,87,78.68,83.63,74.42l3-3.21C91,74.66,95.32,78,99.51,81.48,101.31,83,101,85.19,99.11,87Z"/></g></g></svg>