<svg xmlns="http://www.w3.org/2000/svg" viewBox="0 0 941 505.86"><defs><style>.cls-1{opacity:0.14;}</style></defs><title>image-part-3</title><g id="Layer_2" data-name="Layer 2"><g id="Layer_1-2" data-name="Layer 1"><g class="cls-1"><path d="M228.52,120.82c8.79-6.45,1.7,10.81,0,0Zm-7.13.63c2.39,0,3.7-1.57,3.31-3.6C223.89,118.27,217.38,121.45,221.39,121.45Zm14.26-52.77c1.85-1,3-2.18,5.21-2.44-3.32-3.41-7.83-2.77-12.07-2.71C228.83,68.05,231.61,69.87,235.65,68.68ZM649.94,300.6c-1.54,2.16-.46,14.12,3.62,10C655.88,308.36,650.71,301.49,649.94,300.6ZM818.85,453.86c1,3.56,3.59,7.81,6.63,8.74a3.09,3.09,0,0,0,0-2.08h2.28c.12-3,.89-3.65.89-6.49-2.08.64-10-1.78-9.8-.17C819,454.37,818.82,453.69,818.85,453.86Zm8.49-4.33a2.92,2.92,0,0,0,2.35,2.8c0-2.29-.89-2.8-2.35-2.8C827.34,449.7,827.53,449.53,827.34,449.53Zm-10-.76c-1.5.81-.54,2.12.54,2.54.08-.25.35-2.92-.54-2.54C817.12,448.86,817.5,448.69,817.35,448.77ZM883,473.5c4.43,0,5.47-9.12,10.84-10.31-2.36-5.43,6.55-4.58.15-8.87-5.09-3.34-3,2.38-6.06,6-2.65,3.27-7.67,4.07-9.59,7.85-1.47,2.93-1,6.11,4.66,5.3ZM879.58,475a4.7,4.7,0,0,0-1,1.15h2.2c.12-.81-.08-2.08-1.23-1.15ZM897,441.3c0,1.49.12,5.35.12,5.69,0-.34-2.16-.17-2.2,1.61,0,2.29,1.58-.17,1.93,1.27-.07-.17,2.24,5.43,3.55,5,.5-.17,1.81-2.89,2.62-3.74,4.09-4.24,6.9-9.33-1.35-7.71,0-2.47-1-6.29-2.51-2.55-1.69-1.19-1.92-5.05-3.89-7.21C891.61,429.6,897,439.78,897,441.3Zm-27.14-53.49c2.09,3.52,3.9,6.41,8.33,6.92C877.84,392.6,871.64,387.72,869.86,387.81ZM781.45,361c-3.47.68,1.78,1.48,3,1.36v-1.19C783.65,361,780.41,361,781.45,361Zm31,1.53c-4.09,5.55,1.42,19.17-7.68,16.46,0,0-8.33-5.9-8.48-6.37-1.58-3.77,1.66-5.77,2.7-8.74-4.63-.68-9.14-3.26-13.57-3.26.88.85.77,1.48,2.35,2.5-.81-.55-5.48,2.89-6.71,3.73-3.7,2.59,2,3.1-4.13,4.42-2,.42-3-2.72-6.28-1.36-2.74,1.1-3.09,5.13-6.21,5.13.47,1.1.58,2.89,1.12,3.95h-2.39v-2c-3.63-.21-4.86,8.27-9,10.44-3.13,1.65-7.95,2.16-11.38,3.64-1.5.6-2.5,6-4.28,1.49-1.5,5-1.85,8,.7,13-5.48-2.72.46,6.57,1.58,9.88,2.31,6.71,4.54,11.08-.08,15.45,3.16,0,5,3.85,9.06,3.13,2.31-.34,3.47-3.39,6.06-4,2-.59,4.2,1.62,5.93,1.11s1.89-2.21,3.43-2.89,3.09-2.46,4.75-3.22c1.15-.55,2.16,1.32,3.54.76,4.9-2,10.45-5.17,16.2-1.86,3.43,2,6.74,16.46,10.41,3.48,2.62,1-.12,3,.27,5.43,3.23-2.13,2,.84,1.77,4.07,5.32-1.11,2.93,4,6.86,7.55a28.31,28.31,0,0,0,6.29,2.12c2.7.08,1.85-2.93,3.55-3s1.73,3.52,2.85,3.26c5.47-1.27,11.22-3.56,13.22-9.16,1.31-3.65,1.62-7.42,3.7-11.32,4.17-7.81,4.94-16,1.08-24.4-.85-2-2-2.54-3.27-4.07-.89-1.06-.89-3-1.51-3.77-.19-.22-3-1.11-3.7-1.83-.89-.93-.81-3.18-1.77-4.24-1.31-1.36-4.55-2.38-5.55-3.73-2.47-3.36-3.17-9.93-5-13.15-.58-1-2.27-1.79-3.16-3.31-1-1.87-.5-6.45-3-7.13A10,10,0,0,0,812.42,362.49Zm46.07-5.9c.77,1.31,1.62.89,2.62.47-.5-1.49-3.43-2.38-2.62-.47C858.61,356.8,858.41,356.46,858.49,356.59Zm-13.42-10.14c0,1.27,2.66,2.89,3.39,2.71-.65-1.86-2.62-3-2.62-4.79a2.37,2.37,0,0,0-1.08.13A5.67,5.67,0,0,1,845.07,346.45Zm-15.81-1.78c.31,3.86,10.37,1.95,9.45-4.07-.5.08-9.45,5.51-9.45,4.07C829.3,345.14,829.26,344.42,829.26,344.67Zm-45.92,7.55c0,.59,3.93,1.28,2-2.88A2.21,2.21,0,0,0,783.34,352.22Zm-14.11-1.82c.27,1.57,1.77,1.23,3,.63C771.2,350,770.66,350.74,769.23,350.4Zm23.17-6a4.56,4.56,0,0,0-1.66,3.35C790.74,350.19,795.91,341.78,792.4,344.37Zm-3.85-4.83c2.5-1.24,5.66,1.18,8.09,2.41,2.05,1.06,4.05.43,5.48,3.19,1.93,3.69-.27,2.71.15,4.83.12.55-2.69.47-1.5,2.93.54,1.15,3.7-1.44,4.78-1.15,3.43,1.06,4.78,4.46,9.06,3,2.62-.85,2.51-5,6.83-3.31,1.69.68,2.08,3,3.58,3.9,2.89,1.87,1.47,1.27,5.4,2.29,5.94,1.48,4,2,1-2.54-.42-.69-3.31-.3-3.82-.77.27.25-1.61-5.26-1.23-3.86-.12-.46-3.7-3.35.93-2.88-.89-1.83-5.13-5.22-7.25-6.54-4-2.54-7.14-3.39-11.61-4.88-6.32-2.24-6-.89-11,0-3.12.6-6.51-1.05-10.87.17.46,1.87,1.12,3.65,1.93,3.19C788.7,339.49,788.43,339.62,788.55,339.54Zm-21.79-6.49c-2.39.59,2.16,1.23,3,1.06C769.77,332.37,768.07,332.79,766.76,333.05Zm28.38-2.29a13.53,13.53,0,0,1,.27,3.22h2.74c-.43-1.44-1.16-.76-1.16-3.22h-1.85C795.18,331,795.83,330.67,795.14,330.76Zm-11.53.16a2,2,0,0,0-1.77.64c2.85,1.83,5.94,4.46,9.71,2.55C788.4,327.7,786.5,332.15,783.61,330.92Zm-.65-1c3.74-4.16-6.44-1.36,0,0C783.38,329.4,782.73,329.86,783,329.91Zm-2.78,3.73c1,.51,1.43,3.31,1.85-.25C780.65,333.64,780.49,333.77,780.18,333.64Zm-4.9,3.48c0,1.1,5.75,2.12,7.41,2.12C782.34,335.85,775.78,336.78,775.28,337.12Zm-2.19.42c-.74-.16-1.47-.38-2.24-.55,1.31,3.52,2.81.94,2.24.55C772.74,337.38,773.28,337.67,773.09,337.54Zm3.39-16.37c-2,3-3.36,3.39-3.2,7.63.27,6,1.62-1.27,4.86-.72.19-2-.74-3.73-2.36-3.6a10.07,10.07,0,0,0,.7-3.31C776.21,321.59,776.48,321.47,776.48,321.17Zm-25.75,16.12s2.81,3.9,2.46,3.48a37.23,37.23,0,0,0,.54,3.9c2-1.44,1.5-5.77,1.5-8.15h1.66c.2,1,3.17,8.28,4.32,7.68,2.08-1-1.77-9-3-10.73C770.93,333.47,750.73,325.33,750.73,337.29Zm15.88-12.81c-2.12.85-14.27-.94-13.69,4.66,4-2,5.05-1.61,9.3-2.54,1.31-.34,1.73,1.31,3.31.59.85-.42,4.05-4.07,1.08-2.71Zm-2.86,32.41c0,2.63,9.26-2.38,10.26-3.48C770.39,351.41,764.37,355.7,763.75,356.89Zm-1.11,2.54c-1.12.17-1.39.64-.81,1.53h1.62c.15-.76.12-1.87-.81-1.53ZM754,353.28c2.39,2.63,9.87.47,12.61-.81C764.41,352.05,755,352.05,754,353.28Zm-1,2c-3.44,1.15,2.85,3,4,2.93-.46-.59-2.78-3.18-4-2.93C752.61,355.36,753.19,355.19,753,355.23Zm-6.87-2.59c-2,.17,4.94.64,6.33.64-.43.13-.5-.13-.27-.81a29,29,0,0,0-6.06.17C745.83,352.69,746.6,352.6,746.17,352.64Zm-29.72-5.09c3.12,2.72,7.56,3.53,12.91,4.12,4.25.51,9.53,2.92,14.08,2.2-1.27-2.79-3.93-3.56-6.83-2.92.2-2.12,1.58-1.1,3-2A105.65,105.65,0,0,0,716.45,347.55Zm-8.37-4.36c-.58,1.4-.19,2.07,0,0Zm19.47-20.54c-3.62,2.8-1.35,7.85.7,10.82,3,4.46,4.2,4,9.87,5s3.89,2.71,7.13-2.55c.15-.25.73-4.41,1.35-5.6.85-1.53,4-2.2,4.94-4.5-3.63-2.58-2.63-3.26-3.44-9,2.78.17,1.93-1.87,4.67-2.93.23.73-6.6-5.21-6-5.3-2.16.17-3.74,4.24-5.43,5.9C737.54,318.2,731,325.45,727.55,322.65Zm-28.92,8.91c.16,2,3.17,6.92,4.94,7.34-.38-2.72-4.94-7.12-4.94-7.34C698.67,332,698.63,331.26,698.63,331.56Zm-4.39-6.66c.69,1.45,2,1.87,2.62,3.35,0-1.82-.46-3.14-2.2-3.94C694.16,325.75,694.63,325,694.24,324.9Zm-2-3.94c0-.47-.85-1.74-.85-.39a1.8,1.8,0,0,0,1.65,2C693.35,321.76,693.08,321.26,692.2,321Zm1-6.92c-1.54,0-2.39-1.69-3.86-1.48.66,3.52,5.71,7,7.41,9.37,2.66,3.61,4.85,8.95,7.67,13,1.93,2.67,6.48,10,9.06,10.06,5.71.17,2.47-5.9,7-7.43-.5-3.9-3.78-5.34-6.59-3.14-.31-4.45-15.27-19.68-20.67-20.36C692.93,314,693.78,314.13,693.16,314ZM764,303.61c-3,.33-5.56,2.54-4,6.19,2.38-6.36,5.89.93,9.71,2.76-1.35-3.19,1.08-3.86,1.12-3.95.08-.59,1.2-8.31-1.24-8.31s-2.89,5.34-5.62,3.31C763.6,303.69,764.22,303.78,764,303.61Zm-8.1-14c-.08,1.1,3.08,9.67,5.36,9.2-1.16,2.8,2.93,4.71,1.93-.76-.47-2.33-5-8-7.29-8.44C755.89,290,756.08,289.69,755.93,289.61Zm4-.43c3.43,2.63,5.71,7.68,9.41,8.49,0-4.62-3.9-5.69-3.9-9.8-2.23,0-3.35,1.31-5.51,1.31C760.32,289.52,760.32,289.18,759.9,289.18Zm-5.21,2.72c-2,4.33-7.28,8.65-8.36,12.21,4.55,0,8.36-7.25,8.36-12.21C754.62,292.11,754.69,292.41,754.69,291.9Zm2.13-17.69c-4.05,2.42-3.05,11.5,1.58,13.11C758.2,284.43,764.06,274.21,756.82,274.21Zm2.66-19c0-1.44-5.44,3.44-4.63,9h1.62C756.47,260.42,759.48,258.6,759.48,255.16Zm69.94-67.49c-2.74.55-4.51,3-8.1,3.31-3.93.34-5.75-.51-9.87-3-.16,1.35-1.77,11.66-3.43,7.89-.73,1.4-3.2,7.93.81,5.85v1.53c-2.43.46-3.59,9-6.28,12.39,0-.94.07-1.45,0-2.42a9.16,9.16,0,0,0-2.74,4.49c-.62-.93-1.62.68-1.24-1.95-1.77,1.4-2.43,3.31-2.7,6.2-5.47-2.64-15.69,2.37-16.65,9,1,.08,2.5,0,3.16,0,0,2.93-2.93,4.24,1.12,5.51,0-3.09,4.51-7.55,0-8,1-3.14,7.79-3.14,10.68-3.69-3.13,2.16-8.14.08-7,5.89a22.62,22.62,0,0,0,6.71-4.24c1.27,3.23,4.78.72,4.24-2.08,10.83-1.35,8.79-1.95,11.37-11.92,1.43-5.51,3.12-9.84-1.62-14.17,3.2-.67,8.56,2.63,8.37-1.23,2.35.56,13.15-6,13.15-9.33C829.22,187.67,829.42,187.84,829.42,187.67Zm5.09-2.88c-1.16.21-1.74,1.1-2.78,1.69,1.7,1.11,2.16-.08,2.78-1.69C834.31,184.83,834.28,185.38,834.51,184.79Zm13.42-16.12a13.89,13.89,0,0,1-1.66,3.48C848.5,171.13,847.89,169.18,847.93,168.67Zm32.76-15.87c-.26,0-.76-1.52-1.5-.89a5.31,5.31,0,0,0-.15,1.74C879.5,153.78,881.24,154,880.69,152.8Zm-3.69.47c-.55-1.7-.39-2.76-1.82-4,0,1.62.31,3,.43,4.59,1,.29,1.65.33,1.39-.64C876.92,153.06,877.07,153.48,877,153.27Zm-7.17-16.38c1,0,1.73-1.35,1.81-2.16-2.39-1-2.62.6-3.55,2.16A3.93,3.93,0,0,0,869.83,136.89Zm63.34-21c2.31.42,5.52,1.52,7.83,1.18-2-4.24-6.21-1-7.83-1.18C933.6,115.94,932.94,115.81,933.17,115.9Zm-24.25-37c3,.74,6.63-.72,9.72-.72-.81-1.38-3.32-3.31-5.4-3.19-.73,0-6.63,3.27-4.32,3.91ZM823.25,55.85c2.7,1.17,11.6,4.73,11.6-.78-3.81-.22-9.63.38-11.22-2.55-.27.3-1.23,2.93-.38,3.33C823.4,55.89,823,55.7,823.25,55.85ZM806.79,65.5c3.31.57,6.28-.19,9.44,1C815.15,61.41,810,62.72,806.79,65.5Zm2.73-3.8c1.81,0-1.54-1.69-2.58-1.65C806.94,61.87,808.06,61.7,809.52,61.7Zm-10.26-6.78c3,4.77,19.71,3.48,20.83-2.55-2.66-.55-6-2.31-6,2.48a4.57,4.57,0,0,0-1.65,0c2.89-6.66-3.44-2.86-5.56-2.92C802.62,51.78,801.54,49.51,799.26,54.92Zm-2.89-1.21a2.43,2.43,0,0,1,0-1.8c-3-.47-1.5,3.05,0,1.8C796.33,53.52,796.11,53.94,796.37,53.71Zm-1.5,6.49c.93,2.46.81,3.94,3.55,3.54A18.88,18.88,0,0,0,794.87,60.2ZM721.92,38c-.77-1.59-3.08-2-4.62-1.18.38.48,5.28,3,4.62,1.18C721.81,37.78,722,38.25,721.92,38ZM690,45.12a8.25,8.25,0,0,1,2.89,0C692.54,41.32,691.08,44.31,690,45.12Zm11.91-5.43c.54,0,13.54-3.06,13.84-3.46,3.21-4.62-6.4-4.16-7.13-4.52.66-.74.93-.76,1.12-1.67C704.07,29,701.3,39.69,701.91,39.69Zm-8.75-14.91c-9.56,1.52-8.21,7.44.58,8.33,6.67.7,7.13.87,6.79-3.52-.43-6,0-3-5.06-3a3.82,3.82,0,0,0,.7-1.78C695.13,24.78,694.16,24.76,693.16,24.78Zm-8.25.59c3.81,2.23,9.18-3.6,11.38-5.13-5-2.63-11.81-2.93-15.78,2.86.24.49,3.47,1.78,4.4,2.27C685.1,25.5,684.79,25.27,684.91,25.37Zm-1.08,1.36c-1.81,0-3.12-1.15-5-.76C679.05,32.1,686.34,26.73,683.83,26.73Zm-5.63-9.82c-4.12,0-.93,1.89-1.23,2.42C676.16,20.81,682.29,16.91,678.2,16.91Zm-107,70.73c-2.39-.44-6.37-3.54-4.63,2.72,1.54,0,4.36-.87,4.63-2.72C571.09,87.62,571.21,87.84,571.25,87.64ZM581.81,65.8c-2.43-.26-7.44,6.72-7.44,10.39,1.43-.32,2.39-1.31,3.2.6a.94.94,0,0,0,.54-1.19c3.12,1.74,1,3.69,2.66,4.52,2.2,1.06,6.44.67,8.87.67-.31-3.67-4-4.83-4.24-8.23-.31-4.2,2.89-6.63,5.2-9.2,5.48-6,10.6-9.31,18.62-11.45,2.35-.64,12.3-2.91,11.26-5.73-1.54-4.14-7.28.51-9.33,1.19-5,1.76-21.51,2.22-21.51,8.9a9.21,9.21,0,0,0-3,0c2.55,4.82-6.44,4.65-5.63,7.87.93-.21,1.2-.59,2.2-.46-.5,1.42.85,2.31-1.39,2.12Zm41.26,1.36c2.15,0,3.35-1.49,3.93-1.83C628.16,64.65,619.63,67.16,623.07,67.16ZM603.48,19.33c3.08,5.11,5.16.25,8.63-.45C608.92,16.89,606.48,20.43,603.48,19.33Zm-6.71,0c0,1.76-1.12,1.25-1.93,2.71a14.37,14.37,0,0,0,7.68.38C600.24,19.26,600.47,17,596.77,19.33Zm-1,5.45a7.29,7.29,0,0,1-2.2.44c.38,2.08,1.62.91,3.16.6-.16-.83,0-1.3-1-1C595.58,24.84,596,24.74,595.81,24.78Zm-9.6-.91c1.27,1.2,1.46,3.07,3.43.29,0,3.37,4,.21,4.51-.29a2.49,2.49,0,0,0-.16-1.21C591.56,22.15,587.71,23.34,586.21,23.87Zm-7.83.29c2.27-2.54,7.09-3.65,10.56-2.73-.81-5.43,4.52,1.91,5.21-3.14a18.71,18.71,0,0,1-3.43,0c.46-.75,1.35-2.48,1.65-2.87-1.88,0-3.12,1.32-4.12,1.66a29.25,29.25,0,0,0-3.7,1.21c-1,.68-1.35,2.2-2.74,3.31C579.88,23.12,579,21.94,578.38,24.16Zm-11-4.07c-4,0-5,1.57-8.91.74.2,3.25,5.25,1.06,7.56,1.06-4.78,3.82,3.28,4.78,5.63,1.36C575.49,17.67,571.9,20.09,567.43,20.09Zm-78.54,5.13c.89,2.48,5.86-.85,6.83,2-1.35-.08-2.74.07-4.13,0,2.51,7.66,16.19.83,19.35-1.2-3.08-3.76-7.4-.64-10.14-1.53.51-1.13,1.2-.91,1-2.25-3.24,1.4-2.39.19-4.28,3.78-1.2-3.44-10-4.23-8.6-.75C489,25.5,488.74,24.88,488.89,25.22Zm-5.51,11.46c0,.82-7.33.34-8.21,3.62,1.77-.42,7.32-1.82,8.05-.76-1.12.81-7.09,1.87-7.17,2.42-.15,1,5.21,3.88,6.36,5.58,3.55-2.95,6.94-8.68,6.94-12.75a13.41,13.41,0,0,1,3.9,0c-.46,3.67.38,1.06,1.81,3.18,1,1.55-1.12,2.86-1.12,4.45,3.78-2.58,4.16.85,5.63.6s4.2-2,5.74-2.42c-1.65-2.42-3.35.36-3.35-3.16-1.62.23-12.53-6.91-12.84-8a2.25,2.25,0,0,1-2.2,0,14.62,14.62,0,0,0,1-2.39c-4.13-2.15-4.24.33-6.17.93.92-.3-1.47,2.54-1.74,2.63.62-.23-1-3.59-1.31-3.67.39.13-4.59,2.12-4.51,2.06.54-.94.77-1.93,1.23-2.72-2.42.58-12.64,3.27-4.51,4.52,0,1.15.2,4-.15,5-1.5-.82-1.31-2.27-3.16-2.71.73,1.61,3.66,6.91,3.66,2.12,1.74.17,1.85,3,4.28,2.1,1-.34,1.5-2.29,2.43-2.4.12,0,5.13-.53,5.4,1.81C483.38,36.78,483.3,36.15,483.38,36.68Zm339.17,97.63c6.87,0,8-3.23,12.77-2.12,2.62.55-.51,2.54,2.19,3.3,3.9,1,2.63-3.22,6-.33.27-2,1.47-.43,3-.6-.85-3.77-2.16-.42-.81-4.37.58-1.74,4.16-5.64,5.39-6.4,4.44-2.72,8.18-1.66,8.18,3.86,6-1.23,7.48-10.18,13.15-9-3.78,3.39-5.09,8.73-9.3,12.55-5.32,4.84-12.07,7.51-13.95,13.83-1.35,4.63-1.24,11.12-.43,15.36,1.12,5.81.54,6.74,4.47,4.45,4.21-2.42,4.56-12.89,11.15-11-1.78-3.69-.43-8.69,3.39-6-1.23-3-.19-5.81-.54-7.68-.23-.93-1.81-.25-2.47,0,.12-1.48,2.32-7.3,3.16-8.14,2.28-2.29,2.55-1,5.4-1.7,1.55-.34,1,1.19,2,1.1,1.42-.12,1.81-2.67,3-2.75,1.46,0,2.85.5,4.35.29,3.43-.42.62,2.29,3.32,2.89,0-7.17,15.5-11.58,19.89-13,4-1.23,4.4,3.86,3-2.72-1.24-5.85-4-3.52-7.4-6-2-1.61,8.13-1.23,8.09-1.19,2.93-1.29,3.86-3,2.47-6.34,2-.15,2.35,2.18,3,2.27a43.56,43.56,0,0,1,5.2,1.19c2.78,1.44,2.09,2.37,5.63,3.3,4.86,1.36,1.12.94,3.7-.17,2.12-.84.43-3.13,1.66-4.32s8.48,2.35,5.48-3.5c-1.08-2.08-8.72-3.52-10.57-2.7,1.7,1.28,2.12,4.29-.69,2.1-1-.78.42-3.79-.89-5-.69-.62-2-.11-2.58-.66a45.79,45.79,0,0,0-5-3.48c-2.86-1.67-4.67-2.82-7.68-4.43-6.16-3.31-19.47-5.85-23.44-1.38,6.9,3.08-10.83,5.83-1.39-.91-2.85-2.35-5.24.87-8.09,1.31-3.47.51-9.56,1-12.61-.7a20.22,20.22,0,0,0,0,3.48c-4.36-5.32-4.13-11.47-13.15-10.88-3.35.24-6.59,1.4-10,.64-4.44-1-5.29-3.48-9.18-4,.81-1.1-.65-.68,1.35-1.8-5.82-3.6-12.53,5.47-10-2-2.89,0-5.82-1.76-8.86-1.82-5.79-.13-4.44.89-9.76,1.82,0,2.61,2.74,2.46,2.74,5.26a32.71,32.71,0,0,0-6.44-1.12c.5.78,1.85,2,1.35,3.24-2.62-.55-3.12-2.78-5.59-3.29.11,0-6.52-.08-6.87,0-3.58,1-3,4.9-5.74,4.9.08,0-5.13-5-5.51-6-.46-1.31,1.5-5.58,0-7.55-2.36-3.05-4.28.25-6.71-.44-5.44-1.57-7.13-5.65-7.13,2.58-4.24,0-6.64.49-10.45-1.23-1.39-.63-2.2-2.67-3.94-3.16-3.31-.93-9.25.81-12.83.81V62.77c-1.28.44-3.32,1.84-4.48.59.31,0,6.13-3.14,3.44-3.9-3-.89-4.75,4.37-8.76,3.62.58,4-5.43,3.61-8.67,3.61,3.47-.36,18.74-10.59,19.08-12.66,1.47-9.08-14.15-8.3-17.7-6.81.7-.94,1.24-1.13,1.24-2.55-2.05.24-4-.46-6-.46a19.89,19.89,0,0,1,2.36-3.29c-8-.68-8.26,2.33-13.19,5.11a2.41,2.41,0,0,1,.69,1.63c-5.43-1.4-5.86,2.68-10.41,3.23-1.66.17-4.66-2-7.13-1.7-.46.06-5.55,3.48-7.83,4.09a52.93,52.93,0,0,0-6.94,1.93c-.88.39-5.7,2.25-6.2,3.12-2.28,3.71,4.2,1.21.19,4.44-4.4,3.54-12.61-1-17.08,3.33,1.2,3.11,9.14,8.2,4.67,8.59-1.28.1-2.94-2.57-3.71-2.85a13.6,13.6,0,0,0-9.17-.63c1.27.68,2.89.53,2.89,2.56-10.22-.72,1.66,1.87,1.19,5.43-1.65-2.82-6-1-8-3.75-.7-1,.11-5.75-.7-7.55a1.18,1.18,0,0,1-1.12.3c0,5.57-3,3.33-3.54,6.63,0,0,.84,9.25,1,9.59,2.93,5.26,2.12.51,5.7,2,4.44,1.93,4.21,4.47,4.21,7.67,0,1.15,3.47,1.74,4,1.83-5.71,4.14-4.55-11.5-12.3-4.56,0,0,.27,4.13-.31,5.15a8.72,8.72,0,0,1-3.74,3.55c-4.17,2.58-4.09,1.52-9.41,1.12,1.16-1.87,5.48-1.55,7.67-3.61a9.74,9.74,0,0,0,3.4-7.34c-3.17.3-4.28-13.46-4-17.32h1.78c.93-5-6.6-6.32-9.87-3.63-.43.38-5.63,9.61-5.75,10,.89-2.73.93,6.56.16,4.88.69,1.61,2,1.21,3,3.41.62,1.45,3.55,1.38,3,3.63-.92,4-4.51-1.44-4.66-1.5-4-1.19-7.1-2.8-11-4.23-2-.74-9.26-4.87-10.41-4.66-5.05.85,9.52,7.23-.24,11.45,0-8.4-15.88,6.09-13-3.46-4.2,2.72-9,2.83-13.23,5.94-.73.55-9.87,9.76-9.25.47,6.94.25-1.15-4.88-5.09-4.88,1.74,1.89,3,11.48,1.24,12.64.42-.25-4.09-1.4-5.36-1.12-1,.21-3.78,3.67-5.75,3.84.54.87,2,3.43,1.93,4.71-2.81-1.62-6.13-.09-8.48-3.35-5.67,3.35,2.85,3.77,2.85,5.72,0,1.53-4.28.81-4.63.6-4.24-2.21-2.12-1.66-4-5.09-1.59-3-5-6.77-7.52-10.44,2.27.47,26.29,10.94,23.44-1.36-.7-3-7.21-5.68-9.72-6.7-3.93-1.61-9.79-.44-11.53-1.61,2-4.63-6.09-3.14-7.94-5,3.08,0,1.5-1.57-.07-2.48-4-2.31-2.36.59-5.17.59a19.79,19.79,0,0,0,.85-2.94,10,10,0,0,0-3.78,0,35.28,35.28,0,0,0,0,3.71c-.7-1.89-1.31-1.53-2.66-2.89-.5,3.31-1.85,4.71-1.85.47a5.61,5.61,0,0,1,2,0v-2c-1.16.19-8.59,4.56-5.9,1.35-5.74-.63-5.24,2.8-2.19,4.67-1.66-.72-3.86-.11-5.59-.74,0,1.74.27,2.2-.85,3.18,0-2.16-2.86-4.14-4.78-3.92.77,3-1.82,7.67-2.32,3.3-3.35,3.7-.23,1.07-1.39,5-2.81-1.25-2.16-.38-3-3.48-1.16.45-1.81,1.8-3.59,2.72.5,1,.43.53.43,1.5-2.59,0-4.13,1.34-5.48,3.31,2.86-1,7.06-3.92,10.1-2.25-4.05,1-10,8.59-10.79,14-1.35.13-3.4,1.59-4.55,2.82h2.2c-.32,3-6.56,5.94-8.49,5.48a4,4,0,0,0,.27,2.24c-7.44,1.7-8.37,6.45-9.87,12.39,6.17-.21-2.19,4.07,3.44,4.58-.12,1.7-.89,2-.7,3.57,6,0,8.29.76,12.34-4.84,2.66.51,4.66,10.94,7,13.87.66.85-1.5,2.33.2,3,3.93,1.7,2.23-1.44,3.89-2.12,3-1.14,4.59-2.29,7.13-3a2,2,0,0,0,0-1.52c-1.46.17-1.89.12-2.73-.6.84-1.48,4.39-6.36,4.66-7.12.89-2.51,4.25-4.67-.81-4.67,0-4-3.12-7.72.66-12.51,1.89-2.47,5.39-2.59,7.13-5.14,1.16-1.65,1.2-6.42,3.89-8.29,2.09-1.42,6.87,1,7.21,3.71.81,5.85-16.38,9.12-8.48,19.22,5.55,7.08,15.27-1.53,21.79,2.58-3.63,4.08-8.83,2.3-13.15,2.89a75.39,75.39,0,0,0-7.71,2.54c.62.26,1.08.6,1.66.85a9.81,9.81,0,0,0-3.44.94c1.51,4.32,4.36-.68,5.37-.17,1.88,1,2,2.12,3.7,3.35-4.71,6.57-4.4-1.1-7.14,0-3.31,1.31-3.08,9.2-3.16,11.15-2.81,0-6.44-1.69-4.09,2.55-4.24-4.75-6.59.34-11.25.81-1.59.12-8.37-4.25-8.83.55a8.4,8.4,0,0,1-4.48-1.66c.51-5.21,7.29,2.21,6.6-7.08-1,.51-4.32,1.78-4.94,1.53a16.61,16.61,0,0,1,.81-3.23,1.78,1.78,0,0,1-1.62,0c.62-4.92-.54-5.81-4-1.91-2.43,2.72-.65,5.64-.77,8.27-.27,6.79,1.54,3.06-3.24,6.11-2.43,1.57-6.67,3.14-9.4,3.14,3.5,5-3.32,4.46-5.91,6.62-.26.21-2.38,5.6-3.15,5.85-2.59.9-4.17-1.69-5.87-1.52,4,7.59-3.93,2.29-6.32,4.32-2.89,2.46.77,1.62,1.7,3.1,1.35,2.08,2.93,2.93,4.31,6.07,7.79,17.09-11.1,6.53-18.77,10.09,1.46,5.48-.7,11.88.54,17.18,1.12,4.75-.35,1.83,3.43,4.5,2.39,1.7,3.62.09,5.9,3.18.5-.64.42-.93-.27-.89,3.93-1.53,8.83-3.31,11.95-6.49,1.27-1.31,1.89.34,2.85-1.14.58-.9-1.15-2.38-1.08-2.47.47-.72.82-3.73,1.78-5,1.27-1.7,6.82-3.48,7.79-4.37,1.15-1.06-.81-3.27,1.27-4.67,1.73-1.18,4.9,1.49,6.82,1.11.74-.09,4.36-4.93,6.33-4.59,2.66.51,5.32,6.07,7.52,8C477,205.28,488.7,213,472.16,213c4.43,8.52,11.41-.34,13.3-5.39h-2.35a7.93,7.93,0,0,1,.11-1.61,24.43,24.43,0,0,0,5,1.06c-1.69-3.61-6.43-7.76-10.56-8.44.43-2.84-3.85-6.41-5.78-6.24.58-9.5,6.13-1.06,10.37,2.34,2.89,2.33,6.67,3.94,8.29,7.21,1,2,2.39,7.46,3.43,9.67-1.12-.38-1.43-.64-2.46-.42.88,2.58,2.12,3.81,3.7,1.78,1.65,9.33,7.28-.68,10.41-1.23-.51-1-1.16-1.78-2.2-1.78a2.38,2.38,0,0,1,0,1.78c-1.62,0-5-5.56-4.51-6.75,1.65,1,2.58,1.61,4.39.72a.92.92,0,0,0-1-.72c6.21-10.05,9.64,16,10.6,16s.85-3.4.85-3.86c2.39,2.33,4.32,1.86,6.21,2.16-2-.3,3.16-1.44,3-1.44,2-.09,2.85,2.63,6.06,1.78a19.23,19.23,0,0,1,0-2.63c6,1.36,6.47,3.65,4.28,10.69-.74,2.46-3.55,6.45-5.48,7.38-2.35,1.1-4.55-1.53-6.75-.25,3.43,1.78,5.83,13.1,9.72,8.74,5.82,6.7,7.25,15.86,11.07,22.9,2.42,4.41,7.4,7.89,9.48,13,2.81,6.87-.93,11,7,11.2,3.54,0,7.75-3.73,11.26-5.34,4-1.78,6-3.65,9.17-5.26,4.13-2.08,6.6-1.19,9.45-4.84,1.35-1.61,4.12-5.77,5.9-5,0-4.24.08-4.41,2.89-5.73-.31-2-3.43-4.33-4.82-5.6-2.47-2.33,0-4.75-3.55-.89-.38-1.82-.88-5.81-2.19-6.91-1.51,2-2,2.2-2.2,5.43-5.48-.51-14-.3-4-2.29-.16-.69-7.87-3.06-8.25-3.31-1.2-.94-4.86-5.39-5.17-7.38-1-7,2-4.67,5.74-1.79,4.63,3.48,6.21,5.09,11.65,7,.92.34,3.12-.35,4.39,0,1,.29,1.2,2.67,2.51,3.3,2.43,1.28,8.48,1.87,11.34,2,6.59.25,8.44-.39,13.72,2.92,2.86,1.78,3.12,4,7.4,4.93-7.55,0,1.12,4.32,2.86,5,2.85,1,1.35-4.24,4.39.47,1.51,2.2.31,5.09.7,7.54.77,4.84,2.35,8.7,4,13.24,1.08,3.05,3,13.07,5.74,14.8,2.85,1.75,5.71-1.39,7.29-5,1.08-2.42,1.08-5.22,1.35-7.93.15-1.44-.35-4.08.08-5.26,1.42-4,1.11-.09,3.78-3,5.12-5.43,11.18-13.66,15.92-16.54,1.81-1.15,9.87-3,10-2.89,1.55,1.1,5.09,9.88,5.09,11.88,4.71,0-.69,4.32,2.74,7.29,2.32,2,4.94-2.25,5.36-2.12,3.66,1.1,6.21,11.71,6.13,16.08,0,2.33-3.28,4.79-1.85,8.78.85,2.38,4.16,4.58,5.36,7.59,1.43,3.65,4.4,16.76,10.76,13.41-2.16-4.11-2.16-11.41-4.36-14.42-3.2-4.2-6.94-4-7.83-10.1-.19-1.4-1.42-7.51.66-9.42,3.35-3,.58-.72,3.85,1.23,2.86,1.7,2.59,1.62,5.13,5.1.58.8,2.66,1.44,3,1.95.93,1.69-.27,3.17,1.08,5.76,2.74-4.24,6.9-5.34,9.06-8.61,4-6,1.51-11.07-1.77-15.74-5-7.12-6.29-15.77,5.2-15.77C728,269,723,273,725,274.85c4.7,4.58,5.7-8.83,5.59-8.74,2-2,6.48-2.17,8.79-3,3.39-1.19,4.51-2,7.36-4.37,4-3.27,11.3-10.44,12.23-16.33.69-4.33-1.39-1.66-1.78-4.59-.23-1.61,1.2-1.27.7-4.15-.62-3.48-5-7.81-4.94-10.31.16-4.79,4.59-3.18,6.17-5.73,1.39-2.25,1.39-2.12-2.7-3.77-1.81-.68-1.35,2.33-3.7,2.33.66-5.64-6.05-1.7-3.09-7-.18.39,5.33-2.29,5.63-2.46,6-2.5,4.25-3.31,1.78,3.65,1.77-1.1,6.52-3.86,8.52-2.88,4.2,2.08.89,2.8,1.23,6.61,6.48-3,4.52,8.32,3.82,11.75,4.63.56,9.87-2.84,9.76-7.76-.08-4.41-5.17-4.92-4.13-11.07.23-1.23,2.28-.3,2.47-.89.07-.17.73-4.92,1.12-5.47.92-1.4,2.46-4.24,4.2-5.09,1-.47,4.62.42,6.48-.17,2.46-.77,3.12-1.44,5-3.31a65.87,65.87,0,0,0,9.21-11.92c2.47-4,1.77-7.26,3.43-11.41,5.32-13.75,2.93,13.36,2.93,17.14,1-1.11,1.78-.51,2.66-2.72,1.24,1.27.16,2.29,2.78,2.42-.73-5.52-6.09-10.39,1.35-10.39.19,0-3.55-18.75-3.7-21h-1.08c.19,4.5-1.12,4.16-1.12,8.31-3.12-2-2.51-6.44-8.21-8.31-.66,4.58-2.66,3-4.4,0a6.16,6.16,0,0,1,0,2.42c-2.43-.38,0-2.08-1.77-3.78-3.86,4.24-.08-2.16,1.35-3.9,2.16-2.63,4.43-4.41,6.78-7.64C810.68,134.73,815.11,134.31,822.55,134.31Zm-399.63,2.8a5.44,5.44,0,0,0-2.89,3.48c1.16-.34,5-3.91,2.89-3.48C422.42,137.28,423.07,137.11,422.92,137.11Zm2.89,33.81c2.78,0,4.86-2.13,6.44-2.42,2.43-.43,5.86.85,7.83-.13,3.47-1.74,4.59-5.47,3.66-8.91-.58-2.2-2.08,1.32-2.16,1.23-.92-1.06-.77-2.8-1.5-3.48-1.24-1.18-2.93-4-4.55-6.06-2.47-3.18-2.78-2.42-3.16-5-.23-1.7,6.09-8.32-3.28-5.27.77-1.48.89-2.71,2.35-3.64-3.08-3.4-4.43,1.86-5.59,2.88-.19.17-6.44,2.5-1.54,3.44-.43,1.57-2,3.86-1.93,4.83,1.62.22,3.66,1.66,4.09-.29-.39,5.89,2.43,2.63,4.43,7.38,2.28,5.51-2.39,1.74-4.82,5a17.4,17.4,0,0,0,2.74.3c0,1.65-3.7,2.33-2.47,3.9.77,1,4.63-.46,5.9.89C431.75,166.12,424.12,170.92,425.81,170.92Zm-2.35-15.53c6.09-1-9.68-9.59-6-1.53-2.9.6-6.79,5-2.05,4.8-6.17,9.84,2.43,3.31,7.67,4.58A77,77,0,0,0,423.46,155.39ZM570.17,385.1c0-5.82,3.77-17.78-2.47-20.49,0,2-2.43,6.79-3.55,7.89-2.31,2.33-5.9,1.35-8.25,3.86-1.81,1.95.23,8,0,9.63-.43,3.05-1.62,3.43-2.2,7.25-.73,5,.31,12.3,6.33,10.86,5.78-1.4,3.93-3.35,4.93-9,.08-.68,1.54-7.13,1.66-7.26C567.08,387.09,570.17,386.07,570.17,385.1ZM524.63,241.16c-2.62-6.87-4.12-4.24-9.87-5-8.29-1.1-14.69-4-22.47-6,0,8.27.15,6.74-4.94,6.83,1-.09-4.47-1.78-3.94-1.53h-4a6.6,6.6,0,0,1-.81-2.42c-2.43-.89-9.76-2.2-11.26-4.45-2.82-4.16,3.16-4.92-1.93-8.53,1.35-1.23,1.2-1.4,3-1.82-2.58-4.84-9.67-.34-13.45-.26-4,.09-8.29-1.87-13.42.6-3.47,1.61-5.82,3.86-10.41,3.73-5.55-.08-8.52-4.33-8.52,3.6h-4.12c1.85,7.34-3,2.59-4.09,5-1.74,3.86-1.16,8.44-2.74,10.9-1,1.44-4.59,3.4-6.05,5.43s-3.47,5.6-5.21,8.4-8.64,9.93-7.67,14.17c.27,1.19,4.16-.51,4.78.94.54,1.14-.77,1.69-.54,2.37,1.08,3.14-.73,8.32-1,11.5-.27,3.86-.58,7.16,3.31,11.58A175.38,175.38,0,0,0,412,309.37c1.58,1.53,2.35,5,5.75,5.77,3.81.77,4.32-1,7.94-1.52,3.16-.43,5.55,1.1,7.71,1,4.55-.17,4.24-2.08,7.94-3.48,3-1.1,9.49-.81,11.22,0,2.74,1.36,2.05,3.56,6.09,4.58,7,1.7,6.64-2.12,6.79,6,.08,3.82-1.31,8.7-3.28,10.86,8.79,3.06,14.58,22.83,13.15,32.24s-6.59,9.89-2.16,19.94c2.74,6.28,3.63,10,5.2,16.88,1.59,7.13,6.64,12,8.49,18.42,1.58,5.51-.85,7.25,1.66,10.26,6.63,8,24.17-1.44,29.34-7.55,2-2.38,5.4-6.49,6.55-9.33s-.38-6.79.27-8.49c.58-1.35,4.94-2.21,6.33-4.24,3.74-5.35-1.89-7.63-.82-13.23.85-4.54,8.49-6.88,10.69-9.08,5.43-5.35,5.74-11.33,4.39-19.39-.77-4.54-4.59-11.28-3-16.8,2.08-7.42,10.72-14.59,15.89-19.6a49.75,49.75,0,0,0,10.14-13c1.73-3.35,2.85-3.64,3.28-8.14.69-7.09,1.73-5.39-3.82-5.43-7.71,0-10,3.18-15.35-3.27-3.08-3.77-8.06-7.29-11-11.49s-5.89-13.54-7.67-18.41c-2.66-7.47-4.2-15.15-9.06-21.77C524.44,240.66,524.94,241.59,524.63,241.16ZM245.79,472.1c-1.08-.25-1-2.12-1.77-2.12.35,0-2.47,3.56-2.47,3.52,0,.55,5.09,4.88,5.48,5.09a1.76,1.76,0,0,0-.27,1.23c-8.79,0-1.77,8.53-3.16,12.05a6.2,6.2,0,0,1,2.19,0,1.21,1.21,0,0,1-1.23,1.4c1.43,1.65.69.68,2.08,1.06-.46-.17,5.79,8.61,6.83,9.33,5.24,3.56,10.21,1.83,15.23,1.4-.23-1.78-6.52-3.77-7.83-7.21s-4.05-11.88,1-11.32c0-3.48,6.37-7.39,5.9-9.89-.5-3-6.86-1.19-4.66-7.09.69-1.86,4.16-.84,4.93-1.86s-.23-2.46.7-3.57c-.62.77,3.24-6.61,2.73-3.9.89-4.83-3.27.13-2.35-7,6.44,2.84,7.71.25,6.75-6.32,5.32.17,11.72.38,14.15-5.3,2.62-6-2.39-4.67-3.35-9.93,5.93.85,8.17,3.14,12.76-1.36,2.16-2.12,3.85-10.64,6.28-10.26-.34,1.19-.54,1.31-.27,2.42,7.06-3.86,5.09-14.85,9-19.9,2.5-3.31,6-4.92,9.52-6,5.63-1.78,7.17-1.36,10.33-7.43,3.74-7.16,2.2-18,5.21-23.8,2.2-4.19,7-6.7,8.29-11.53.89-3.23.69-3,0-6-1.62-6.45-1.54-2.21-5.21-5.39-4-3.39-5.59-4.16-10.52-5.17-2.66-.6-12.07.12-8.14-2.13a17.49,17.49,0,0,0-5.74-3.13c-4.82-1-3.74.16-7.13,1.78a45.18,45.18,0,0,0,1.77-4.33,26.51,26.51,0,0,1-4.28-1.27c-1.23-.43-.54,3.05-3.12,2.71.5-1.27,5.51-8.19.81-8.19.81-9.16-6.91-9.63-12-11.07-4.17-1.1-13.38-5.77-13.38-10.9-2.35.89-6.56-.3-2.89-2.12-2.43-3.44-7.48,1.4-8.91,1.36-5.24-.21-7.75-5.05-12.76-6.07,0,3-1.85,2.29-3.43,4.07-.24.26.46,4.33.27,5-2.82-2.55-2.09-8,.81-9.93-4.63-1.44-17.59,8-18.36,14.42-.42,3.57,3,7.3.77,12.22C235,322.36,230,328,227.29,329c.46,4.59-1.27,5.43,3,5.77-1.78,3.4-5.94,5.43-3.55,11,.58,1.4,3.28,1.7,4.39,3.43a39.3,39.3,0,0,1,2.93,6.2c1.51,4.07,2.9,10.86,5.29,13.91,3.27,4.16,7.21,5.35,11.29,8.87,6.9,6,4.36,18.71,3.24,28-.62,5.09-2.35,10-2.89,14.68-.62,5.59,0,11.45-2,16.71-2.28,5.86-2.12,9.29-3.55,15.86.08-.38,0,4.33,0,3.14,0,1-1.85,2-1.47,3.31,1.93,6.33,3.59-3.14,5.56-3.31A58.6,58.6,0,0,0,247,469.72c-1.08-2-1.35-.89-1.74-3.64C244,466.84,245.91,471,245.79,472.1Zm6.87-194.71c4.78-1.18,11.68-.29,16.46-2.12-2.12-2.88-8.64-1.95-12.65-2.54-2.54-.34-7.78-3.65-8.21.76a3.52,3.52,0,0,0,4.4,3.9Zm-12.88-.93c-1.12-1.91-3.39-2.55-5.75-2.12,1.43,2.12,4.09,3.94,5.75,2.12C239.55,276.12,239.36,277,239.78,276.46Zm4.93-6.75c-2.08-3.69-10.64-5.89-14.26-7.42-2.35-.93-7.71-3.35-10.64-1.48-3.24,2.07-2.43,2.37,1,4.19,1.5.85,2.39-1.74,3.85-1.44,2,.34,3.28,2.25,4.36,2.68C234.73,268.48,238.28,269.71,244.71,269.71ZM377.15,106.06c2.51-.45,3.4-.39,4.09,2.41a13.27,13.27,0,0,0-5.47,0c.07.6.19,1.23.27,1.83,5.59-1,1.27,2.46,4.12,3.6.62.21,7.06.94,7.4.89,4.94-.25,5.37-1.4,9.61-3.9,3.58-2.16,5.16.85,6.28-3.33.46-1.65-2.16-1.7-2.74-1.8,1.2-7.51-8.1-.83-12.68-1.49-.69-.06-4.78-.7-4-.61-2-.19.15-3.4-1.93-.62-5-1.84-6.24,3.31-4.9,3C377.54,106,376.77,106.14,377.15,106.06Zm-84.47,60.32c-1.08.76-7.44,12-7,12.89,1,1.78,4.36.09,6.21.68,2.81.93,3.43,2.21,6.24,3.65,4.28-7.13.27-9.59-6-11.79,0,.12,3.82-7.47.54-5.43C292.33,166.63,293,166.21,292.68,166.38ZM277.87,173c-2.73-1-3.93-2.25-6.59-1.83,2.51,1.66,4.13,5.73,6.59,1.83C277.49,172.91,277.76,173.25,277.87,173Zm77.39-81.13c.77-.32,1.61.91,2.23,1.1,4.86,1.72,4.86-.32,8.83-2,3.55-1.5,12.34-3.6,13.57-7.25-4.78,4.12-16-5.49-4.05-4.94-.5,0,5.36,6.76,6.71.89.51-2.16-4.39-7.38-5.93-8.31.85-.83,6.24,3.49,4.62-2.1-.77-2.63-2.16-2.68-5.32-1.51.62-1.06,1.23-1,1.62-2a6.41,6.41,0,0,1-1.62-.79c1.73,0,6.71,2.65,9,.94,5.33-3.91-3.27-2.51-3.27-4.39,0-.47,8.09-.89,8.63-2-1.69-1.84-6.17-5-.81-5.51.12-4.88-6.55-4.86-5.78-7.61.31-1.13,3.55-1.55,4.4-1.21,3.51,1.48.61,1.8,2.19,5.28,1-6.26,3.16-7.77-3.7-7.77,1.89-2.31.08-.63,3.28-2.33-1.93-3.24-6.67-.13-6.71-.15-4.9-4.34,12.38-16.12,14-18.36-2.2.14-4.32-.28-6.48-.34,4.47-1,7-.87,10.87-3.63,1-.74,6.59,0,4.09-4-.43-.72-6.17-.38-6.71-.32a76,76,0,0,0-11,2.25c-2.08.66-10.68,5.66-11.91,5.43,4.93-6.81,7.63-7.83-1.35-9.29,0,3.94-2.59,3.54-6.06,4.18.58-3.21,2.59-1.93,4.67-3-5.09-4.15-14.42,2.3-20,1.34,1.5-4.94,24.36-5.34,29.61-6V7.11c-5.25,0-7.59-.89-11.64-1.65-6.1-1.11-12,.46-18-.22,4.36-3.28,13.22-1.82,19.47-1.82-.7-5.35-28.11-3.14-31.65-1.89-3.78,1.38-.39,2.76-5.13,3.33-2.78.34-5.09-1.46-8-1.59A30.66,30.66,0,0,0,317.28,5c.88,1.93,3,1.1,3,3.84-1.12-1-6.06-3.23-4.48.12-.38-.82,8.72,5.09,6.13,5.09-5.78,0-10.14-5.11-16.27-5.11,0,1.44,3.78,3.92,4.32,6.09-3.66-1.15-6.13-4.82-10.06-5.22,1,2.19,1.31,7.49-1.93,5.37,0,0,1.54-4.37-.62-5.67-2.58-1.61-10.79,4-12.53,3,1.89.8,5.09,1.93,6.56,3.69-2.62,0-4.82-2-7.56-2.36-1.77-.27-1.31-1.82-3.66-.59s-.46,3-1.08,3.43c-2.16,1.38-6.63,1.93-10.72,4.33-1.62,1-5.55.87-5.32,3.95,2.35.67,3.55,0,5.74,0,1.58,0-.07,5.66-.38,6-.73.7-4.17.51-5.25.8-2.81.81-7.86.47-10.71,2.34-9.3,6,7.86,6.51,12.91,6.51-1,4.6-11.37,1.21-11.37,3.84,0,1.29,4.51,2.69,5.47,2.92-.77,0-.84,0-1.08.62,1.39,1.23,4.05,3.77,6.1,3-.16-.32-1-1.21-.58-1.53,3.08-2.1,16.34-.49,20,2.1,5.28,3.73,9.33,11.37,9.83,18.39H295c-5.24,10.35,7.36,1.84,11,11.18-3.39.1-6.59-2.51-9.72-1.06.78,2.56-2,6.74,2.74,6.87,4.17.1,5.52-3.16.66-4,6.9-.91,5.24,2,7.17,7.38-3.09-.17-5.51.43-5.44,3.76-6.86-1,.35,8.88.77,10.47-.15-.42,2-1,2.47-.08s-2.24,1.74-1.54,2.44c-1.08-1.1,1.23,4.24,1,3.48a9.76,9.76,0,0,1,3.16-1.7c-2.12,4.75,0,12.77,4.67,16.63,2.08,1.74,12.34,6.11,14,5.09,2.27-1.36,1.65-6.53,2.58-8.87.58-1.4-1.39-1.82-.62-3.47.39-.9,2.43-.3,3.09-1.66,2.77-5.6,1.08-10.94,8-11.6-.2-3.65.15-1,1.92-2.27C340.45,112,355.18,91.93,355.26,91.91ZM205.62,45.27c2.93,5,16.12,3.16,21,2.27,1.31,3.62,9.1,1.37,8.79-3.33-.73.38-1.46.72-2.19,1.06-.23-.75-.47-1.51-.7-2.25,3.13-.64,3-1.53,2.2-4.54,3.93,1.19,7.25.55,4.51-3.44-.42-.61,4.13-.15,4.13-.76,0-4.18-7-2.82-8.76-1.08-.19-.49-.38-1-.54-1.49,4.48-3.45,9.34,1.34,13.54-2.88-.81-.66-1.62-1.3-2.43-1.93,2.81.83,5.51,1.5,8.64.13-1.35-1.15-1.16-2-2.9-2.87C257.36,25.88,265,18.1,271,16.34c-1.93-2.13-7.09-.07-10.41-.49,2.7-3.84,17.7-.13,18.66-5.43.62-3.61-13-4.24-16.31-3.31-1.27-1.4-6.48-2.95-9.75-3.33-1.27,5-16-2.31-14.92,3.5-4.13-1.7-13.23-2.65-16.35,2.25,3.47-.21,7.25.57,8.94,3.62-3.47-1-8.09-3.41-11.1-4.07-3.16-.68-5.75,1.17-6.63,1.3-3.32.5-9.95,2.43-14,3.37,0,.44-.08.91-.12,1.38,3.4,1.16,3.63,3.33,7.41,4.58,5.4,1.82,5.59-1.36,10.25-2-9.37,6,5.17,3.95,7.71,3.25,5.25-1.42,8.87-4.78,14.39-4.58a10.64,10.64,0,0,0-6.06,3c2-.39,3.7.34,5.63.31-2.77,2.27-11.6,3-15.61,3.29v1.51c2.66,1.23,4.24,3.39,7.4,3.33-4.67,1.4-11.64-3.65-16.89-4.37.43,4.92,8.41,8.86,12.92,8.61-1,1.34-1.51,2.33-2.35,3.44-7.83-8.45-19.55,4.66-5.05,1.82-.78.47-1.55.91-2.36,1.36,1.7,3,4.82,2.06,7.14-.6-2.66,7.81-10.53.41-15.35,1.09C210.25,42.53,208.36,43.93,205.62,45.27Zm1.23-9.82c.77-1,2.16-.39,1.78-3.16,8.75,1.46,6.71-4.48,1.27-8.23.31.23-17.7-9.74-17.27-6.83,1.27.29,2.43-.72,2.73,1.06,0,.25-4.82.93-5.36.89,1.12.83,1.47,2.06,1.93,2.56-1.31-.23-2.47.24-3.7.15a17.56,17.56,0,0,0-1,4.69c3.27,3.63,8.09.53,11.64,3.78-2.12.14-4.28,1.31-6.28,1.65C196.67,36,202.07,37.5,206.85,35.45Zm-7.13,5.15c-.39.7-.81,1.4-1.23,2.12a7.08,7.08,0,0,0,6.17-.47C203.38,39.6,202.11,40.09,199.72,40.6Zm2.2,18.24c2.7-.61,33,2.12,28.53-5.56-2.66-4.62-14.61.34-18.28.24-7.67-.19-8.71-8.93-15.57-6.73C199.14,51.61,196.48,56.76,201.92,58.84Zm-19,.62h1.93C184,57.19,184,59,182.87,59.46Zm4.24-3.78c1.43,1.38,8.87,5.18,8.1-.15C194.59,51.18,188.38,53.26,187.11,55.68Zm6.75-6.49c3-3.5-1.43-6-4.67-5.43C182.52,44.93,190.78,49.23,193.86,49.19ZM188.23,42a28.72,28.72,0,0,0,7.25-1V39.41C192.43,39,189.16,38.67,188.23,42Zm.54-3.78c6.86-1.84-4.59-5.26-6.71-4.52C183,37.25,185.22,39.43,188.77,38.18ZM181.1,26.9c-1-2.1-1.7-3.25-4.24-2.74V26C178.71,26.84,179.4,27.24,181.1,26.9Zm-1.78,12.94c2-7.55-11.52-11.16-16.61-9.06,2,.89,3,2.59,4.39,3.95h-2.31C166.79,37.78,175.43,38.2,179.32,39.84Zm-5.2.31c-1.74-.74-2.28-1.84-4.4-1.2C170.53,41.53,171.88,40.69,174.12,40.15Zm-1.27,13.13c2.81-1.52,4.51-.34,5.09,3.16,3.66-.17,6.4-1.57,6-5.87-.5-4.73-4.82-2.74-8.71-4.39a12.74,12.74,0,0,1,3.58,4.22,35.79,35.79,0,0,0-6.47-2.69c.27,1.27.31,2.46.69,3.75-2.54-2.14-3.66-5.64-7.25-6C165.33,50,169.11,52.27,172.85,53.28Zm-7.95,1.21c.31.24,3,3.65,3,.13C167.91,52.63,165.29,54.49,164.9,54.49Zm1-11.32a8.73,8.73,0,0,0-4-3.91C162.05,42.28,163.4,44,165.87,43.17Zm71.44,54.15c2,.63,7.4-.13,5.48-3.55C241.09,90.74,235,93,237.31,97.32ZM193,71.8c.81-1.61,2.16-1,2.08-3.46,3.82,1.51,5.4-2.22,7.41-5.26-2.82-1.14-8.76-3.31-11.26-1.33C189,63.53,188,73.35,193,71.8Zm-12.07,4.69c6.33,0,7.6-6.28,1.51-9.33,4.62-1.64,1-4.73-1.62-5.67-.46-.15-4.17,2.06-6.33,1.59,3.86,4.44.89,7.26-3.39,4.67C171.3,70.78,178.4,75,180.94,76.49ZM165.6,67c1.15-4.14-3.63-5-5.9-2.7C161.86,66.52,163.36,68,165.6,67Zm-9.06-3.46c.23.25,1.73,2.16,0,0Zm-13.3-27.45H153C151.29,32.07,145.9,33.24,143.24,36.08ZM146,42.72c2.74,0,6.21-.36,3.82-3.31,1.16-.57,1.58,0,2.35-1.5-3.2-.34-6.36-.19-9.06,1.78C143.66,41.72,144.62,42,146,42.72ZM141.19,40c-.85-1.95-1.08-3.25-3.7-2.74C138.11,39.75,139.26,39.52,141.19,40Zm-2.74,7.53c-3.89,1.25-7.78,5.66-5,8.08,2.43,2.16,11.34-.07,14.39.23-1,1.34-7.45,0-7,2.48.58,2.82,5.36,1.06,6.94.74,3.35-.67,15.92-2.48,15-7.61.34,2-8.25-5.22-7.52-5-4-1.3-5.52,1.27-3.43,5.28.77.34,2-.19,2.27.85C154.42,54.24,140.5,48.32,138.45,47.54Zm.81-2.87c.89.43,1.16,2,3.32,1.51,0-.49-.12-1-.15-1.51A5.69,5.69,0,0,1,139.26,44.67Zm-10.95,6.49L126.93,53c3,0,2.43.57,4-2.57Zm4.4-3.79c2.27-.87,3.47-2.85,3.82-5.71-8.29-2.23-11,6.15-18.51,7.06,3.55,5.94,8.87.56,12.07-2.69C130.9,48.66,131.82,46.79,132.71,47.37Zm1.89,39.36c5.94-.53,6.09,2.89,10.72,4.24s8.09-2.18,12.18-3c2.47-.49,18.74,2.44,13-2.54,2.28,0,3-1.3,4.4-2-5.05-3.81-7.13-3.79-9.68-9.1-1-2-5.24-12-8.71-7.29-1.58,2.23,4.24,7.42-.12,7.06-2.2-.21-2-6.68-6.17-6.93.5.93.89,2,1.35,3a20.72,20.72,0,0,1-4.35,1.5,26.59,26.59,0,0,0,.92-3,8.07,8.07,0,0,0-7.67.58c1.35-5.65-3.51-3-6-1.74-4.51,2.2-4.66,3.3-6.71,7.17,3,1.29,6.25-.83,9,1.5a11.15,11.15,0,0,0-6,2.59c3.05,1.8,12.92-.93,14.54,2.1.58,1.12-10.84,1.7-12.61,2.84C133.33,84.74,134,85.74,134.6,86.73Zm22.9,5.9c2.47-.72,4-1.29,4.55-3.61a20.39,20.39,0,0,0-7.29,3ZM119.25,76.34c4.86.81,6.83-6.32,11-8.7,6.83-3.86,8.48-5-.27-7-2.24-.51-13.53-3.44-15.88-1.28-1.32,1.21-1.7,10.1-4.59,13.64a8.41,8.41,0,0,1,7.4,5.43ZM5.05,131c-2.85-4.12-5.78.55,0,0Zm46.08-3.31c.65-4.8,6.47,1.1,9.48,2.08,3.89,1.27,7.6.33,11.37,1.69,6.67,2.38,11.26,9.08,18,10.35A14.43,14.43,0,0,0,92.11,146c.35.42,3.24,1.86,3.59,2.54,2.31,3.82,3.66,7.55,5.66,10.52,3.55,5.26,4.9,5.73,10,9,3.63,2.37,7.94,6.4,7.4,12-4.08-5.51-8.36-13.11-15.34-12.22,3.28,4.33,8.13,5.86,10.22,11.29,2.12,5.6-.62,11-.62,15.69-.08,8.7,3.93,20.83,9.33,27.32,3.12,3.78,7.94,4,10.8,8.82,2.31,3.87,4.28,8.79,6.43,12.78.74,1.27-.88,1.9.78,4.57,1,1.62,3.77,3.06,5.12,4.59.93,1,5.44,6.87,5.79,9.08,4.24-4.76-12.3-21.38-12.77-28.21,4.63-.64,9.91,11,13.31,15,4.35,5.13,8.29,12.09,12.76,17.69-6.48,4.84,19.24,15.36,23.44,16,1.27.22,2.7-1.52,5-.76,2.7.85,3.9,4,6.05,5.39s9.22,2.76,9.45,2.42c3.74,2.88,5.63,8.52,7.6,10.6,2.85,2.89,9.33,5.09,13.38,7-1.12-7.63,6.47-.67,6.78-3.22.62-5-9.52-1.87-12.34-3.9-6.78-5,.47-10.61-3-16.16-3-4.71-10.53-1-14.19-2.76,3.24-3.9,8.06-16.29,1.08-15.83-6.33.47-3.24,5.31-7.14,8.7-3.58,3.14-9.37,1.1-12.18-1.57-6.17-6-5.94-22.44-2.24-28.46,5.09-8.23,13.19-.25,18.82-2.21-1.35-5.17,4-4.41,7.29-4.16-.31,0,7.55,1.62,6.55.86,2.47,1.9,6.48,16.12,9.06,15.86,3.12-.3-2.39-19.17,1.81-24.48,2.7-3.43,8.37-4.28,10-8.36,1.39-3.47-.62-5.17-1.5-9.5,2.31.68,1.11-1.4,3.54,1.36.89-2.12,2.82-7.76,4.21-9.25,1.73-1.69,6.2-2,9.1-2.92-4.21-8.74,11.75-15,17.69-13.49-.81-.17-5.74,2-6.44,3.47-2.08,4.67,3.7.68,3.9.64,4.93-.64,10.49-4.79,12-9.63-3.93,2-5,5.52-9.87,2.72-6.4-3.82-.23-7.21-1.7-9.76-4.05-6.87-14.23,5.6-18.47,8.57a19.65,19.65,0,0,1,4.4-5.94c-1-.25-2.12-.59-3.16-.89,5.36,1.31,8.44-6.07,13-7.51,3.05-1,7.29.26,10.37,0,4.82-.51,4.32-1.1,8.41-3.05,3.74-1.7,9.67-2.34,7.9-7.6s-8.17-1.57-12-1.14c1.81-3.4,5.51-2.67,8.33-5.26-4.82-.85-9.18-2.89-11.92-7.55,3-2-5.47-12-7-15.7-2.42,3-2.42,7.76-6.32,8.74s-3.28-3.44-7.52-2.21c2.66-10.09-4.74-13.57-11.87-15.56-8.1-2.34-13.5,2.2-7.75,11.45h-1.93c-.62,1.57-.19,2.55-1.08,4.24,7.6,3.48,5.86,16.16-2.89,15.82,2.51,3,4.74,14-.81,14.6-5.4.42-6.67-11.12-6.17-15.49-6.25-1.14-10-2.16-15.42-5.21-2.39-1.32-5.21-2.29-7.33-3.23-1.89-.89-2.35,1-4-.08-1.23-.81-1.43-3.82-2.24-4.92-2.77-3.78-4.2-1.62-3.66-7.77.19-2.54,2.51-6.57,4.17-8.44s5.93-2.5,5.51-5.34c-.31-1.87-7.09-2.93-8.44-3.48,3.54.38,10.14,4,11.1-.89,4.16,2.75,6.13-.38,7.25-4.24-3.78.27-6.63-1.77-9.87-3.46,2.47.1,16.65,3.9,10.83-2.89,6.33-.53,2,10.59-.81,11.78,2.32,2.71,3.2,3.39,6.71,3.35a22.32,22.32,0,0,1,4.24-2c1.24-.21,2.59,1.4,3.59,1.23,7.86-1.48-7.6-7.46-8.91-10.58,3.55-.15,1.39-.09,2.85-2.1,5.4-.45,7.87-5.47,4.25-10.42,7.36-1.37-1.74-6.66-4.36-8,4.51-.76,9.33,1.59,14.11-.32-.73-.74-1.46-1.48-2.2-2.27,5,1.61,8.49,5,12.88,8.59,1.85,1.51,5.28,3.82,5.4,6.87.15,4.12-6.9,4-3.74,9.15-2.62.65-11.95-1.62-11.53,3.47s7.25-.46,9-.25c5.52.76,5.94,5,9.45,8.14s9,2.63,13.11,5.09c.15-3.81-5.17-5.72-7.13-9.07,3.62,2,7.24,3.94,10.68,6.19a46.94,46.94,0,0,0,1.5-5.13C267.93,111,264,107.79,260.75,103c2.51-4,3.47-1.23,6.4.47,4.71,2.74,2.66,4.28,6.4,3.16-.27.06,4.63-4.26,4.59-4.22,1.58-3.25,1.85-.83-.27-3.78s-23.05-9.37-12.6-11.77c-1-.32-2.09-.61-3.17-.91A5.59,5.59,0,0,1,264,84.63c-1.62-.72-2.23-2.1-4.24-2.54.31-.58.62-1.11,1-1.68-3.85-.89-5.66-1.84-9.17-2.86.61-.45,1.27-.91,1.89-1.36-6.94-.19-7.37-4.52-12.19-6.19-3.7-1.28-10.83,3.29-12.41,2.35-2.43-1.4.62-2.84-1-5.34-2.69-4.31-2.31-3.76-6.7-2.87-6.64,1.36-6.29,7.22-2.93,12-6.94,1-6-10.41-1-13.11-5.28-.23-10.21.41-12.33,6.6-2.86,8.46,2.85,4.62,5.62,9.1-2-.55-3.2.36-5.05.27,1.7,2.68,9.33,3.57,12.61,4.67-2,.89-3,15.72-8.37,12.68-2.39-1.35.08-5.49,0-5.57-2.12-2.61-4-1.59-4.78-2s-4.93-2-6.51-4.6c-2.2-3.57-2.78-13.41-9.49-8.25-6.32,4.83,6.79,13.55-.61,11.85,1.11,3.4,3.43,3.23,6.05.62-.08,5.17-6.25,3.41-4.4,9.35-3.08-2.31-2.35-1.36-2.19-4.83-2.9-.87-.54-.15-2.05-2.57h1.78c.15-3.37-1.89-5.43-4.94-6-.77.84-2.58,3-3.28,3.9,1.43.61,2.55,2.25,4,2.88-3.28,6.51-9.64,3.57-15.08,2.19-3.55-.89-4-2.42-7.4-.85-5,2.35-2.7,2.71-3.43,8.31-2.24-8.78-12.8-5.83-19.21-6.49.54-.34,1.16-1.84,3-2.54-3.16-2.82-13.8-6.15-17.54-7-4.67-1-9.22,4.31-11-1.93-1.35,5-2.31,1.85-4.47,1.72-.7,0-1.47-3.42-3.09-3.63-2.16-.27-.81,1.51-2,1.76-2.39.6-9,4.52-11.84,6.32,2.51-3.62,6.59-3.11,9-6.34-4.62,0-10.1,2.8-14.73,3.86-7.78,1.78-10.91-1.76-18.85-2.73-6-.73-11.45-2.08-17.66-2.63-6.55-.6-9.95-3.16-16.73-2.27L33,77.25c-4.16-.85-9.79,2.08-13.49,3.31-5.09,1.68-5.44,5.07-9,7.47C5.51,91.4,1.93,87.81,6,93.69c2.54,3.71,8,4.22,9.91,9-2.9,1.06-6,.89-6.17-2.7-3.28,2.57-7,1.66-9.72,5.26,3.55,1.59,3.51,4.79,6.55,5.64,3.51,1,8.14-1.65,11.42-2,.46,11-11.18,3.22-12.88,13-.42,2.63,5.09,13.66,8.64,7.21a6.9,6.9,0,0,1,1.62,7.21c3.47-.76,7.36.55,9.06-1.78,1.08,0,2.5.34,4,.3-2.59,12.64-15.66,10.56-21.79,18.28,8.87,2.38,23.6-12.51,31.23-17.22-.69-1.1-1.35-2.21-2-3.31,4.67-1.7,6.4-10.22,11.8-6.36-3.82.51-5.94,3-4.82,6.95a20,20,0,0,1,9.17-3.64C51.66,129,51.4,128.28,51.13,127.65ZM39.91,140v-2.71c-2.78,2.2-6.83,2.8-4.55,6.78A10.37,10.37,0,0,0,39.91,140Z"/></g></g></g></svg>