<svg xmlns="http://www.w3.org/2000/svg" viewBox="0 0 620.98 582.26"><defs><style>.cls-1{fill:#f1923d;}.cls-2,.cls-8{fill:#fff;}.cls-2{opacity:0.7;}.cls-3{opacity:0.15;}.cls-10,.cls-4,.cls-5,.cls-7{fill:none;}.cls-12,.cls-13,.cls-4,.cls-5,.cls-6,.cls-7,.cls-8,.cls-9{stroke:#1a2e35;}.cls-4,.cls-5,.cls-6{stroke-linecap:round;}.cls-4{stroke-linejoin:round;}.cls-10,.cls-12,.cls-13,.cls-4,.cls-5,.cls-6,.cls-7,.cls-8,.cls-9{stroke-width:1.31px;}.cls-10,.cls-12,.cls-13,.cls-5,.cls-6,.cls-7,.cls-8,.cls-9{stroke-miterlimit:10;}.cls-11,.cls-6,.cls-9{fill:#1a2e35;}.cls-10{stroke:#737373;}.cls-12{fill:#9c9c9c;}.cls-13{fill:#bababa;}</style></defs><title>image-part-1</title><g id="Layer_2" data-name="Layer 2"><g id="Layer_1-2" data-name="Layer 1"><path class="cls-1" d="M230.07,10.77c59-15.66,126.32-15.54,183.73,9A361.18,361.18,0,0,1,470.47,50.5c136.72,90.15,141.92,224.3,118.06,289.27-13.65,37.17-50.94,59.43-82.65,79.53-28.1,17.8-77.37,39.18-90.27,72.55-17.41,45-41.41,108.08-115,85.78S169.44,533,111.12,428.68,30.8,251.44,44.87,184.75C63.84,94.85,142,34.14,230.07,10.77Z"/><path class="cls-2" d="M230.07,10.77c59-15.66,126.32-15.54,183.73,9A361.18,361.18,0,0,1,470.47,50.5c136.72,90.15,141.92,224.3,118.06,289.27-13.65,37.17-50.94,59.43-82.65,79.53-28.1,17.8-77.37,39.18-90.27,72.55-17.41,45-41.41,108.08-115,85.78S169.44,533,111.12,428.68,30.8,251.44,44.87,184.75C63.84,94.85,142,34.14,230.07,10.77Z"/><g class="cls-3"><path d="M152.7,138.53c5.52-4.05,1.07,6.78,0,0Zm-4.47.4a1.87,1.87,0,0,0,2.08-2.27C149.8,136.93,145.71,138.93,148.23,138.93Zm9-33.11c1.16-.6,1.86-1.37,3.26-1.53-2.08-2.14-4.91-1.74-7.57-1.7C152.9,105.42,154.64,106.57,157.18,105.82ZM417.07,251.31c-1,1.35-.29,8.86,2.27,6.28C420.79,256.18,417.55,251.86,417.07,251.31Zm106,96.14c.63,2.24,2.25,4.9,4.16,5.49a2,2,0,0,0,0-1.31h1.43c.07-1.89.55-2.29.55-4.07-1.3.4-6.28-1.12-6.14-.11C523.1,347.77,523,347.35,523,347.45Zm5.32-2.71a1.83,1.83,0,0,0,1.48,1.75c0-1.43-.56-1.75-1.48-1.75C528.35,344.84,528.47,344.74,528.35,344.74Zm-6.26-.48c-.94.51-.34,1.33.34,1.6.05-.16.21-1.84-.34-1.6C521.94,344.31,522.19,344.21,522.09,344.26Zm41.19,15.51c2.78,0,3.43-5.72,6.8-6.46-1.48-3.41,4.11-2.88.09-5.57-3.19-2.1-1.91,1.49-3.8,3.78-1.66,2.05-4.81,2.56-6,4.93-.92,1.83-.63,3.83,2.93,3.32Zm-2.15.93a2.84,2.84,0,0,0-.61.72h1.38c.07-.5,0-1.3-.77-.72Zm10.93-21.13c0,.94.07,3.36.07,3.57,0-.21-1.35-.1-1.38,1,0,1.44,1-.1,1.21.8-.05-.11,1.41,3.41,2.23,3.14.31-.11,1.13-1.81,1.64-2.34,2.57-2.66,4.33-5.85-.84-4.84,0-1.55-.61-3.94-1.58-1.6-1.06-.75-1.21-3.17-2.44-4.52C568.67,332.23,572.06,338.62,572.06,339.57ZM555,306c1.31,2.21,2.44,4,5.23,4.34C560,309,556.14,306,555,306Zm-55.46-16.85c-2.18.43,1.11.93,1.89.86v-.75C501,289.23,498.92,289.23,499.57,289.17Zm19.42,1c-2.56,3.49.9,12-4.81,10.33,0,0-5.23-3.7-5.32-4-1-2.36,1-3.61,1.69-5.48-2.9-.42-5.73-2.05-8.51-2.05.55.54.48.93,1.47,1.58-.51-.35-3.43,1.8-4.21,2.34-2.32,1.62,1.29,1.94-2.59,2.76-1.28.27-1.86-1.7-3.94-.85-1.71.69-1.93,3.22-3.89,3.22.29.69.36,1.81.7,2.48h-1.5v-1.28c-2.27-.13-3.05,5.19-5.63,6.55-2,1-5,1.35-7.14,2.28-.94.38-1.57,3.78-2.68.94-.95,3.16-1.17,5,.43,8.14-3.43-1.71.29,4.12,1,6.2,1.45,4.2,2.86,6.95,0,9.69,2,0,3.14,2.42,5.68,2,1.45-.21,2.17-2.12,3.8-2.5,1.28-.37,2.63,1,3.72.7s1.19-1.39,2.15-1.81,1.94-1.55,3-2c.72-.34,1.35.83,2.22.48,3.08-1.27,6.56-3.24,10.16-1.17,2.15,1.28,4.23,10.33,6.53,2.18,1.65.61-.07,1.87.17,3.41,2-1.33,1.26.53,1.11,2.55,3.34-.69,1.84,2.53,4.31,4.74a17.19,17.19,0,0,0,3.94,1.33c1.7.05,1.16-1.83,2.23-1.89s1.09,2.21,1.79,2.05c3.43-.8,7-2.23,8.29-5.75.83-2.29,1-4.65,2.32-7.1a16.42,16.42,0,0,0,.68-15.3c-.53-1.23-1.23-1.6-2.05-2.56-.56-.66-.56-1.86-.95-2.37a15,15,0,0,1-2.32-1.14c-.55-.59-.51-2-1.11-2.66-.82-.85-2.86-1.49-3.48-2.34-1.55-2.11-2-6.23-3.15-8.25-.36-.64-1.43-1.12-2-2.08-.66-1.17-.32-4-1.89-4.47A6.74,6.74,0,0,0,519,290.13Zm28.9-3.7c.49.83,1,.56,1.65.3-.31-.94-2.15-1.49-1.65-.3C548,286.56,547.85,286.35,547.89,286.43Zm-8.41-6.36c0,.8,1.67,1.81,2.13,1.7-.42-1.16-1.65-1.88-1.65-3a1.4,1.4,0,0,0-.67.08A3.82,3.82,0,0,1,539.48,280.07ZM529.56,279c.19,2.43,6.51,1.23,5.93-2.55-.32.05-5.93,3.46-5.93,2.55C529.59,279.25,529.56,278.8,529.56,279Zm-28.81,4.74c0,.37,2.47.8,1.29-1.81A1.39,1.39,0,0,0,500.75,283.69Zm-8.85-1.14c.17,1,1.11.77,1.89.4C493.14,282.31,492.8,282.76,491.9,282.55Zm14.54-3.78a2.82,2.82,0,0,0-1,2.1C505.4,282.41,508.64,277.14,506.44,278.77Zm-2.42-3c1.57-.78,3.56.74,5.08,1.51,1.28.67,2.54.27,3.43,2,1.21,2.31-.16,1.7.1,3,.07.35-1.69.29-.94,1.84.34.72,2.32-.91,3-.72,2.15.66,3,2.79,5.68,1.89,1.64-.53,1.57-3.14,4.28-2.08,1.06.43,1.31,1.86,2.25,2.45,1.81,1.17.92.8,3.39,1.44,3.72.93,2.49,1.22.65-1.6-.27-.43-2.08-.19-2.39-.48a14.27,14.27,0,0,0-.78-2.42c-.07-.29-2.32-2.1.58-1.81-.55-1.14-3.21-3.27-4.54-4.1a29,29,0,0,0-7.29-3.06c-4-1.41-3.74-.56-6.89,0-2,.38-4.09-.66-6.82.11.29,1.17.7,2.29,1.21,2C504.12,275.71,504,275.79,504,275.74Zm-13.67-4.08c-1.49.38,1.36.78,1.89.67C492.24,271.24,491.18,271.5,490.35,271.66Zm17.81-1.43a9.7,9.7,0,0,1,.17,2H510c-.26-.91-.72-.48-.72-2h-1.16C508.18,270.36,508.59,270.17,508.16,270.23Zm-7.24.1a1.26,1.26,0,0,0-1.11.4c1.79,1.15,3.73,2.8,6.1,1.6C503.92,268.31,502.74,271.1,500.92,270.33Zm-.41-.64c2.35-2.6-4-.85,0,0C500.78,269.38,500.37,269.67,500.51,269.69ZM498.77,272c.63.31.9,2.07,1.16-.16C499.06,272,499,272.12,498.77,272Zm-3.07,2.18c0,.69,3.6,1.33,4.64,1.33C500.13,273.42,496,274,495.7,274.22Zm-1.38.27-1.4-.35c.82,2.21,1.76.58,1.4.35S494.44,274.56,494.32,274.49Zm2.13-10.28c-1.23,1.87-2.11,2.13-2,4.79.17,3.75,1-.8,3.05-.45.12-1.25-.46-2.34-1.48-2.26a6.2,6.2,0,0,0,.44-2.08C496.28,264.48,496.45,264.4,496.45,264.21Zm-16.16,10.11s1.77,2.45,1.55,2.19a22.79,22.79,0,0,0,.34,2.44c1.23-.9.94-3.61.94-5.11h1c.12.62,2,5.2,2.71,4.82,1.31-.64-1.11-5.67-1.86-6.73C493,271.93,480.29,266.82,480.29,274.32Zm10-8c-1.33.53-8.95-.59-8.59,2.92,2.49-1.27,3.17-1,5.83-1.59.82-.21,1.09.82,2.08.37.53-.27,2.54-2.55.68-1.7Zm-1.79,20.33c0,1.65,5.8-1.49,6.43-2.18C492.63,283.19,488.86,285.87,488.47,286.62Zm-.7,1.6c-.7.1-.87.39-.51.95h1c.1-.47.08-1.17-.5-.95C487.52,288.32,487.89,288.16,487.77,288.22Zm-5.42-3.86c1.5,1.65,6.19.29,7.91-.51C488.88,283.59,483,283.59,482.35,284.36Zm-.61,1.22c-2.15.72,1.79,1.89,2.49,1.84-.29-.38-1.74-2-2.49-1.84Zm-4.3-1.62c-1.24.1,3.09.4,4,.4-.27.08-.32-.08-.18-.51a17.67,17.67,0,0,0-3.79.11Zm-18.65-3.2c2,1.71,4.74,2.21,8.1,2.59,2.66.32,6,1.83,8.83,1.38-.8-1.76-2.47-2.24-4.28-1.84.12-1.33,1-.69,1.89-1.27A66.33,66.33,0,0,0,458.79,280.76ZM453.54,278c-.36.88-.12,1.31,0,0Zm12.22-12.88c-2.28,1.76-.85,4.93.43,6.79,1.86,2.79,2.64,2.5,6.19,3.14s2.45,1.7,4.48-1.6a28,28,0,0,1,.85-3.51c.53-1,2.49-1.38,3.09-2.82-2.27-1.62-1.64-2.05-2.15-5.64,1.74.1,1.21-1.17,2.92-1.84.15.45-4.13-3.27-3.77-3.32-1.35.1-2.35,2.66-3.41,3.69C472,262.35,467.89,266.9,465.76,265.14Zm-18.14,5.59c.09,1.25,2,4.34,3.09,4.61-.24-1.71-3.09-4.47-3.09-4.61C447.64,271,447.62,270.54,447.62,270.73Zm-2.76-4.17c.43.9,1.26,1.16,1.64,2.1a2.36,2.36,0,0,0-1.38-2.48C444.81,267.09,445.1,266.63,444.86,266.56Zm-1.28-2.48c0-.29-.53-1.09-.53-.24a1.12,1.12,0,0,0,1,1.22C444.3,264.59,444.13,264.27,443.58,264.08Zm.6-4.34c-1,0-1.5-1.06-2.42-.93.41,2.21,3.58,4.39,4.65,5.88,1.67,2.26,3,5.61,4.81,8.14,1.21,1.68,4.06,6.28,5.68,6.31,3.58.11,1.55-3.7,4.38-4.65-.31-2.45-2.37-3.36-4.13-2-.2-2.79-9.58-12.34-13-12.77C444,259.74,444.57,259.79,444.18,259.74Zm44.46-6.55c-1.86.22-3.49,1.6-2.49,3.89,1.49-4,3.7.59,6.09,1.73-.85-2,.68-2.42.7-2.47.05-.38.75-5.22-.77-5.22s-1.82,3.35-3.53,2.07C488.37,253.25,488.76,253.3,488.64,253.19Zm-5.08-8.78c-.05.69,1.93,6.07,3.36,5.78-.73,1.75,1.84,2.95,1.21-.48-.29-1.46-3.12-5-4.57-5.3C483.53,244.68,483.65,244.47,483.56,244.41Zm2.49-.26c2.15,1.65,3.58,4.81,5.9,5.32,0-2.9-2.44-3.57-2.44-6.15-1.4,0-2.11.83-3.46.83C486.31,244.36,486.31,244.15,486.05,244.15Zm-3.27,1.7c-1.28,2.71-4.57,5.43-5.25,7.66,2.86,0,5.25-4.55,5.25-7.66C482.74,246,482.78,246.17,482.78,245.85Zm1.34-11.1c-2.55,1.52-1.92,7.21,1,8.23C485,241.17,488.66,234.75,484.12,234.75Zm1.66-11.94c0-.91-3.41,2.15-2.9,5.64h1C483.9,226.11,485.78,225,485.78,222.81Zm43.88-42.34c-1.72.34-2.83,1.89-5.08,2.07-2.47.21-3.61-.32-6.19-1.91-.1.85-1.12,7.31-2.16,5-.45.87-2,5,.51,3.67v1c-1.52.29-2.25,5.66-3.94,7.77,0-.59.05-.91,0-1.52a5.88,5.88,0,0,0-1.72,2.82c-.38-.59-1,.43-.77-1.22-1.11.87-1.53,2.07-1.69,3.88-3.44-1.65-9.85,1.49-10.45,5.64.65.06,1.57,0,2,0,0,1.84-1.84,2.66.7,3.46,0-1.94,2.83-4.73,0-5,.61-2,4.89-2,6.7-2.32-2,1.36-5.1.06-4.38,3.7a14,14,0,0,0,4.21-2.66c.8,2,3,.46,2.66-1.3,6.8-.85,5.52-1.23,7.14-7.48.89-3.46,2-6.17-1-8.89,2-.42,5.37,1.65,5.25-.77,1.48.35,8.25-3.78,8.25-5.85C529.54,180.47,529.66,180.57,529.66,180.47Zm3.19-1.81c-.73.13-1.09.69-1.74,1.06,1.06.69,1.35-.05,1.74-1.06C532.73,178.68,532.71,179,532.85,178.66Zm8.42-10.12a8.45,8.45,0,0,1-1,2.19A1.88,1.88,0,0,0,541.27,168.54Zm20.56-9.95c-.17,0-.49-1-1-.56a3.31,3.31,0,0,0-.09,1.09C561.08,159.2,562.17,159.34,561.83,158.59Zm-2.32.29c-.34-1.06-.25-1.73-1.14-2.47,0,1,.19,1.89.26,2.87.61.19,1,.22.88-.4C559.46,158.75,559.55,159,559.51,158.88ZM555,148.61c.65,0,1.08-.85,1.13-1.35-1.5-.64-1.64.37-2.22,1.35A2.51,2.51,0,0,0,555,148.61Zm39.74-13.17c1.45.27,3.45,1,4.91.74-1.24-2.66-3.9-.61-4.91-.74C595,135.47,594.6,135.39,594.75,135.44Zm-15.22-23.21c1.87.47,4.16-.45,6.1-.45a4.46,4.46,0,0,0-3.39-2c-.46,0-4.16,2-2.71,2.44ZM525.79,97.77c1.69.73,7.28,3,7.28-.49-2.4-.13-6.05.24-7-1.6-.17.19-.77,1.84-.24,2.09C525.89,97.8,525.64,97.68,525.79,97.77Zm-10.33,6.06c2.08.35,3.94-.12,5.93.65C520.71,101.26,517.47,102.08,515.46,103.83Zm1.72-2.39c1.13,0-1-1.06-1.62-1C515.56,101.55,516.26,101.44,517.18,101.44Zm-6.44-4.25c1.87,3,12.36,2.18,13.07-1.6-1.67-.35-3.78-1.45-3.78,1.56a2.6,2.6,0,0,0-1,0c1.82-4.18-2.15-1.8-3.48-1.84C512.85,95.22,512.17,93.79,510.74,97.19Zm-1.81-.76a1.47,1.47,0,0,1,0-1.13c-1.91-.3-.94,1.91,0,1.13C508.91,96.31,508.76,96.57,508.93,96.43ZM508,100.5c.58,1.54.5,2.47,2.22,2.22A11.67,11.67,0,0,0,508,100.5ZM462.23,86.59a2.21,2.21,0,0,0-2.91-.74c.24.31,3.32,1.89,2.91.74C462.15,86.44,462.27,86.73,462.23,86.59ZM442.2,91A5.24,5.24,0,0,1,444,91C443.79,88.66,442.87,90.53,442.2,91Zm7.47-3.41c.34,0,8.49-1.91,8.68-2.17,2-2.9-4-2.6-4.47-2.83.41-.47.58-.48.7-1C451,80.9,449.28,87.63,449.67,87.63Zm-5.49-9.35c-6,1-5.15,4.67.36,5.23,4.19.44,4.48.54,4.26-2.21-.27-3.74,0-1.89-3.17-1.89a2.35,2.35,0,0,0,.44-1.12C445.42,78.28,444.81,78.27,444.18,78.28Zm-5.17.37c2.39,1.4,5.75-2.26,7.13-3.22-3.12-1.65-7.4-1.83-9.89,1.8A15.49,15.49,0,0,0,439,78.65C439.12,78.73,438.93,78.58,439,78.65Zm-.68.85c-1.14,0-2-.72-3.15-.48C435.33,82.87,439.9,79.5,438.33,79.5Zm-3.53-6.16c-2.59,0-.58,1.19-.78,1.52C433.51,75.79,437.36,73.34,434.8,73.34Zm-67.1,44.38c-1.5-.28-4-2.23-2.9,1.7,1,0,2.73-.55,2.9-1.7C367.61,117.7,367.68,117.84,367.7,117.72ZM374.33,104c-1.53-.16-4.67,4.22-4.67,6.52.9-.2,1.5-.82,2,.37a.59.59,0,0,0,.34-.74c2,1.09.6,2.31,1.67,2.83,1.37.67,4,.43,5.56.43-.19-2.3-2.52-3-2.66-5.16-.2-2.64,1.81-4.17,3.26-5.78a22.18,22.18,0,0,1,11.69-7.18c1.47-.4,7.71-1.83,7.06-3.6-1-2.59-4.57.32-5.85.75-3.13,1.1-13.5,1.4-13.5,5.59a5.45,5.45,0,0,0-1.89,0c1.6,3-4,2.91-3.53,4.93.58-.13.75-.37,1.38-.29-.31.89.53,1.45-.87,1.33Zm25.88.85a4,4,0,0,0,2.47-1.14C403.4,103.29,398.06,104.86,400.21,104.86Zm-12.29-30c1.94,3.21,3.24.16,5.42-.28C391.33,73.33,389.81,75.55,387.92,74.86Zm-4.21,0c0,1.1-.7.78-1.21,1.7a9.08,9.08,0,0,0,4.82.24C385.89,74.82,386,73.37,383.71,74.86Zm-.6,3.42a4.71,4.71,0,0,1-1.38.28c.24,1.3,1,.57,2,.37-.09-.52,0-.81-.6-.65Zm-6-.57c.79.76.92,1.93,2.15.18,0,2.12,2.49.14,2.83-.18A1.63,1.63,0,0,0,382,77C380.45,76.63,378,77.37,377.09,77.71Zm-4.91.18a7.24,7.24,0,0,1,6.62-1.71c-.5-3.41,2.83,1.19,3.27-2a11.88,11.88,0,0,1-2.15,0c.29-.47.84-1.56,1-1.8-1.19,0-2,.83-2.59,1a17,17,0,0,0-2.32.76c-.63.42-.85,1.38-1.72,2.07C373.12,77.24,372.54,76.5,372.18,77.89Zm-6.87-2.55c-2.54,0-3.17,1-5.59.46.12,2,3.29.67,4.74.67-3,2.39,2.06,3,3.53.85C370.36,73.82,368.11,75.34,365.31,75.34ZM316,78.56c.55,1.55,3.68-.53,4.28,1.22-.85,0-1.72,0-2.59,0,1.57,4.81,10.16.52,12.14-.76-1.93-2.35-4.64-.4-6.36-1,.32-.71.75-.58.61-1.41-2,.87-1.5.12-2.69,2.36-.75-2.15-6.29-2.64-5.39-.46C316.09,78.73,315.94,78.35,316,78.56Zm-3.46,7.18c0,.52-4.6.22-5.15,2.28,1.11-.27,4.59-1.15,5.05-.48-.7.51-4.45,1.17-4.5,1.52-.09.63,3.27,2.43,4,3.5,2.22-1.85,4.35-5.45,4.35-8a8.31,8.31,0,0,1,2.44,0c-.29,2.3.24.66,1.14,2,.65,1-.7,1.8-.7,2.8,2.37-1.62,2.61.53,3.53.37s2.63-1.28,3.6-1.52c-1-1.51-2.1.23-2.1-2-1,.15-7.86-4.34-8.06-5a1.41,1.41,0,0,1-1.38,0,8.85,8.85,0,0,0,.63-1.5c-2.59-1.34-2.66.21-3.87.58.58-.18-.92,1.6-1.09,1.65.39-.14-.65-2.24-.82-2.3a17.17,17.17,0,0,1-2.83,1.29c.34-.58.49-1.21.78-1.7-1.53.36-7.94,2.05-2.83,2.83a14.64,14.64,0,0,1-.1,3.13c-.94-.52-.82-1.42-2-1.7.46,1,2.29,4.34,2.29,1.33,1.09.1,1.17,1.89,2.69,1.32.6-.22.94-1.44,1.52-1.51.08,0,3.22-.33,3.39,1.13C312.58,85.81,312.53,85.41,312.58,85.74ZM525.35,147c4.31,0,5-2,8-1.33,1.64.34-.32,1.6,1.38,2.07,2.44.64,1.64-2,3.77-.21.17-1.25.92-.26,1.89-.37-.54-2.37-1.36-.27-.51-2.74a13,13,0,0,1,3.39-4c2.78-1.7,5.12-1,5.12,2.42,3.75-.77,4.7-6.39,8.25-5.61-2.37,2.13-3.19,5.48-5.83,7.87-3.34,3-7.57,4.71-8.75,8.68a23.11,23.11,0,0,0-.27,9.63c.7,3.65.34,4.23,2.81,2.8,2.63-1.52,2.85-8.09,7-6.92-1.12-2.32-.27-5.46,2.12-3.78-.77-1.89-.12-3.65-.33-4.82-.15-.58-1.14-.16-1.55,0a17.55,17.55,0,0,1,2-5.11c1.43-1.43,1.6-.61,3.39-1.06,1-.22.6.74,1.26.69.89-.08,1.13-1.68,1.88-1.73a24.7,24.7,0,0,0,2.73.19c2.16-.27.39,1.43,2.08,1.81,0-4.5,9.73-7.27,12.49-8.15,2.49-.77,2.75,2.42,1.88-1.7-.77-3.67-2.49-2.21-4.64-3.78-1.23-1,5.1-.77,5.08-.74,1.84-.82,2.42-1.92,1.55-4,1.28-.1,1.47,1.37,1.88,1.42a28.08,28.08,0,0,1,3.27.75c1.74.9,1.3,1.49,3.53,2.07,3,.85.7.59,2.32-.1,1.33-.54.27-2,1-2.72s5.32,1.48,3.44-2.19c-.68-1.31-5.47-2.21-6.63-1.69,1.06.79,1.33,2.68-.44,1.31-.63-.49.27-2.38-.55-3.12-.44-.39-1.26-.07-1.62-.42a29.31,29.31,0,0,0-3.15-2.18c-1.79-1-2.93-1.77-4.81-2.78-3.87-2.08-12.22-3.67-14.71-.86,4.33,1.93-6.79,3.65-.87-.58-1.79-1.47-3.29.55-5.08.83-2.17.32-6,.61-7.91-.44a14.42,14.42,0,0,0,0,2.18c-2.73-3.34-2.59-7.2-8.24-6.82-2.11.14-4.14.87-6.29.4-2.78-.64-3.32-2.19-5.76-2.48.51-.69-.41-.43.85-1.13-3.66-2.26-7.86,3.43-6.27-1.22-1.81,0-3.65-1.11-5.56-1.15-3.63-.08-2.78.56-6.12,1.15,0,1.63,1.72,1.54,1.72,3.29a20.74,20.74,0,0,0-4-.7c.31.49,1.16,1.22.85,2-1.65-.35-2-1.75-3.51-2.07.07,0-4.09,0-4.31,0-2.25.65-1.86,3.07-3.6,3.07.05,0-3.22-3.1-3.46-3.78s.94-3.49,0-4.73c-1.48-1.92-2.69.16-4.21-.28-3.41-1-4.47-3.54-4.47,1.62-2.66,0-4.16.31-6.56-.77-.87-.4-1.38-1.68-2.47-2-2.07-.59-5.8.5-8,.5v-1.46c-.8.28-2.08,1.16-2.8.37.19,0,3.84-2,2.15-2.45-1.91-.56-3,2.74-5.49,2.28.36,2.47-3.41,2.26-5.44,2.26,2.17-.23,11.75-6.64,12-7.94.92-5.7-8.88-5.21-11.11-4.27.44-.59.78-.71.78-1.6a31.41,31.41,0,0,1-3.77-.29,12.36,12.36,0,0,1,1.47-2.07c-5-.42-5.18,1.47-8.27,3.21a1.5,1.5,0,0,1,.43,1c-3.41-.88-3.67,1.67-6.53,2-1,.1-2.92-1.27-4.47-1.07-.29,0-3.48,2.19-4.91,2.57a33.44,33.44,0,0,0-4.36,1.21c-.55.24-3.57,1.41-3.89,2-1.43,2.33,2.64.76.12,2.78-2.75,2.22-7.91-.64-10.71,2.09.75,2,5.73,5.15,2.93,5.39-.8.06-1.84-1.61-2.33-1.79a8.61,8.61,0,0,0-5.75-.4c.79.43,1.81.34,1.81,1.61-6.41-.45,1,1.18.75,3.41-1-1.77-3.8-.61-5.05-2.35-.44-.6.07-3.61-.44-4.74a.74.74,0,0,1-.7.19c0,3.49-1.89,2.08-2.23,4.16,0,0,.53,5.8.66,6,1.83,3.3,1.33.32,3.57,1.28,2.79,1.21,2.64,2.81,2.64,4.82,0,.72,2.18,1.09,2.52,1.14-3.58,2.6-2.86-7.21-7.72-2.86a10.72,10.72,0,0,1-.19,3.24,5.4,5.4,0,0,1-2.35,2.22c-2.61,1.62-2.56,1-5.9.7.73-1.17,3.44-1,4.81-2.26a6.11,6.11,0,0,0,2.13-4.6c-2,.18-2.68-8.45-2.49-10.87h1.11c.59-3.17-4.13-4-6.19-2.28-.26.24-3.53,6-3.6,6.29.55-1.71.58,4.12.09,3.06.44,1,1.29.76,1.89,2.15.39.9,2.23.86,1.89,2.27-.58,2.48-2.83-.9-2.93-.94-2.52-.75-4.45-1.76-6.87-2.65-1.26-.47-5.8-3.06-6.53-2.93-3.17.53,6,4.54-.14,7.19,0-5.27-10,3.82-8.13-2.17-2.64,1.7-5.64,1.77-8.3,3.72-.46.35-6.19,6.12-5.8.3,4.35.16-.73-3.06-3.19-3.06,1.08,1.18,1.86,7.19.77,7.93.27-.16-2.56-.88-3.36-.71-.63.13-2.37,2.3-3.61,2.41.34.55,1.29,2.16,1.21,2.95-1.76-1-3.84-.05-5.32-2.1-3.55,2.1,1.79,2.37,1.79,3.59,0,1-2.68.51-2.9.38-2.66-1.39-1.33-1-2.52-3.2-1-1.87-3.12-4.24-4.71-6.54,1.42.29,16.49,6.86,14.7-.85-.43-1.85-4.52-3.57-6.09-4.21-2.47-1-6.15-.28-7.23-1,1.25-2.9-3.83-2-5-3.15,1.94,0,.95-1,0-1.56-2.5-1.45-1.48.37-3.25.37a11.88,11.88,0,0,0,.54-1.85,6.74,6.74,0,0,0-2.37,0,20.1,20.1,0,0,0,0,2.33c-.44-1.18-.83-1-1.67-1.81-.32,2.08-1.16,3-1.16.29a3.63,3.63,0,0,1,1.23,0v-1.22c-.73.12-5.39,2.86-3.7.85-3.61-.4-3.29,1.75-1.38,2.93-1-.46-2.42-.07-3.51-.47,0,1.09.17,1.38-.53,2,0-1.36-1.79-2.6-3-2.47.49,1.89-1.13,4.82-1.45,2.08-2.1,2.31-.15.66-.87,3.13-1.77-.79-1.36-.24-1.89-2.19-.72.28-1.13,1.14-2.25,1.71.32.62.27.33.27.94a3.94,3.94,0,0,0-3.43,2.08c1.79-.63,4.42-2.46,6.33-1.41-2.54.64-6.29,5.39-6.77,8.81a5.76,5.76,0,0,0-2.85,1.77h1.38c-.2,1.86-4.12,3.72-5.33,3.43a2.55,2.55,0,0,0,.17,1.41c-4.66,1.06-5.25,4-6.19,7.77,3.87-.13-1.38,2.55,2.15,2.87-.07,1.07-.55,1.23-.43,2.24,3.8,0,5.2.48,7.74-3,1.67.32,2.93,6.87,4.4,8.71.41.53-.94,1.46.12,1.89,2.47,1.06,1.4-.91,2.44-1.33a47.89,47.89,0,0,1,4.48-1.87,1.32,1.32,0,0,0,0-1c-.92.11-1.19.08-1.72-.37.53-.93,2.76-4,2.93-4.47.55-1.57,2.66-2.93-.51-2.93,0-2.5-2-4.84.41-7.85,1.19-1.54,3.39-1.62,4.48-3.22.72-1,.75-4,2.44-5.2,1.31-.89,4.3.63,4.52,2.33.51,3.67-10.28,5.72-5.32,12,3.48,4.45,9.58-.95,13.67,1.63-2.28,2.55-5.54,1.44-8.25,1.81a45.71,45.71,0,0,0-4.84,1.59c.39.16.68.38,1,.54a6.31,6.31,0,0,0-2.15.58c.94,2.72,2.73-.42,3.36-.1,1.19.63,1.28,1.33,2.32,2.1-2.95,4.12-2.75-.69-4.47,0-2.08.82-1.94,5.77-2,7-1.77,0-4-1.07-2.57,1.59-2.66-3-4.13.22-7.06.51-1,.08-5.25-2.66-5.54.34a5.26,5.26,0,0,1-2.81-1c.32-3.28,4.57,1.38,4.14-4.45-.63.32-2.71,1.12-3.1,1a10.68,10.68,0,0,1,.51-2,1.12,1.12,0,0,1-1,0c.38-3.09-.34-3.65-2.52-1.2-1.52,1.7-.41,3.54-.48,5.19-.17,4.26,1,1.92-2,3.83a13.05,13.05,0,0,1-5.9,2c2.2,3.12-2.08,2.8-3.7,4.15-.17.14-1.5,3.52-2,3.68-1.62.55-2.61-1.07-3.68-1,2.52,4.76-2.47,1.43-4,2.71-1.82,1.54.48,1,1.06,1.94.85,1.31,1.84,1.84,2.71,3.81,4.89,10.72-7,4.1-11.78,6.33.92,3.44-.44,7.45.34,10.78.7,3-.22,1.14,2.15,2.82,1.5,1.07,2.27.06,3.7,2,.32-.4.27-.59-.17-.56,2.47-1,5.54-2.08,7.5-4.07.8-.83,1.19.21,1.79-.72.36-.56-.73-1.49-.68-1.54.29-.46.51-2.35,1.12-3.15.79-1.06,4.28-2.18,4.88-2.74s-.51-2.05.8-2.92c1.09-.75,3.07.93,4.28.69.46,0,2.73-3.09,4-2.88,1.67.32,3.33,3.81,4.71,5,4.16,3.57,11.52,8.44,1.14,8.44,2.78,5.35,7.16-.21,8.34-3.38h-1.47a4.86,4.86,0,0,1,.07-1,14.94,14.94,0,0,0,3.12.66c-1.06-2.26-4-4.87-6.62-5.29.26-1.78-2.42-4-3.63-3.91.36-6,3.84-.67,6.5,1.46,1.82,1.46,4.19,2.48,5.2,4.52.63,1.28,1.5,4.69,2.16,6.07-.71-.24-.9-.4-1.55-.26.55,1.62,1.33,2.39,2.32,1.11,1,5.86,4.57-.42,6.53-.77-.31-.61-.72-1.12-1.38-1.12a1.45,1.45,0,0,1,0,1.12c-1,0-3.14-3.48-2.83-4.23,1,.64,1.62,1,2.76.45a.58.58,0,0,0-.6-.45c3.89-6.31,6,10.06,6.65,10.06s.53-2.13.53-2.42c1.5,1.46,2.71,1.17,3.89,1.36-1.23-.19,2-.91,1.91-.91,1.24-.05,1.79,1.65,3.8,1.12a13,13,0,0,1,0-1.65c3.77.85,4.07,2.29,2.69,6.7-.47,1.55-2.23,4-3.44,4.63-1.47.7-2.85-1-4.23-.15,2.15,1.11,3.65,8.22,6.09,5.48,3.66,4.2,4.55,10,6.95,14.37,1.52,2.77,4.64,4.95,5.94,8.14,1.77,4.31-.58,6.92,4.38,7,2.23,0,4.87-2.34,7.06-3.35,2.52-1.11,3.75-2.29,5.76-3.3,2.59-1.3,4.14-.74,5.93-3,.84-1,2.59-3.62,3.7-3.12,0-2.65.05-2.76,1.81-3.59-.19-1.27-2.15-2.71-3-3.51-1.55-1.46,0-3-2.23-.56-.24-1.14-.55-3.64-1.37-4.34a4.55,4.55,0,0,0-1.38,3.41c-3.44-.32-8.81-.19-2.49-1.44-.1-.42-4.94-1.91-5.18-2.07-.75-.59-3-3.38-3.24-4.63-.66-4.37,1.26-2.93,3.6-1.12,2.9,2.18,3.9,3.19,7.31,4.42.58.21,1.95-.22,2.75,0,.61.18.75,1.67,1.58,2.07,1.52.8,5.32,1.17,7.11,1.25,4.13.16,5.29-.24,8.61,1.84,1.79,1.12,2,2.53,4.64,3.09-4.74,0,.7,2.71,1.79,3.11,1.79.64.85-2.66,2.76.29.94,1.39.19,3.2.43,4.74a44.88,44.88,0,0,0,2.5,8.3c.67,1.92,1.91,8.2,3.6,9.29s3.58-.88,4.57-3.14a16,16,0,0,0,.85-5c.09-.9-.22-2.55.05-3.3.89-2.53.7-.05,2.37-1.86,3.21-3.41,7-8.57,10-10.38,1.13-.72,6.19-1.86,6.26-1.81,1,.69,3.19,6.2,3.19,7.45,2.95,0-.43,2.72,1.72,4.58,1.45,1.25,3.1-1.41,3.36-1.33,2.3.69,3.9,7.35,3.85,10.08,0,1.47-2.06,3-1.16,5.51.53,1.49,2.61,2.88,3.36,4.77.89,2.29,2.76,10.51,6.75,8.41-1.36-2.58-1.36-7.16-2.74-9.05-2-2.64-4.35-2.5-4.91-6.34-.12-.87-.89-4.7.41-5.9,2.11-1.89.37-.46,2.42.77,1.79,1.06,1.62,1,3.22,3.19.36.51,1.67.91,1.86,1.23.58,1.06-.17,2,.68,3.62,1.72-2.67,4.33-3.36,5.68-5.41,2.52-3.77.95-6.94-1.11-9.87-3.12-4.47-3.94-9.9,3.27-9.9.46,2.29-2.66,4.79-1.45,6,2.95,2.88,3.57-5.53,3.5-5.48,1.29-1.28,4.07-1.36,5.52-1.86a12,12,0,0,0,4.62-2.74c2.49-2,7.08-6.55,7.67-10.25.43-2.71-.88-1-1.12-2.87-.14-1,.75-.8.44-2.61-.39-2.18-3.15-4.9-3.1-6.47.1-3,2.88-2,3.87-3.59.87-1.41.87-1.33-1.69-2.37-1.14-.42-.85,1.47-2.32,1.47.41-3.54-3.8-1.07-1.94-4.37a26.2,26.2,0,0,0,3.53-1.54c3.78-1.57,2.66-2.08,1.11,2.29,1.12-.7,4.09-2.43,5.35-1.81,2.64,1.3.56,1.75.77,4.15,4.07-1.86,2.84,5.21,2.4,7.37,2.9.34,6.19-1.78,6.12-4.87-.05-2.77-3.24-3.09-2.59-6.95.14-.77,1.43-.18,1.55-.55a29.62,29.62,0,0,1,.7-3.44c.58-.88,1.55-2.66,2.64-3.19.62-.29,2.9.27,4.06-.11a6.4,6.4,0,0,0,3.17-2.07,41.23,41.23,0,0,0,5.78-7.48c1.55-2.53,1.11-4.55,2.15-7.16,3.34-8.62,1.84,8.38,1.84,10.75.63-.69,1.11-.32,1.67-1.7.77.8.09,1.44,1.74,1.52-.46-3.46-3.82-6.52.85-6.52.12,0-2.23-11.77-2.32-13.15h-.68c.12,2.82-.7,2.61-.7,5.22-2-1.28-1.58-4.05-5.16-5.22-.41,2.87-1.67,1.92-2.75,0a4.31,4.31,0,0,1,0,1.52c-1.53-.24,0-1.31-1.11-2.37-2.42,2.66,0-1.36.84-2.45,1.35-1.65,2.78-2.77,4.26-4.79C517.9,147.26,520.68,147,525.35,147Zm-250.7,1.76a3.41,3.41,0,0,0-1.81,2.18c.73-.22,3.12-2.45,1.81-2.18C274.34,148.85,274.75,148.75,274.65,148.75Zm1.82,21.2c1.74,0,3-1.33,4-1.51,1.52-.27,3.67.53,4.91-.08a4.68,4.68,0,0,0,2.3-5.59c-.37-1.38-1.31.82-1.36.77-.58-.66-.48-1.75-.94-2.18-.78-.75-1.84-2.5-2.86-3.81-1.54-2-1.74-1.51-2-3.11-.15-1.06,3.82-5.22-2.06-3.3.49-.93.56-1.7,1.48-2.29-1.94-2.13-2.78,1.17-3.51,1.81-.12.11-4,1.57-1,2.16-.26,1-1.25,2.42-1.2,3,1,.13,2.29,1,2.56-.19-.24,3.7,1.52,1.65,2.78,4.63,1.43,3.46-1.5,1.1-3,3.14a11,11,0,0,0,1.71.19c0,1-2.32,1.46-1.54,2.45.48.61,2.9-.29,3.7.56C280.19,167,275.4,170,276.47,170ZM275,160.22c3.82-.62-6.07-6-3.77-1-1.82.37-4.26,3.16-1.28,3-3.87,6.18,1.52,2.08,4.81,2.88A48.52,48.52,0,0,0,275,160.22Zm92,144.1c0-3.65,2.37-11.16-1.54-12.86a11.31,11.31,0,0,1-2.23,5c-1.45,1.47-3.7.85-5.17,2.42-1.14,1.23.14,5,0,6-.27,1.92-1,2.16-1.38,4.55-.46,3.12.19,7.72,4,6.82s2.47-2.11,3.1-5.67c.05-.43,1-4.47,1-4.55C365.09,305.57,367,304.93,367,304.32ZM338.46,214c-1.65-4.31-2.59-2.66-6.19-3.14-5.2-.69-9.22-2.53-14.1-3.75,0,5.19.09,4.23-3.1,4.28.65,0-2.8-1.11-2.47-.95h-2.51a4.21,4.21,0,0,1-.51-1.52c-1.52-.56-6.12-1.38-7.06-2.79-1.77-2.61,2-3.09-1.21-5.35.85-.78.75-.88,1.91-1.15-1.62-3-6.07-.21-8.44-.16s-5.2-1.17-8.42.38c-2.18,1-3.65,2.42-6.53,2.34-3.48-.05-5.35-2.72-5.35,2.26H271.9c1.16,4.6-1.89,1.62-2.57,3.14-1.09,2.42-.72,5.3-1.72,6.84-.6.9-2.87,2.13-3.79,3.4s-2.18,3.52-3.27,5.27-5.42,6.23-4.81,8.89c.17.75,2.61-.32,3,.59.34.72-.49,1.06-.34,1.49.68,2-.46,5.22-.6,7.21-.17,2.42-.37,4.5,2.07,7.26a108,108,0,0,0,7.92,8.25c1,1,1.47,3.15,3.6,3.62,2.39.48,2.71-.64,5-.95,2-.27,3.48.69,4.84.63,2.85-.1,2.66-1.3,5-2.18a14,14,0,0,1,7,0c1.72.85,1.28,2.24,3.82,2.88,4.4,1.06,4.16-1.33,4.26,3.78.05,2.39-.82,5.45-2.06,6.81,5.52,1.91,9.14,14.31,8.25,20.22s-4.14,6.2-1.35,12.51a51.49,51.49,0,0,1,3.26,10.59c1,4.47,4.16,7.5,5.32,11.55,1,3.46-.53,4.55,1,6.44,4.16,5,15.17-.9,18.41-4.74a28.11,28.11,0,0,0,4.11-5.85c.73-1.76-.24-4.26.17-5.32.36-.85,3.1-1.39,4-2.67,2.34-3.35-1.19-4.78-.51-8.3.53-2.84,5.32-4.31,6.7-5.69,3.41-3.36,3.6-7.11,2.76-12.16-.49-2.85-2.88-7.08-1.89-10.54,1.3-4.66,6.72-9.16,10-12.3a30.91,30.91,0,0,0,6.37-8.14c1.08-2.1,1.79-2.29,2.05-5.11.44-4.44,1.09-3.38-2.39-3.4-4.84,0-6.27,2-9.63-2.05-1.94-2.37-5.06-4.58-6.89-7.22s-3.7-8.48-4.82-11.55c-1.67-4.68-2.63-9.49-5.68-13.65C338.34,213.7,338.65,214.29,338.46,214ZM163.54,358.89c-.68-.15-.63-1.33-1.11-1.33.21,0-1.55,2.24-1.55,2.21,0,.35,3.19,3.06,3.43,3.2a1.12,1.12,0,0,0-.17.77c-5.51,0-1.11,5.35-2,7.56a4,4,0,0,1,1.38,0,.76.76,0,0,1-.78.87c.9,1,.44.43,1.31.67a40.56,40.56,0,0,0,4.28,5.85c3.29,2.24,6.41,1.15,9.56.88-.15-1.12-4.09-2.37-4.91-4.52s-2.54-7.45.6-7.11c0-2.18,4-4.63,3.7-6.2-.31-1.86-4.3-.74-2.93-4.44.44-1.17,2.62-.53,3.1-1.17s-.15-1.55.44-2.24c-.39.48,2-4.15,1.71-2.45.56-3-2.05.08-1.47-4.41,4,1.78,4.83.16,4.23-4,3.34.11,7.35.24,8.88-3.32,1.64-3.78-1.5-2.93-2.11-6.23,3.73.53,5.13,2,8-.85,1.35-1.33,2.42-6.68,3.94-6.44-.22.74-.34.82-.17,1.51,4.43-2.42,3.19-9.31,5.61-12.48a11.32,11.32,0,0,1,6-3.78c3.53-1.11,4.5-.85,6.48-4.65,2.35-4.5,1.38-11.31,3.26-14.93,1.38-2.64,4.41-4.21,5.2-7.24.56-2,.44-1.89,0-3.75-1-4-1-1.39-3.26-3.38a11.59,11.59,0,0,0-6.61-3.25c-1.67-.37-7.57.08-5.1-1.33a11.2,11.2,0,0,0-3.61-2c-3-.64-2.34.11-4.47,1.12a27.37,27.37,0,0,0,1.11-2.71,17.15,17.15,0,0,1-2.68-.8c-.78-.27-.34,1.91-2,1.7.31-.8,3.46-5.14.51-5.14.5-5.74-4.33-6-7.55-6.94-2.61-.69-8.39-3.62-8.39-6.84-1.48.56-4.11-.19-1.82-1.33-1.52-2.16-4.69.88-5.58.85-3.29-.13-4.87-3.17-8-3.81,0,1.87-1.16,1.44-2.15,2.56-.15.16.29,2.71.17,3.14-1.77-1.6-1.31-5,.5-6.23-2.9-.9-11,5-11.51,9.05-.26,2.23,1.86,4.58.49,7.67-.75,1.7-3.92,5.21-5.59,5.85.29,2.87-.8,3.4,1.88,3.62-1.11,2.13-3.72,3.4-2.22,6.89.36.88,2.06,1.06,2.76,2.15a26,26,0,0,1,1.84,3.89c.94,2.56,1.81,6.81,3.31,8.73,2.05,2.61,4.52,3.35,7.09,5.56,4.33,3.75,2.73,11.74,2,17.59-.39,3.19-1.48,6.25-1.82,9.21-.38,3.51,0,7.18-1.28,10.48-1.43,3.68-1.33,5.83-2.22,10,0-.24,0,2.71,0,2,0,.63-1.17,1.27-.92,2.07,1.21,4,2.25-2,3.48-2.07a36.7,36.7,0,0,0-1.57,8.24c-.68-1.25-.85-.55-1.09-2.28C162.4,355.59,163.61,358.18,163.54,358.89Zm4.3-122.14c3-.74,7.33-.19,10.33-1.33-1.33-1.81-5.42-1.22-7.93-1.6-1.6-.21-4.89-2.29-5.15.48a2.2,2.2,0,0,0,2.75,2.45Zm-8.08-.59a3.31,3.31,0,0,0-3.6-1.33c.9,1.33,2.56,2.48,3.6,1.33C159.62,236,159.5,236.48,159.76,236.16Zm3.1-4.23c-1.31-2.31-6.67-3.7-9-4.66-1.47-.58-4.84-2.1-6.67-.92-2,1.3-1.53,1.49.65,2.63.94.53,1.5-1.09,2.42-.91,1.26.22,2.05,1.41,2.73,1.68C156.6,231.16,158.82,231.93,162.86,231.93Zm83.08-102.66c1.58-.28,2.13-.24,2.57,1.51a8.31,8.31,0,0,0-3.44,0c.05.38.12.77.17,1.15,3.51-.64.8,1.54,2.59,2.26.39.13,4.43.58,4.64.56,3.1-.16,3.37-.88,6-2.45,2.25-1.36,3.24.53,3.94-2.09.29-1-1.35-1.06-1.72-1.13.75-4.71-5.08-.52-8-.93-.43,0-3-.44-2.54-.39-1.23-.12.1-2.13-1.2-.38-3.15-1.16-3.92,2.07-3.08,1.89C246.19,129.23,245.7,129.32,245.94,129.27Zm-53,37.84c-.68.48-4.67,7.55-4.38,8.09.61,1.11,2.73.05,3.9.42,1.76.59,2.15,1.39,3.91,2.29,2.69-4.47.17-6-3.77-7.4,0,.08,2.4-4.68.34-3.4C192.73,167.27,193.17,167,193,167.11Zm-9.29,4.18c-1.72-.62-2.47-1.42-4.13-1.15,1.57,1,2.58,3.59,4.13,1.15C183.42,171.21,183.59,171.42,183.66,171.29Zm48.55-50.9c.48-.2,1,.57,1.4.69,3,1.08,3-.2,5.54-1.27,2.22-1,7.74-2.27,8.51-4.55-3,2.58-10.06-3.45-2.54-3.1-.31,0,3.36,4.24,4.21.55.32-1.35-2.76-4.63-3.72-5.21.53-.52,3.91,2.19,2.9-1.32-.49-1.65-1.36-1.68-3.34-.94.39-.67.77-.62,1-1.23a4,4,0,0,1-1-.49c1.09,0,4.21,1.66,5.66.59,3.34-2.45-2.06-1.57-2.06-2.76,0-.29,5.08-.56,5.42-1.22-1.06-1.16-3.87-3.16-.51-3.46.08-3.06-4.11-3-3.62-4.78.19-.7,2.22-1,2.75-.76,2.2.93.39,1.13,1.38,3.32.61-3.93,2-4.87-2.32-4.87,1.19-1.46,0-.4,2.06-1.47-1.21-2-4.19-.08-4.21-.09-3.07-2.73,7.76-10.11,8.78-11.52-1.38.09-2.71-.18-4.07-.22,2.81-.64,4.41-.54,6.82-2.27.66-.47,4.14,0,2.57-2.54-.27-.46-3.87-.24-4.21-.2a47.55,47.55,0,0,0-6.89,1.41c-1.31.41-6.7,3.55-7.48,3.4,3.1-4.27,4.79-4.91-.85-5.82,0,2.47-1.62,2.22-3.79,2.62.36-2,1.62-1.21,2.93-1.89-3.2-2.61-9.05,1.43-12.56.84.95-3.1,15.29-3.36,18.58-3.77V67.2a32.34,32.34,0,0,1-7.31-1c-3.82-.69-7.54.29-11.27-.14,2.73-2.06,8.3-1.14,12.22-1.14-.44-3.35-17.64-2-19.86-1.18-2.37.86-.24,1.73-3.22,2.08-1.74.22-3.19-.91-5-1a19.32,19.32,0,0,0-6.75,1c.56,1.21,1.86.69,1.86,2.41-.7-.6-3.79-2-2.8.08-.24-.52,5.46,3.19,3.84,3.19-3.62,0-6.36-3.21-10.2-3.21,0,.91,2.37,2.46,2.71,3.82-2.3-.72-3.85-3-6.32-3.27.63,1.37.82,4.7-1.21,3.36,0,0,1-2.74-.38-3.55-1.62-1-6.78,2.49-7.86,1.89,1.18.51,3.19,1.21,4.11,2.32-1.65,0-3-1.25-4.74-1.48-1.12-.17-.83-1.14-2.3-.37s-.29,1.91-.68,2.15c-1.35.87-4.16,1.21-6.72,2.72-1,.6-3.49.54-3.34,2.47,1.48.43,2.22,0,3.6,0,1,0,0,3.55-.24,3.75-.46.44-2.61.32-3.29.51-1.76.51-4.93.29-6.72,1.46-5.83,3.77,4.93,4.09,8.1,4.09-.63,2.89-7.13.76-7.13,2.41,0,.81,2.83,1.69,3.43,1.83-.48,0-.53,0-.68.39.87.77,2.54,2.37,3.82,1.85-.09-.2-.65-.76-.36-1,1.94-1.32,10.26-.31,12.55,1.32,3.32,2.34,5.86,7.13,6.17,11.53h.82c-3.28,6.5,4.62,1.16,6.87,7-2.12.06-4.13-1.57-6.09-.67.48,1.61-1.28,4.23,1.72,4.31,2.61.07,3.45-2,.41-2.5,4.33-.57,3.29,1.28,4.5,4.63-1.94-.11-3.46.27-3.41,2.36-4.31-.62.21,5.57.48,6.57-.1-.27,1.28-.65,1.55-.06s-1.41,1.1-1,1.54c-.68-.7.77,2.66.6,2.18a6.19,6.19,0,0,1,2-1.07c-1.33,3,0,8,2.92,10.43,1.31,1.1,7.74,3.84,8.78,3.2,1.43-.85,1-4.1,1.63-5.56.36-.88-.88-1.15-.39-2.19.24-.56,1.52-.18,1.93-1,1.74-3.52.68-6.87,5-7.28-.12-2.29.1-.65,1.21-1.43C222.92,133,232.16,120.4,232.21,120.39ZM138.34,91.13c1.83,3.12,10.11,2,13.15,1.43.83,2.27,5.71.86,5.52-2.09-.46.24-.92.45-1.38.66-.15-.46-.29-.94-.44-1.41,2-.4,1.87-1,1.38-2.85,2.47.75,4.55.35,2.83-2.15-.26-.39,2.59-.09,2.59-.48,0-2.62-4.38-1.77-5.49-.68-.12-.3-.24-.62-.34-.93,2.81-2.17,5.85.84,8.49-1.81l-1.52-1.21c1.76.52,3.46.94,5.41.08-.84-.72-.72-1.28-1.81-1.8,4.06,1.08,8.85-3.8,12.63-4.91-1.21-1.33-4.45,0-6.53-.3,1.69-2.41,11.1-.08,11.7-3.41.39-2.26-8.17-2.66-10.23-2.07-.8-.88-4.06-1.85-6.12-2.09-.8,3.15-10-1.45-9.36,2.19-2.59-1.06-8.29-1.66-10.25,1.41,2.17-.13,4.54.36,5.61,2.28-2.18-.63-5.08-2.15-7-2.56s-3.6.73-4.16.81c-2.08.32-6.24,1.53-8.75,2.12,0,.28-.05.57-.08.86,2.13.74,2.28,2.09,4.65,2.88,3.38,1.14,3.5-.85,6.43-1.28-5.88,3.78,3.24,2.48,4.84,2,3.29-.89,5.56-3,9-2.88a6.7,6.7,0,0,0-3.8,1.88c1.26-.24,2.32.21,3.53.2-1.74,1.42-7.28,1.89-9.79,2.06v.95c1.67.77,2.66,2.12,4.64,2.08-2.92.88-7.3-2.28-10.59-2.74.26,3.09,5.27,5.57,8.1,5.41-.65.83-.94,1.46-1.47,2.15-4.91-5.29-12.27,2.93-3.17,1.15-.49.29-1,.57-1.48.85,1.07,1.91,3,1.29,4.48-.38-1.67,4.9-6.61.26-9.63.68C141.24,89.42,140.05,90.29,138.34,91.13Zm.77-6.16c.48-.64,1.35-.24,1.11-2,5.49.92,4.21-2.81.8-5.16.19.14-11.1-6.11-10.84-4.29.8.19,1.53-.45,1.72.67a16.18,16.18,0,0,1-3.36.56c.7.51.92,1.29,1.21,1.61a17.65,17.65,0,0,0-2.32.09,10.94,10.94,0,0,0-.61,2.94c2.06,2.27,5.08.33,7.31,2.37-1.33.09-2.69.82-3.95,1C132.72,85.32,136.11,86.26,139.11,85Zm-4.48,3.23c-.24.44-.5.88-.77,1.34a4.47,4.47,0,0,0,3.87-.3C136.93,87.58,136.13,87.89,134.63,88.2ZM136,99.65c1.7-.39,20.71,1.33,17.9-3.49-1.67-2.9-9.17.21-11.46.15-4.82-.12-5.47-5.6-9.77-4.22C134.27,95.11,132.6,98.34,136,99.65Zm-11.95.38h1.21C124.74,98.61,124.74,99.74,124.06,100Zm2.67-2.36c.89.86,5.56,3.24,5.07-.1C131.42,94.84,127.52,96.15,126.73,97.67ZM131,93.59c1.91-2.19-.9-3.75-2.93-3.4C123.85,90.92,129,93.62,131,93.59Zm-3.53-4.53A18,18,0,0,0,132,88.4v-.94C130.06,87.17,128,87,127.43,89.06Zm.34-2.37c4.3-1.16-2.88-3.3-4.21-2.84C124.14,86.1,125.54,87.47,127.77,86.69ZM123,79.61c-.63-1.32-1.06-2-2.66-1.72V79C121.45,79.57,121.89,79.82,123,79.61Zm-1.11,8.12c1.26-4.74-7.23-7-10.43-5.69,1.24.56,1.87,1.63,2.76,2.48h-1.45C114,86.44,119.4,86.7,121.84,87.73Zm-3.27.2c-1.08-.47-1.42-1.16-2.75-.76C116.32,88.79,117.17,88.26,118.57,87.93Zm-.79,8.23c1.76-1,2.83-.21,3.19,2,2.3-.1,4-1,3.75-3.68-.32-3-3-1.72-5.47-2.76a8,8,0,0,1,2.25,2.65,23.93,23.93,0,0,0-4.06-1.69c.17.8.19,1.55.43,2.36-1.59-1.35-2.3-3.54-4.54-3.79C113.06,94.09,115.43,95.52,117.78,96.16Zm-5,.76c.2.15,1.89,2.29,1.89.08C114.68,95.75,113,96.92,112.79,96.92Zm.61-7.11a5.49,5.49,0,0,0-2.49-2.44C111,89.26,111.85,90.32,113.4,89.81Zm44.82,34c1.23.4,4.64-.08,3.43-2.22C160.59,119.66,156.74,121.1,158.22,123.78Zm-27.79-16c.5-1,1.35-.64,1.3-2.17,2.4.94,3.39-1.4,4.65-3.3-1.77-.72-5.49-2.08-7.07-.84C127.91,102.59,127.31,108.75,130.43,107.78Zm-7.57,2.94c4,0,4.76-3.94.94-5.86,2.9-1,.63-3-1-3.55-.29-.09-2.61,1.29-4,1,2.41,2.78.55,4.55-2.13,2.93C116.81,107.14,121.26,109.8,122.86,110.72Zm-9.63-6c.72-2.6-2.27-3.12-3.7-1.69C110.88,104.46,111.83,105.41,113.23,104.76Zm-5.69-2.17c.15.16,1.09,1.36,0,0ZM99.2,85.37h6.12C104.26,82.86,100.87,83.59,99.2,85.37Zm1.74,4.17c1.72,0,3.9-.23,2.4-2.08.72-.36,1,0,1.47-.95a7.85,7.85,0,0,0-5.68,1.12C99.47,88.91,100.07,89.08,100.94,89.54Zm-3-1.71c-.53-1.22-.68-2-2.32-1.71C96,87.67,96.71,87.53,97.92,87.83ZM96.2,92.56c-2.44.78-4.88,3.55-3.17,5.07,1.53,1.35,7.11,0,9,.14-.65.84-4.66,0-4.4,1.56.37,1.77,3.36.66,4.36.46,2.1-.42,10-1.55,9.4-4.77.22,1.23-5.17-3.28-4.71-3.13-2.52-.81-3.46.8-2.15,3.31.48.22,1.25-.12,1.42.54C106.21,96.76,97.48,93.05,96.2,92.56Zm.51-1.8c.56.27.72,1.26,2.08.94,0-.3-.07-.63-.1-.94A3.51,3.51,0,0,1,96.71,90.76Zm-6.87,4.07L89,96c1.89,0,1.52.36,2.51-1.61Zm2.76-2.38A4,4,0,0,0,95,88.87c-5.2-1.4-6.87,3.86-11.61,4.43C85.61,97,89,93.65,91,91.61,91.46,93.26,92,92.09,92.6,92.45Zm1.18,24.69c3.73-.33,3.82,1.81,6.73,2.67s5.08-1.37,7.64-1.91c1.55-.3,11.75,1.53,8.17-1.59,1.43,0,1.89-.82,2.76-1.24-3.17-2.4-4.47-2.38-6.07-5.71-.6-1.29-3.29-7.56-5.47-4.58-1,1.4,2.67,4.66-.07,4.43-1.38-.13-1.28-4.19-3.87-4.35.32.59.56,1.28.85,1.89a13.39,13.39,0,0,1-2.73,1,18.68,18.68,0,0,0,.58-1.88,5.07,5.07,0,0,0-4.82.36c.85-3.54-2.2-1.85-3.77-1.09-2.83,1.38-2.93,2.08-4.21,4.5,1.89.81,3.92-.52,5.66.94a6.92,6.92,0,0,0-3.77,1.63c1.91,1.13,8.1-.59,9.12,1.31.36.71-6.8,1.07-7.91,1.79C93,115.89,93.4,116.52,93.78,117.14Zm14.37,3.7c1.55-.45,2.52-.81,2.85-2.26a12.78,12.78,0,0,0-4.57,1.89Zm-24-10.22c3,.51,4.28-4,6.91-5.45,4.28-2.42,5.32-3.14-.17-4.38-1.4-.32-8.49-2.15-10-.8-.82.76-1.07,6.34-2.88,8.56A5.26,5.26,0,0,1,82.7,112ZM12.51,144.89c-1.79-2.58-3.62.34,0,0Zm28.91-2.08c.41-3,4.06.69,5.95,1.31,2.44.79,4.76.21,7.13,1.06,4.19,1.49,7.07,5.69,11.27,6.49a9,9,0,0,0,1.36,2.66c.22.27,2,1.17,2.25,1.6,1.45,2.4,2.3,4.74,3.55,6.6,2.23,3.3,3.07,3.59,6.24,5.67,2.28,1.49,5,4,4.65,7.53-2.57-3.46-5.25-8.22-9.63-7.66,2.06,2.71,5.1,3.67,6.41,7.07s-.39,6.92-.39,9.85c0,5.46,2.47,13.07,5.86,17.14,2,2.37,5,2.47,6.77,5.53,1.45,2.43,2.68,5.51,4,8,.46.8-.56,1.2.48,2.88.63,1,2.37,1.91,3.22,2.87.58.64,3.41,4.31,3.63,5.7,2.66-3-7.72-13.42-8-17.7,2.9-.4,6.22,6.89,8.35,9.42,2.73,3.22,5.2,7.58,8,11.1-4.06,3,12.07,9.63,14.71,10.05.8.14,1.69-1,3.17-.47,1.69.53,2.44,2.5,3.79,3.38s5.78,1.73,5.93,1.51c2.35,1.81,3.53,5.35,4.76,6.66,1.79,1.81,5.86,3.19,8.4,4.41-.7-4.79,4.06-.42,4.25-2,.39-3.14-6-1.17-7.74-2.45-4.25-3.14.29-6.65-1.88-10.14-1.87-3-6.61-.61-8.9-1.73,2-2.44,5.05-10.21.67-9.92-4,.29-2,3.32-4.47,5.45-2.25,2-5.88.69-7.64-1-3.87-3.75-3.73-14.08-1.41-17.86,3.2-5.16,8.28-.16,11.81-1.38-.85-3.25,2.49-2.77,4.57-2.61-.2,0,4.74,1,4.11.53,1.55,1.2,4.06,10.12,5.68,10,2-.19-1.5-12,1.14-15.36,1.69-2.16,5.25-2.69,6.26-5.24.88-2.18-.38-3.25-.94-6,1.45.42.7-.88,2.23.85.55-1.33,1.76-4.87,2.63-5.8,1.09-1.07,3.9-1.28,5.71-1.84-2.64-5.48,7.38-9.42,11.1-8.46-.5-.11-3.6,1.22-4,2.18-1.3,2.93,2.33.43,2.45.4,3.09-.4,6.58-3,7.52-6-2.47,1.28-3.17,3.46-6.19,1.7-4-2.39-.15-4.52-1.07-6.12-2.54-4.31-8.92,3.52-11.58,5.38a12.38,12.38,0,0,1,2.75-3.73c-.65-.16-1.33-.37-2-.56,3.36.83,5.3-3.8,8.18-4.71,1.91-.61,4.57.16,6.5,0,3-.32,2.71-.69,5.28-1.91,2.34-1.07,6.07-1.47,4.95-4.77s-5.12-1-7.52-.71c1.14-2.13,3.46-1.68,5.23-3.3-3-.54-5.76-1.81-7.48-4.74,1.86-1.25-3.43-7.53-4.38-9.85-1.52,1.87-1.52,4.87-4,5.48s-2.06-2.15-4.72-1.38c1.67-6.33-3-8.51-7.45-9.77-5.08-1.46-8.46,1.39-4.86,7.19h-1.21c-.39,1-.12,1.6-.68,2.66,4.77,2.18,3.68,10.14-1.81,9.93,1.57,1.86,3,8.81-.51,9.15s-4.18-7-3.87-9.71a26.78,26.78,0,0,1-9.67-3.28c-1.5-.82-3.27-1.43-4.6-2s-1.47.64-2.49-.05c-.77-.51-.9-2.4-1.4-3.09-1.74-2.37-2.64-1-2.3-4.87a11.66,11.66,0,0,1,2.61-5.29c1.11-1.23,3.73-1.57,3.46-3.36-.19-1.17-4.45-1.83-5.3-2.18,2.23.24,6.36,2.53,7-.56,2.61,1.73,3.84-.24,4.55-2.66-2.37.17-4.16-1.1-6.2-2.17,1.55.07,10.45,2.45,6.8-1.81,4-.33,1.26,6.64-.51,7.39,1.45,1.7,2,2.13,4.21,2.1a13.84,13.84,0,0,1,2.66-1.25c.78-.13,1.62.88,2.25.77,4.94-.93-4.76-4.68-5.59-6.64,2.23-.09.87,0,1.79-1.32,3.39-.28,4.94-3.43,2.66-6.53,4.62-.86-1.08-4.18-2.73-5,2.83-.47,5.85,1,8.85-.19-.46-.47-.91-.94-1.37-1.43,3.14,1,5.32,3.12,8.07,5.39,1.17.94,3.32,2.4,3.39,4.31.1,2.58-4.33,2.48-2.35,5.74-1.64.41-7.49-1-7.23,2.18s4.55-.29,5.64-.16c3.46.48,3.72,3.11,5.92,5.11s5.64,1.65,8.23,3.19c.09-2.39-3.24-3.59-4.48-5.69,2.28,1.22,4.55,2.47,6.7,3.88a29.84,29.84,0,0,0,.95-3.22c-2.11-2.21-4.55-4.2-6.61-7.18,1.57-2.53,2.18-.78,4,.29,2.95,1.72,1.67,2.69,4,2-.17,0,2.91-2.67,2.88-2.65,1-2,1.16-.51-.17-2.36s-14.46-5.89-7.91-7.39c-.65-.2-1.3-.38-2-.57.56-.45.43-.51,1.21-.85-1-.46-1.4-1.32-2.66-1.6.19-.36.38-.69.6-1-2.42-.56-3.55-1.16-5.75-1.8l1.18-.85c-4.35-.12-4.62-2.83-7.64-3.88-2.32-.8-6.8,2.06-7.79,1.47-1.52-.87.39-1.78-.6-3.35-1.7-2.7-1.46-2.35-4.21-1.8-4.16.86-4,4.53-1.84,7.56-4.36.63-3.75-6.53-.63-8.22-3.31-.15-6.41.25-7.74,4.14-1.79,5.31,1.79,2.9,3.53,5.71-1.26-.35-2,.22-3.17.17,1.07,1.67,5.86,2.23,7.91,2.93-1.26.55-1.91,9.85-5.25,7.95-1.5-.85.05-3.44,0-3.5-1.33-1.63-2.54-1-3-1.27s-3.09-1.26-4.08-2.89c-1.38-2.24-1.75-8.41-6-5.18-4,3,4.25,8.5-.39,7.44.7,2.13,2.15,2,3.8.39-.05,3.24-3.92,2.14-2.76,5.86-1.94-1.45-1.48-.85-1.38-3-1.81-.55-.34-.09-1.28-1.61H127a3.48,3.48,0,0,0-3.09-3.78c-.49.53-1.63,1.89-2.06,2.45.89.39,1.6,1.41,2.49,1.81-2.06,4.08-6,2.23-9.46,1.37-2.22-.56-2.49-1.52-4.64-.53-3.17,1.47-1.69,1.7-2.15,5.21-1.41-5.51-8-3.66-12-4.07.34-.21.73-1.16,1.89-1.6-2-1.76-8.66-3.85-11-4.36-2.92-.61-5.78,2.7-6.87-1.21-.84,3.15-1.45,1.16-2.8,1.08-.44,0-.92-2.14-1.94-2.28-1.35-.17-.5.95-1.25,1.11-1.5.37-5.64,2.83-7.43,4,1.57-2.27,4.14-2,5.66-4-2.9,0-6.34,1.76-9.24,2.42-4.89,1.12-6.84-1.1-11.83-1.71-3.75-.45-7.18-1.31-11.07-1.65-4.12-.37-6.25-2-10.5-1.43l.43-1c-2.61-.54-6.14,1.3-8.46,2.07-3.19,1-3.41,3.18-5.64,4.69-3.17,2.11-5.42-.14-2.88,3.55,1.6,2.33,5.06,2.65,6.22,5.67-1.81.66-3.77.56-3.87-1.69-2.06,1.61-4.38,1-6.09,3.3,2.22,1,2.2,3,4.11,3.54,2.2.61,5.1-1,7.16-1.25.29,6.91-7,2-8.08,8.14-.27,1.65,3.19,8.57,5.42,4.52a4.32,4.32,0,0,1,1,4.53c2.18-.48,4.62.34,5.69-1.12.67,0,1.57.21,2.49.19-1.62,7.93-9.82,6.62-13.67,11.46C19,160.29,28.28,151,33.07,148c-.43-.69-.84-1.38-1.28-2.08,2.93-1.06,4-6.41,7.4-4-2.39.32-3.72,1.87-3,4.37A12.53,12.53,0,0,1,41.93,144C41.76,143.64,41.59,143.21,41.42,142.81Zm-7,7.75v-1.71c-1.74,1.39-4.28,1.76-2.86,4.26A6.57,6.57,0,0,0,34.38,150.56Z"/></g><line class="cls-4" x1="50.25" y1="507.53" x2="50.29" y2="443.75"/><polyline class="cls-4" points="21.62 458.91 49.71 481.04 69.38 456.06"/><path class="cls-1" d="M49.82,453.52a33.37,33.37,0,0,1-9.27-14.95c-2.58-9.25,9.92-26.05,9.92-26.05s8.2,17.06,9.08,25.11S49.82,453.52,49.82,453.52Z"/><path class="cls-1" d="M62.28,464.81s.06-9.23,1-14.37,8.23-8.39,13.51-9.67,15.42.22,15.42.22a27.22,27.22,0,0,1-9.46,16.69C74.41,464.35,62.28,464.81,62.28,464.81Z"/><path class="cls-1" d="M35.49,468.73s2.8-4.86-7.68-15.47S0,451.37,0,451.37s8.36,12.18,13.61,16.17S35.49,468.73,35.49,468.73Z"/><path class="cls-1" d="M49.44,494a29.06,29.06,0,0,0-16.15-10.52c-10.4-2.3-16.87-.63-16.87-.63s6.64,13.62,14.28,15.51S49.44,494,49.44,494Z"/><path class="cls-1" d="M49.44,494s1.21-3,5.58-5.77,16-3.46,16-3.46-.3,5.8-7.17,8.92S49.44,494,49.44,494Z"/><line class="cls-5" x1="35.49" y1="468.73" x2="9.48" y2="452.82"/><line class="cls-5" x1="49.82" y1="453.52" x2="49.82" y2="426.46"/><line class="cls-5" x1="62.28" y1="464.81" x2="76.43" y2="449.05"/><polyline class="cls-5" points="33.67 491.27 49.45 494 58.95 491"/><polygon class="cls-6" points="67.64 501.14 28.36 501.14 31.64 531.73 64.37 531.73 67.64 501.14"/><path class="cls-1" d="M324,335.38l3.43,17.15s-23.15,6.86-39,10.72-24.67,6.6-23.39,14.75,0,26.16,0,26.16l-17.34,76.57-1.29,5.57,36,6,6.43-21.44s3.86,6.86,3.86,11.58-4.29,49.44-4.29,49.44H422.22l15-93.6s10.72-48.88,11.58-56.16,4.71-15.44-1.72-21-65.17-9-66.45-9.44-4.72-1.71-4.72-1.71l-1.28-12.43a52,52,0,0,1-21.44,5.14c-11.58,0-28.73-11.57-28.73-11.57Z"/><path class="cls-7" d="M329.51,471.19s24.13,10.16,40.63,12.27"/><path class="cls-7" d="M288.45,413.84s-7.72,32.16-6.43,42,6.86,15,6.86,15"/><path class="cls-8" d="M282.8,502.64s3.92-5.43-1.51-12.37-19.62-10-26.25-9-11.17,5.43-16.9,10.86S226.67,502,226.67,502s-9-7.84-12.67-9-16.29,10.86-19.61,14.18-6.64,3.93.91,8.75,9.65,4.23,16.89,4.53,26.86-1.51,30.17-3.32,13.88-1.21,21.73-3.92C277,508.73,277.06,508.37,282.8,502.64Z"/><path class="cls-8" d="M184.29,503.32s-8.35,1.39-10.78,3.13-7.3,6.25-5.22,8.69,8-3.13,9-3.13,12.17,2.43,12.17,2.43S188.46,505.05,184.29,503.32Z"/><path class="cls-8" d="M193.67,493.58s-10.77,2.09-11.82,5.22.35,19.12,1.39,21.2,4.18,2.09,5.57-.34,1.39-12.52,2.43-14.95S193.67,493.58,193.67,493.58Z"/><path class="cls-8" d="M206.54,492.19s-8.35-3.13-12.17-1.74-6.26,25.38-4.17,26.77,5.56.35,6.6-2.78,3.13-10.78,3.13-10.78l5.22-4.17"/><path class="cls-8" d="M216.45,489.19s11,11.09,14.14,12.86a19.28,19.28,0,0,0,9.86,2.53c4.09-.16,7.61-3.53,11.7-1.4a4,4,0,0,1,2.23,2.68c.28,1.69-1,3.22-2.38,4.29A22.23,22.23,0,0,1,232.13,514a3.1,3.1,0,0,0-1.33-.21,2.82,2.82,0,0,0-1.2.62c-2.23,1.63-4.25,3.33-6.88,4.23-4.89,1.67-11.13.2-11.13.2"/><path class="cls-7" d="M211.59,503.06s3,3,7-1.33"/><path class="cls-8" d="M212.79,496.36s-3.13,13.56-4.52,16-4.86,3.47-7,1,2.78-20.86,3.13-23.64a3.16,3.16,0,0,1,3.13-2.78s5.21-.7,7.3.34,5.56,8,5.56,8"/><path class="cls-8" d="M380.63,351.67c-1.29-.42-4.72-1.71-4.72-1.71l-1.28-12.43a52,52,0,0,1-21.44,5.14c-11.58,0-28.73-11.57-28.73-11.57l-.43,4.28,3.43,17.15s-9.33,2.77-20.2,5.77c5.07,11.29,18.91,38.56,36.5,44,17.27,5.31,42.52-32.1,53-49.22C387.76,352.29,381.05,351.82,380.63,351.67Z"/><polygon class="cls-9" points="330.1 365.26 316.28 355.63 327.46 352.53 330.1 365.26"/><polygon class="cls-9" points="327.46 352.53 330.1 365.26 351.62 351.86 324.03 335.38 327.46 352.53"/><line class="cls-7" x1="375.91" y1="349.96" x2="377.38" y2="360.32"/><path class="cls-7" d="M381.26,370.56s-20.82,5.64-24.35,6.7-6.7,2.47-7.41,4.24"/><line class="cls-7" x1="321.98" y1="374.09" x2="338.49" y2="381.52"/><path class="cls-8" d="M385.7,289.68s2.5-5.72,5-1.07S395,299,391.77,304.32s-6.07,7.5-6.07,7.5l-2.86-23.21Z"/><path class="cls-8" d="M302.84,302.89a21.37,21.37,0,0,0,.36,15c3.21,8.22,12.5,7.5,12.5,7.5s8.57,13.58,15,19.65,25,16.07,32.5,13.57,18.21-17.86,21.43-31.07S385,295,385,295s1.43-11.79-2.5-21.43-8.92-13.57-17.85-12.5-31.79,4.28-44.29,12.85S305,289,305,292.89,302.84,302.89,302.84,302.89Z"/><path class="cls-9" d="M372.48,272.18s3.58,7.86,6.79,10l3.21,2.14s1.79,7.86,2.5,10.72,3.22,1.78,3.58-1.79.35-8.21.35-8.21a23.58,23.58,0,0,0,7.5-10.72c2.5-7.14,5-17.14-2.85-25.36S377.13,239,373.2,240,369.27,261.82,372.48,272.18Z"/><path class="cls-9" d="M302.84,302.89a3.9,3.9,0,0,1,5.36.72c2.5,2.85,1.43,6.78,2.85,8.21s4.65,2.5,5-1.78S313.55,299,315,295.75s6.07-6.79,10.36-4.29,11.79,8.22,17.14,1.43,5-17.5,8.93-17.85,3.22,3.57,12.5,2.5,13.22-3.22,13.93-22.86-9.28-36.43-22.5-40.72-49.29,2.86-62.5,21.43-12.5,37.5-7.14,45S303.91,301.11,302.84,302.89Z"/><path class="cls-10" d="M363.63,242.87s-13.94-4.05-19.78,2.7-6.29,21.58-13,23.82-11.69-4.49-16.63,0-1.35,12.14-8.09,14.84-15.29-4.05-15.29-4.05"/><path class="cls-10" d="M322.72,255.46a15.76,15.76,0,0,0-13,3.14c-5.84,4.95-.45,12.14-8.54,13.49s-13.94-4.49-13.94-4.49"/><path class="cls-7" d="M360.34,311.47l1.07,8.92s6.79,8.22-.71,10-7.15-2.85-7.15-2.85"/><path class="cls-7" d="M346.41,335.39s8.57,5,15,3.93,10.36-8.57,10.36-8.57"/><path class="cls-11" d="M343.2,313.43c0,2.46-1.28,4.46-2.86,4.46s-2.86-2-2.86-4.46,1.28-4.46,2.86-4.46S343.2,311,343.2,313.43Z"/><path class="cls-11" d="M372.13,308.07c0,2.47-1.28,4.47-2.86,4.47s-2.86-2-2.86-4.47,1.28-4.46,2.86-4.46S372.13,305.61,372.13,308.07Z"/><path class="cls-7" d="M327.84,304.68s7.86-6.07,17.5-4.29"/><path class="cls-7" d="M362.84,297.18a12.71,12.71,0,0,1,12.86-2.86"/><path class="cls-7" d="M348.47,304.64l-20.26,3.81a3.38,3.38,0,0,0-2.68,4l1.44,7.08a3.71,3.71,0,0,0,4.42,2.89l18.84-4a3.72,3.72,0,0,0,2.92-4l-.7-6.75A3.38,3.38,0,0,0,348.47,304.64Z"/><path class="cls-7" d="M363.81,301.46l20.84-3.54a2.85,2.85,0,0,1,3.49,2.79l.07,7.13a4.47,4.47,0,0,1-3.77,4.27L365,314.94a3.14,3.14,0,0,1-3.74-2.74l-.72-6.56A4,4,0,0,1,363.81,301.46Z"/><path class="cls-7" d="M353.29,309.08s2.66-3.07,7.37-1.22"/><line class="cls-7" x1="326.08" y1="315.22" x2="309.5" y2="306.83"/><path class="cls-1" d="M410.64,405.7l-3.73,70s2.58,1.29,14.58,9,30.44,8.58,33,5.58-8.28-111.59-8.28-111.59"/><path class="cls-8" d="M247.19,504.75s-1.21,1.21-5.73,1.81-10.56-1.51-12.07,3,5.43,7.24,9.35,6.64,11.17-3.32,11.17-3.32,8.45.3,12.37,1.81,6.94,3.92,13,2.41,11.31-.48,13.2-3,7-5.2-8.07-9.12a58.72,58.72,0,0,0-26.85-.9Z"/><path class="cls-8" d="M259.56,493s-5.43-1.81-8.45.3-7.24,17.81-8.44,22.33-1.21,9.36.9,10.26,4.53-.9,6-4.83,9.95-21.12,10.86-23.23S263.18,492.38,259.56,493Z"/><path class="cls-8" d="M273,494s-10.73-1.94-13.45-1-9.35,16.9-9.65,19.92-3.62,13,.3,13.88,6.34-2.72,8.15-6.34,5.43-15.09,7.54-17.8a19.21,19.21,0,0,1,5.73-4.53S276.21,496,273,494Z"/><path class="cls-8" d="M452.54,493.56s10.54-3.28-5.75-12.72-33-10.71-38.59-8.57-88.88,29-88.88,29S279,494.87,273,494s-9,5.57-11.57,10.71-6,19.3-5.15,21,5.15.43,6-1.71,3.43-9.43,4.28-10.72,7.29-5.15,7.29-5.15l10.29,1.72s-6.8,9-12.23,12.37-3.32,6.94-.6,6.94,10.86-4.83,13.88-7.24,8.45-5.73,8.45-5.73A20.16,20.16,0,0,0,301.8,518c4.53,0,14.79-1.81,18.11-2.72s76.6-4.84,86.26-7S440.18,502.63,452.54,493.56Z"/><rect class="cls-12" x="88.46" y="526.74" width="243.71" height="4.45"/><rect class="cls-9" x="245.47" y="526.74" width="86.69" height="4.45"/><path class="cls-9" d="M248.69,526.74H91.25L71.81,417.34a5.06,5.06,0,0,1,5-6H223.93a5.06,5.06,0,0,1,5,4.18Z"/><path class="cls-12" d="M245.89,526.74H88.46L69,417.34a5.07,5.07,0,0,1,5-6H221.13a5.07,5.07,0,0,1,5,4.18Z"/><path class="cls-8" d="M585.32,510.07H480.06a10.65,10.65,0,0,0-10.66,10.65h0a10.65,10.65,0,0,0,10.66,10.65H585.32Z"/><path class="cls-8" d="M478.83,520.72a10.65,10.65,0,0,1,10.65-10.65h-3.21a10.65,10.65,0,1,0,0,21.3h3.21A10.65,10.65,0,0,1,478.83,520.72Z"/><path class="cls-8" d="M510.19,520.72a10.65,10.65,0,0,1,10.66-10.65h-3.22a10.65,10.65,0,0,0,0,21.3h3.22A10.65,10.65,0,0,1,510.19,520.72Z"/><polygon class="cls-8" points="530.71 510.07 521.39 514.57 519.53 521.4 522.01 526.99 528.19 531.37 585.32 531.37 585.32 510.07 530.71 510.07"/><path class="cls-8" d="M528.88,528.15a7.43,7.43,0,1,1,0-14.86h60.21v-3.22h-60.9a10.65,10.65,0,0,0,0,21.3h60.9v-3.22Z"/><line class="cls-7" x1="524.5" y1="518.92" x2="540.33" y2="518.92"/><line class="cls-7" x1="535.36" y1="522.65" x2="546.85" y2="522.65"/><line class="cls-7" x1="584.43" y1="518.61" x2="567.66" y2="518.61"/><line class="cls-7" x1="574.18" y1="523.58" x2="557.72" y2="523.58"/><line class="cls-7" x1="565.49" y1="518.92" x2="561.45" y2="518.92"/><path class="cls-12" d="M585.32,488.25H480.06A10.65,10.65,0,0,0,469.4,498.9h0a10.66,10.66,0,0,0,10.66,10.66H585.32Z"/><path class="cls-8" d="M478.83,498.9a10.65,10.65,0,0,1,10.65-10.65h-3.21a10.66,10.66,0,1,0,0,21.31h3.21A10.65,10.65,0,0,1,478.83,498.9Z"/><path class="cls-8" d="M510.19,498.9a10.65,10.65,0,0,1,10.66-10.65h-3.22a10.66,10.66,0,0,0,0,21.31h3.22A10.66,10.66,0,0,1,510.19,498.9Z"/><polygon class="cls-8" points="530.71 488.25 521.39 492.75 519.53 499.58 522.01 505.17 528.19 509.56 585.32 509.56 585.32 488.25 530.71 488.25"/><path class="cls-6" d="M528.88,506.34a7.44,7.44,0,0,1,0-14.87h60.21v-3.22h-60.9a10.66,10.66,0,0,0,0,21.31h60.9v-3.22Z"/><line class="cls-7" x1="524.5" y1="497.1" x2="540.33" y2="497.1"/><line class="cls-7" x1="535.36" y1="500.83" x2="546.85" y2="500.83"/><line class="cls-7" x1="584.43" y1="496.79" x2="567.66" y2="496.79"/><line class="cls-7" x1="574.18" y1="501.76" x2="557.72" y2="501.76"/><line class="cls-7" x1="565.49" y1="497.1" x2="561.45" y2="497.1"/><polygon class="cls-13" points="530.78 527.13 348.79 527.13 348.79 532.18 391.76 532.18 460.3 529.07 523.07 532.18 530.78 532.18 530.78 527.13"/><polygon class="cls-9" points="391.49 527.13 391.49 532.18 453.58 531.38 454.54 532.18 466.06 532.18 467.4 531.18 530.78 532.18 530.78 527.13 391.49 527.13"/><path class="cls-8" d="M348.66,515.89s35.16-1.66,48.09-4.89,28.36-3.95,34.47-3.23a126.68,126.68,0,0,1,13.28,2.51s25.13-2.51,42.37-1.07,19,17.59,19,17.59H352.59Z"/><path class="cls-8" d="M459.44,527.13V516.46s-18.53-10.11-35.95-6.18-32.58,5.61-32.58,5.61v11.24Z"/><path class="cls-8" d="M459.44,527.13V516.46s18.54-10.11,35.95-6.18S528,515.89,528,515.89v11.24Z"/><rect class="cls-8" x="348.66" y="515.89" width="42.26" height="11.23"/><path class="cls-7" d="M419.86,518.69c6.1-.64,12.45-1.27,16.66-1.64,8.65-.75,20.3,4.14,20.3,4.14"/><path class="cls-7" d="M404.17,520.44c2.17-.27,5.85-.69,10.07-1.15"/><path class="cls-7" d="M454.94,524.2s-9-2.64-16.54-1.51"/><path class="cls-7" d="M441.41,514A71,71,0,0,0,426,515.17"/><path class="cls-7" d="M498.56,520.13c-6.35-.59-14.1-1.2-18.79-1.2a70.66,70.66,0,0,0-16.18,1.88"/><path class="cls-7" d="M509.1,521.19s-1.81-.2-4.58-.48"/><path class="cls-7" d="M469.24,517.05a33.24,33.24,0,0,1,18.42-.37"/><path class="cls-7" d="M469.61,524.57s8.65-1.88,15.42-1.5S509.1,525,509.1,525"/><line class="cls-7" x1="7.3" y1="531.88" x2="620.98" y2="531.88"/><path class="cls-11" d="M124.38,300.28v-39.5h5.51v17.07H140V260.78h5.51v39.5H140V281.8H129.89v18.48Z"/><path class="cls-11" d="M159,300.67a8.45,8.45,0,0,1-4.92-1.27,6.83,6.83,0,0,1-2.56-3.61,17.81,17.81,0,0,1-.76-5.51v-8.19a17.81,17.81,0,0,1,.76-5.51,6.83,6.83,0,0,1,2.56-3.61,10.15,10.15,0,0,1,9.83,0,6.89,6.89,0,0,1,2.53,3.61,18.11,18.11,0,0,1,.76,5.51v8.19a18.11,18.11,0,0,1-.76,5.51A6.89,6.89,0,0,1,164,299.4,8.4,8.4,0,0,1,159,300.67Zm0-3.86a2.43,2.43,0,0,0,2.13-.87,4.79,4.79,0,0,0,.73-2.32q.12-1.44.12-3V281.8c0-1.08,0-2.08-.12-3a4.85,4.85,0,0,0-.73-2.31,2.37,2.37,0,0,0-2.13-.91,2.42,2.42,0,0,0-2.14.91,4.65,4.65,0,0,0-.76,2.31c-.08,1-.12,2-.12,3v8.82q0,1.56.12,3a4.59,4.59,0,0,0,.76,2.32A2.47,2.47,0,0,0,159,296.81Z"/><path class="cls-11" d="M172.5,300.28v-39.5h5.22v39.5Z"/><path class="cls-11" d="M188.25,300.67a4.75,4.75,0,0,1-2.92-.95,6.63,6.63,0,0,1-2-2.44,7,7,0,0,1-.73-3.15,10.22,10.22,0,0,1,.87-4.44,8.86,8.86,0,0,1,2.42-3,16.17,16.17,0,0,1,3.56-2.17q2-.93,4.26-1.81v-2a16.93,16.93,0,0,0-.19-2.82,2.9,2.9,0,0,0-.81-1.69,2.62,2.62,0,0,0-1.83-.56,2.88,2.88,0,0,0-1.73.49,2.76,2.76,0,0,0-1,1.39,7.05,7.05,0,0,0-.29,2.12V281l-5.17-.2c.07-3.12.78-5.42,2.15-6.9s3.48-2.22,6.34-2.22,4.78.77,6,2.29,1.75,3.74,1.75,6.63V293.5c0,.88,0,1.72.07,2.53s.12,1.57.2,2.27.15,1.36.22,2h-4.78c-.1-.52-.22-1.18-.37-2s-.25-1.52-.31-2.17a7.52,7.52,0,0,1-1.88,3.1A5.07,5.07,0,0,1,188.25,300.67Zm2.05-4.49a2.66,2.66,0,0,0,1.46-.44,6.26,6.26,0,0,0,1.22-1,4.83,4.83,0,0,0,.73-.9v-8c-.81.46-1.57.91-2.29,1.37a12.4,12.4,0,0,0-1.88,1.44,5.74,5.74,0,0,0-1.26,1.7,4.91,4.91,0,0,0-.47,2.17,4.79,4.79,0,0,0,.64,2.68A2.05,2.05,0,0,0,190.3,296.18Z"/><path class="cls-11" d="M436,327.55a7.78,7.78,0,0,1-4.83-1.3,6.61,6.61,0,0,1-2.35-3.49,17.28,17.28,0,0,1-.65-4.87v-12.3a17.38,17.38,0,0,1,.67-5,6.29,6.29,0,0,1,2.39-3.4,8.15,8.15,0,0,1,4.77-1.22,7.71,7.71,0,0,1,4.38,1.07,5.9,5.9,0,0,1,2.27,3,14.2,14.2,0,0,1,.69,4.68v1.87H440.6v-1.79a15.93,15.93,0,0,0-.33-3.48,3.85,3.85,0,0,0-1.32-2.25,4.56,4.56,0,0,0-2.94-.8,4.79,4.79,0,0,0-3.11.86,4.23,4.23,0,0,0-1.41,2.42,16.35,16.35,0,0,0-.37,3.63v13.18a14.17,14.17,0,0,0,.44,3.82,4.13,4.13,0,0,0,1.51,2.29,5,5,0,0,0,2.94.76,4.44,4.44,0,0,0,2.94-.84,4.06,4.06,0,0,0,1.32-2.35,16.62,16.62,0,0,0,.33-3.53v-2h2.75v1.83a16.74,16.74,0,0,1-.63,4.81,6.09,6.09,0,0,1-2.22,3.27A7.52,7.52,0,0,1,436,327.55Z"/><path class="cls-11" d="M447.62,302v-3.78h2.79V302Zm0,25.13V305.09h2.79v22.08Z"/><path class="cls-11" d="M458.89,327.51a4,4,0,0,1-2.29-.66,4.84,4.84,0,0,1-1.57-1.78,5.36,5.36,0,0,1-.57-2.48,7.45,7.45,0,0,1,.5-2.87,5.89,5.89,0,0,1,1.54-2.12,14.23,14.23,0,0,1,2.75-1.83q1.71-.9,4.15-2V312.2a16.48,16.48,0,0,0-.25-3.19,2.92,2.92,0,0,0-.84-1.66,2.53,2.53,0,0,0-1.66-.5,3.59,3.59,0,0,0-1.57.34,2.53,2.53,0,0,0-1.11,1.17,5,5,0,0,0-.42,2.27v.77l-2.75,0a7.71,7.71,0,0,1,1.44-5q1.39-1.62,4.56-1.62c2,0,3.35.59,4.16,1.78s1.23,3,1.23,5.52v10.73c0,.38,0,.87,0,1.47s0,1.16.08,1.7.07.94.1,1.22h-2.49c-.07-.48-.16-1-.24-1.62s-.15-1.08-.18-1.44a5.43,5.43,0,0,1-1.62,2.37A4.29,4.29,0,0,1,458.89,327.51Zm.92-2.36a2.87,2.87,0,0,0,1.51-.41,5.25,5.25,0,0,0,1.22-1,5.46,5.46,0,0,0,.86-1.22v-6.87c-1.1.58-2,1.1-2.81,1.54a11.35,11.35,0,0,0-1.89,1.32,4.09,4.09,0,0,0-1.07,1.47,5,5,0,0,0-.34,1.93,3.44,3.44,0,0,0,.74,2.5A2.43,2.43,0,0,0,459.81,325.15Z"/><path class="cls-11" d="M475.73,327.51a5.8,5.8,0,0,1-3.55-1,5.11,5.11,0,0,1-1.81-2.83,16.77,16.77,0,0,1-.52-4.52v-6.11a16.85,16.85,0,0,1,.52-4.53,5.14,5.14,0,0,1,1.81-2.83,7,7,0,0,1,7.12,0,5.13,5.13,0,0,1,1.8,2.83,17.26,17.26,0,0,1,.52,4.53v6.11a17.18,17.18,0,0,1-.52,4.52,5.09,5.09,0,0,1-1.8,2.83A5.76,5.76,0,0,1,475.73,327.51Zm0-2.1a2.66,2.66,0,0,0,2.12-.76,3.84,3.84,0,0,0,.83-2.14,29.57,29.57,0,0,0,.15-3.17v-6.42a29.18,29.18,0,0,0-.15-3.15,4,4,0,0,0-.83-2.14,2.64,2.64,0,0,0-2.12-.78,2.6,2.6,0,0,0-2.1.78,4.21,4.21,0,0,0-.82,2.14,26.46,26.46,0,0,0-.17,3.15v6.42a26.82,26.82,0,0,0,.17,3.17,4.06,4.06,0,0,0,.82,2.14A2.63,2.63,0,0,0,475.73,325.41Z"/><path class="cls-11" d="M204.88,345.14V314.2h3v13.71h9.73V314.2h2.91v30.94h-2.91V330.09h-9.73v15.05Z"/><path class="cls-11" d="M229.1,345.48a4,4,0,0,1-2.29-.67,4.67,4.67,0,0,1-1.57-1.78,5.3,5.3,0,0,1-.57-2.48,7.21,7.21,0,0,1,.5-2.86,5.8,5.8,0,0,1,1.54-2.12,13.79,13.79,0,0,1,2.75-1.84c1.13-.59,2.52-1.26,4.15-2v-1.57a16.48,16.48,0,0,0-.25-3.19,3,3,0,0,0-.84-1.66,2.53,2.53,0,0,0-1.66-.49,3.45,3.45,0,0,0-1.57.34,2.55,2.55,0,0,0-1.11,1.16,5.1,5.1,0,0,0-.42,2.28v.76l-2.75,0a7.72,7.72,0,0,1,1.43-5c.93-1.08,2.46-1.62,4.57-1.62s3.35.59,4.16,1.77,1.22,3,1.22,5.52v10.73c0,.39,0,.88,0,1.47s0,1.17.08,1.7.07.95.1,1.23H234.1c-.07-.49-.16-1-.25-1.63s-.14-1.07-.17-1.43a5.49,5.49,0,0,1-1.62,2.37A4.29,4.29,0,0,1,229.1,345.48Zm.92-2.37a2.81,2.81,0,0,0,1.5-.4,5.34,5.34,0,0,0,1.23-1,6,6,0,0,0,.86-1.22V333.6c-1.1.59-2,1.1-2.81,1.55a10.28,10.28,0,0,0-1.89,1.32,4,4,0,0,0-1.07,1.47,4.91,4.91,0,0,0-.35,1.92,3.45,3.45,0,0,0,.75,2.51A2.46,2.46,0,0,0,230,343.11Z"/><path class="cls-11" d="M240.86,345.14V314.2h2.79v30.94Z"/><path class="cls-11" d="M253.66,345.48a5.76,5.76,0,0,1-3.55-1,5,5,0,0,1-1.82-2.82,17.3,17.3,0,0,1-.51-4.53V331a17.22,17.22,0,0,1,.51-4.52,5.07,5.07,0,0,1,1.82-2.83,7,7,0,0,1,7.12,0,5.14,5.14,0,0,1,1.79,2.83,16.77,16.77,0,0,1,.52,4.52v6.11a16.85,16.85,0,0,1-.52,4.53,5.11,5.11,0,0,1-1.79,2.82A5.8,5.8,0,0,1,253.66,345.48Zm0-2.1a2.69,2.69,0,0,0,2.12-.77,3.8,3.8,0,0,0,.82-2.13,29.71,29.71,0,0,0,.15-3.17v-6.42a28.92,28.92,0,0,0-.15-3.15,3.89,3.89,0,0,0-.82-2.14,2.66,2.66,0,0,0-2.12-.78,2.58,2.58,0,0,0-2.1.78,4,4,0,0,0-.82,2.14,24.14,24.14,0,0,0-.18,3.15v6.42a24.8,24.8,0,0,0,.18,3.17,3.87,3.87,0,0,0,.82,2.13A2.61,2.61,0,0,0,253.66,343.38Z"/><path class="cls-11" d="M485.39,459.22a48.31,48.31,0,0,1-8,.61,29.77,29.77,0,0,1-5.15-.35c-3.18-.71-4.55-2.7-4.55-5a8.43,8.43,0,0,1,2.68-5.63l1.53.79a7.22,7.22,0,0,0-2.32,4.68c0,1.52,1,2.91,3.29,3.41a21.8,21.8,0,0,0,4.28.32,43.77,43.77,0,0,0,8.09-.71ZM473.6,446a33,33,0,0,1,4.65-3v0c-2,.24-6.57.34-9.49.32,0-.5,0-1.37,0-1.84.58,0,10.66.18,15-.84l.21,1.94c-3.12.37-7.14,3.1-8.82,4.44Z"/><path class="cls-11" d="M488.18,460.09c1.95-5.57,5.18-14.87,6.2-17.66.5-1.41,1.18-3.41,1.37-4.07l2.84.74c-.13.37-.5.5-1,.5-1.44,3.6-3.68,9.74-4.65,12.37h0c1.55-1.89,3.91-3.23,5.75-3.23,2.29,0,3.39,1.55,3.31,4l-.08,3.13c0,2,1,3.05,2.74,3.05,2.36,0,4.54-2.71,5.75-7.23a11.18,11.18,0,0,0,1.71,1c-1.45,5-4.05,8.17-7.54,8.17-2.79,0-4.6-1.68-4.6-4.36,0-.5.08-2.91.08-3.46,0-1.66-.69-2.53-1.84-2.53-3,0-6.07,4.39-6.73,6.1-.36.92-.94,2.6-1.44,4.12Z"/><path class="cls-11" d="M519.82,439.47c-.08.28-.34.44-.87.42a62.88,62.88,0,0,0-1.39,11.82,29.16,29.16,0,0,0,.34,5.2c.5-1.29,1.63-4.05,2-5l1.1,1.16c-1.08,2.65-1.87,4.15-2.23,5.33a4.6,4.6,0,0,0-.21,1.24,2.69,2.69,0,0,0,.13.81l-1.87.34a28.81,28.81,0,0,1-1.15-9,77,77,0,0,1,1.39-12.8Zm16.73,19.2c-.94.05-1.92.08-2.89.08a36.74,36.74,0,0,1-4.88-.29c-3.23-.47-4.73-2.26-4.73-4.36,0-1.81,1-3.34,2.47-5.07l1.7.73c-1.31,1.37-2.23,2.63-2.23,4.13,0,3.05,4.47,3.05,7.2,3.05,1.1,0,2.29-.06,3.39-.13Zm-12.16-16.05a86.54,86.54,0,0,0,11.45-1l.16,1.84a100.12,100.12,0,0,1-11.56,1Z"/><path class="cls-11" d="M559.34,442.83a60.74,60.74,0,0,1-11.3,1.52,32.41,32.41,0,0,1-1.24,7,13.42,13.42,0,0,1,7.47-2.78c3.91,0,6.3,2.1,6.3,5.65,0,5.23-5.28,7-13.82,7.2a7.94,7.94,0,0,0-.52-1.74c7.54-.16,12.42-1.44,12.42-5.41,0-2.36-1.57-4-4.62-4-2.34,0-6.36,1.41-8.09,4l-1.84-.87c.84-.95,1.71-4.7,2.1-9h-6.15v-1.84c1.11,0,4.34,0,6.31,0,.1-1.5.15-3.18.15-4.76l2.79.26c0,.45-.37.53-.84.58-.05,1.31-.13,2.65-.24,3.89a50.89,50.89,0,0,0,10.77-1.6Z"/><path class="cls-11" d="M566.64,460.46c-.81-1.9-1.13-5.81-1.13-9.25a66.75,66.75,0,0,1,1.42-12.27l2.55.5a.67.67,0,0,1-.68.47,50.27,50.27,0,0,0-1.53,11.33,31,31,0,0,0,.24,5c.58-1.58,1.63-4.1,2.18-5.33l1.18,1.1c-.86,1.79-2.7,5.78-2.7,7a3.49,3.49,0,0,0,.26,1.26ZM573.32,445c2.2,0,4.41.06,6.62-.1-.11-2.26-.19-4.21-.24-6.15l2.65.08c0,.26-.26.47-.68.55,0,1.68.08,3.39.13,5.39a22.73,22.73,0,0,0,5.15-1.06l.24,1.84a24.71,24.71,0,0,1-5.31,1c.1,2.92.24,6,.31,7.67a19.23,19.23,0,0,1,5.36,3.34l-1,1.68a16,16,0,0,0-4.26-3c0,2.24-.44,4.73-4.38,4.73-3.08,0-5.13-1.47-5.13-3.78,0-2.68,2.71-3.86,5.13-3.86a8.9,8.9,0,0,1,2.49.34c-.08-1.66-.23-4.41-.37-7-.81.05-1.91.08-2.68.08h-4Zm7.19,10.33a8.65,8.65,0,0,0-2.6-.48c-1.6,0-3.52.58-3.52,2.24,0,1.47,1.58,2.2,3.5,2.2s2.65-.94,2.65-3Z"/><path class="cls-11" d="M451.56,257.86V226.93h15.81v30.93h-2.9V229.1h-10v28.76Z"/><path class="cls-11" d="M472.19,265.12V235.79H475v1.83a8.51,8.51,0,0,1,1.72-1.49,4.44,4.44,0,0,1,2.52-.69,4.12,4.12,0,0,1,2.58.75,4.88,4.88,0,0,1,1.51,2A10.48,10.48,0,0,1,484,241a28.4,28.4,0,0,1,.19,3.25v4.62a22.37,22.37,0,0,1-.48,4.93,6.52,6.52,0,0,1-1.62,3.24,4.34,4.34,0,0,1-3.21,1.15,3.9,3.9,0,0,1-2.31-.69,10.15,10.15,0,0,1-1.63-1.41v9Zm6.26-9.09a2.28,2.28,0,0,0,1.91-.82,4.93,4.93,0,0,0,.86-2.41,29.69,29.69,0,0,0,.21-3.84v-4.69a26.51,26.51,0,0,0-.21-3.65,4.33,4.33,0,0,0-.86-2.23,2.41,2.41,0,0,0-1.95-.77,3.62,3.62,0,0,0-2,.57,10,10,0,0,0-1.47,1.15v15a6.17,6.17,0,0,0,1.51,1.14A3.93,3.93,0,0,0,478.45,256Z"/><path class="cls-11" d="M488.11,257.86V235.79h2.37v17l7.37-17h2.25v22.07h-2.36v-17l-7.3,17Z"/><path class="cls-11" d="M504.38,257.86V235.79h5.35a6.33,6.33,0,0,1,3.36.76,4.39,4.39,0,0,1,1.74,2,6.93,6.93,0,0,1,.55,2.58,7.24,7.24,0,0,1-.57,2.84,3.47,3.47,0,0,1-2.25,1.93,3.77,3.77,0,0,1,2,1.2,5.3,5.3,0,0,1,1,2,9,9,0,0,1,.31,2.41,10.3,10.3,0,0,1-.5,3.32,4.2,4.2,0,0,1-1.75,2.25,6.76,6.76,0,0,1-3.63.8Zm2.75-12.75h2.79a2.59,2.59,0,0,0,2.1-1,4.18,4.18,0,0,0,.8-2.79,3.46,3.46,0,0,0-.86-2.57,3.41,3.41,0,0,0-2.54-.86h-2.29Zm0,10.61h2.41a4,4,0,0,0,2.08-.47,2.83,2.83,0,0,0,1.15-1.47,7.15,7.15,0,0,0,.36-2.41,6.25,6.25,0,0,0-.44-2.65,2.42,2.42,0,0,0-1.2-1.24,4.25,4.25,0,0,0-1.76-.35h-2.6Z"/><path class="cls-11" d="M524.82,258.21a6.33,6.33,0,0,1-3.38-.82,4.86,4.86,0,0,1-2-2.73,16.72,16.72,0,0,1-.63-5.08V244a15.94,15.94,0,0,1,.65-5.14,4.68,4.68,0,0,1,2-2.63,6.51,6.51,0,0,1,3.33-.79,5.62,5.62,0,0,1,3.59,1,5.32,5.32,0,0,1,1.7,3,23.21,23.21,0,0,1,.47,5.13v2h-8.93v3.86a13.82,13.82,0,0,0,.32,3.38,3.14,3.14,0,0,0,1,1.77,2.92,2.92,0,0,0,1.82.54,3.43,3.43,0,0,0,1.52-.33,2.24,2.24,0,0,0,1.09-1.26,6.89,6.89,0,0,0,.4-2.65v-1.53h2.72v1.22a8.25,8.25,0,0,1-1.27,4.83Q528,258.21,524.82,258.21ZM521.65,245h6.18v-1.83a19.81,19.81,0,0,0-.19-3,3.55,3.55,0,0,0-.82-1.91,2.66,2.66,0,0,0-2-.67,3.17,3.17,0,0,0-1.86.5,2.91,2.91,0,0,0-1,1.78,16.9,16.9,0,0,0-.3,3.64Z"/><path class="cls-11" d="M537.08,257.86V237.93H532.3v-2.14h12.26v2.14h-4.7v19.93Z"/><path class="cls-11" d="M551,306a5.18,5.18,0,0,1-2.84-.72,4.34,4.34,0,0,1-1.7-2,9.06,9.06,0,0,1-.71-3l1.74-.52a12.17,12.17,0,0,0,.47,2.36,3.53,3.53,0,0,0,1.07,1.66,3,3,0,0,0,2,.61,3.06,3.06,0,0,0,2.18-.73,3,3,0,0,0,.78-2.31,4.18,4.18,0,0,0-.69-2.4,13,13,0,0,0-1.88-2.15l-3.72-3.56a6.6,6.6,0,0,1-1.45-2,5.43,5.43,0,0,1-.47-2.25,4.27,4.27,0,0,1,1.3-3.35,5,5,0,0,1,3.45-1.17,6.66,6.66,0,0,1,2,.29,3.68,3.68,0,0,1,1.53.92,4.34,4.34,0,0,1,1,1.65,9.8,9.8,0,0,1,.49,2.47l-1.68.44a9.74,9.74,0,0,0-.43-2.28,2.87,2.87,0,0,0-1-1.44,3.21,3.21,0,0,0-1.91-.49,3.29,3.29,0,0,0-2.13.67,2.58,2.58,0,0,0-.83,2.11,3.63,3.63,0,0,0,.33,1.56,5.23,5.23,0,0,0,1.15,1.5l3.72,3.51A13.34,13.34,0,0,1,555,298a5.82,5.82,0,0,1,.91,3.22,5.22,5.22,0,0,1-.61,2.65,3.87,3.87,0,0,1-1.7,1.6A5.76,5.76,0,0,1,551,306Z"/><path class="cls-11" d="M560.7,306a2.75,2.75,0,0,1-1.56-.45,3.22,3.22,0,0,1-1.07-1.21,3.6,3.6,0,0,1-.39-1.69,5,5,0,0,1,.34-1.95,4,4,0,0,1,1.05-1.44,9.46,9.46,0,0,1,1.87-1.24c.77-.41,1.71-.87,2.82-1.37v-1.06a11.1,11.1,0,0,0-.17-2.17,1.92,1.92,0,0,0-.57-1.13,1.69,1.69,0,0,0-1.13-.34,2.39,2.39,0,0,0-1.06.23,1.69,1.69,0,0,0-.76.8,3.42,3.42,0,0,0-.28,1.54V295l-1.87,0a5.14,5.14,0,0,1,1-3.38,3.88,3.88,0,0,1,3.1-1.11,3.19,3.19,0,0,1,2.84,1.21,6.74,6.74,0,0,1,.83,3.75v7.3c0,.26,0,.6,0,1s0,.79.05,1.16,0,.64.07.83H564.1c-.05-.33-.11-.7-.17-1.11s-.1-.73-.12-1a3.75,3.75,0,0,1-1.1,1.61A2.91,2.91,0,0,1,560.7,306Zm.62-1.61a1.94,1.94,0,0,0,1-.27,3.63,3.63,0,0,0,.84-.69,3.8,3.8,0,0,0,.58-.83v-4.68c-.74.4-1.38.75-1.91,1.06a7.22,7.22,0,0,0-1.28.89,2.77,2.77,0,0,0-.73,1,3.33,3.33,0,0,0-.24,1.31,2.36,2.36,0,0,0,.51,1.71A1.68,1.68,0,0,0,561.32,304.38Z"/><path class="cls-11" d="M568.7,305.76v-21h1.89v21Z"/><path class="cls-11" d="M575.94,305.76l-3.24-15h1.92l2.44,12.83,2.42-12.83h1.84l-3.14,15Z"/><path class="cls-11" d="M587,306a4.24,4.24,0,0,1-2.3-.56,3.29,3.29,0,0,1-1.32-1.85,11.24,11.24,0,0,1-.43-3.46v-3.79a11.06,11.06,0,0,1,.44-3.49,3.28,3.28,0,0,1,1.35-1.8,4.47,4.47,0,0,1,2.26-.53,3.78,3.78,0,0,1,2.44.68,3.59,3.59,0,0,1,1.16,2,15.24,15.24,0,0,1,.32,3.49v1.35h-6.07v2.62a9.33,9.33,0,0,0,.22,2.3,2.07,2.07,0,0,0,.7,1.21,2,2,0,0,0,1.23.36,2.36,2.36,0,0,0,1-.22,1.54,1.54,0,0,0,.74-.85,4.82,4.82,0,0,0,.27-1.81v-1h1.85v.83a5.67,5.67,0,0,1-.86,3.29A3.44,3.44,0,0,1,587,306Zm-2.15-9H589v-1.25a13.35,13.35,0,0,0-.13-2,2.4,2.4,0,0,0-.55-1.3,1.82,1.82,0,0,0-1.37-.45,2.11,2.11,0,0,0-1.26.34,2,2,0,0,0-.69,1.21,11.27,11.27,0,0,0-.2,2.48Z"/><path class="cls-11" d="M312.55,155.08c.41-.08.75-.21.75-.52a1,1,0,0,0-.23-.52c-.24-.18-.34-.31-.34-.42s.1-.13.34-.13c.78,0,1.71.44,1.71.83s-.31.55-.36.86c3,.7,4.34,2.57,4.34,4.47,0,2.34-2.08,4.63-5.46,4.63-3.59,0-5.69-2.19-5.69-4.63C307.61,157.62,309.17,155.6,312.55,155.08Zm-3.3,4.57c0,1.77,1.32,3.51,4,3.51a3.54,3.54,0,1,0,0-7C310.57,156.12,309.25,157.91,309.25,159.65Zm5.35,9c0-.5-.62-.73-2-1.12-.28-.08-.49-.18-.49-.31s.23-.26.83-.37a21.15,21.15,0,0,1,2.75.18c.47.11.58.26.58.5s-.06.39-.08.67c0,1.15,0,2.68,0,3.59,0,.6.37.83,1.28.88l4.7,0c1.95-.15,1-.75,3.33-.75.85,0,1.95.1,1.95.88,0,.31-.26.57-.71.57h-9.38c-1.74,0-2.7-.44-2.8-1.74Zm8.78-15.39c0-.28-.67-.75-2.23-1.43-.39-.13-.6-.28-.6-.39s.31-.26.94-.28c.1,0,3.66.44,3.66,1.3,0,.18-.1.39-.1.65l0,8.16c.36,0,.78,0,1.17-.06,1.19-.23.65-.72,2.65-.72.52,0,1.48,0,1.48.7a.68.68,0,0,1-.75.65l-4.58.1c0,4.71-.18,5.87-.44,6.6-.23.5-.52.89-.75.89s-.39-.32-.42-1.17Z"/><path class="cls-11" d="M335.46,155.78c0-.49-1.07-.83-2.06-1.12-.26-.08-.54-.18-.54-.34s.21-.26.8-.41c3.1.15,3.43.47,3.43.88,0,.13,0,.26,0,.42v6c0,.39.1.59.83.59a23.47,23.47,0,0,0,7.82-2.57,1.63,1.63,0,0,1,.52-.15c.05,0,.08,0,.08,0s-.13.23-.44.49a28.24,28.24,0,0,1-9.15,3.77c-.75,0-1.09-1.33-1.19-1.87Zm10.86,9.95a.46.46,0,0,0,.41-.44.64.64,0,0,0-.25-.49c-.19-.16-.26-.29-.26-.37s.07-.13.23-.13c.47,0,1.58.42,1.58.78,0,.21-.18.42-.23.76,2.88.46,4.21,2.28,4.21,4.13,0,2.18-1.87,4.39-5.12,4.39s-5.22-2.21-5.22-4.39c0-1.9,1.4-3.8,4.39-4.16Zm-3.2,4.19c0,1.71,1.28,3.4,3.82,3.4a3.39,3.39,0,1,0,0-6.78C344.4,166.54,343.12,168.23,343.12,169.92Zm7.41-16.82c0-.26-1.09-.91-2.31-1.45-.26-.08-.73-.24-.73-.39s.65-.34.8-.34c.55,0,4,.52,4,1.35,0,.23-.15.47-.18.81l-.05,7.19c0,4.37-.34,5.15-.86,5.88a.39.39,0,0,1-.29.21c-.26,0-.41-.6-.41-1.62v-3.06c-1.2,0-2.37.13-3.22.18-.47.1-.52.31-.86.31a5.14,5.14,0,0,1-2.29-1c0-.1.16-.13.44-.13l1.77.05c1.22,0,2.5-.07,4.16-.18v-4.49c-1.56,0-2.7.1-3.33.15s-.65.34-1,.34-2.11-.65-2.11-1.07c0-.07.1-.12.34-.12a3.67,3.67,0,0,1,.49,0c.6,0,1.09,0,1.59,0,1.27,0,2.31-.05,4-.13Z"/><path class="cls-11" d="M368.22,157.94c2.13-.13,1-.71,3.76-.81,1.2,0,1.69.42,1.69.75,0,.06,0,.58-1,.58-1.61.1-6.47.23-9.61.36-.83.18-1,.49-1.53.49s-2.76-1-2.76-1.35c0-.08.11-.13.36-.13a1.89,1.89,0,0,1,.39,0,34.76,34.76,0,0,0,4,.21C364.14,158.07,367.46,157.94,368.22,157.94Zm-2.86,3.22c.36-.08.83-.16.83-.6a.48.48,0,0,0-.21-.39c-.1-.16-.18-.26-.18-.36s.1-.16.28-.16c.63,0,1.41.49,1.41.83s-.26.44-.37.68c3,.44,4.47,2.26,4.47,4.1,0,2.08-1.84,4.14-5.22,4.14s-5.22-2.19-5.22-4.19C361.15,163.39,362.5,161.6,365.36,161.16Zm-.08-5.8a5.11,5.11,0,0,1-2.68-1.69c0-.07.08-.13.26-.13a2.64,2.64,0,0,1,.52.08,26.09,26.09,0,0,0,5.38.37c.62,0,1,.31,1,.62s-.5.7-1.67.73Zm-2.55,9.75c0,1.56,1.22,3.12,3.67,3.12s3.66-1.56,3.66-3.12-1.22-3.17-3.66-3.17S362.73,163.52,362.73,165.11ZM375.34,153c0-.44-1.43-1.07-2.53-1.56-.28-.1-.46-.23-.46-.34s.31-.28,1.09-.31a21.77,21.77,0,0,1,3,.7c.54.21.67.39.67.65s-.08.44-.08.83v9.46h1.3c1.22-.18.81-.67,2.47-.67.5,0,1.59,0,1.59.8,0,.37-.31.68-.89.68H377l0,7.53a9.89,9.89,0,0,1-.65,3.85c-.2.31-.41.47-.6.47s-.38-.34-.38-1.2Z"/><path class="cls-11" d="M391.93,157.26c0-.29-.62-.75-1.53-1.38-.5-.26-.63-.57.39-.57.44,0,3.09.94,3.09,1.61a39.27,39.27,0,0,1-2.13,4.37,18.73,18.73,0,0,0,1.4,1.71c.91,1.09,1.77.76,2.19,3.33,0,.08,0,.16,0,.21,0,.49-.26.83-.57.83a.88.88,0,0,1-.68-.52c-.59-1-1.48-3-2.8-5-2.55,3.36-5.67,6-6.4,6a.09.09,0,0,1-.1-.08c0-.1.18-.31.52-.6a23.67,23.67,0,0,0,6.52-9.69Zm7.28-2.13c0-.62-1-1.14-2-1.64-.31-.13-.62-.31-.62-.47s.21-.23.85-.26a14.81,14.81,0,0,1,2.71.63c.57.21.7.47.7.73s-.08.41-.08.65l-.05,14c-.05,3.4-.7,4.31-1,4.31s-.44-.62-.44-1.9V161.6l-2.42.1c-.75.13-.88.39-1.2.39s-1.94-.67-1.94-1c0-.08.15-.16.44-.16l1.27.06c1.35,0,2.63-.08,3.85-.13Zm4.18-1.87c0-.44-1-1.09-2-1.66-.39-.16-.59-.32-.59-.45s.26-.23.85-.26a26.79,26.79,0,0,1,2.89.81c.44.21.54.39.54.6s-.1.39-.1.67v18.37c-.1,2.42-.57,3.69-1.07,3.85-.23,0-.46-.26-.49-1.58Z"/><path class="cls-11" d="M432.61,171.4c-1.74-.11-3.89-.16-6.13-.16-4.34,0-9,.18-11.43.42-.57.2-.73.46-1.17.46-.68,0-3.41-1.22-3.41-1.53,0-.08.11-.13.34-.13a1.91,1.91,0,0,1,.37,0,46.22,46.22,0,0,0,6.88.28c-.08-.52-.13-1.87-.26-2.73-.1-.36-.46-.52-1.74-1-.26-.06-.44-.16-.44-.26s.23-.24.81-.31c2.67.18,3,.44,3,.83,0,.13-.06.28-.06.46s.06,2.45.08,3c.89,0,3.74-.05,5.51-.16.08-.6.18-1.77.24-3.38-.06-.57-.6-.8-1.23-1.11-.2-.06-.36-.16-.36-.24s.21-.21.78-.28c2.29.39,2.78.62,2.78.93a3.2,3.2,0,0,1-.29.75c-.13.78-.39,2.21-.62,3.25a15,15,0,0,0,2.42-.18c.88-.05.72-.49,2-.49.7,0,2.86,0,2.86,1,0,.28-.24.52-.76.52Zm-11.69-17.26a.73.73,0,0,0,.73-.65.7.7,0,0,0-.18-.44c-.24-.21-.37-.36-.37-.47s.11-.15.34-.15c.88,0,1.64.52,1.64.83s-.39.52-.42.88c3.69.55,5.41,2.89,5.41,5.23,0,2.59-2.21,5.19-6.11,5.19s-6.08-2.67-6.08-5.32C415.88,157,417.47,154.69,420.92,154.14Zm-3.56,5.12c0,2.05,1.53,4.11,4.6,4.11s4.57-2.06,4.57-4.11-1.53-4.1-4.57-4.1S417.36,157.21,417.36,159.26Z"/><path class="cls-11" d="M512.76,370.77a8.43,8.43,0,0,1-4.27-1,6.36,6.36,0,0,1-2.6-2.93,12.66,12.66,0,0,1-1-4.73l4.45-.88a13.41,13.41,0,0,0,.41,2.91,4.2,4.2,0,0,0,1,1.94,2.44,2.44,0,0,0,1.81.69,2,2,0,0,0,1.78-.75,3.22,3.22,0,0,0,.53-1.92,5.15,5.15,0,0,0-.84-3,13.25,13.25,0,0,0-2.24-2.39l-3.58-3.15a10.85,10.85,0,0,1-2.4-2.89,8,8,0,0,1-.89-3.95,6.74,6.74,0,0,1,2-5.19,7.58,7.58,0,0,1,5.36-1.82,8.12,8.12,0,0,1,3.33.61,5.29,5.29,0,0,1,2.12,1.7,7.68,7.68,0,0,1,1.18,2.48,15,15,0,0,1,.49,2.92l-4.42.77a15.74,15.74,0,0,0-.3-2.38,3.37,3.37,0,0,0-.8-1.65,2.27,2.27,0,0,0-1.7-.59,2.16,2.16,0,0,0-1.77.75,2.88,2.88,0,0,0-.62,1.88,4.28,4.28,0,0,0,.6,2.36,9.17,9.17,0,0,0,1.72,1.91l3.54,3.12a14.81,14.81,0,0,1,3,3.45,8.85,8.85,0,0,1,1.25,4.79,7.16,7.16,0,0,1-.9,3.61,6.33,6.33,0,0,1-2.48,2.47A7.5,7.5,0,0,1,512.76,370.77Z"/><path class="cls-11" d="M526.54,370.69a3.92,3.92,0,0,1-2.35-.71,4.71,4.71,0,0,1-1.51-1.83,5.25,5.25,0,0,1-.52-2.29,6.34,6.34,0,0,1,2.55-5.37,13.41,13.41,0,0,1,2.63-1.52c1-.43,2-.82,3-1.18V356a7.64,7.64,0,0,0-.12-1.47,1.61,1.61,0,0,0-.46-.91,1.44,1.44,0,0,0-1-.32,1.56,1.56,0,0,0-1,.28,1.55,1.55,0,0,0-.53.79,4.94,4.94,0,0,0-.19,1.18l-.07,1.22-4.52-.17c.07-2.34.64-4.06,1.73-5.17a6.67,6.67,0,0,1,5-1.67,5.41,5.41,0,0,1,4.44,1.69A7,7,0,0,1,535,356v9.36c0,.75,0,1.43,0,2s.09,1.15.14,1.64.11.93.16,1.3H531c-.07-.47-.15-1-.26-1.6s-.18-1-.23-1.31a5.12,5.12,0,0,1-1.33,2.23A3.57,3.57,0,0,1,526.54,370.69Zm1.75-3.54a1.75,1.75,0,0,0,.86-.22,3.61,3.61,0,0,0,.72-.55,2.49,2.49,0,0,0,.45-.56v-5.64c-.51.3-1,.61-1.45.91a6.56,6.56,0,0,0-1.19,1,3.64,3.64,0,0,0-1,2.65,3.18,3.18,0,0,0,.44,1.77A1.38,1.38,0,0,0,528.29,367.15Z"/><path class="cls-11" d="M538.77,370.38V342h4.73v28.39Z"/><path class="cls-11" d="M550.55,370.69a3,3,0,0,1-2-.61,3.5,3.5,0,0,1-1.13-1.65,6.84,6.84,0,0,1-.35-2.19V350.12h4.77v15.25a2.8,2.8,0,0,0,.3,1.42,1.17,1.17,0,0,0,1.1.5,2.28,2.28,0,0,0,1.07-.28,7.19,7.19,0,0,0,1.07-.66V350.12h4.77v20.26h-4.77v-1.93a9.22,9.22,0,0,1-2.24,1.61A5.7,5.7,0,0,1,550.55,370.69Z"/><path class="cls-11" d="M569.72,370.62a6.16,6.16,0,0,1-3-.63,3.4,3.4,0,0,1-1.56-1.82,8,8,0,0,1-.46-2.84V353.27h-2v-3.15h2v-6.07h4.81v6.07h3.08v3.15h-3.08v11.64a2,2,0,0,0,.45,1.49,1.93,1.93,0,0,0,1.37.44,6.06,6.06,0,0,0,.75,0l.72-.07v3.65l-1.38.16A14.84,14.84,0,0,1,569.72,370.62Z"/><path class="cls-11" d="M95.8,376.19V341.84h2.34v15.48h12V341.84h2.29v34.35h-2.29V359.1h-12v17.09Z"/><path class="cls-11" d="M123.83,376.57a6.8,6.8,0,0,1-3.35-.78,5.08,5.08,0,0,1-2.14-2.85,18,18,0,0,1-.74-5.83v-6.53a17.18,17.18,0,0,1,.76-5.85,4.75,4.75,0,0,1,2.19-2.71,7.24,7.24,0,0,1,3.33-.72,5.94,5.94,0,0,1,3.6,1,5.38,5.38,0,0,1,1.87,3.12,23.86,23.86,0,0,1,.55,5.66v2.33H119.85v3.9a20.18,20.18,0,0,0,.4,4.58,4.07,4.07,0,0,0,1.29,2.34,3.7,3.7,0,0,0,2.29.67,5.48,5.48,0,0,0,1.78-.29,2.75,2.75,0,0,0,1.49-1.4,7.67,7.67,0,0,0,.59-3.44v-1.82h2.21v1.61a9,9,0,0,1-1.3,5.09Q127.31,376.57,123.83,376.57Zm-4-14.54h7.84v-1.91a27.55,27.55,0,0,0-.23-3.8,4.5,4.5,0,0,0-1-2.46,3.32,3.32,0,0,0-2.54-.87,4.18,4.18,0,0,0-2.27.58,3.43,3.43,0,0,0-1.34,2.12,18.08,18.08,0,0,0-.42,4.47Z"/><path class="cls-11" d="M132.14,382.76l-.65,0a2.77,2.77,0,0,1-.62-.06v-1.83a1.55,1.55,0,0,0,.51,0h.51a3.31,3.31,0,0,0,2.14-.56,2.24,2.24,0,0,0,.81-1.37,9.66,9.66,0,0,0,.15-1.72V351.68h2.24v25.7c0,2-.45,3.37-1.35,4.17A5.41,5.41,0,0,1,132.14,382.76Zm2.85-34.3v-3.9h2.24v3.9Z"/><polygon class="cls-11" points="192 170.48 179.61 172.69 177.49 177.26 189.88 175 192 170.48"/><polygon class="cls-11" points="193.13 163.84 180.69 166.1 178.57 170.62 191.01 168.36 193.13 163.84"/><path class="cls-11" d="M202.36,216a3.09,3.09,0,0,0-2.27.85,3,3,0,0,0-.84,2.21,3.12,3.12,0,0,0,.84,2.31,3.05,3.05,0,0,0,2.27.85q3.06,0,3.06-3.16a2.86,2.86,0,0,0-3.06-3.06Z"/><path class="cls-11" d="M230,192.7a11.58,11.58,0,0,0-7.15-2.68q-5,0-8.95,4.33v5.23q4.47-4.1,8.24-4.1,4.57,0,7.77,5.61Q225,206,216.76,206h-8.42a3.44,3.44,0,0,1-2.55-.78,3.68,3.68,0,0,1-.75-2.61V190.82l-5.93,3.11v8.71a3.68,3.68,0,0,1-.76,2.61,3.43,3.43,0,0,1-2.54.78h-5.65a3.43,3.43,0,0,1-2.54-.78,3.63,3.63,0,0,1-.76-2.61V181.35l-5.93,3.11v18.46a9,9,0,0,0,2,6.08,8.31,8.31,0,0,0,6.64,2.73h6.79a8.68,8.68,0,0,0,5.69-1.84,8.73,8.73,0,0,0,5.7,1.84h8.95a25.85,25.85,0,0,0,11-2.36,22.76,22.76,0,0,0,8.45-6.68v-2.36A23.71,23.71,0,0,0,230,192.7Z"/><path class="cls-11" d="M280.81,193.46A8.67,8.67,0,0,0,265,198.73v3.91a3.68,3.68,0,0,1-.75,2.61,3.43,3.43,0,0,1-2.54.78H256a3.42,3.42,0,0,1-2.54-.78,3.63,3.63,0,0,1-.76-2.61V190.82l0,.05v-.05l-2,1.08-3.86,2v15.26a6.86,6.86,0,0,1-1.44,4.63,5,5,0,0,1-4,1.68,9.88,9.88,0,0,1-4.81-1.37v5.18a12.26,12.26,0,0,0,5.79,1.51,9.69,9.69,0,0,0,6.55-2.36,11.12,11.12,0,0,0,3.63-7.16,9.72,9.72,0,0,0,3,.43h6.78a9,9,0,0,0,5.47-1.65,10.64,10.64,0,0,0,6.16,1.65,8.36,8.36,0,0,0,6.36-2.64c1.85-2,2.78-4.75,2.78-8.24A11.79,11.79,0,0,0,280.81,193.46ZM273.7,206c-1.86,0-2.78-.88-2.78-2.64v-4.75c0-2.07.88-3.11,2.63-3.11q3.63,0,3.63,5.13Q277.18,206,273.7,206Z"/><polygon class="cls-11" points="163.79 136.91 163.79 121.09 154.66 121.09 154.66 136.91 150.3 136.91 150.3 103.9 154.66 103.9 154.66 118.55 163.79 118.55 163.79 103.9 168.18 103.9 168.18 136.91 163.79 136.91"/><path class="cls-11" d="M181.72,137.3a7.91,7.91,0,0,1-4.07-.92,5.27,5.27,0,0,1-2.2-2.63,12.13,12.13,0,0,1-.77-4.57v-7.52a12.13,12.13,0,0,1,.77-4.63,5.05,5.05,0,0,1,2.21-2.59,8.06,8.06,0,0,1,4.06-.9,7.32,7.32,0,0,1,4.08.95,5.14,5.14,0,0,1,2,2.75,15.67,15.67,0,0,1,.66,4.89v2.55h-9.94v5.92a8.15,8.15,0,0,0,.28,2.28,3,3,0,0,0,1.16,1.67,3.2,3.2,0,0,0,1.81.51,3,3,0,0,0,1.86-.57,3,3,0,0,0,1-1.59,7,7,0,0,0,.26-2.08v-1.08h3.49v.69a7.33,7.33,0,0,1-1.63,5.15C185.71,136.72,184,137.3,181.72,137.3Zm-.05-21.53a2.88,2.88,0,0,0-1.88.62,3.21,3.21,0,0,0-1,1.84,12.23,12.23,0,0,0-.25,2.82v1.85h6.41v-2.5a9,9,0,0,0-.25-2.35,3.08,3.08,0,0,0-1-1.7A3.17,3.17,0,0,0,181.67,115.77Z"/><rect class="cls-11" x="194.82" y="103.9" width="3.83" height="33.01"/><rect class="cls-11" x="205.71" y="103.9" width="3.83" height="33.01"/><path class="cls-11" d="M222.77,137.3a7.94,7.94,0,0,1-4-.89,5.28,5.28,0,0,1-2.25-2.5,10.39,10.39,0,0,1-.79-4.3v-8.39a10.34,10.34,0,0,1,.79-4.29,5.35,5.35,0,0,1,2.25-2.51,8,8,0,0,1,4-.88,8.13,8.13,0,0,1,4,.88,5.37,5.37,0,0,1,2.26,2.51,10.33,10.33,0,0,1,.8,4.29v8.39a10.38,10.38,0,0,1-.8,4.3,5.4,5.4,0,0,1-2.26,2.5A8.13,8.13,0,0,1,222.77,137.3Zm0-21.7a2.77,2.77,0,0,0-2.25,1,4.17,4.17,0,0,0-.84,2,15.78,15.78,0,0,0-.16,2.28V130a16.14,16.14,0,0,0,.16,2.29,4.05,4.05,0,0,0,.86,2,3.19,3.19,0,0,0,4.46,0,3.89,3.89,0,0,0,.83-2A16,16,0,0,0,226,130v-9.16a15.65,15.65,0,0,0-.14-2.26,4,4,0,0,0-.82-2A2.74,2.74,0,0,0,222.82,115.6Z"/></g></g></svg>