<svg xmlns="http://www.w3.org/2000/svg" viewBox="0 0 942.6 694.87"><defs><style>.cls-1{fill:#f8a492;}.cls-2{fill:#f7a491;}.cls-3{fill:#222528;}.cls-4{fill:#565656;}.cls-5{fill:#636363;}.cls-6{fill:#b75742;}.cls-7{fill:#f7cc7f;}.cls-8{fill:#0e2e35;}.cls-18,.cls-9{fill:#f47458;}.cls-10{fill:#fff;}.cls-11{fill:#e25a44;}.cls-12{fill:#f48c7f;}.cls-13{fill:#32373a;}.cls-14{fill:#07345a;}.cls-15{fill:#f79c8d;}.cls-16{fill:#184655;}.cls-17{fill:#cea86b;}.cls-18,.cls-24{opacity:0.2;}.cls-19{fill:#dd513a;}.cls-20{fill:#fe875e;}.cls-21{fill:#2e3235;}.cls-22{fill:#cae1f9;}.cls-23,.cls-24{fill:#9bc1f9;}</style></defs><title>image-part-4</title><g id="Layer_2" data-name="Layer 2"><g id="Layer_1-2" data-name="Layer 1"><path class="cls-1" d="M809.17,442c.66,2.67,1.83,6.9,1.83,6.9-.09,1.16-.44,6-.84,11.93l8.71-3.49s-.1-9.66.28-10.25.89.12,3.56-3.7a7.41,7.41,0,0,0,.91-3.07s.16-2.43-.38-2.66a1.14,1.14,0,0,0-1.37.56c-.2.42-.15,1.4-.35,1.81a3,3,0,0,1-2,.9c-.53,0,.06-7.17.06-7.17s.3-2,.45-2.7.64-2.22.64-2.22.61-2.41-.14-2.59c-.44-.11-1.56,1.85-2.33,3.92-.83,2.24-1.3,4.61-1.54,4.57-.55-.07-.26-4-.26-4a12.92,12.92,0,0,0,.54-2.64c.52-1,.87-3-.05-3.13a16,16,0,0,0-1.39,2.42s-.47,1.72-.75,2.53a45.75,45.75,0,0,0-.82,4.65c-.22.82-.41.48-.5.52a21.94,21.94,0,0,1,.19-2.67,16,16,0,0,1,.2-2.59,18.72,18.72,0,0,0,.37-2.73c.15-2-1.13-1.82-1.57,0-.17.7-.34,1.47-.52,2.26-.68,3-.67,6-1,6s-.15-5.3-.15-5.3-.65-2.95-1.3-.21a23.87,23.87,0,0,0-.66,5.88C809.08,436.56,808.52,439.33,809.17,442Z"/><path class="cls-1" d="M901.67,435c-.66,2.67-1.83,6.9-1.83,6.9.09,1.16.44,6,.84,11.93L892,450.3s.1-9.66-.28-10.25-.88.13-3.56-3.7a7.41,7.41,0,0,1-.91-3.07s-.16-2.43.38-2.65a1.13,1.13,0,0,1,1.37.55c.2.42.15,1.4.35,1.82a3,3,0,0,0,2,.9c.53,0-.06-7.18-.06-7.18s-.3-2-.45-2.69-.64-2.23-.64-2.23-.61-2.4.14-2.59c.44-.11,1.56,1.85,2.33,3.92.83,2.24,1.3,4.61,1.54,4.58.56-.08.26-4,.26-4a12.76,12.76,0,0,1-.54-2.64c-.52-1-.87-3,0-3.13a16,16,0,0,1,1.39,2.42s.47,1.72.75,2.53a45.75,45.75,0,0,1,.82,4.65c.22.82.41.49.5.52a22.05,22.05,0,0,0-.19-2.67,15.83,15.83,0,0,0-.2-2.58,19.09,19.09,0,0,1-.37-2.73c-.15-2,1.13-1.82,1.57,0,.17.71.34,1.48.52,2.26.68,3,.67,6,1,6s.15-5.3.15-5.3.65-2.95,1.3-.21a23.91,23.91,0,0,1,.66,5.88C901.76,429.51,902.32,432.28,901.67,435Z"/><path class="cls-2" d="M877.83,662.25s4.83,6,6,6.73-.54,9.44-3.82,10c-1.85.32-2.88-1.71-2.88-1.71l.53-2.51-6.9-7.11Z"/><path class="cls-2" d="M852.94,663.73s4,6.56,5.13,7.45-1.74,9.29-5.07,9.44c-1.87.08-2.63-2.07-2.63-2.07l.85-2.42-5.94-7.93Z"/><path class="cls-3" d="M857.82,670.92a50.34,50.34,0,0,1-3.57,4.12,41.84,41.84,0,0,1-3.72,3s-2.36,4.29-3,5.79c-1.43,3.33-3,7-2.82,8.9.08.6,1.42,1.24,2.54.89,4.67-1.43,16.61-12.35,18.11-15.28C867.09,675,857.82,670.92,857.82,670.92Z"/><path class="cls-4" d="M823.76,571c.43-1.21.85-2.33,1.25-3.39,5,1.09,10.57,2.28,16.34,3.51l.7,21.14c0-1.63-4.33,33.72-4.33,33.72s11.2,24.81,18.87,39.27a26.45,26.45,0,0,1-9.18,7.87c-11.9-14.27-27.47-40.37-28.12-44.71C818.92,625.94,818.59,585.58,823.76,571Z"/><path class="cls-5" d="M868.07,577.14c-1.52,16.47-4.89,48-4.61,50.5.85,3.15,15.85,32.29,18.55,36.54-2.15,3.23-5.47,6.72-9,7.68-.7.19-25.45-35-26.8-37.83-1.53-3.16-4.07-20.41-4.12-41.75l-.7-21.14C851,573.19,859.8,575.19,868.07,577.14Z"/><path class="cls-6" d="M836.51,502.05l11.31,1.55s9,.16,10.17.16,8.25,41.33,10.3,56.85.47,18.28.47,18.28-14.34,3.23-25,2.29c-11-1-23.44-6.94-23.44-6.94s9.43-29.84,11.3-39.16S836.51,502.05,836.51,502.05Z"/><path class="cls-7" d="M809.08,452.06s-.73,30.77.44,33.12c1.68,3.42,20.68,27.7,20.68,27.7s-9.08,38-12.89,51.08c-.39,1.32-2.09,9.85-2.09,10.68,0,1.85,8,4.19,9,4.05s7.86-36.25,12.33-53.92a50.54,50.54,0,0,1,7.67-16.7l3.11-4.42-23.86-23.92s-2.94-26.62-2.94-28.83C820.51,450.33,810.24,449.89,809.08,452.06Z"/><path class="cls-7" d="M857.6,503.77l29.76-30.32s4.14-28.67,4.44-29.75,7.68-1.64,10.65-1.93c1-.09-.49,30.54-1.92,35.67-1.68,6.07-24.17,33.71-24.17,33.71s-4,15-3.06,25.94c1.61,18.24,6,43.33,5.18,44.11-4.84,3-23.4,3.38-24.57,1.48C840.93,561.79,857.6,503.77,857.6,503.77Z"/><path class="cls-3" d="M883.59,668.76a50.71,50.71,0,0,1-3,4.54,42.87,42.87,0,0,1-3.3,3.45s-1.79,4.56-2.24,6.12c-1,3.49-2.13,7.7-1.67,9.52.16.59,1.44,1.7,2.5,1,4.09-2.66,15-15.14,16.15-18.24C893.3,671.58,883.59,668.76,883.59,668.76Z"/><path class="cls-8" d="M848.66,464.26a30,30,0,0,0,3.79-.07,17.51,17.51,0,0,1,4.29,0c2.2.46,5.69,2,6.86,4.91,1.45,3.59,6.64,3.06.49,16.69-7,15.43-15.09,10.37-15.2,10s-4-13.07-4-13.07-4.86,4.82-4.78,4.61S833.45,463.71,848.66,464.26Z"/><path class="cls-2" d="M848,498l-.81,6s-1.81,8.7.52,10.38,9.94-10.62,9.94-10.62l-.8-15.3Z"/><path class="cls-9" d="M857.08,493.45a17.34,17.34,0,0,1-9.79,9.67L848,498l8.85-9.51Z"/><path class="cls-2" d="M854.17,471.2a8,8,0,0,0-11.54,4.34,60.15,60.15,0,0,0-2.1,7.48c-1.46,6.9.83,14.32,4,14.91s12.66-2.23,14.85-12C860.7,479.9,858.74,473.81,854.17,471.2Z"/><path class="cls-2" d="M856.89,486.27a2.34,2.34,0,1,0,2.78-2.34A2.6,2.6,0,0,0,856.89,486.27Z"/><path class="cls-8" d="M859.67,483.93s-3.89-.45-4.35-3.24-3.31-9.5-10.08-9.72,7.16-3,7.64-2.8l6.25,2.32s3.06,5.32,3.07,5.78-.36,5.32-.36,5.32Z"/><path class="cls-10" d="M849.56,491l-6.93-1.2a3.07,3.07,0,0,0,2.73,3.28C849.06,493.86,849.56,491,849.56,491Z"/><path class="cls-7" d="M942.6,178.4c-15.58,12.67-37.72,26.73-56,32.78l27.09,5.1L801.85,348.21l-223,64.18L314.94,693.83l207.89-.07L628.75,523.7,841,397.61,923.39,222,941,243.23C937.43,224.34,939,198.17,942.6,178.4Z"/><path class="cls-11" d="M782.92,22.48s17,11,58.9,9.51c0,0-44.91,17-62.47,19.58L772.12,23Z"/><path class="cls-6" d="M790.93,36.86a43.28,43.28,0,0,1-11.58,14.71L775.58,36.7l.24-7.2Z"/><path class="cls-9" d="M726.31,6.2S775.4,2.88,783,5.68l7.89,31.18S763,34.45,735.76,43.53Z"/><path class="cls-12" d="M696.73,353.64s-2.36,3.86-2.15,5,3.06,13.25,4.63,14.05,5.53.65,4.64,2.22c-.67,1.19-7.77,2.76-12.5,3.69-1.38.27-5.84-10.17-6.78-11.63-1.37-2.12-4.6-6.86-4.3-8.66.15-.88,1.4-2.92,3.36-5a22.15,22.15,0,0,0,3.51-6.35Z"/><path class="cls-2" d="M731.08,352.54s-.8,8.65-.8,8.67c.11,1.32.08,4.63.37,5.78,1.08,4.29,18.45-8.56,13.63-9.36a4.76,4.76,0,0,1-2.52-2.57c-.77-2.2.34-5.49.34-5.49Z"/><path class="cls-4" d="M724,197s5,13.88,5.07,14.09c5.83,23,21.79,66.86,22,71.41.56,11.1-8.6,70.74-8.6,70.74l-12.69,1.65-.28-68.57-12.48-24.46-21.35-49.21Z"/><path class="cls-5" d="M685.88,220,687,234.11l7.73,57.13-10.34,60.38s5.38,7,10.66,6.88l24.23-65.43L725,215.73l-4.84-15.63Z"/><path class="cls-3" d="M683.76,353.17s12.4,18.56,15.48,18.82c.82.07,4.6-.18,5.69,1.25a17.57,17.57,0,0,1,1,2.57l-15.56,4.48s-4.21-9.64-6-13.4c0,0-6.44-8.63-6.22-9.62S683.76,353.17,683.76,353.17Z"/><path class="cls-3" d="M729.87,369.19l.48-8.08s5.16.79,7.4-.13a70.9,70.9,0,0,0,6.47-3.38c10.07.71,18.07.26,17.31,3.08h0Z"/><path class="cls-12" d="M754,150.12l6.71,5.15c1.29-1,4.12-5.19,6-6.5l-6.13-6.69h0a1.76,1.76,0,0,1-.71-1.6,5.72,5.72,0,0,1,.16-1c.19-.53.37-1.16.56-1.69s-1.08-1.59-1.74-1.78-.89,2.36-1.18,3.12c-.87,2.28-1.91,8.54-2.11,9.58Z"/><path class="cls-13" d="M761.39,154.61c-1.89-2-4.55-3.13-6.52-5.22l-29.78,20.5s-23-27.22-35.52-17.58A208.31,208.31,0,0,0,705,174.56c7.65,9.46,19.32,14,21.6,12.94C729.2,186.32,760.72,155.42,761.39,154.61Z"/><path class="cls-1" d="M631.15,86.47c1,2.62,2.69,6.75,2.69,6.75,0,1.19.29,6.12.6,12.16l8.38-4.59s-1.28-9.75-1-10.39.9,0,3.13-4.17a7.51,7.51,0,0,0,.55-3.22s-.13-2.47-.71-2.64a1.17,1.17,0,0,0-1.32.73c-.14.45,0,1.43-.12,1.88a3.07,3.07,0,0,1-1.9,1.15c-.54,0-.81-7.26-.81-7.26s.05-2.09.12-2.77.38-2.33.38-2.33.32-2.51-.46-2.6c-.46-.06-1.36,2.06-1.88,4.25-.56,2.36-.75,4.81-1,4.81-.57,0-.75-4-.75-4a12.69,12.69,0,0,0,.22-2.74c.4-1.11.52-3.1-.43-3.15A15.94,15.94,0,0,0,635.78,71s-.27,1.79-.45,2.64a44,44,0,0,0-.26,4.8c-.12.86-.35.54-.44.59a23.82,23.82,0,0,1-.14-2.72,16,16,0,0,1-.11-2.64,20.4,20.4,0,0,0,0-2.8c-.1-2.07-1.36-1.7-1.58.22-.08.74-.17,1.54-.25,2.35-.32,3.15,0,6.11-.27,6.18s-.8-5.34-.8-5.34-1-2.9-1.34-.06a24,24,0,0,0,.05,6C630.39,81,630.17,83.85,631.15,86.47Z"/><path class="cls-9" d="M689.93,111.55s-5-4.19-8,2a3.6,3.6,0,0,0-4.58,1.79s-5.2-.91-5.51,6.74c0,0-2.64-.17-2.61,2.94a7.61,7.61,0,0,0,1.84,5s-1.32,1.27-.32,4a3.5,3.5,0,0,0,2.88,2.45s1,4,2.93,5a5.76,5.76,0,0,0,4.21.13s.9,2.12,2.92,1.67,4.32-2.69,6.72-2.09,8.22-1,8.22-1,6.32-3.78,3.49-10.36a5,5,0,0,0-.4-7s1.52-6.22-3.33-9.19S689.93,111.55,689.93,111.55Z"/><path class="cls-7" d="M704.23,154.53,694,149.24s-9.14,1.34-10.27,1.47-3.27,42.7-3.45,58.64S682,227.88,682,227.88s14.88,1.5,25.49-.74c11-2.34,22.84-9.88,22.84-9.88s-13.17-29-16.2-38.18S704.23,154.53,704.23,154.53Z"/><path class="cls-13" d="M684.09,150.61l-33.78-27s-7.69-28.46-8.12-29.52-8-.71-11-.64c-1,0,4.23,30.8,6.3,35.81,2.44,5.92,28.55,31.1,28.55,31.1s5.9,14.63,6.26,25.84c.6,18.62-.72,44.5.16,45.2,5.26,2.49,24,.55,25-1.51C708,207.2,684.09,150.61,684.09,150.61Z"/><path class="cls-2" d="M693.06,143.71l1.53,5.92s2.87,8.45.74,10.41-11.23-9.39-11.23-9.39l-1-15.34Z"/><path class="cls-9" d="M683.4,140.28a17.4,17.4,0,0,0,11,8.45l-1.3-5-10-8.4Z"/><path class="cls-9" d="M669.36,126.45c.29,2.32,1.83,4,3.46,3.85s2.73-2.24,2.44-4.57-1.82-4-3.45-3.84S669.08,124.12,669.36,126.45Z"/><path class="cls-9" d="M677.12,116.34c.16,1.33,1.9,2.22,3.88,2s3.46-1.52,3.3-2.85-1.9-2.22-3.88-2S677,115,677.12,116.34Z"/><path class="cls-2" d="M686.52,118.63a8.09,8.09,0,0,1,11.3,5.14,58.17,58.17,0,0,1,1.59,7.64c1,7-1.83,14.29-5,14.68s-12.57-3.1-14.09-13C679.35,126.92,681.75,121,686.52,118.63Z"/><path class="cls-2" d="M682.74,133.56a2.36,2.36,0,1,1-2.63-2.53A2.6,2.6,0,0,1,682.74,133.56Z"/><path class="cls-9" d="M699.93,113.46c3.61,2.21,5.25,6,3.65,8.55s-5.82,2.75-9.43.54-5.25-6-3.65-8.55S696.32,111.25,699.93,113.46Z"/><path class="cls-9" d="M691.57,116.65c.14,1.13-1.12,2.22-2.81,2.42s-3.18-.55-3.31-1.68,1.12-2.23,2.81-2.43S691.43,115.51,691.57,116.65Z"/><path class="cls-9" d="M701.73,124.28A2.63,2.63,0,1,1,698.8,122,2.65,2.65,0,0,1,701.73,124.28Z"/><path class="cls-13" d="M712.8,160.86s14.28,33.74,19.36,45.64c.55,1.29,3.31,9.7,3.41,10.54.22,1.86-7.6,5.21-8.58,5.18s-12.37-35.66-19-53a51.37,51.37,0,0,0-9.79-15.94l-3.24-2.67-.32-1S709.09,150.92,712.8,160.86Z"/><rect class="cls-3" x="752.59" y="-3.3" width="2.64" height="237.07" transform="translate(-5.22 188.57) rotate(-14.21)"/><path class="cls-2" d="M767.86,145.77a7.78,7.78,0,0,0-.46-1.55,4.58,4.58,0,0,0-.89-1.42,2.63,2.63,0,0,1-.45-.94,1.9,1.9,0,0,0-.2-.37h0a3.65,3.65,0,0,0-.87-.84,4,4,0,0,1-1-1,2.82,2.82,0,0,0-1.06-.94c-.43-.2-.75-.21-.9.05-.71,1.21-4.22,5.06-2.79,6.92a45.84,45.84,0,0,1,3.06,3.91c.44,1,2,.94,2.9.59C767,149.48,768.34,148.38,767.86,145.77Z"/><path class="cls-9" d="M715.49,101.19a.54.54,0,0,1,.85-.13l1.12,1.14c.82.84.83.9.95.88.3,0,.31-.58.29-.78a7.26,7.26,0,0,1-.12-1.31,1,1,0,0,1,1.61-.72c.65.53,1.28,1.1,1.89,1.67,0-.94.08-1.88.14-2.82a.37.37,0,0,1,.62-.28l2.85,2.23c.15.12.76.73.94.62s.15-.76.17-.9c.08-.81.13-1.09.48-3.71a.43.43,0,0,1,.72-.21c2,2.41,2.31,2.15,2.49,2.87a.21.21,0,0,1-.24.26c-.38,0-.47-.08-1.48-1-.26-.25-.51-.5-.76-.77-.36,3.18-.37,4-1.17,4.23-.55.17-.64,0-3.88-2.54,0,1-.06,2-.1,3a.42.42,0,0,1-.71.31c-2.31-1.9-2.29-2-2.54-2.16,0,0,0-.17-.05.07-.07.42.33,1.32,0,2.08a1.27,1.27,0,0,1-1.69.83c-.42-.2-.53-.41-1.76-1.6a10.92,10.92,0,0,1-1.41,2.2,1.78,1.78,0,0,1-.82.61.45.45,0,0,1-.57-.53C713.64,103.74,714.44,103.53,715.49,101.19Z"/><path class="cls-5" d="M704.84,89.52a15.22,15.22,0,0,0,2.63.23c.18,0,.5,0,.61-.14.27-.42-.44-1.06-.75-2.7-.14-.71-.49-2.16.47-2.45a5.36,5.36,0,0,1,1.6,0h1.14c-.68-2.66-.84-2.51-.56-3.1a.33.33,0,0,1,.45-.14c.53.36.38.28,1.27,3.62a.52.52,0,0,1-.48.67c-.51,0-2.85-.2-3.14-.18,0,0,0,.15,0,.18a8.75,8.75,0,0,0,.78,3c.32.83.3,1.94-.75,2.17a9.94,9.94,0,0,1-2.64-.06c.47,1.62,1,3.24,1.42,4.86a.58.58,0,0,1-.53.73c-1-.1-2.09-.15-3.13-.2a9.55,9.55,0,0,0,1.29,2.67c.41.61-.44,1.35-1.38-.25a9.2,9.2,0,0,1-1.2-2.87.57.57,0,0,1,.53-.73c1,0,2.07.09,3.1.17-.45-1.61-.89-3.24-1.34-4.86A.54.54,0,0,1,704.84,89.52Z"/><path class="cls-14" d="M680.57,80.51A.53.53,0,0,1,680,80a12.38,12.38,0,0,1,0-4.25c.15-.74,1.23-.46,1.13.26a15.42,15.42,0,0,0-.16,3.46,11.73,11.73,0,0,0,2.5-.32.54.54,0,0,1,.69.5c-.05.92-.36,4.38-.4,4.41h.09c.36.08,1.6-.18,2.16-.14s.84.89.87,1.41c.06,1-.72,2.2-.35,3.23s1.9-.1,3.06.7c.9.63.59,1.67.22,3.33a1.29,1.29,0,0,1-.59,1,.27.27,0,0,1-.32,0c-.44-.5-.21-1.1.08-2.61,0-.19.16-.52,0-.69-.45-.58-1.76.24-2.82-.45a2.4,2.4,0,0,1-.81-2.49c.1-.7.53-1.56.31-2.27-.6,0-1.21.08-1.81.06a1,1,0,0,1-1.13-1,18.89,18.89,0,0,1,.15-2.25c0-.49.07-1,.12-1.49A13.73,13.73,0,0,1,680.57,80.51Z"/><path class="cls-4" d="M723.93,116.83c2.5,3.21.15,4.77-.9,3.84a.88.88,0,0,1,.06-1.43c.24-.15.63.09.53.38s.19.31.3,0-.09-.78-.24-1.08c-.36-.72-.81-1.65-1.69-1.79-1.31-.2-2.74,1.11-2,3.11,1,2.9,5.73,2.86,6.58-.16a4.33,4.33,0,0,0-1.53-4.49c-.26-.2.05-.55.32-.44,2,.86,2.7,3.45,2,5.4a4.36,4.36,0,0,1-4.91,2.6,4.16,4.16,0,0,1-3.59-4.47A2.86,2.86,0,0,1,723.93,116.83Z"/><path class="cls-7" d="M672.28,90.05c.35.52.54,1.58-.16,1.91a.57.57,0,0,1-.84-.32c-.11-.38.09-.72-.24-1a.78.78,0,0,0-1,.11c-.82.66-.61,2.12-.18,2.94a2,2,0,0,0,3.43.2,4.24,4.24,0,0,0,.48-1.43c.07-.27.51-.39.65-.1a2.66,2.66,0,0,1-1.17,3.11,3.15,3.15,0,0,1-3.4,0,4.07,4.07,0,0,1-1.59-3.48C668.38,89.24,671.16,88.36,672.28,90.05Z"/><path class="cls-10" d="M690.68,138.21a2.61,2.61,0,0,0,2.86,2.23c3.21-.05,3.11-2.49,3.11-2.49Z"/><path class="cls-15" d="M40.3,476.35s-12.09-21.67-15-26.27-10.6-22.91-10.87-23.63,5.28-9.38,4-9.68-2.61,4.57-3.93,4-5.19-12.29-5.94-11.71c-1.41,1.09,2.08,7.26,1.33,7.65s-3-6.79-4.5-6.58,2.8,6.58,2.39,7.15-4.86-5.44-5.66-4.16c-.44.69,4.09,5.24,3.22,5.66S.46,416.26,0,417.11s3.72,2,5,4.29,3.35,3.26,4.23,7.49S11.41,448.4,15.9,456s14.37,24.5,14.37,24.5Z"/><path class="cls-9" d="M37,469.33s13.37,14.41,15.35,20.21S50.38,503.66,45,504s-17.49-25.57-17.49-25.57Z"/><path class="cls-12" d="M99.93,573.65c-1-.82-2.15-.45-5.52-2a21.78,21.78,0,0,0-3.15-.94.41.41,0,0,1-.3-.28c-1-3.88-5.52-21.84-6-27S81,515.65,80.5,512.23a.38.38,0,0,0-.49-.31l-9.81,2.73a.4.4,0,0,0-.28.47c.61,2.67,4.38,19.48,5.49,28,.88,6.78,11,28.53,11.18,29.92v0a.85.85,0,0,0,.84.73H98.38C98.79,573.79,100.24,573.9,99.93,573.65Z"/><path class="cls-6" d="M78.08,502.54C72.86,486.7,67,487.38,67,487.38l4.52,33.3c3.22-.88,7.42-2.85,10.64-3.76A145,145,0,0,0,78.08,502.54Z"/><path class="cls-7" d="M76.46,461.35c-1.6-10.42-11-17.91-20.88-12.85a23.15,23.15,0,0,0-6.75,5.41c-4.14,5.31-5.2,11.87-9.48,17a41.91,41.91,0,0,0,5.74,3.64L47.75,471l-.92,4.43c6.62,3.17,16,5.78,28.75,5.71A55.26,55.26,0,0,0,76.46,461.35Z"/><path class="cls-12" d="M79.53,692.29c-1.5-1.11-2.72-1.84-7.52-4.17-.31-.15-1.46-.88-1.87-1.13a14.75,14.75,0,0,1-3-2.65c-.86-1-1.27-4.05-1.47-6.5.5-5.49,8.44-93.44,10.12-103,1.73-9.83-.9-24.82-.9-24.82l-6.14-2.32L57.12,588.11,58,618.83S55.29,627.69,55,633s4,48.25,4,48.25h0a22.64,22.64,0,0,1-.23,3.8c-.32,1.61-2.08,4.91-1.27,6.42a4,4,0,0,0,1.73,1.89l20.93.34C81.2,693.7,80.45,693,79.53,692.29Z"/><path class="cls-15" d="M47.77,546.9s-7.26,11-9,20,1.27,36.95-2.06,48.84c-1.8,6.44-8.63,16.38-9.67,24.69s-4.65,32.32-4.65,32.32h0c-.55,2.52-1.4,5.64-2.52,7.09a20.86,20.86,0,0,0-2.73,3.61c-1.27,2.5-.57,6.21.37,8.26.48,1,0,1,1.06,1.38a6.72,6.72,0,0,0,8.07-3.79,19.46,19.46,0,0,0,1.58-7A32.75,32.75,0,0,1,29.37,675h0L52.6,618l16.82-49.17,4.3-25.33Z"/><path class="cls-6" d="M27.27,687.7c-5,.92-8.37-2-10.11-4.24-1.28,2.5-1.9,6.23-1,8.29.83,1.81,3.25,1.75,5.15,1.82a5,5,0,0,0,4.57-2.8A16.31,16.31,0,0,0,27.27,687.7Z"/><path class="cls-6" d="M70.14,687a18.89,18.89,0,0,1-11.91-.46c-.59,1.67-1.38,3.77-1,5,.51,1.48,1.23,1.82,1.87,1.83,5,.14,18.52.32,22.37.37a.63.63,0,0,0,.49-1C81,691.53,70.55,687.24,70.14,687Z"/><path class="cls-7" d="M52.48,618.11l1.32.09h.06l1.3.08h.08l1.31.06h.07l1.33.06a86.66,86.66,0,0,0,15-.57c2-20.07,2.75-38.38,3.49-42.43,1.8-9.83-1.56-25.34-1.56-25.34l-1.61-.29,1-5.75-27,3.41s-7.56,11-9.36,20,1.32,37-2.14,48.84C35.82,616.3,43.53,617.51,52.48,618.11Z"/><path class="cls-9" d="M53.65,484.53s-9.62-.61-13.42,3.55,8.44,37.05,9.13,42.34-3.53,19.36-3.53,19.36,22.61,4.56,29.07.28c0,0,.69-38.06,0-41.84s-6.46-19.15-7.85-20.66S53.65,484.53,53.65,484.53Z"/><path class="cls-2" d="M56.86,471.65l-.14.76c-.43,2.32-2.08,10-3.2,12.13-1.35,2.55,4.62,10.7,10.36,9.71,1.71-.3-1.44-7.49-1.29-8.25.29-1.46.68-3.45,1.08-5.49.23-1.15.46-2.32.68-3.41l1.11-5.67Z"/><path class="cls-9" d="M56.72,472.41l.14-.76,8.6-.22-1.11,5.67c-.22,1.09-.45,2.25-.67,3.39a8.07,8.07,0,0,1-4.11-2.06,10.83,10.83,0,0,1-3.11-4.64C56.56,473.24,56.65,472.77,56.72,472.41Z"/><path class="cls-2" d="M62.65,452a7.74,7.74,0,0,0-6.6,2.83c-2.54,3.29-5.28,13.49,1,19s12.56-.73,13.48-7.38S71.85,451.8,62.65,452Z"/><path class="cls-2" d="M72.43,466.42c-.75,1.47-2,2.28-2.82,1.81s-.85-2-.1-3.5,2-2.28,2.83-1.81S73.19,465,72.43,466.42Z"/><path class="cls-7" d="M63.1,451s-5.42,9.7-9.29,10.14-4.39,5.6-4.39,5.6,1.39-11.87,5.23-14.15A14.22,14.22,0,0,1,63.1,451Z"/><path class="cls-2" d="M54.82,463.53c.32,1.72-.31,3.3-1.41,3.52s-2.24-1-2.56-2.7.32-3.3,1.42-3.53S54.51,461.81,54.82,463.53Z"/><path class="cls-10" d="M59.6,469.78l5.86,1.15a2.61,2.61,0,0,1-3.16,1.77C59.13,472.17,59.6,469.78,59.6,469.78Z"/><rect class="cls-4" x="537.38" y="638.62" width="2.45" height="56.07" transform="translate(1191.96 1221.29) rotate(169.26)"/><polygon class="cls-4" points="431.39 694.67 428.5 694.67 439.27 638.87 441.68 639.33 431.39 694.67"/><polygon class="cls-4" points="515.8 694.67 512.91 694.67 523.69 638.87 526.09 639.33 515.8 694.67"/><polygon class="cls-16" points="457.73 694.67 460.08 694.7 449.75 639.12 447.35 639.58 457.73 694.67"/><path class="cls-9" d="M499.34,517.94c12.84,1.37,29.45,2.82,46.12,31.12,18.23,30.93,8.63,77.13-5.75,90s-61.36,28.69-100.86,5c0,0-23.84-14.38-11.6-38.24C446.08,569,443.42,561.35,451.84,547S472.1,515,499.34,517.94Z"/><path class="cls-6" d="M545.46,549.06c-11.38-19.31-22.73-26.12-32.87-28.93a84.91,84.91,0,0,1,11.88,16c18.22,30.92,8.63,77.12-5.75,90-12.76,11.38-51.15,25.13-87.22,11.55a36.83,36.83,0,0,0,7.35,6.3c39.5,23.73,86.48,7.88,100.86-5S563.69,580,545.46,549.06Z"/><polygon class="cls-15" points="458.13 564.95 454.84 574.85 464.89 570.89 458.13 564.95"/><path class="cls-17" d="M468.5,535.5c-.67,0-2.51.64-5.19,5.7-3.43,6.46-8.45,26-8.45,26l15,5.55,1.92-4.07,3.17-31.36S468.69,535.49,468.5,535.5Z"/><path class="cls-7" d="M488.28,532.68c-4.28,0-14.87,1.25-19.78,2.82,0,0-3.61,30.92,3.25,54.41,1.54,5.26-1.27,21.81-1.27,21.81l44.34-.59s-5.26-40-3.28-46.45,2-29,2-29l-10-1.71A101,101,0,0,0,488.28,532.68Z"/><path class="cls-2" d="M493.45,669.11s-1,11.28-2.79,14.4.1,8.44.19,9.17,3.8,1.77,9.68,1.14,5.79-2,5.32-4.16-3.61-5-3.8-7.08,1.81-9.59,1.81-9.59Z"/><path class="cls-4" d="M475.48,602.4s-30.6-1.69-37.44,2.44,1.24,12.59,1.24,12.59,24.91,10.8,66.63,13.2c9.88.57,10.73-25.67,8.88-27.84S475.48,602.4,475.48,602.4Z"/><path class="cls-9" d="M501.27,694.7c6.06-.64,5.31-3.61,4.82-5.86-.31-1.41-2-3.08-3.08-4.65a10.12,10.12,0,0,1-4.06,2c-2.73.8-6.48-.79-8.86-1.79a29.1,29.1,0,0,0-.81,7.79C489.38,692.91,495.21,695.34,501.27,694.7Z"/><path class="cls-5" d="M497.92,624.23c-1.22,9.22-7.28,55.12-7.28,55.12l14.05,1.74S522,621.17,521.08,612s-7.35-9.94-7.35-9.94S501.16,599.81,497.92,624.23Z"/><path class="cls-2" d="M514.05,539.14c-4.14-1.55-6.17,35.68-6.73,51-7.34.7-20.14,0-23.32-.23-1.5-.11-5-1.38-6.45-1.57a14.89,14.89,0,0,0-3.66-.17c-.27,0-7.93,3.16-8.58,3.85-.81.84-3,3-2.64,3.91s4.22-2.58,4.22-2.58l1.89-1.05c-2.35,2.28-6.82,5.28-6.17,6.38s4.66-2,7.53-4.06c-2.46,2.22-5.53,6.19-4.82,6.8s4.12-4,7.84-5.36c1.38-.49,2.75.87,3.83,1a7.87,7.87,0,0,0,2.81.16l4-1.14c1.38.13,1.41.93,2.8,1.23,1.61.34,4.25.7,6.29,1.2,11.8,2.87,15.74,4.21,19.35,4.2C523.21,602.74,523.85,542.81,514.05,539.14Z"/><path class="cls-7" d="M521.92,574.09c.78-15.69.66-35-8.17-38.34-3.48-1.3-9.62,6.53-8.52,38.66C510,574.8,516.87,575.11,521.92,574.09Z"/><path class="cls-2" d="M452.37,678.76s1.22,3.91-1,6.5-11.32,5.14-12.52,6.54a3.94,3.94,0,0,0-1.1,2.6l25.6-.71-.28-7.7-1.18-5.54Z"/><path class="cls-9" d="M449.81,686.56s6.57,2.65,9.75,1.08,3.08-2,4-1.42,1.25,8.46,1.25,8.46l-28.79.19c-2,0-3-1.52-1.38-2.78a23.72,23.72,0,0,1,3.13-1.86C440,689,449.81,686.56,449.81,686.56Z"/><path class="cls-5" d="M453.34,609.63c-2-4.15-6.48-9.55-14.4-6.29-7.55,3.1-9.58,10.73-7.19,18.54s18.06,53.72,18.61,60l12.52.08s-2.27-36.35-2.83-45.14C459.51,628.4,456.76,616.82,453.34,609.63Z"/><path class="cls-3" d="M433,567.35h41.86a2.72,2.72,0,0,1,2.52,1.69l12.89,31.44h23.08a1.17,1.17,0,0,1,1.17,1.17h0a1.16,1.16,0,0,1-1.17,1.16H447.68a4.57,4.57,0,0,1-4.18-2.7l-13-28.92A2.73,2.73,0,0,1,433,567.35Z"/><path class="cls-10" d="M455.55,585.65a2.3,2.3,0,1,0,1.72-3A2.45,2.45,0,0,0,455.55,585.65Z"/><path class="cls-2" d="M493.37,519.43l2,13.5s-7.48,16.07-11.94,14.68c-3.75-1.17-1.44-15.39-1.44-15.39s2-7.64,1.43-11.46S493.37,519.43,493.37,519.43Z"/><path class="cls-18" d="M483.46,520.76c-.61-3.83,9.91-1.33,9.91-1.33l.17,1.12a6.36,6.36,0,0,1-1.14,1.88,13.84,13.84,0,0,1-9.2,4.16A21.14,21.14,0,0,0,483.46,520.76Z"/><path class="cls-2" d="M495.09,500.33c.3-.11,2.39,15.38-1.57,19.64s-11.68,5.65-14.44,2.3c-3.06-3.72-2.91-20.36,3.25-24.74S495.09,500.33,495.09,500.33Z"/><path class="cls-3" d="M484.67,489.25a17.06,17.06,0,0,1,9,5.12c2.16.25,5.1,1.44,8.13,6.46,3.73,6.18,1,13-3.36,16.37s-4.28,7.23-4.28,7.23l-.69-2a11.13,11.13,0,0,1-.54-4.72,9,9,0,0,1,.7-2.84c1-2.24-2.24-3.73-3.17-5.6-.7-1.43-.74-4.72-1.86-7.09l-1.33-1.81s-3.08-2.4-6.09-1.72S478.57,488,484.67,489.25Z"/><path class="cls-2" d="M490.64,512c0,1.89.82,3.43,1.91,3.45s2-1.5,2-3.38-.83-3.44-1.92-3.46S490.67,510.14,490.64,512Z"/><path class="cls-10" d="M485.29,517.26l-6-.3a2.61,2.61,0,0,0,2.65,2.48C485.16,519.7,485.29,517.26,485.29,517.26Z"/><path class="cls-1" d="M293.94,519.26a7,7,0,0,0,.74,1.8c2.15,3.91,7.13,9.48,7.13,9.48l3.85-8.67s-.63-2.73-1.72-6.62C300.22,516.22,296.68,516.78,293.94,519.26Z"/><path class="cls-9" d="M316,511.73s-21.47,9.25-22.16,9.08c-.45-.12-8.81-14.11-8.9-27.27,0-6.08,6.27-13.39,13.31-12,3.55.73,3.49,1.72,8.74,9.34S316,511.73,316,511.73Z"/><path class="cls-2" d="M334.34,677.53s-.5,8.43-.51,8.45c-.18,1.07-.92,3.72-.92,4.69,0,3.66,17.36-3.1,13.47-4.73-.35-.14-2.2-1.25-2.31-2.5-.18-1.91-.63-5.79-.63-5.79Z"/><path class="cls-19" d="M346.34,685.91s-4.08,1.12-6.17,1.4-4.84-2.08-6.32-1.44-1.56,7-1.56,7,21.87,1.79,28-.06C362.74,692.07,354.67,688.52,346.34,685.91Z"/><path class="cls-2" d="M298.82,677.53s-.51,8.43-.51,8.45a45.55,45.55,0,0,0-.92,4.69c0,3.66,17.36-3.1,13.47-4.73-.35-.14-2.75-2.08-2.86-3.32-.18-1.92-.09-5-.09-5Z"/><path class="cls-19" d="M310.82,685.91s-4.08,1.12-6.17,1.4-4.84-2.08-6.32-1.44-1.69,7-1.69,7,22,2.09,28.14-.06C327.18,692,319.15,688.52,310.82,685.91Z"/><path class="cls-2" d="M304.13,523.93l15.29-21.42.42-1.16c.77-2.13,2.37-6.55,3.77-11v0c.44-1.54,1.37-4.22,2.27-6.81,1-2.89,2.24-6.47,2.29-7.08,0-.11-.12-.29-.21-.54a49.88,49.88,0,0,1-1.59-6.43c-.17-1-.34-3.29.8-3.29,1.8,0,.94,2.33,1.77,3.78a36.68,36.68,0,0,0,1.24-4.85l.3-4.56c.06-.34-.31-2.85.95-2.85h.06c1.13.08,1.11,2.75,1.58,7.27.14-.52.29-1.15.41-1.72a15.57,15.57,0,0,1,.38-2.39c-.23-1.26-.1-3.24,1.24-3.05.68.09.62,2.86.62,2.86,0,.38-.05,3.31,0,3.89.14-1,.68-5.18,1.73-5.18.87,0,.94,1.13.93,2,0,.53-.56,5.08-.59,5.6.41-.68.89-4.69,1.3-4.69,1.7,0,1.09,5.69.46,7.18a6.16,6.16,0,0,0-.19.79,14,14,0,0,1-1.46,4.24c-1.07,1.82-2.54,4.73-2.77,5.17-.16.91-.67,4.17-1.32,8.28-.27,1.76-.57,3.68-.89,5.68h0c-.06.44-.38,1.81-1.59,7-1.66,7.05-1.83,7.35-1.9,7.48-.72,1.27-17.21,23.67-17.91,24.62l-.42.56Z"/><path class="cls-9" d="M332.58,474s-1.25-3.17-3.46-3.18a2.56,2.56,0,0,1,2.3.4A4.36,4.36,0,0,1,332.58,474Z"/><path class="cls-2" d="M300.44,467.83l-2,12.45s7.5,6,11.87,4.75c3.67-1.06,1.15-5.86,1.15-5.86s-1.95-6.64-1.35-10.13S300.44,467.83,300.44,467.83Z"/><path class="cls-20" d="M301.85,471.6a30.82,30.82,0,0,0,8.49,2.39,16.26,16.26,0,0,1-.2-4.95c.28-1.61-1.77-2-4.05-1.93-3,.25-5.65.72-5.65.72l-.38,2.39A6.25,6.25,0,0,0,301.85,471.6Z"/><path class="cls-2" d="M291,453.47c-.31,0,3,13.91,8,16.3s12.63,1.15,14.05-2.6c1.57-4.14-4.16-18.33-11.29-20.13S291,453.47,291,453.47Z"/><path class="cls-3" d="M296.83,440.69a16,16,0,0,0-6.53,7.22c-1.9.9-4.2,2.85-5.3,8.1-1.36,6.46,3.47,11.44,8.58,12.94s5.91,4.89,5.91,4.89l.58-3.65a14.47,14.47,0,0,0-2.85-4.76c-1.71-1.58.81-3.9,1-5.78.17-1.46-.9-4.28-.67-6.66,0,0,2.84-4.31,5.65-5.37C308,445.8,302,437.69,296.83,440.69Z"/><path class="cls-2" d="M299,462.07c.66,1.6.39,3.2-.61,3.56s-2.34-.65-3-2.25-.39-3.21.6-3.57S298.33,460.46,299,462.07Z"/><path class="cls-1" d="M317.87,524.28l29.5-4.81S344,511,342.81,511s-22.31,9.21-22.31,9.21l-1.67,3.37Z"/><path class="cls-21" d="M302.76,544.5s-2.95,14.23-1.75,25,1.3,49.1,1.3,49.1l-4.58,61.31,10.86.24s12.87-61.28,12.63-59.71,4.32-43.15,4.32-43.15l-15.35-34.16Z"/><path class="cls-3" d="M305.63,543.83s-1.92,12.81.48,18.43S326.69,623,326.92,627.5s6.29,54.17,6.29,54.17l12.62-.36,2.74-55.23-5.72-69.42-5.56-17.55Z"/><path class="cls-2" d="M298.47,480.28s3.11,2,6,1.81,7-2.92,7-2.92l-.57-1.93s-7.51-1.1-7.7-1S298.47,480.28,298.47,480.28Z"/><path class="cls-1" d="M331.65,510.6s11.16,10.53,16.2,8.73,7.12-7.94-5.17-16.93C331.68,494.35,331.65,510.6,331.65,510.6Z"/><path class="cls-6" d="M339.21,523.6c-1.66-9-13.67-37.08-14.63-42.25-.47-2.51-6.95-2.57-13.12-2.24-6.52.35-13,1.17-13,1.17s-5.77,1-8.31,3.33-3.22,9,.43,21.45c2.88,9.86,6.46,15.28,8.22,22.46.36,2.41.67,4.78,1.08,7.56.64,10.74,0,24.93,0,24.93s31.42,6.52,43.17-3.37C343.05,556.64,340.91,532.84,339.21,523.6Z"/><path class="cls-9" d="M347.22,504.21s-12.33,10.18-13,10.18c-.47,0-17.6-12.6-21.55-23-2.19-5.72,2.4-12.12,7.63-12.1,3.63,0,5.25.95,12.44,7S347.22,504.21,347.22,504.21Z"/><path class="cls-22" d="M550.39,205c-3.62-2.45-7.34-4.77-10.91-7.29a3.15,3.15,0,0,1-1.16-2.42c.47-5,1.23-10.06,1.67-15.11.12-1.47.46-2.24,1.87-2.79,5-1.94,9.88-4,14.81-6,.8-.33,1.58-.69,3-1.28-2.35-7.57-4.68-15.06-7.07-22.73-6.34,1.26-12.13,2.31-17.87,3.6-2,.46-3.12.22-4.43-1.65-2.66-3.83-5.85-7.29-8.72-11a2.93,2.93,0,0,1-.37-2.37c2-5,3.9-10.11,6.15-15,1.08-2.36.54-3.63-1.58-4.73a14.22,14.22,0,0,1-2.2-1.72l-10.94-5.88a7.56,7.56,0,0,1-1.37-.28c-4.45-1.82-3.59-1.79-6.12,1.93-3.08,4.52-6.08,9.1-8.72,13.05l-19.77-1.84-7.71-18.73a75.85,75.85,0,0,0-22.65,7c1.25,6.24,2.46,12.33,3.71,18.41a2.11,2.11,0,0,1-.92,2.55c-4.18,3.13-8.29,6.37-12.26,9.78a2.47,2.47,0,0,1-3.1.47c-5.06-2.13-10.17-4.14-15.24-6.25a2.14,2.14,0,0,0-3,.75,67.62,67.62,0,0,0-9.38,18.18c-.46,1.28.15,1.83,1.12,2.46,4.47,2.91,8.87,5.93,13.37,8.8a2.68,2.68,0,0,1,1.43,3.22c-.9,5.78-1.45,11.61-2.19,17.89l-18,7.4a70.78,70.78,0,0,0,6.89,23l19.41-4c3.74,4.31,7.11,8.41,10.74,12.27,1.37,1.46,1.61,2.56.81,4.36-2.13,4.8-4.08,9.69-6.05,14.56-.39,1-1.16,2.08.34,2.87l18.34,9.69c1.3.68,2.12.25,2.9-1,2.93-4.55,6.06-9,8.9-13.58,1.1-1.77,2.28-1.84,4.13-1.59a126,126,0,0,0,13.71,1.24c2,0,2.7.55,3.37,2.31,2.14,5.64,4.5,11.2,6.73,16.68,4.9,0,18.23-4.18,23-7.17-1.25-6-2.46-12.09-3.84-18.14-.35-1.51.1-2.16,1.26-3.07,3.73-2.94,7.26-6.14,11-9.12a3.13,3.13,0,0,1,2.6-.5c4.52,1.77,9,3.7,13.44,5.63,2.49,1.07,3.49,1.52,4.45.88l10.44-19.42C554.41,207.72,553.33,207,550.39,205Zm-38.79-6.81a35.68,35.68,0,0,1-48.32,14.53h0a35.68,35.68,0,0,1-14.53-48.32h0a35.69,35.69,0,0,1,48.32-14.53h0a35.69,35.69,0,0,1,14.53,48.32Z"/><path class="cls-23" d="M368.8,288.11c-5.87.57-11.72,1.35-17.59,1.81a4.31,4.31,0,0,1-3.28-1.52c-3.84-5.65-7.36-11.51-11.24-17.13-1.13-1.63-1.45-2.72-.46-4.5,3.49-6.28,6.81-12.65,10.19-19,.55-1,1.06-2.08,2-3.88l-26.84-17.52c-5.51,6.75-10.62,12.81-15.47,19.07-1.71,2.21-3.06,2.91-6,2.08-6.05-1.69-12.33-2.54-18.48-3.92a3.87,3.87,0,0,1-2.42-2.14c-2.31-6.92-4.63-13.84-6.51-20.87-.91-3.38-2.56-4.23-5.69-3.56a19.61,19.61,0,0,1-3.76.11l-16.41,3.28a9.91,9.91,0,0,1-1.67.88c-6.18,1.93-5.26,1.23-4.7,7.26.69,7.34,1.5,14.67,2.16,21l-22.11,15.05L196.4,251.84a102.33,102.33,0,0,0-17.47,26.75c6.66,5.4,13.13,10.69,19.65,15.93a2.83,2.83,0,0,1,1.24,3.43c-1.66,6.84-3.15,13.74-4.33,20.68a3.32,3.32,0,0,1-2.82,3.15c-7.08,2.14-14.11,4.44-21.19,6.6-1.76.54-2.57,1.28-2.48,3.36.4,9.33,2.74,18.2,5.86,26.92.62,1.73,1.74,1.78,3.28,1.6,7.14-.82,14.3-1.47,21.43-2.34,2.05-.25,3.08.15,4.24,2.11,4,6.77,8.46,13.3,13.08,20.46l-12.3,23.1a95.3,95.3,0,0,0,26.87,17.94l16.74-20.81c7.58,1.27,14.59,2.63,21.67,3.53,2.67.34,3.87,1.27,4.58,3.83,1.91,6.81,4.08,13.55,6.21,20.3.43,1.34.59,3.16,2.83,2.69l27.35-5.68c1.94-.4,2.41-1.56,2.18-3.5-.87-7.24-1.43-14.52-2.42-21.74-.38-2.79.79-3.87,2.91-5.2a168.92,168.92,0,0,0,15.31-10.48c2.09-1.65,3.28-1.74,5.48-.49,7.07,4,14.29,7.77,21.31,11.54,5.08-4.2,15.33-20,17.76-27.21-6.46-5.15-12.94-10.44-19.57-15.53-1.65-1.28-1.74-2.34-1.32-4.28,1.35-6.25,2.27-12.6,3.56-18.88a4.25,4.25,0,0,1,2.27-2.75c6.21-2,12.5-3.86,18.78-5.69,3.51-1,4.93-1.42,5.38-2.9l-5.83-29.12C375.31,287.49,373.55,287.65,368.8,288.11Zm-46.13,26.23A48,48,0,0,1,285,370.89h0a48.06,48.06,0,0,1-56.55-37.7h0a48.07,48.07,0,0,1,37.7-56.55h0a48,48,0,0,1,56.55,37.7Z"/><path class="cls-24" d="M356.6,136.77c-2.35-1.11-4.74-2.15-7.07-3.31a1.87,1.87,0,0,1-.9-1.32c-.17-3-.17-6-.36-9a1.59,1.59,0,0,1,.85-1.81c2.74-1.59,5.45-3.25,8.16-4.88.44-.26.88-.54,1.63-1l-6.18-12.73c-3.62,1.31-6.93,2.44-10.19,3.71a2.08,2.08,0,0,1-2.75-.58c-1.9-2-4.09-3.76-6.1-5.68a1.71,1.71,0,0,1-.44-1.36c.7-3.14,1.39-6.29,2.28-9.38.42-1.48,0-2.18-1.35-2.64a8.33,8.33,0,0,1-1.45-.81l-7-2.48a5.83,5.83,0,0,1-.84,0c-2.77-.67-2.27-.73-3.42,1.68-1.41,2.94-2.77,5.9-4,8.46l-11.79.67-6.21-10.32a45.31,45.31,0,0,0-12.68,6.16c1.29,3.56,2.54,7,3.82,10.5a1.25,1.25,0,0,1-.31,1.58c-2.18,2.21-4.31,4.49-6.34,6.85a1.48,1.48,0,0,1-1.78.55c-3.17-.8-6.35-1.53-9.52-2.31a1.26,1.26,0,0,0-1.7.7,40.38,40.38,0,0,0-3.9,11.53c-.15.79.26,1.06.88,1.35,2.89,1.31,5.75,2.69,8.65,4a1.57,1.57,0,0,1,1.12,1.76c0,3.48.19,7,.31,10.71l-9.9,6a42.11,42.11,0,0,0,6.1,12.89L285.37,152c2.58,2.2,4.93,4.31,7.4,6.26a2,2,0,0,1,.87,2.49c-.83,3-1.54,6.06-2.26,9.1-.14.6-.49,1.33.46,1.66l11.64,4.06c.83.29,1.27,0,1.62-.83,1.32-2.94,2.76-5.82,4-8.78.48-1.15,1.17-1.29,2.28-1.31a76.72,76.72,0,0,0,8.17-.49,1.77,1.77,0,0,1,2.19,1.06c1.76,3.12,3.65,6.18,5.45,9.2,2.87-.44,10.34-4.08,12.9-6.27-1.28-3.41-2.53-6.89-3.88-10.32a1.53,1.53,0,0,1,.47-1.92c1.93-2.06,3.72-4.26,5.63-6.34a1.86,1.86,0,0,1,1.49-.52c2.81.63,5.61,1.37,8.4,2.1,1.56.42,2.19.59,2.69.13L359.33,139C359.2,138,358.5,137.68,356.6,136.77Zm-23.42-.54a21.21,21.21,0,0,1-27.11,12.85h0A21.22,21.22,0,0,1,293.21,122h0a21.22,21.22,0,0,1,27.12-12.85h0a21.2,21.2,0,0,1,12.85,27.11Z"/><path class="cls-4" d="M205.85,690.11l-5.81,0c.77-25.33,1.44-63.8.16-66a1,1,0,0,0,.39.29l4.71-1.23c.76.39,1.22.62,1.38,11.39.08,5.54,0,13.2-.09,22.75C206.35,673.6,205.85,690,205.85,690.11Z"/><path class="cls-4" d="M222.86,689.8H183.69a3.27,3.27,0,0,0-3.26,3.27h0a.56.56,0,0,0,.57.57h44.55a.56.56,0,0,0,.57-.57h0A3.27,3.27,0,0,0,222.86,689.8Z"/><path class="cls-4" d="M205.22,686.58h-4.8a2.57,2.57,0,0,0-2.57,2.57h0a2.57,2.57,0,0,0,2.57,2.57h4.8a2.58,2.58,0,0,0,2.57-2.57h0A2.58,2.58,0,0,0,205.22,686.58Z"/><rect class="cls-3" x="64.04" y="578.1" width="2.32" height="115.47"/><path class="cls-3" d="M183.16,514.21a31.08,31.08,0,0,1,2.83-15c2-4.11,6.87-6.44,11.32-6.45,14.16,0,16,18.69,25,25.9,2.75,2.2,5.83,4,8.43,6.38,9.62,8.77,5.29,25-3.54,32.72-6.13,5.34-15.77,8.37-23.32,4.2a23.82,23.82,0,0,1-9.07-9.77c-3-5.64-5-12.14-7.13-18.14C185.36,527.68,183.44,521,183.16,514.21Z"/><path class="cls-12" d="M144.11,568l30.8-8.59s6.49-8.71,14.84-20.41c2.73,2.71,4.24,6.86,7,9.53l-20.39,22.55a3.84,3.84,0,0,1-2.87,1.28l-28.31.1-9.68.77V567Z"/><path class="cls-9" d="M188.45,561.44S199,550.6,201.74,545.9s-1.85-1.65-6.52-2.89c-1.77-.47-1.32-10.83-4.67-7.46-5.48,5.53-12.38,15.19-12.38,15.19Z"/><path class="cls-6" d="M203.48,530.79s9.48-1.87,13.81,1.75-.92,35.77-.92,41.1,3,20.39,3,20.39-28.75,5-33.32-3c0,0-1.3-30.49-1.1-34.32s4.45-19.51,5.63-21.19S203.48,530.79,203.48,530.79Z"/><path class="cls-2" d="M203.54,516.12l.14.77c.43,2.31,2.08,10,3.2,12.1,1.36,2.55-4.63,10.69-10.39,9.7-1.71-.29,1.45-7.48,1.3-8.24-.29-1.45-.69-3.44-1.09-5.48-.23-1.15-.46-2.31-.67-3.41-.62-3.11-1.12-5.66-1.12-5.66Z"/><path class="cls-9" d="M203.68,516.89l-.14-.77-8.63-.22s.5,2.55,1.12,5.66c.21,1.09.44,2.25.67,3.39a8.06,8.06,0,0,0,4.12-2.06,10.89,10.89,0,0,0,3.12-4.63C203.83,517.71,203.74,517.24,203.68,516.89Z"/><path class="cls-2" d="M197.73,496.54a7.79,7.79,0,0,1,6.62,2.82c2.55,3.3,5.29,13.47-1,19s-12.59-.73-13.52-7.37S188.5,496.3,197.73,496.54Z"/><path class="cls-2" d="M187.92,510.9c.75,1.46,2,2.28,2.83,1.81s.85-2,.1-3.5-2-2.28-2.84-1.81S187.16,509.43,187.92,510.9Z"/><path class="cls-3" d="M197.27,495.45s5.44,9.68,9.33,10.13,4.39,5.59,4.39,5.59-1.39-11.85-5.23-14.14A14.39,14.39,0,0,0,197.27,495.45Z"/><path class="cls-2" d="M205.58,508c-.32,1.72.32,3.3,1.42,3.52s2.25-1,2.56-2.7-.32-3.3-1.42-3.52S205.89,506.29,205.58,508Z"/><path class="cls-12" d="M169,667.41s8.73,10.47,8.79,11.38-.35,10.85-1.39,11.76-4.08,1.55-3.1,2.58c.74.77,6.44.61,10.21.4,1.11-.06,2.49-8.86,2.93-10.15.63-1.88,2.17-6.11,1.6-7.42a11,11,0,0,0-3.52-3.17c-2-1.29-9.62-11.89-9.62-11.89Z"/><path class="cls-6" d="M184.39,672.73s-5.86,16.5-8.15,17.29c-.61.21-3.53.75-4.08,2a5.47,5.47,0,0,0,0,1.69h12.21s1.55-7.27,2.16-10.46c0,0,3.23-7.81,2.87-8.52S184.39,672.73,184.39,672.73Z"/><path class="cls-2" d="M116.73,672.44s-7.13,10-6.5,13.21c.33,1.7,1.83,3.92,1,5.52a4.31,4.31,0,0,1-1.84,2l-22.23.36c-1.21,0-.41-.76.56-1.48,1.6-1.17,2.89-1.95,8-4.41.33-.16,1.54-.93,2-1.2a15,15,0,0,0,3.18-2.8c1.6-1.77,8.62-16.23,8.62-16.23Z"/><path class="cls-6" d="M97.67,686.44a20.21,20.21,0,0,0,12.66-.49c.63,1.77,1.46,4,1,5.28-.54,1.57-1.31,1.92-2,1.94-5.37.14-19.67.33-23.77.39a.67.67,0,0,1-.52-1.1C86.09,691.25,97.23,686.71,97.67,686.44Z"/><path class="cls-6" d="M142.51,610.54s8.82,10.07,11.07,11.67,23.85,41.37,23.85,41.37l-7.69,5.62s-19.31-24.07-28.37-37c-7.67-10.89-4.85-10.2-9.35-16.82a8.86,8.86,0,0,1,1.35-11.55c.41-.36.85-.75,1.33-1.15,6.67-5.56,52.41-11.82,52.41-11.82l29.26,2.87s-23.9,16.76-24.8,17.2-33,5.13-33.67,5.13S142.51,610.54,142.51,610.54Z"/><path class="cls-9" d="M219.34,594s5,15.06-2.51,22.08-52.24,6.25-67,6.25c0,0-6,16.5-6.7,19.18s-29.88,37.25-29.88,37.25l-8-5.13s31.45-61.11,33.9-63.79,37.47-13.38,46.17-15.84S219.34,594,219.34,594Z"/><path class="cls-2" d="M161.15,567,187.86,561s9.66-12.41,18.93-23.09c2.73,2.7,4.25,6.85,7,9.53L193.4,570a3.9,3.9,0,0,1-2.88,1.28l-28.3.1-9.69.77V566Z"/><path class="cls-9" d="M205.5,560.41s10.57-10.84,13.29-15.55.7-12.6-4-13.83-19.6,18.68-19.6,18.68Z"/><path class="cls-11" d="M106.29,536.55h44a2.86,2.86,0,0,1,2.66,1.78l13.56,33.08h24.28a1.23,1.23,0,0,1,1.23,1.22h0a1.23,1.23,0,0,1-1.23,1.23h-69.1a4.82,4.82,0,0,1-4.4-2.85L103.67,540.6A2.88,2.88,0,0,1,106.29,536.55Z"/><path class="cls-10" d="M130,555.81a2.43,2.43,0,1,0,1.82-3.16A2.6,2.6,0,0,0,130,555.81Z"/><path class="cls-16" d="M195.48,579.44H63.89a2.79,2.79,0,0,1-2.79-2.79h0a2.79,2.79,0,0,1,2.79-2.79H195.48a2.78,2.78,0,0,1,2.78,2.79h0A2.78,2.78,0,0,1,195.48,579.44Z"/><path class="cls-10" d="M195.28,514.71l6-.31a2.62,2.62,0,0,1-2.64,2.49C195.41,517.14,195.28,514.71,195.28,514.71Z"/><path class="cls-4" d="M176.61,623.9l2.7-11.22a18.18,18.18,0,0,1,16.89-13.87l34.13-1.38,1.06-3.48-35.33,1.43A21.65,21.65,0,0,0,176,611.88l-2.86,11.92C174.08,623.85,175.26,623.88,176.61,623.9Z"/><path class="cls-3" d="M222.39,617.93s-46.89.8-51.78,0-7,5.32-5.54,8.53,5.47,4.46,11.38,4.75,55.09,1.68,56.47.36c1.14-1.07,16.05-52,21.47-70.68a7,7,0,0,0-4.78-8.71h0a7,7,0,0,0-8.71,4.71Z"/><rect class="cls-3" x="193.17" y="578.1" width="2.32" height="115.47"/><rect class="cls-3" x="64.04" y="585.57" width="130.87" height="1.24"/><path class="cls-10" d="M306.35,465.34a2.61,2.61,0,0,0,3.54.76c2.87-1.43,1.73-3.58,1.73-3.58Z"/></g></g></svg>