<svg xmlns="http://www.w3.org/2000/svg" viewBox="0 0 1046.58 610.15"><defs><style>.cls-1{fill:#ffefdf;}.cls-2{fill:#ff9232;}.cls-3{fill:#fff;}.cls-4{fill:#ffa98c;}.cls-5{fill:#373737;}.cls-6{fill:#f18571;}.cls-7{fill:#ffd17b;}.cls-8,.cls-9{fill:none;stroke-linecap:round;stroke-linejoin:round;stroke-width:1.54px;}.cls-8{stroke:#1e1e1e;}.cls-9{stroke:#d76d5f;}.cls-10{fill:#ffbe6c;}.cls-11{fill:#fffbdc;}.cls-12{fill:#1e1e1e;}</style></defs><title>image-part-5</title><g id="Layer_2" data-name="Layer 2"><g id="Layer_1-2" data-name="Layer 1"><path class="cls-1" d="M63.37,221.32c47.5-59.18,107.51-88,236.17-94.1S459.07,219,667.68,198.83s318.06-14.17,357.49,42.33,57.26,242.36-252,216.82-407.92-73.11-548.87-47.34S25.89,427.85,12,386.54,40.92,249.28,63.37,221.32Z"/><path class="cls-1" d="M48.24,547.2s210.07-2.23,477.59,0,457.47,2.33,488.83,20.12,17.82,49.51-147.86,41.58-259.28-33.26-358.18-18.61-183.34-2.35-262.84-1.78S51.92,598.61,15,581,16.87,547.48,48.24,547.2Z"/><path class="cls-2" d="M488.1,49.37H411.75a13.14,13.14,0,0,0-13.14,13.15v52.85a13.14,13.14,0,0,0,13.14,13.15H421c-2.43,6.9-5.22,16.29-2.85,17.35,2.69,1.2,15-10.43,22-17.35h48a13.14,13.14,0,0,0,13.14-13.15V62.52A13.14,13.14,0,0,0,488.1,49.37Z"/><path class="cls-3" d="M432.43,73a6.1,6.1,0,0,1-1.88-9.25c2.91-3.5,8-7.07,16.67-6.72,11,.44,20.61,8,20.2,18.42-.29,7.21-5.84,11.41-13,14.15-2.55,1-2.7,3.06-2.8,5.49h0a4.12,4.12,0,0,1-4.28,4l-3.9-.15a4.13,4.13,0,0,1-4-4.29l.15-3.9c.13-3.24.39-5.88,3.78-7.88,4.61-2.69,8.81-2.75,9-8a5.87,5.87,0,0,0-5.72-6.27,8.11,8.11,0,0,0-6.69,3A6.16,6.16,0,0,1,432.43,73Zm20.86,38.88a8.43,8.43,0,1,1-8.13-8.8A8.42,8.42,0,0,1,453.29,111.84Z"/><polygon class="cls-4" points="399.98 533.65 405.82 556.7 413.61 558.44 427.24 556.7 422.24 533.65 399.98 533.65"/><path class="cls-5" d="M404.4,555.64s1.12,15.26,1.89,17.64,2.28,2.14,2.28,2.14a137.41,137.41,0,0,0,14.21,3.42c5.71.89,12.66,2.38,19.45,2.08s9.42-1.19,9.42-3.42-.77-6.54-9.11-11.6-13.12-8.33-13.12-8.33a9.32,9.32,0,0,0-4.48-3.72c-2.94-1-9.78,3.12-11.53,3.57S406.41,554,404.4,555.64Z"/><polygon class="cls-4" points="319.76 536.53 319.76 554.45 331.85 557.88 339.68 554.45 339.68 536.53 319.76 536.53"/><path class="cls-5" d="M317.77,554.45a106.9,106.9,0,0,1-14.38,11.07c-8.85,5.75-9.08,7.08-8.63,10.62s21.9,2.43,30.09,1.1,11.51-2,11.51-2l5.53-1.77-2.21-20.36a44.73,44.73,0,0,1-7.33,1.94c-2.24.17-7.3-3.82-10.62-4.65S317.72,553.35,317.77,554.45Z"/><path class="cls-4" d="M481.8,160.06c-1.7.3-4.17,3.51-5.49,5.39l-.79-.12c1.94-3,6.46-7.91,3.39-7.17-2.75.65-5.37,5-6.34,6.72l-1-.15c1.89-3.21,7.06-9,3.74-8.15-3.07.77-6,6.08-6.8,7.68l-.57-.09c1.8-3.14,4.31-7,1.82-6.09-2.78,1-5,6.1-5.68,7.72-1.48,1.53-3.19,3.4-4.29,4.63-1-3.82-3.44-8.51-4.64-8.21s.17,4.81.42,7.89a19.36,19.36,0,0,0,1.71,5.77c-3.86,7.72-15.64,26.22-21.8,39.83l-16.92-17.64-24.78,14.61s27.5,36.07,38.39,34.41c24.21-3.7,36.37-55.26,39-67.69h0l7.66-13h0S484.21,159.65,481.8,160.06Z"/><path class="cls-4" d="M360.52,167.76l-9.19,9-16.05-6a40.79,40.79,0,0,0,.13-7.62c-.11-1.5-.27-2.9-.44-4.11-.38-2.74-.83-4.55-.83-4.55l24.08-1.15a16.28,16.28,0,0,0-.15,3.15,27.12,27.12,0,0,0,.4,3.61A46.23,46.23,0,0,0,360.52,167.76Z"/><path class="cls-6" d="M358.47,160.08c-2.71,2.38-7.54,6.24-10.81,6.46s-9-2-12.25-3.41c-.11-1.5-.27-2.9-.44-4.11a20.77,20.77,0,0,0,12.35,2,29.16,29.16,0,0,0,10.75-4.54A27.12,27.12,0,0,0,358.47,160.08Z"/><path class="cls-4" d="M313.51,114.68s3.53,23.7,6.11,31.78,16.94,14.91,26.93,15c8.49.12,20.56-12.21,22.49-19.2s-.74-38.15-.74-38.15S331.17,73.9,313.51,114.68Z"/><path class="cls-5" d="M334.79,128.25c.2,1.59-.36,3-1.27,3.1s-1.8-1.08-2-2.68.36-3,1.26-3.1S334.58,126.65,334.79,128.25Z"/><path class="cls-5" d="M355.36,125.46c.15,1.61-.46,3-1.37,3.06s-1.77-1.15-1.92-2.75.47-3,1.38-3S355.21,123.86,355.36,125.46Z"/><path class="cls-4" d="M318,129s-5.78-5.52-9.06-3.41-1.58,10.24,2.89,14.45,7.88,2.1,7.88,2.1Z"/><path class="cls-4" d="M367.44,122.42s4.38-6.68,8.05-5.38,3.86,9.62.46,14.73-7.2,3.83-7.2,3.83Z"/><path class="cls-5" d="M315.59,127.49l2.23,8.26s5.3-1.93,3.29-19.86c0,0,10.79-1.64,14.08-6.76,0,0,9,2.18,14.27,1.27a22.68,22.68,0,0,0,9.69-4.75s.36,13.09,6,15c0,0,0,8.27,3,9.14,0,0,.62-11.49,5.3-12.81,0,0,3.41-10.83,2.31-14.3a7,7,0,0,0-4.57-4.39s-1.45-18.74-30.54-14.63c-28,4-31.94,18.84-32.8,21.4-1.21,3.64.61,7.25,1,11.76a28.71,28.71,0,0,0,2,8.24Z"/><polygon class="cls-7" points="428.64 538.08 396.99 538.08 359.15 343.57 355.17 343.81 347.33 538.08 314.78 538.08 313.87 432.7 313.62 404.15 312.68 295.99 395.33 295.99 410.05 402.93 414.01 431.74 428.64 538.08"/><path class="cls-4" d="M324.13,325.28c3.32.83,4.32-.74,3.57-1.66s-7.23-4.08-8.81-5.88l-5.26-6a47.36,47.36,0,0,0,6.43,0c3.23-.25,5.57-2.24.84-2.74-3.45-.37-8.47-1.08-10.94-1.44l-.85-1L293.56,273l15.35-45.59-24.55-12.21s-17.26,47.17-19,57.8,35.4,48.68,35.4,48.68l0,0a49.29,49.29,0,0,0,5.29,9.06c3.49,4.31,6.34,4.78,6.34,4.78h0a9.37,9.37,0,0,0,2.2.94c3.32.83,4.32-.75,3.57-1.66a31.26,31.26,0,0,0-4.37-2.77l.34-.84a19.85,19.85,0,0,0,5.85,3.36c3.32.83,4.32-.75,3.57-1.66s-5.73-3.34-8-5.17l.51-1.25c1.94,1.52,4.67,3.45,6.61,3.93,3.32.83,4.31-.74,3.57-1.66s-7.1-4-8.75-5.82l.48-1.19C319.84,323.13,322.33,324.83,324.13,325.28Z"/><path class="cls-5" d="M335.48,164.52l-38.4,17.84,12,77.78L312.68,296h82.65l1.66-38.5v-86.6L359.62,165s-3.46,7.53-10.76,8.5S335.48,164.52,335.48,164.52Z"/><path class="cls-5" d="M297.08,182.36s-14.94,24.26-18.92,35.31c0,0,15.47,9.28,30.75,9.72C308.91,227.39,310.25,194,297.08,182.36Z"/><path class="cls-5" d="M397,170.89s19,17.47,27.26,25.85a160.53,160.53,0,0,1-27.22,22S389.81,186.93,397,170.89Z"/><path class="cls-8" d="M326,120.57s6.2,0,8.83-2.7"/><path class="cls-8" d="M358.69,116.1s-4.59-1.17-7.29,0"/><path class="cls-9" d="M342.69,125.1s1.18,6.3.59,7.24a2.22,2.22,0,0,0-1.54,2.82,3,3,0,0,0,2.71,2.47"/><path class="cls-3" d="M340.92,144.11s6.95-2.24,10.48,0-8.24,3.76-10.48,3.76S338.81,145.28,340.92,144.11Z"/><path class="cls-9" d="M374.9,122.43a15.49,15.49,0,0,0-4.42,8.29"/><path class="cls-9" d="M374.19,129.75s-.51-3-1.8-4.13"/><path class="cls-9" d="M310.39,129.58s4.61,3,6,8"/><path class="cls-9" d="M312.33,136.55a10.52,10.52,0,0,1,1.06-4.25"/><path class="cls-8" d="M302.57,189.84S302,214.31,304,227"/><path class="cls-8" d="M394.08,183.35s4.1,23.88,2.72,34.51"/><path class="cls-8" d="M334.14,172.73a20.14,20.14,0,0,0,14.59,4.87c8.85-.66,11.79-4.87,11.79-4.87"/><path class="cls-9" d="M292.08,273.2s-4.65-.22-8.86,0"/><path class="cls-9" d="M435.49,215.71s-3.12,7.94-4,11.25"/><line class="cls-9" x1="459.8" y1="170.43" x2="462.24" y2="174.28"/><path class="cls-9" d="M465.79,164.52s8.13.28,10.84,2"/><line class="cls-9" x1="315.09" y1="300.97" x2="391.1" y2="300.97"/><path class="cls-9" d="M351.93,301s-5.64,30.5,4.32,35.66V308.27"/><path class="cls-9" d="M336,331.17s9.51,6,14.34,9.3"/><path class="cls-9" d="M362.89,340.47s11.61-11.62,13.94-15.27"/><path class="cls-9" d="M318.26,530a122,122,0,0,0,23.63,0"/><path class="cls-9" d="M423.3,530s-14.61,1-24.56,1.11"/><path class="cls-8" d="M296.17,573s4.81,1.5,17.76.83a139.84,139.84,0,0,0,25.75-4.14"/><path class="cls-8" d="M408.36,570.83s17.26,5,26.89,6,15.27-1.16,15.27-1.16"/><path class="cls-8" d="M309.59,561.2a13.27,13.27,0,0,1,7.74,3.21"/><path class="cls-8" d="M312,559.11a13.27,13.27,0,0,1,7.74,3.21"/><path class="cls-8" d="M314.46,557a13.27,13.27,0,0,1,7.74,3.21"/><path class="cls-8" d="M434.94,562.11a13.27,13.27,0,0,0-7.74,3.21"/><path class="cls-8" d="M432.51,560a13.27,13.27,0,0,0-7.74,3.21"/><path class="cls-8" d="M430.07,557.94a13.27,13.27,0,0,0-7.74,3.21"/><line class="cls-8" x1="368.86" y1="99.49" x2="363.05" y2="102.47"/><path class="cls-8" d="M360.56,103.8s-6,11-25.37,5.33c0,0-8.3,7.69-17.45,6.71"/><path class="cls-8" d="M365.18,120.7s-5.12-2.13-6-15"/><path class="cls-8" d="M311.33,103.8a13.81,13.81,0,0,0-.94,5.63"/><path class="cls-8" d="M315,109.87a22.94,22.94,0,0,0-.8,3.31"/><line class="cls-8" x1="367.44" y1="107.34" x2="368.74" y2="109.87"/><path class="cls-8" d="M364.1,91.52s2.33,1.77,2.55,3.21"/><path class="cls-8" d="M360,94.73a10.56,10.56,0,0,1,2.16,1.88"/><line class="cls-8" x1="336.55" y1="105.65" x2="339.15" y2="103.03"/><path class="cls-10" d="M333.23,418.36c0,8.8-6,15.94-13.49,15.94a11.69,11.69,0,0,1-5.87-1.6l-.25-28.55a11.84,11.84,0,0,1,6.12-1.72C327.19,402.43,333.23,409.56,333.23,418.36Z"/><path class="cls-10" d="M414,431.74a11.84,11.84,0,0,1-7.31,2.56c-7.45,0-13.49-7.14-13.49-15.94s6-15.93,13.49-15.93a11.66,11.66,0,0,1,3.35.5Z"/><path class="cls-2" d="M636.18,14.84a5.55,5.55,0,0,1-1.91-8.38c2.57-3.24,7.15-6.59,15-6.46,10,.17,18.91,6.88,18.75,16.33-.11,6.56-5.06,10.5-11.54,13.14-2.29,1-2.39,2.84-2.43,5.05h0a3.74,3.74,0,0,1-3.81,3.68l-3.55-.05A3.77,3.77,0,0,1,643,34.33l.06-3.55c0-2.94.22-5.35,3.27-7.24,4.13-2.55,7.95-2.69,8-7.44a5.33,5.33,0,0,0-5.33-5.58,7.36,7.36,0,0,0-6,2.83,5.61,5.61,0,0,1-6.85,1.49ZM656,49.76a7.67,7.67,0,1,1-7.57-7.84A7.65,7.65,0,0,1,656,49.76Z"/><path class="cls-2" d="M698,43.32a5.56,5.56,0,0,1,1.77-8.41c3.7-1.86,9.26-3,16.35.44,9,4.36,14.28,14.17,10.18,22.68-2.85,5.91-9,7.41-16,7.09-2.49-.08-3.37,1.58-4.33,3.57h0a3.75,3.75,0,0,1-5,1.75l-3.2-1.55a3.74,3.74,0,0,1-1.75-5l1.54-3.2c1.28-2.66,2.45-4.77,6-5.21,4.81-.58,8.34.9,10.4-3.38a5.34,5.34,0,0,0-2.5-7.31,7.38,7.38,0,0,0-6.65.05A5.59,5.59,0,0,1,698,43.32Zm3.32,40A7.67,7.67,0,1,1,697.7,73,7.65,7.65,0,0,1,701.29,83.31Z"/><path class="cls-2" d="M571.67,44.48A5.56,5.56,0,0,1,565.05,39c.06-4.14,1.66-9.59,8-14.28,8.07-6,19.19-6.06,24.81,1.52,3.92,5.28,2.38,11.42-1.14,17.45-1.23,2.17-.17,3.71,1.15,5.49h0a3.76,3.76,0,0,1-.78,5.25l-2.85,2.11a3.74,3.74,0,0,1-5.25-.78l-2.11-2.85c-1.76-2.36-3.09-4.38-1.83-7.74,1.73-4.53,4.67-7,1.84-10.78a5.33,5.33,0,0,0-7.63-1.18,7.41,7.41,0,0,0-3,5.91,5.61,5.61,0,0,1-4.52,5.36Zm37,15.63a7.67,7.67,0,1,1-10.78-1.59A7.65,7.65,0,0,1,608.63,60.11Z"/><polygon class="cls-4" points="580.25 529.33 578.71 552.11 556.72 570.32 560.94 576.54 602.25 569.21 605.58 530.84 580.25 529.33"/><path class="cls-5" d="M570.15,558.33a27.83,27.83,0,0,0,18.19,7.52c3.59.09,14.74-3.36,14.74-3.36s.72,8.11-1.05,13.5c-.88,2.67-40.2,8.33-46.2,8.1s-7.55-.88-8.89-2.77-2.44-5.11,3.11-8.66S570.15,558.33,570.15,558.33Z"/><polygon class="cls-4" points="684.75 527.82 686.3 550.61 708.29 568.82 704.07 575.04 662.75 567.71 659.42 529.33 684.75 527.82"/><path class="cls-5" d="M694.85,556.83a27.82,27.82,0,0,1-18.18,7.52c-3.59.09-14.75-3.36-14.75-3.36s-.72,8.11,1.06,13.5c.88,2.67,40.2,8.32,46.19,8.1s7.56-.89,8.89-2.77,2.44-5.11-3.11-8.67S694.85,556.83,694.85,556.83Z"/><polygon class="cls-5" points="587.14 282.65 573.6 530.84 609.8 530.84 631.7 322.45 636.56 323.39 655.55 530.84 690.14 529.3 678.31 282.65 587.14 282.65"/><path class="cls-7" d="M678.31,250.59V155.65s-21.53-6.29-51.29-6.79c0,0-27.77-1.46-34.77,0l-5.79,101.73L579.53,292s39.71,6.91,49,6.24l6.66-9.66,5.67,9.71s25.65-.53,43-6.29Z"/><path class="cls-4" d="M649.68,154.35a41.55,41.55,0,0,0,.17,5.17l-11,6.26L625,156.11a40.59,40.59,0,0,0,2-7.24c.09-.52.19-1,.27-1.5.15-.9.26-1.75.34-2.53.23-2.1.31-3.67.32-4.28,0-.18,0-.28,0-.28l1.62.35,21.65,4.54a15.63,15.63,0,0,0-.91,3,22.56,22.56,0,0,0-.52,3.54C649.73,152.6,649.68,153.5,649.68,154.35Z"/><path class="cls-7" d="M558.27,196.14s21.29-45.71,34-47.28c16.33-2,4.22,39.22,4.22,39.22L576.26,223.9Z"/><path class="cls-7" d="M710.74,200.81s-21.28-43.86-34-45.43c-16.32-2-4.22,39.22-4.22,39.22l20.21,32.87Z"/><path class="cls-4" d="M576.93,212.8c-2.34-4.26-35.26-30-43.24-36.15h0l-2.18-3s-3.45-4.78-7.44-6c-2-.59-10.22-3.22-12.66-3.33s0,3.09,1.88,3.82,5.45,1.9,5.45,1.9l-14.55,6.5s-8.3,3.19-9.05,5.36,2.66.83,5.74-.42c2.29-.93,4.75-2,5.87-2.55l.26.24c-1,.4-8.23,3.29-8.93,5.31s2.67.83,5.75-.42c2.21-.9,4.58-2,5.75-2.49l.47.44c-1.6.64-8,3.32-8.7,5.22-.75,2.16,2.67.83,5.75-.42,2.08-.85,4.3-1.83,5.53-2.39l.38.36c-2.33,1-7.26,3.21-7.83,4.86-.75,2.17,2.67.83,5.75-.42,1.67-.67,3.42-1.44,4.69-2h0s2.78-.87,6.07-2.23c1.35,2.07,30.25,46,43.91,46C579.59,230.94,579.59,217.65,576.93,212.8Z"/><path class="cls-4" d="M765.69,182.82c-.75-2.16-9.05-5.35-9.05-5.35L742.09,171s3.56-1.17,5.45-1.9,4.33-3.93,1.88-3.82-10.71,2.74-12.66,3.33c-4,1.22-7.44,6-7.44,6l-1.52,2.11c-6,7.12-33.5,40-34.91,44.74-1.59,5.3,1.21,18.3,14.89,15.35,11.47-2.47,27.09-38.93,31.85-50.67,3.07,1.25,5.58,2,5.58,2h0c1.27.57,3,1.34,4.69,2,3.08,1.25,6.5,2.59,5.75.42-.57-1.65-5.5-3.88-7.83-4.86l.38-.36c1.23.55,3.45,1.54,5.53,2.39,3.09,1.25,6.5,2.58,5.75.41-.66-1.89-7.1-4.58-8.69-5.21l.46-.44c1.17.53,3.54,1.59,5.75,2.49,3.09,1.25,6.5,2.58,5.75.42s-7.91-4.92-8.92-5.31l.25-.24c1.12.51,3.58,1.62,5.87,2.55C763,183.66,766.44,185,765.69,182.82Z"/><path class="cls-9" d="M592.92,156.65s5.31,17-.51,38.63"/><path class="cls-9" d="M678.31,163.31s-6,21.61-3,35.79"/><polyline class="cls-9" points="590.92 250.27 595.14 252.6 592.41 256.93"/><line class="cls-9" x1="676.39" y1="253.6" x2="672" y2="256.93"/><line class="cls-9" x1="638.85" y1="165.78" x2="635.23" y2="288.58"/><path class="cls-6" d="M651.23,145.17a15.63,15.63,0,0,0-.91,3,22.56,22.56,0,0,0-.52,3.54c-.07.94-.12,1.84-.12,2.69A19.64,19.64,0,0,1,638.13,153c-5.8-2.31-9-4.24-10.85-5.66.15-.9.26-1.75.34-2.53.23-2.1.31-3.67.32-4.28l1.64.07Z"/><path class="cls-4" d="M618.13,97.17s-2.51,23.5-2,31.85,12.47,18.45,22,21.06c8.08,2.22,22.66-6.56,26.23-12.75s8.76-36.61,8.76-36.61S645.11,62.61,618.13,97.17Z"/><path class="cls-4" d="M618.91,112s-4.15-6.71-7.81-5.51-4.05,9.39-.83,14.51,7,4,7,4Z"/><path class="cls-4" d="M667.7,117.94s5.84-5.3,9-3.14S678,124.94,673.51,129s-7.82,1.87-7.82,1.87Z"/><path class="cls-5" d="M635.07,69.19c-11.33,2.34-11.17,9-17.33,10.5S608.92,85,608.09,89s.49,4,1.65,4h1.84s.14,3.9-.17,8.67,2.09,5.49,2.09,5.49,5.24,3.5,5.41,8.5a4.36,4.36,0,0,0,3.16-3.33c.67-2.83,1-13.83,1-13.83s7.33-.33,12.16-3.5c0,0,1.83,1.67,6.17,1.67s17-4.17,20.48-2a14.71,14.71,0,0,0,5.17,6.83s-1.56,11.33-1.36,14.16a8,8,0,0,0,1.66,4.49s2.7-5.43,7.19-5.88c0,0,4-6.27,4.67-11.6a3.16,3.16,0,0,0,3-3.67c-.34-3.5-1.67-4.66-2.5-8.16S676,83.69,674,83.52c0,0,1.84-2.83-7.16-9S646.39,66.86,635.07,69.19Z"/><path class="cls-11" d="M627.62,144.83a24.68,24.68,0,0,0,2.5,10.48c2.34,4.45,8.73,10.47,8.73,10.47s-4.62-2-8.5-1.91a20,20,0,0,0-7.45,1.91l-2.66-17Z"/><path class="cls-11" d="M650.31,148.12s-2.62,12.91-11.46,17.66c0,0,5.6-.86,8.93,0a12.11,12.11,0,0,1,5.33,3s4.37-13.35,4.46-17.34Z"/><path class="cls-9" d="M611.36,110.45a16.26,16.26,0,0,1,4.66,8.66"/><path class="cls-9" d="M612.69,118.45s.19-3.11,1.82-3.67"/><path class="cls-9" d="M675,118.45s-5.1,2.77-6.77,7.77"/><path class="cls-9" d="M671.61,125.55a3.29,3.29,0,0,0,0-3.22"/><ellipse class="cls-5" cx="632.7" cy="113.84" rx="2.87" ry="1.63" transform="translate(439.59 727) rotate(-82.72)"/><path class="cls-8" d="M627.83,104.52s5.91,1.55,9.09-.38"/><ellipse class="cls-5" cx="653.35" cy="115.31" rx="2.87" ry="1.63" transform="translate(526.44 766.51) rotate(-88.98)"/><path class="cls-8" d="M659.52,106.8s-6.09.68-8.95-1.69"/><path class="cls-9" d="M642.64,113s-.45,6.31-1.25,7.06a2.19,2.19,0,0,0-2.17,2.31,3,3,0,0,0,2,3"/><path class="cls-9" d="M638.12,133.1s3.73-2.44,6.42-2a5.36,5.36,0,0,1,3.67,2"/><line class="cls-9" x1="518.74" y1="170.03" x2="523.79" y2="172.64"/><line class="cls-9" x1="506.08" y1="178.19" x2="513.52" y2="184.86"/><path class="cls-9" d="M521.69,185s6-2.22,6.6-2.34"/><line class="cls-9" x1="739.63" y1="186.11" x2="735.18" y2="184.63"/><line class="cls-9" x1="754.84" y1="178.89" x2="747.17" y2="186.11"/><path class="cls-9" d="M742.09,171a26.49,26.49,0,0,1-4.69,4"/><line class="cls-8" x1="574.54" y1="521.13" x2="610.82" y2="521.13"/><line class="cls-8" x1="654.52" y1="519.49" x2="690.14" y2="517.79"/><path class="cls-8" d="M601.36,307.35s-6.7,89.95-8.68,99.39,0,13,0,13-1.11,8.89-.88,10.67-4.21,79.51-4.21,79.51"/><path class="cls-8" d="M661.33,307.35s7.55,106.61,8.44,111.94a25.69,25.69,0,0,1,0,9.16,49.24,49.24,0,0,0,.39,7.28c.5,3.11,5.38,74.18,5.38,74.18"/><line class="cls-8" x1="631.7" y1="322.45" x2="621.57" y2="312.9"/><line class="cls-8" x1="636.56" y1="323.4" x2="644.67" y2="318.68"/><path class="cls-10" d="M601.8,189.41l20.88,2s-.22,23.34-12.44,23.34S601.8,189.41,601.8,189.41Z"/><line class="cls-8" x1="673.05" y1="84.85" x2="668.22" y2="87.63"/><path class="cls-8" d="M618.91,98.12s11.32,1.56,16.32-3.11c0,0,4.1,3.28,11.66.86s13.88-1.86,15-1.19c0,0,2.56,6.77,7.45,7.44s5.66-1,5.66-1"/><line class="cls-8" x1="679.1" y1="100.01" x2="677.77" y2="101.57"/><path class="cls-8" d="M614.51,94.79s.73-3,2.29-4.22"/><path class="cls-8" d="M670.64,81.47a6.9,6.9,0,0,0-3.42-3.11"/><path class="cls-8" d="M623.35,79.91s5.33-4.55,5.66-5.33"/><path class="cls-8" d="M635.9,91.68a10.12,10.12,0,0,1,4-3.22"/><path class="cls-2" d="M79.64,55.4a5.62,5.62,0,0,1-4.71-7.32c1.33-4,4.54-8.75,12.08-11.34,9.63-3.31,20.4,0,23.51,9.08,2.16,6.29-1.2,11.75-6.46,16.5-1.85,1.72-1.3,3.54-.57,5.66h0a3.8,3.8,0,0,1-2.36,4.83L97.73,74a3.8,3.8,0,0,1-4.83-2.36l-1.17-3.41c-1-2.82-1.64-5.18.61-8,3-3.85,6.65-5.3,5.08-9.86a5.41,5.41,0,0,0-7-3.48,7.5,7.5,0,0,0-4.76,4.78,5.66,5.66,0,0,1-6,3.78Zm30.91,26.45A7.77,7.77,0,1,1,100.63,77,7.74,7.74,0,0,1,110.55,81.85Z"/><path class="cls-6" d="M156.29,538.39c-.93-5.72-3.8-23-7.27-42.07-4.26-23.42-15.62-53.05-15.62-53.05L108.35,463l30.17,81.53c-.78,2.42-2.12,6-3.87,8.07-2.84,3.37-3.91,4.74-3.91,4.74s6.57,2,11.18,2,16.68-10.64,17.21-12.6C159.43,545.63,157.8,541.68,156.29,538.39Z"/><path class="cls-12" d="M133.2,554.26a58.81,58.81,0,0,1-7.07,6.29c-5.32,4.26-7.28,7.1-7.28,8.88s20.76,2.41,25.2,1.2,17.39-14.33,18.81-17.17-5.27-12.12-5.27-12.12a86.6,86.6,0,0,1-4.31,8C151.5,552,144.92,555,141,556.3,131.94,559.31,133.2,554.26,133.2,554.26Z"/><path class="cls-12" d="M92.91,296.59s-2.09,28.83-1.62,67.88,12.61,78.8,12.61,78.8L135,433.75l-2.33-137.16Z"/><path class="cls-6" d="M108.72,192.44s-14.41,27.2-18.48,37.66,7.27,23.77,7.27,23.77l8.42-8S110.58,201.51,108.72,192.44Z"/><path class="cls-7" d="M108.72,192.44s24.87-13.71,45.56-17.2,27.44,8.6,27.44,8.6L167.26,264l7.25,32.55H92.91l9.77-46.26S101.51,210.58,108.72,192.44Z"/><path class="cls-4" d="M105,120.6s0,27,1.21,34.56,9.87,14,18.53,16.73,23.71-7.76,26.39-13.77,4.58-35.67,4.58-35.67S116.34,101.2,105,120.6Z"/><path class="cls-4" d="M127.37,169.27s1.44,9.35-.4,17.53l24.13-8.37.57-22.07Z"/><path class="cls-4" d="M150.28,138.24s4.29-8.29,9.62-5.48,2.72,13.66-.75,17.35-8.62.28-8.62.28Z"/><path class="cls-6" d="M127.7,172.32s10.8-1.8,17.35-7.45c0,0-7.6,13.68-17.22,15.35Z"/><path class="cls-5" d="M121.68,115.49s3.16,6.82,11.75,13.45,15.19,7.22,15.19,7.22-2.71,8.15,1.85,10.94c0,0,1.8-15.74,8.05-14.83s3.66,19.33-5.82,19.14a23.78,23.78,0,0,0-1.24,13s19.19-14,21.76-33.22-10.78-25-10.78-25-4.74-9.4-20.67-12.32-24.15,6.18-24.15,6.18-8-2.58-14.92,5.43-3.3,16.14-3.3,16.14-5.16,5.69-3.2,12.42,9.09,8.28,9.09,8.28,1.31-18.89,4.31-24S121.68,115.49,121.68,115.49Z"/><path class="cls-9" d="M118.42,137.4s.5,5.46-1.67,8.83,2.47,4.93,2.47,4.93"/><path class="cls-8" d="M107.23,131s3.18-3.82,6.8-1"/><path class="cls-8" d="M126.22,131.08a22.54,22.54,0,0,0,8,2.26"/><path class="cls-9" d="M158.67,137.08s-4.54,2.09-5.28,8.65"/><path class="cls-4" d="M179.16,184.77s7.2.93,9.3,15.35-11.88,51.36-16.74,59.28c-8.14,13.25-80.43,2.32-80.43,2.32l3.95-16,58.11-7.21s7.44-32.31,11.86-44.17S179.16,184.77,179.16,184.77Z"/><path class="cls-9" d="M156.55,144.53s.47-1.64-1.45-3.39"/><path class="cls-5" d="M131,140.24c-.08,1.51-.83,2.7-1.69,2.65s-1.49-1.3-1.41-2.81.83-2.7,1.68-2.66S131.07,138.73,131,140.24Z"/><path class="cls-5" d="M113.49,139.36c-.08,1.51-.83,2.7-1.69,2.66s-1.49-1.31-1.42-2.82.84-2.7,1.69-2.65S113.56,137.85,113.49,139.36Z"/><path class="cls-9" d="M118.79,158s2.89-1.24,6.81,1.15"/><circle class="cls-5" cx="165.33" cy="105.82" r="11.94" transform="translate(14.1 230.97) rotate(-72.23)"/><path class="cls-4" d="M95.76,178s5.78-7.32,8.09-8,10.23,3.39,10.8,4.6-.82,3.42-.82,3.42-.34,4.19-1.74,4.88l-1.39.7s-2.21,6.28-6,7.32c0,0-.81,7.33-5.46,8.37l-9-7.55A48.13,48.13,0,0,1,95.76,178Z"/><path class="cls-4" d="M102.09,171.81s3.43-4.3,6-5.63,9.7.34,10.46,1.39-.76,1.74-3.49,1.51-3.66-.33-3.66-.33l-2,3.58Z"/><path class="cls-4" d="M90.24,191.75S73.31,238,73.62,250.1,81.68,264,86.33,263.73s11-7.13,13.63-15.49,0-51.15,0-51.15Z"/><path class="cls-9" d="M154.21,240.8a35.58,35.58,0,0,1,6.51,9.3"/><path class="cls-9" d="M95.16,199.3a4.41,4.41,0,0,0,4.92-.29"/><path class="cls-9" d="M104.65,190.93a1.89,1.89,0,0,1-.89-2.36l1.19-2.71"/><path class="cls-9" d="M106,181s4,.93,4.69,2.63"/><path class="cls-9" d="M108,176.17s3.64-.23,5.81,1.86"/><path class="cls-4" d="M131.92,472.21l-32.38,1.67L88.35,549.52c-3.46,1.6-7.26,6.05-15.31,9.18-6.34,2.46-4.78,3.52-6.11,6a6.56,6.56,0,0,0,0,5.35h42.44a2.75,2.75,0,0,0,2.71-2.72c0-4.3.08-12.71,0-17.53.85-3.41,4.25-16.82,9.14-33.21C126.91,497.58,131.92,472.21,131.92,472.21Z"/><path class="cls-5" d="M81.41,554.42s3,4.39,15.43,3.62,15.43-3.62,15.43-3.62,1.58,14.78.89,16.25-15.65.63-17.71.58-29.64,1.29-33.07,0-4.4-3.76-3.3-5.46S76.68,556.73,81.41,554.42Z"/><path class="cls-4" d="M117.7,187.91s-1.54,4.38,12.6,4.53,34-14.41,34-14.41l-12.09-.93L127,183.61Z"/><path class="cls-5" d="M165.52,145.73s1.08,16.65,9.92,21.61c0,0,8.52.46,10.85,8.83s-7,14.11-7,14.11-.77,10.07-13.17,11.31-18.29-15.19-18.29-24.18S158.7,148.76,165.52,145.73Z"/><path class="cls-5" d="M174.49,296.59s2.51,24-8.51,61.6-31.55,115.69-31.55,115.69H95.86L116.4,319.63l-2.51-23Z"/><line class="cls-8" x1="132.29" y1="307.85" x2="116.4" y2="319.63"/><path class="cls-8" d="M167.91,298.9s-1.32,32.4-8,58.29-30.54,109.87-30.54,109.87"/><path class="cls-8" d="M96.77,467.06s31.17.83,39.45,0"/><path class="cls-9" d="M116.17,191.75s.18,3.24,10.8,3.9,20.88-3.2,20.88-3.2"/><path class="cls-8" d="M120.37,110.53s5.46,20.69,28.25,25.63"/><line class="cls-8" x1="117.62" y1="100.11" x2="121.03" y2="102.45"/><path class="cls-8" d="M99.4,121.68a20.51,20.51,0,0,0,3.8,2.45"/><path class="cls-8" d="M156,100.11s10.26,6.51,14,14.22"/><path class="cls-8" d="M153.39,115.54a5.6,5.6,0,0,1,2.27,3.42"/><line class="cls-8" x1="150.28" y1="104.42" x2="152.85" y2="106.4"/><path class="cls-8" d="M164.28,149.57s1.24,10.05,4.1,14.88"/><line class="cls-8" x1="151.46" y1="164.45" x2="153.96" y2="162.24"/><line class="cls-8" x1="161.66" y1="154.64" x2="161.66" y2="157.69"/><path class="cls-8" d="M174.88,181a14.71,14.71,0,0,1,4.43,9.3"/><path class="cls-8" d="M169.7,191.75a7.34,7.34,0,0,1,0,3.3"/><path class="cls-8" d="M155.1,178a22.47,22.47,0,0,0,1.94,7.6"/><path class="cls-8" d="M165.74,171.58a14.47,14.47,0,0,1,2.64,3"/><path class="cls-8" d="M130.3,108.05s.8,4,2.79,5.29"/><path class="cls-8" d="M143.33,125.23a13.54,13.54,0,0,0,3.14,2.57"/><path class="cls-9" d="M95.86,293.29s35.2.22,44.12,0,29.17.37,29.17.37"/><path class="cls-2" d="M186,93.47a7.36,7.36,0,0,1-.12-11.38C190.08,78.61,197,75.57,207.1,78c13,3,22.54,14.22,19.69,26.39-2,8.47-9.51,12.17-18.63,13.77-3.24.61-3.89,3-4.56,5.85h0a5,5,0,0,1-6,3.71l-4.58-1.08a5,5,0,0,1-3.7-6l1.07-4.58c.89-3.8,1.79-6.87,6.27-8.46,6.06-2.13,11-1.24,12.48-7.37a7.07,7.07,0,0,0-5.34-8.72,9.73,9.73,0,0,0-8.58,2,7.43,7.43,0,0,1-9.29,0Zm15.8,50.75a10.16,10.16,0,1,1-7.6-12.27A10.12,10.12,0,0,1,201.76,144.22Z"/><path class="cls-5" d="M830.88,109.38s-5.6,26.54-2.33,41.46,14,13.06,15.62,12.59,3-4.83,3-4.83a7.45,7.45,0,0,0,6.76,3.66c4.67-.23,9.57-3.23,9.57-3.23s14.7,3.47,23.32,1.6,9.85-5.59,9.85-5.59,5.1,2.33,10.91-2.8-2.35-25.82-5.5-34S830.88,109.38,830.88,109.38Z"/><polygon class="cls-4" points="859.32 543.4 861.19 564.85 878.44 562.28 878.44 542.7 859.32 543.4"/><polygon class="cls-4" points="929.5 542.7 934.4 562.05 950.02 562.05 948.16 542.7 929.5 542.7"/><path class="cls-5" d="M878.44,559.72s13.76,17.48,20.29,21.45,3.49,7.69.93,8.62-10,.33-24,0c-1.25,0-10.73-.95-15.69-1.66a2.93,2.93,0,0,1-2.48-3.39L861,562.8l14.93-2.64Z"/><path class="cls-5" d="M933.23,557.44l-2.17,26.66a2,2,0,0,0,1.8,2.15c6,.58,23.79,2.26,26.08,2.26,2.76,0,16.83,0,19.89-1.75s2.15-4.89,0-7S964.76,571,964.76,571l-15.25-14.25Z"/><path class="cls-7" d="M908.16,178.94s-11.47-12.5-39-12.5c-21,0-39,14.86-39,14.86l15,70.3-7.25,32.55h81.6l-7.79-36.89S920.1,198.55,908.16,178.94Z"/><path class="cls-4" d="M897.06,102.25s4.87,26.52,5,34.22-7.17,15.57-15.2,19.79-24.72-3.35-28.44-8.78-11-34.26-11-34.26S882.35,85.23,897.06,102.25Z"/><path class="cls-4" d="M883.79,154.16s.27,9.47,3.55,17.18l-25.24-3.88-4.55-21.6Z"/><path class="cls-4" d="M855.65,127.79s-5.71-7.38-10.45-3.66-.21,13.93,3.87,16.93,8.53-1.27,8.53-1.27Z"/><path class="cls-6" d="M884,157.23s-10.95.18-18.41-4.2c0,0,9.94,12.08,19.7,12Z"/><path class="cls-5" d="M886.14,99.19s1.33,9.38-11.83,15.59C864.5,119.41,862,124.4,862,124.4s2.57,9.42-4.93,12.14c0,0-4.62-15.17-10.6-13.14s-.11,19.67,9.18,17.77a23.78,23.78,0,0,1,3.57,12.61S837.83,143.5,831.82,125s6.1-26.51,6.1-26.51,3-10.11,18.1-15.85,32.24-2.26,40.52,4.36,6.16,15.28,6.16,15.28,6.11,4.66,5.4,11.63-7.45,9.79-7.45,9.79-4.7-18.34-8.58-22.86S886.14,99.19,886.14,99.19Z"/><path class="cls-9" d="M886.84,121.21s.49,5.46,3.23,8.38-1.53,5.3-1.53,5.3"/><path class="cls-8" d="M896.69,112.89s-3.82-3.18-6.87.25"/><path class="cls-8" d="M878,116.4a22.42,22.42,0,0,1-7.44,3.66"/><path class="cls-9" d="M847.19,128.16s4.85,1.24,6.76,7.55"/><path class="cls-9" d="M850.62,135.11s-.75-1.53.82-3.6"/><path class="cls-5" d="M875,126.27c.35,1.47,1.3,2.5,2.14,2.31s1.23-1.55.88-3-1.3-2.5-2.14-2.3S874.63,124.8,875,126.27Z"/><path class="cls-5" d="M892,122.24c.35,1.47,1.31,2.51,2.14,2.31s1.23-1.55.89-3-1.31-2.51-2.14-2.31S891.7,120.77,892,122.24Z"/><path class="cls-9" d="M890.19,141.54s-3.06-.69-6.48,2.36"/><path class="cls-4" d="M961.12,170.16c-3.6-11.54-26.46-54.6-26.46-54.6a48.16,48.16,0,0,0-7.8-12.55s-6.37-5.68-9-6.42a19.58,19.58,0,0,0-5.23-3.12c-2.81-.86-9.5,2-10.06,3.19s1,1.58,3.69.88,3.55-1,3.55-1l2,2.52c-2.12,1.48-4,3.16-4.17,3.81-.36,1.29,1.4,3.22,1.4,3.22s1.07,4.07,2.56,4.51l1.49.45s3.26,5.8,7.22,6.16c0,0,1.8,6.15,5.91,7.16.89,7.62,4.37,36,7.68,46.1l-14.37,3c.84,5.74,7.55,27.75,7.55,27.75C933.72,200.26,966.2,186.43,961.12,170.16Z"/><path class="cls-5" d="M943.7,451.06s-4.29-118.39-24.16-166.91h-81.6s-8.37,22.82-6.55,70.39c1.46,38.22,11,80.49,14.67,95.62-.4,14.95-.32,56.71,10.93,94.22h23.78L879.37,456l6.85-110.5,20.8,99-.09,0s3.22,60.9,22.11,99.93h21Z"/><path class="cls-9" d="M931.12,123.86a4.42,4.42,0,0,1-4.89.56"/><path class="cls-8" d="M846.06,286.54s-9.82,39.64-6.56,78.34,11.43,76.48,11.43,76.48"/><path class="cls-9" d="M920.32,117.25a1.88,1.88,0,0,0,.47-2.48l-1.64-2.46"/><path class="cls-9" d="M917.27,107.68s-3.81,1.61-4.17,3.41"/><path class="cls-9" d="M914.45,103.3s-3.63.4-5.4,2.83"/><path class="cls-7" d="M893.56,170.39l27.91,1,7.2,29.87s-11.4,6.67-21.07,6.43C893.21,207.3,893.56,170.39,893.56,170.39Z"/><path class="cls-4" d="M863.7,294.58s2,.73,3.77,1.19,3.77.55,2.95-1.38-5.52-4.32-10.3-3.59a61.28,61.28,0,0,0-6.35,1.18l-8.53.93-25.5-35.86,8.9-23.35-22.88-16.34a257.4,257.4,0,0,0-13.24,37.85c-4.79,19.13,41.69,49,41.69,49a18.07,18.07,0,0,0,8.83,4.66,37.57,37.57,0,0,0,11.54.18.22.22,0,0,1,.08,0l.42-.07c.46-.06.71-.11.71-.11h0l5.56-.91s2,.73,3.77,1.19,3.77.55,3-1.38c-.72-1.68-4.37-3.7-8.45-3.72l2.9-.48s2,.74,3.77,1.2,3.77.55,2.94-1.38-5.36-4.23-10.05-3.61l4.16-.68s2,.73,3.77,1.19,3.77.56,2.94-1.38-5.52-4.32-10.3-3.58c-1.71.26-3,.49-4,.66v-.15Z"/><path class="cls-7" d="M830.15,181.3s-18.8,13.93-26.15,37.36l27.39,17.49s12-17.08,15.8-29.79S838.29,178.38,830.15,181.3Z"/><path class="cls-4" d="M845.66,172s10.07,6.36,26.79,5.9,21.11-7.5,21.11-7.5L886,167.6l-24.38-2.35Z"/><path class="cls-9" d="M839.45,223.25s5.37-11.56,6.21-24.15"/><path class="cls-9" d="M907.6,182.5s8.19,17.42,7.58,24.18"/><line class="cls-9" x1="905.25" y1="244.57" x2="886.84" y2="248.77"/><polyline class="cls-9" points="850.39 251.56 853.95 253.6 850.39 255.26"/><path class="cls-9" d="M847.9,177.91s19.14,6.54,32.52,3,16.27-8,16.27-8"/><path class="cls-9" d="M819.74,257.05a25.18,25.18,0,0,1-12.06,4.31"/><path class="cls-9" d="M933.91,170.51s4.22,2,13.66,4.46"/><path class="cls-8" d="M864,450.92a13.78,13.78,0,0,0,13.52,0"/><path class="cls-8" d="M940.7,448.58s-8.86,1.17-13.29-2.79"/><line class="cls-8" x1="907.02" y1="444.47" x2="914.81" y2="447.27"/><line class="cls-8" x1="846.06" y1="450.16" x2="850.93" y2="454.65"/><path class="cls-8" d="M886.22,345.46s1.78-17.89,6.91-24.41a25.45,25.45,0,0,1,12.12-8.4"/><path class="cls-8" d="M857.77,582.9s9.6,1.27,22.89,2.08,20.05,0,20.05,0"/><path class="cls-8" d="M931.84,582.3s22.73,2,31.36,1.82a80.46,80.46,0,0,0,15.38-1.82"/><path class="cls-8" d="M864,544.38s-16.56-58.26-13.06-82.5"/><path class="cls-8" d="M890.58,329.06s19.94,102,20.34,112.3"/><path class="cls-8" d="M914.81,452.68s2.34,64.63,19.24,91.7"/><path class="cls-8" d="M837.92,98.52a71.06,71.06,0,0,1,11.61,0"/><path class="cls-8" d="M885.2,95.7a13.7,13.7,0,0,1-2.56,13.68c-5.6,6.72-17.49,6.19-20.64,15,0,0,1.91,11.35-4.93,12.14"/><path class="cls-8" d="M859.09,121.89s.12-5.44,1.63-8.12"/><line class="cls-8" x1="899.08" y1="100.71" x2="902.7" y2="102.31"/><path class="cls-8" d="M833.67,129.56a44.94,44.94,0,0,0,0,9.39"/><path class="cls-8" d="M840.09,147.26a30.51,30.51,0,0,0,0,5.77"/><line class="cls-8" x1="851.44" y1="149.07" x2="851.44" y2="152.47"/><path class="cls-8" d="M886.84,85.79s5.47,1.75,7.92,4.54"/><line class="cls-8" x1="902.1" y1="145.48" x2="902.43" y2="149.07"/><path class="cls-8" d="M840.09,107.68a16.36,16.36,0,0,0-.82,7.14"/><path class="cls-8" d="M870.59,94.65a10.75,10.75,0,0,1-1.44,4.78"/><path class="cls-8" d="M848.48,90.92a23.21,23.21,0,0,1,9.12-5.13"/><path class="cls-2" d="M977.29,9.89h-61.9a13,13,0,0,0-13,13V70.39a13,13,0,0,0,13,13h20.39l-2.09,9a2.92,2.92,0,0,0,4.45,3.1l18.5-12.1h20.65a13,13,0,0,0,13-13V22.85A13,13,0,0,0,977.29,9.89Z"/><path class="cls-3" d="M932.53,32a5.63,5.63,0,0,1-2-8.48c2.58-3.31,7.2-6.73,15.18-6.65,10.18.09,19.22,6.84,19.12,16.41-.06,6.65-5.06,10.68-11.6,13.4-2.32,1-2.41,2.89-2.43,5.13h0A3.81,3.81,0,0,1,947,55.6l-3.59,0a3.8,3.8,0,0,1-3.77-3.83l0-3.6c0-3,.19-5.43,3.27-7.37,4.16-2.61,8-2.78,8.08-7.6a5.41,5.41,0,0,0-5.44-5.62,7.47,7.47,0,0,0-6.08,2.92A5.68,5.68,0,0,1,932.53,32Zm20.3,35.25a7.78,7.78,0,1,1-7.74-7.89A7.76,7.76,0,0,1,952.83,67.27Z"/></g></g></svg>