<svg xmlns="http://www.w3.org/2000/svg" width="134.955" height="140.8362" viewBox="0 0 134.955 140.8362"><title>man-avatar</title><g id="Layer_2" data-name="Layer 2"><g id="Layer_1-2" data-name="Layer 1"><path d="M109.9017,125.6176A64.73,64.73,0,0,1,75.93,140.2439a60.3388,60.3388,0,0,1-24.9449-1.6455c-2.1361-4.3816-1.5655-8.5254,1.0975-12.4853,2.0557-.18,2.7087-1.4319,2.7049-3.3406-.01-4.98.05-9.9607.0816-14.941l9.2994-.0533h6.6264l9.2688.0684c.0282,4.829.0683,9.658.0781,14.4871.0035,1.7182.02,3.5444,2.292,3.6165,2.456.0778,2.5429-1.82,2.5513-3.6508.0244-5.3752.0694-10.75.1063-16.1253,3.0715-.875,5.3176-3.2737,8.2236-4.4542,2.3752,1.9525,4.9059,3.7462,7.0944,5.8894C105.4755,112.5708,109.906,117.9479,109.9017,125.6176Z" fill="#fec739"/><path d="M2.389,90.262C-.8312,79.41-.623,68.5159,1.9787,57.59c3.3921-14.2458,10.91-25.9517,21.8721-35.5353a7.7553,7.7553,0,0,1,1.1516-.7038c3.453,2.8461,6.1179,6.1806,7.0859,10.7065.5557,2.5981-.1416,5.0765-.3519,7.6032-.574,6.8974.5972,13.6535,1.8271,20.3706,1.1439,6.2467-1.138,10.82-6.0234,14.4588-3.4041,2.5353-7.3086,4.1179-11.0855,5.9365C11.2242,82.945,6.9031,86.735,2.389,90.262Z" fill="#f1923d"/><path d="M109.963,21.347A62.4473,62.4473,0,0,1,129.03,45.9621a66.0591,66.0591,0,0,1,4.4092,41.4534c-.2044.9674-.5768,1.8992-.8714,2.8475a4.3122,4.3122,0,0,1-.9457-.5212,56.8019,56.8019,0,0,0-17.0613-11.1983,33.3883,33.3883,0,0,1-8.2559-4.8423c-5.5466-4.5257-5.9928-10.4753-4.4921-16.9237a53.3962,53.3962,0,0,0,.9367-20.3584,12.98,12.98,0,0,1,.2139-4.625C103.8985,27.339,106.6124,24.1463,109.963,21.347Z" fill="#f1923d"/><path d="M2.389,90.262c4.5141-3.527,8.8352-7.317,14.0656-9.8356C20.2315,78.6078,24.136,77.0252,27.54,74.49c4.8854-3.6386,7.1673-8.2121,6.0234-14.4588-1.23-6.7171-2.4011-13.4732-1.8271-20.3706.21-2.5267.9076-5.0051.3519-7.6032-.968-4.5259-3.6329-7.86-7.0859-10.7065A58.6222,58.6222,0,0,1,47.8585,9.2c-8.478,9.6263-9.1037,20.8789-6.7936,32.74-2.27,1.4779-2.5964,3.4877-1.712,5.91.7421,2.0321,1.4289,4.0886,2.0328,6.1655a3.89,3.89,0,0,0,4.1179,3.19q.264,1.0239.5281,2.0486c-.1532,4.4311,1.7728,8.2778,3.4244,12.2015-2.7306,1.2187-5.538,2.23-8.1747,3.702A12.4929,12.4929,0,0,0,34.577,85.4115a51.2787,51.2787,0,0,0,.074,5.9878c-3.5029,1.2629-6.9583,2.6836-10.519,3.7538-6.35,1.9087-12.0282,4.6815-15.5419,10.6692A50.5228,50.5228,0,0,1,2.389,90.262Z" fill="#d67d3a"/><path d="M109.963,21.347c-3.3506,2.7993-6.0645,5.992-7,10.4471a12.98,12.98,0,0,0-.2139,4.625,53.3962,53.3962,0,0,1-.9367,20.3584c-1.5007,6.4484-1.0545,12.398,4.4921,16.9237a33.3883,33.3883,0,0,0,8.2559,4.8423A56.8019,56.8019,0,0,1,131.622,89.7418a4.3122,4.3122,0,0,0,.9457.5212,50.25,50.25,0,0,1-6.2031,15.57c-3.1317-5.1807-7.7951-8.2141-13.4982-9.9975-4.34-1.357-8.5682-3.0685-12.8461-4.6222,1.6353-7.7154-.8206-13.177-7.7289-16.82-2.1671-1.143-4.5021-1.9677-6.76-2.938,1.596-3.93,3.5886-7.75,3.3876-12.1793l.5344-2.0794c2.2422.0652,3.5018-1.0929,4.1228-3.1793.5918-1.9884,1.2205-3.9721,1.9639-5.9076a5.1233,5.1233,0,0,0-1.2968-6.1768c.1678-1.1685.3182-2.34.5061-3.5051,1.1721-7.2687,1.43-14.49-1.41-21.4777-.9151-2.2518-2.0951-4.3959-3.1539-6.5892C97.69,12.3817,104.0566,16.45,109.963,21.347Z" fill="#d67d3a"/><path d="M52.0824,126.1132c-2.6631,3.96-3.2337,8.1036-1.0976,12.4852a60.7937,60.7937,0,0,1-25.9227-12.9826,21.311,21.311,0,0,1,4.1229-11.8575c3.4144-4.8349,8.0164-8.3,12.4564-11.9947q.2637.0037.5275.0052c2.4911,1.59,4.8412,3.4248,7.6739,4.4221.0318,5.4432.0919,10.8864.0786,16.3295C49.9173,124.2117,50.2251,125.5975,52.0824,126.1132Z" fill="#feb333"/><path d="M41.0649,41.9406C38.7548,30.079,39.3805,18.8264,47.8585,9.2A33.3326,33.3326,0,0,1,57.791,4.2928c1.15-.3371,2.57-.7062,1.6628-2.6282C58.79.2583,60.1283.1911,60.9488.1588a30.6562,30.6562,0,0,1,7.5876.1576c.7623,1.22,1.5613,2.4178,2.2794,3.6627,1.7685,3.0655,1.6233,4.7743-.9929,7.1635a8.9108,8.9108,0,0,0-2.8783,8.0817c-4.35.5462-8.7464.8752-12.78,2.85-3.8533,1.8866-6.95,4.7051-6.8877,9.1314.0582,4.141-1.374,7.6284-2.8776,11.2257Z" fill="#763717"/><path d="M100.02,91.2136c4.2779,1.5537,8.5066,3.2652,12.8461,4.6222,5.7031,1.7834,10.3665,4.8168,13.4982,9.9975a60.2477,60.2477,0,0,1-16.463,19.7837c.0044-7.6691-4.4261-13.0462-9.4925-18.0076-2.1885-2.1432-4.7192-3.9369-7.0944-5.889C96.2271,98.6506,99.152,95.5883,100.02,91.2136Z" fill="#fedc40"/><path d="M41.6414,101.7636c-4.44,3.695-9.042,7.16-12.4564,11.9947a21.311,21.311,0,0,0-4.1229,11.8575A60.343,60.343,0,0,1,8.59,105.8216c3.5141-5.987,9.1922-8.76,15.5423-10.6685,3.5607-1.07,7.0161-2.4909,10.5186-3.7541C36.043,95.486,38.6694,98.7413,41.6414,101.7636Z" fill="#fec739"/><path d="M66.9446,19.2243a8.9108,8.9108,0,0,1,2.8783-8.0817c2.6162-2.3892,2.7614-4.098.9929-7.1635-.7181-1.2449-1.5171-2.4432-2.2794-3.6627,8.2711.4108,15.3491,3.4208,20.9619,9.6223l.6448.4674.0435-.0447c1.0582,2.1929,2.2382,4.337,3.1533,6.5888,2.84,6.9878,2.5821,14.209,1.41,21.4777-.1879,1.1653-.3383,2.3366-.5042,3.5041a9.5575,9.5575,0,0,0-3.6867.4979c-.9254-3.1707-3.12-5.88-2.7649-9.5393.5232-5.3873-2.2691-9.043-7.0454-11.1787a30.4348,30.4348,0,0,0-13.8861-2.225Q66.9008,19.3548,66.9446,19.2243Z" fill="#945331"/><path d="M90.1431,10.4061l-.6448-.4674C89.8155,9.9536,90.1455,9.9506,90.1431,10.4061Z" fill="#fe4255"/><path d="M100.02,91.2136c-.8683,4.3747-3.7932,7.437-6.7056,10.5068-2.906,1.18-5.1521,3.5788-8.2236,4.4537-.024-.4562-.0409-.9128-.0731-1.3684-.114-1.6118-.9034-2.6055-2.5946-2.5167-1.7251.0906-2.2885,1.247-2.2891,2.8179,0,.9133-.0458,1.8265-.0709,2.74q-4.6344-.0342-9.2689-.0681A28.8932,28.8932,0,0,0,80.8234,92.9291c1.5482-5.4988.7952-11.0225.85-16.5467q1.9295-2.4636,3.858-4.9271c2.2581.97,4.5931,1.7951,6.76,2.9381C99.2,78.0366,101.6556,83.4982,100.02,91.2136Z" fill="#fde57e"/><path d="M81.6727,76.3825c-.0541,5.5241.6989,11.0478-.8493,16.5466a28.8932,28.8932,0,0,1-10.0289,14.8495q-3.313,0-6.6262,0c-1.8081-2.0218-4.4691-3.25-5.5431-5.9557,2.2749-.8,3.6291-2.5852,4.776-4.55C65.861,93.06,66.8324,88.391,67.48,83.63l2.74-.5757C74.781,82.1069,78.2605,79.3024,81.6727,76.3825Z" fill="#feaa7a"/><path d="M58.6247,101.8234c1.0745,2.7051,3.7355,3.9334,5.5436,5.9552q-4.65.0261-9.3.0529c-.0274-1.096.01-2.1985-.0986-3.2863a2.4188,2.4188,0,0,0-4.7982-.2654,13.4186,13.4186,0,0,0-.1292,1.9111c-2.8327-.9973-5.1828-2.8321-7.6737-4.4221a5.9879,5.9879,0,0,1,.6258-2.89c2.0078-4.2561,5.67-5.6293,11.5665-4.292C55.8817,96.94,56.359,99.9087,58.6247,101.8234Z" fill="#fde57e"/><path d="M49.8428,106.1909a13.4186,13.4186,0,0,1,.1292-1.9111,2.4188,2.4188,0,0,1,4.7982.2654c.1088,1.0878.0712,2.19.0985,3.2863-.0318,4.98-.0913,9.9607-.0815,14.941.0038,1.9087-.6492,3.16-2.7049,3.3406-1.8572-.5156-2.165-1.9014-2.1609-3.5927C49.9347,117.0773,49.8746,111.6341,49.8428,106.1909Z" fill="#dfebf4"/><path d="M80.0634,107.8467c.0251-.9133.0706-1.8265.0709-2.74.0006-1.5709.564-2.7273,2.2891-2.8179,1.6912-.0888,2.4806.9049,2.5946,2.5167.0322.4556.0491.9122.0731,1.3684-.0369,5.3752-.0819,10.75-.1063,16.1254-.0084,1.831-.0953,3.7286-2.5513,3.6508-2.2724-.0721-2.2885-1.8983-2.292-3.6165C80.1317,117.5047,80.0916,112.6757,80.0634,107.8467Z" fill="#dfebf4"/><path d="M44.3993,42.4315c1.5036-3.5973,2.9358-7.0847,2.8776-11.2257-.0621-4.4263,3.0344-7.2448,6.8877-9.1314,4.0336-1.9749,8.43-2.3039,12.78-2.85q-.0438.13-.0819.2626c-2.1651,1.5811-4.6565,3.3582-4.8253,6.0223-.3538,5.5856-2.1881,10.7766-3.3478,16.1436a12.5139,12.5139,0,0,0-.0242,1.9169c-.2274,4.2187,1.3762,8.2725,1.1169,12.4928l-.4907.45a8.7646,8.7646,0,0,0-6.121,6.3442c-.6369,2.0885-1.4593,1.9382-2.9195.9354a19.48,19.48,0,0,1-4.22-4.54q-.264-1.0239-.5281-2.0477C45.7472,52.235,44.0331,47.411,44.3993,42.4315Z" fill="#fda97a"/><path d="M54.3622,94.5864c-5.8971-1.3371-9.5595.0361-11.5673,4.2922a5.9879,5.9879,0,0,0-.6258,2.89q-.2642-.0014-.5277-.0052c-2.972-3.0223-5.5984-6.2776-6.9908-10.3646a51.36,51.36,0,0,1-.0736-5.9875,12.4929,12.4929,0,0,1,6.7044-10.2544c2.6367-1.4715,5.4441-2.4833,8.1741-3.7019q1.9257,2.4876,3.8523,4.9751C52.9675,82.5225,52.8871,88.6,54.3622,94.5864Z" fill="#fedc40"/><path d="M53.3078,76.43q-1.9263-2.4876-3.8523-4.9751c-1.651-3.9238-3.577-7.7705-3.4238-12.2016a19.4894,19.4894,0,0,0,4.2194,4.5388c1.46,1.0028,2.2826,1.1531,2.9195-.9354a8.7617,8.7617,0,0,1,6.1208-6.3432c-.0835,2.5312-.4973,5.1331,1.5607,7.1991-1.7007,1.2569-4.5047,2.0662-4.2529,4.4371.2716,2.558,2.7841,3.802,5.2011,4.6475,1.0536.3686,1.9585-.0713,2.9269-.2082-.4728,4.6973,1.2819,8.2256,5.4924,10.4651l-2.74.5756C61.7649,83.1811,57.4572,79.9614,53.3078,76.43Z" fill="#783818"/><path d="M44.3993,42.4315c-.3662,4.98,1.3479,9.8035,1.1042,14.7736a3.89,3.89,0,0,1-4.1178-3.19c-.6039-2.0769-1.2907-4.1334-2.0328-6.1655-.8844-2.4218-.558-4.4316,1.712-5.91Q42.7322,42.1862,44.3993,42.4315Z" fill="#fa945f"/><path d="M59.7823,56.0625c.2593-4.22-1.3443-8.2741-1.1169-12.4928a12.5139,12.5139,0,0,1,.0242-1.9169c1.16-5.367,2.994-10.558,3.3478-16.1436.1688-2.6641,2.66-4.4412,4.8253-6.0223a30.4346,30.4346,0,0,1,13.886,2.225c4.7763,2.1357,7.5686,5.7914,7.0454,11.1787-.3553,3.6592,1.84,6.3686,2.765,9.5392.43,4.9819-1.4754,9.7893-1.1052,14.7669q-.2673,1.04-.5345,2.08a23.1549,23.1549,0,0,1-3.6308,4.0761c-1.4275,1.1123-2.4033,1.47-3.0163-.8073a8.36,8.36,0,0,0-3.7172-4.9576c-4.3905-2.7068-9.2894-3.0569-14.2687-2.5964A31.554,31.554,0,0,0,59.7823,56.0625Z" fill="#fec6aa"/><path d="M59.7823,56.0625a31.554,31.554,0,0,1,4.5041-1.0708c4.9793-.4605,9.8782-.11,14.2687,2.5964a8.36,8.36,0,0,1,3.7172,4.9576c.613,2.2773,1.5888,1.92,3.0163.8073a23.1549,23.1549,0,0,0,3.6308-4.0761c.2011,4.4289-1.7915,8.2485-3.3875,12.1785q-1.93,2.4633-3.8587,4.927c-3.4127,2.92-6.8922,5.7245-11.4535,6.672-4.2106-2.24-5.9653-5.7678-5.4925-10.4651a2.0452,2.0452,0,0,0,.0388-.46A1.6489,1.6489,0,0,0,66.2432,71.05c1.0347-2.997,1.8461-2.948,3.0263-.0093.624,1.5536,2.25,2.0813,3.9339,1.865,2.32-.2979,5.225-2.7574,5.6089-4.7436.3356-1.7364-1.2308-2.2785-2.1819-3.13a8.2987,8.2987,0,0,0-4.1585-1.9993,5.9835,5.9835,0,0,1-4.7978-3.8667c-.91,3.6031-4.1034,3.3079-6.2973,4.5791q-.2631-.0037-.5247-.0327c-2.058-2.0659-1.6442-4.6678-1.5607-7.199Q59.537,56.2872,59.7823,56.0625Z" fill="#955432"/><path d="M89.4539,57.1967c-.37-4.9776,1.5348-9.785,1.1052-14.7669a9.5586,9.5586,0,0,1,3.6866-.4978A5.127,5.127,0,0,1,95.5406,48.11c-.7434,1.9355-1.3721,3.9192-1.9639,5.9076C92.9557,56.1038,91.6961,57.2619,89.4539,57.1967Z" fill="#fda97a"/><path d="M53.3078,76.43c4.1494,3.5311,8.4571,6.7508,14.1723,7.2-.6477,4.761-1.6191,9.43-4.0789,13.6434-1.1469,1.9643-2.5011,3.75-4.776,4.55-2.2662-1.9142-2.7435-4.8826-4.2638-7.2363C52.8871,88.6,52.9675,82.5225,53.3078,76.43Z" fill="#fa945f"/><path d="M64.766,72.1294a2.0452,2.0452,0,0,1-.0388.46c-.9684.1369-1.8733.5768-2.9269.2082-2.417-.8455-4.9295-2.09-5.2011-4.6475-.2518-2.3709,2.5522-3.18,4.2529-4.4371q.2616.0288.5249.0328C61.8874,66.7907,63.9611,69.2036,64.766,72.1294Z" fill="#fda97a"/><path d="M64.766,72.1294c-.8049-2.9258-2.8786-5.3387-3.389-8.3837,2.1937-1.2714,5.3875-.9762,6.2971-4.5793a5.9835,5.9835,0,0,0,4.7978,3.8667A8.2987,8.2987,0,0,1,76.63,65.0324c.9511.8515,2.5175,1.3936,2.1819,3.13-.3839,1.9862-3.2893,4.4457-5.6089,4.7436-1.6837.2163-3.31-.3114-3.9339-1.865-1.18-2.9387-1.9916-2.9877-3.0263.0093A1.6489,1.6489,0,0,1,64.766,72.1294Z" fill="#fec6aa"/></g></g></svg>