<svg xmlns="http://www.w3.org/2000/svg" xmlns:xlink="http://www.w3.org/1999/xlink" viewBox="0 0 84.01 95.56"><defs><style>.cls-1{fill:url(#linear-gradient);}.cls-2{fill:url(#linear-gradient-2);}</style><linearGradient id="linear-gradient" y1="47.78" x2="84.01" y2="47.78" gradientUnits="userSpaceOnUse"><stop offset="0" stop-color="#f2a710"/><stop offset="0.53" stop-color="#f2a612"/><stop offset="0.72" stop-color="#f2a319"/><stop offset="0.85" stop-color="#f29d24"/><stop offset="0.96" stop-color="#f19635"/><stop offset="1" stop-color="#f1923d"/></linearGradient><linearGradient id="linear-gradient-2" x1="22.4" y1="29.57" x2="61.6" y2="29.57" xlink:href="#linear-gradient"/></defs><title>personal-files</title><g id="Layer_2" data-name="Layer 2"><g id="Layer_1-2" data-name="Layer 1"><path class="cls-1" d="M53,58.8H50.58q-14.19,0-28.37,0c-4,0-5.41-1.42-5.41-5.38q0-24.08,0-48.14C16.8,1.44,18.27,0,22.12,0H62.06c3.6,0,5.12,1.49,5.14,5.08q0,6,0,11.94c0,1.09.22,2.53-1.45,2.47S64.4,18,64.4,16.92c0-3.86,0-7.71,0-11.57,0-2.23-.27-2.53-2.42-2.53H22c-2.16,0-2.43.29-2.43,2.52V53.48c0,2.25.24,2.5,2.44,2.51H62c2.16,0,2.41-.26,2.41-2.53V25.09c0-2.51.18-2.69,2.63-2.69,2.24,0,4.48-.11,6.71.06.64.05,1.23.87,1.84,1.34-.61.47-1.2,1.28-1.85,1.34-2.08.17-4.19.06-6.4.06v5.59h6c1,0,2.18,0,2.18,1.4s-1.1,1.42-2.16,1.42c-2,0-4,0-6.05,0v5.59c2,0,4.06,0,6.08,0,1.07,0,2.15.09,2.13,1.45s-1,1.36-2,1.36H67.37v5.59c1.54,0,3.13,0,4.72,0a4.69,4.69,0,0,1,1.84.06A7.29,7.29,0,0,1,75.57,49c-.56.45-1.1,1.26-1.69,1.3-2.15.16-4.32.06-6.63.06V56c1.94,0,4,0,6.13,0,1.06,0,2.16.07,2.15,1.43s-1.17,1.38-2.19,1.39H56.19v5.47c.57,0,1.22.1,1.87.11,4.73,0,9.46,0,14.18,0h1.31c1,0,2,.15,2,1.41s-1,1.4-2,1.4H56.12v8.64c.67,0,1.27.12,1.87.12H78.52c2.44,0,2.67-.23,2.67-2.66V14.14c0-2.4-.19-2.59-2.52-2.6s-4.49.1-6.72-.06c-.67-.05-1.73-.73-1.84-1.28-.24-1.18.8-1.51,1.82-1.51,2.55,0,5.11-.07,7.65,0,2.76.09,4.35,1.72,4.4,4.52C84,17,84,20.81,84,24.6V73.12c0,4.33-1.34,5.64-5.7,5.64H56.16V87c.62,0,1.27.1,1.92.1,4.17,0,8.34,0,12.5,0,1.6,0,2.3-.63,2.22-2.22a6.58,6.58,0,0,1,.12-2.22,1.32,1.32,0,0,1,2.45-.35c1.08,1.74.06,5.91-1.75,6.87a6.79,6.79,0,0,1-3,.69C65.82,90,61,90,56.18,90c-.07.52-.14.94-.19,1.36-.29,2.82-1.8,4.22-4.66,4.23-6.72,0-13.44,0-20.16,0H5.05c-3.48,0-5-1.52-5-5Q0,56.33,0,22.08c0-3.46,1.55-4.93,5.06-4.95,2.24,0,4.49-.1,6.72.07.64.05,1.22.86,1.83,1.33-.61.45-1.2,1.24-1.85,1.29-2.23.16-4.48.1-6.71.06-1.54,0-2.27.53-2.27,2.18q0,34.25,0,68.49c0,1.62.65,2.21,2.22,2.21q23,0,46.09,0c1.33,0,2.11-.43,2.11-1.93q0-15.67,0-31.35A4.23,4.23,0,0,0,53,58.8Z"/><path class="cls-2" d="M42.07,53.2H24.92c-2.22,0-2.5-.29-2.52-2.44,0-1.62,0-3.24.08-4.85a8.59,8.59,0,0,1,5.63-8c1.7-.74,3.51-1.27,5.18-2.08,2.28-1.1,2.39-2.21.63-3.93a11,11,0,0,1-3.56-7.75c-.07-2.42-.11-4.85,0-7.27a11.65,11.65,0,0,1,23.26,0c.12,2.23.06,4.47,0,6.71a10.88,10.88,0,0,1-4.06,8.65c-1.38,1.13-1,2.05.07,2.85a10.88,10.88,0,0,0,3,1.51c7.73,2.86,9,4.62,9,12.9,0,.31,0,.62,0,.93,0,2.57-.21,2.77-2.75,2.78Zm16.71-2.9c0-1.42,0-2.71,0-4a6.1,6.1,0,0,0-4.05-5.91c-1-.39-2-.77-3-1.11-2.53-.86-4.8-2.05-5.69-4.44H37.93c-.93,2.41-3.19,3.61-5.74,4.47-1.11.37-2.21.81-3.29,1.28a5.5,5.5,0,0,0-3.54,4.66,47,47,0,0,0,0,5ZM51,20.46h-.11c0-1.06.05-2.12,0-3.17A8.9,8.9,0,0,0,33.13,17a56.56,56.56,0,0,0,0,6.89,8.84,8.84,0,0,0,8.48,8.35,8.75,8.75,0,0,0,9.09-7.19A37.51,37.51,0,0,0,51,20.46Z"/></g></g></svg>