<svg xmlns="http://www.w3.org/2000/svg" xmlns:xlink="http://www.w3.org/1999/xlink" viewBox="0 0 84.01 78.51"><defs><style>.cls-1{fill:url(#linear-gradient);}.cls-2{fill:url(#linear-gradient-2);}.cls-3{fill:url(#linear-gradient-3);}.cls-4{fill:url(#linear-gradient-4);}.cls-5{fill:url(#linear-gradient-5);}.cls-6{fill:url(#linear-gradient-6);}</style><linearGradient id="linear-gradient" y1="58.66" x2="84.01" y2="58.66" gradientUnits="userSpaceOnUse"><stop offset="0" stop-color="#f2a710"/><stop offset="0.53" stop-color="#f2a612"/><stop offset="0.72" stop-color="#f2a319"/><stop offset="0.85" stop-color="#f29d24"/><stop offset="0.96" stop-color="#f19635"/><stop offset="1" stop-color="#f1923d"/></linearGradient><linearGradient id="linear-gradient-2" x1="18.64" y1="24.01" x2="65.35" y2="24.01" xlink:href="#linear-gradient"/><linearGradient id="linear-gradient-3" x1="3.58" y1="67.31" x2="12.22" y2="67.31" xlink:href="#linear-gradient"/><linearGradient id="linear-gradient-4" x1="23.62" y1="13.02" x2="60.46" y2="13.02" xlink:href="#linear-gradient"/><linearGradient id="linear-gradient-5" x1="26.46" y1="33.65" x2="57.71" y2="33.65" xlink:href="#linear-gradient"/><linearGradient id="linear-gradient-6" x1="35.04" y1="22.25" x2="50.7" y2="22.25" xlink:href="#linear-gradient"/></defs><title>quality-and-dtp</title><g id="Layer_2" data-name="Layer 2"><g id="Layer_1-2" data-name="Layer 1"><path class="cls-1" d="M56.62,60a6.45,6.45,0,0,0,5.27-.95C66.52,55.8,71.28,52.7,76,49.58a5.08,5.08,0,0,1,7.26,6.77A7.05,7.05,0,0,1,81.9,58c-5.1,4.62-10.25,9.19-15.34,13.84-2.47,2.26-5.46,3-8.65,3.48-7.52,1-15,2.22-22.55,3.17a11.05,11.05,0,0,1-4.8-.54c-4.23-1.43-8.39-3.11-12.57-4.69l-1.51-.52c-.83,3.31-1.26,3.64-4.62,3.64-2.84,0-5.68,0-8.53,0C1.1,76.3,0,75.23,0,73Q0,57.57,0,42.16c0-2.26,1.06-3.32,3.31-3.34q4.76,0,9.51,0c2.36,0,3.35,1,3.42,3.4s.11,2.39,2.62,3a20.6,20.6,0,0,1,5.95,2.18,28.8,28.8,0,0,0,15.06,4.28c3.16.1,6.32.46,9.47.81,4.19.48,6.46,2.74,7.11,6.88A6,6,0,0,0,56.62,60ZM16.26,47c0,1.27,0,2,0,2.65,0,.94-.11,1.89-1.33,1.84s-1.16-.95-1.15-1.82c0-2.3-.06-4.6,0-6.89,0-1.27-.43-1.59-1.61-1.56-2.73.07-5.47.07-8.2,0-1.13,0-1.55.32-1.54,1.49q0,14.84,0,29.69c0,1.28.49,1.57,1.66,1.54,2.68-.06,5.36-.08,8,0,1.29,0,1.68-.37,1.66-1.67-.07-5.2,0-10.39,0-15.59,0-.91,0-1.93,1.16-2,1.33-.06,1.31,1,1.31,2,0,3.93,0,7.87,0,11.81a1.69,1.69,0,0,0,1.27,1.92c4.72,1.72,9.4,3.56,14.12,5.27a6.25,6.25,0,0,0,2.86.38c8.23-1.12,16.46-2.24,24.66-3.54a10.4,10.4,0,0,0,4.93-2c5.62-4.78,11.06-9.78,16.53-14.74a2.64,2.64,0,0,0,.4-3.56c-.9-1.24-2.46-1.38-4.07-.31-5,3.33-10,6.72-15,10a6.33,6.33,0,0,1-3,.81c-1.74.1-3.5-.17-5.24-.07-7.42.41-14.84,1-22.26,1.29-1.32,0-2.75-.8-4-1.48-.35-.19-.23-1.26-.32-1.93a13,13,0,0,1,1.88.16,12.71,12.71,0,0,0,2.87.79c4.26-.16,8.52-.47,12.77-.74,3.1-.19,6.2-.4,9.29-.61A4.85,4.85,0,0,0,49.35,55c-2.72-.25-5.44-.58-8.17-.68-6.41-.24-12.52-1.32-18.06-4.95C21.26,48.13,18.8,47.82,16.26,47Z"/><path class="cls-2" d="M41.85,0h11.8c2.35,0,3,.56,3.4,2.84A10.39,10.39,0,0,0,63.14,11c1.57.75,2.41,1.83,2.17,3.61C63.42,29,57.13,40.5,43.93,47.53a3.44,3.44,0,0,1-3.53,0c-11.18-5.68-17.59-15-20.67-26.9-.47-1.84-.72-3.74-1-5.63a3.17,3.17,0,0,1,2-3.68,10.64,10.64,0,0,0,6.18-8.67c.25-1.79,1-2.47,2.83-2.48,4.05,0,8.09,0,12.13,0ZM54.44,2.6c-8.1,0-16.12,0-24.15,0-.37,0-.95.73-1.05,1.21-.73,3.46-2.22,6.69-5.33,8.28s-2.83,3.45-2.25,6c2.4,10.66,7.51,19.42,16.86,25.54,2.67,1.74,4.66,1.72,7.3,0,9.33-6.27,14.36-15.14,16.57-25.91.51-2.49.62-4.26-2.22-5.74C56.6,10.15,55,6.52,54.44,2.6Z"/><path class="cls-3" d="M12.22,67.24A4.32,4.32,0,1,1,7.78,63,4.33,4.33,0,0,1,12.22,67.24ZM7.5,69.42h.78c.5-.7,1.32-1.36,1.43-2.12.16-1.06-.62-1.83-1.8-1.84a1.62,1.62,0,0,0-1.82,1.82C6.19,68.05,7,68.72,7.5,69.42Z"/><path class="cls-4" d="M50.31,7.21c-5.15,0-10.72,0-16.29,0a1.72,1.72,0,0,0-1.24.92,18.92,18.92,0,0,1-5.9,7.72,2.22,2.22,0,0,0-.59,1.61c0,.8.48,1.59.46,2.39a2,2,0,0,1-.88,1.46c-.25.14-1.23-.38-1.34-.76a21.37,21.37,0,0,1-.91-4.47,2.38,2.38,0,0,1,1-1.68,15.37,15.37,0,0,0,6.1-8.08,2.16,2.16,0,0,1,2.33-1.62q8.85,0,17.7-.08A2.24,2.24,0,0,1,53.2,6.38a14.37,14.37,0,0,0,6,7.72,2.28,2.28,0,0,1,1.16,2.62,22.74,22.74,0,0,1-.78,3.5c-.17.44-.94.66-1.44,1-.31-.5-1-1.17-.85-1.47,1.23-2.71-.33-4.08-2.11-5.81S52,9.59,50.31,7.21Z"/><path class="cls-5" d="M42.18,43.09c-.47-.2-.94-.34-1.36-.57A32.6,32.6,0,0,1,26.54,26.37,2,2,0,0,1,27,24.49c.9-.58,1.47.18,1.83,1a31.6,31.6,0,0,0,11.7,14,2.52,2.52,0,0,0,3.32,0A31.85,31.85,0,0,0,55,26.05c.16-.35.22-.82.48-1a8.62,8.62,0,0,1,1.57-.81c.22.59.45,1.19.64,1.79,0,.12-.12.3-.18.45A33.13,33.13,0,0,1,43.7,42.4,13.37,13.37,0,0,1,42.18,43.09Z"/><path class="cls-6" d="M41.22,26.42,48,16.29c.27-.41.5-.95.89-1.15a1.71,1.71,0,0,1,1.46-.07c.32.22.41.91.4,1.4,0,.33-.35.66-.56,1C47.76,21,45.39,24.63,43,28.22c-1.15,1.72-1.61,1.76-3.16.31-1.27-1.19-2.52-2.4-3.79-3.61-.68-.65-1.53-1.35-.59-2.31s1.66,0,2.33.58C38.91,24.22,40,25.28,41.22,26.42Z"/></g></g></svg>