<svg xmlns="http://www.w3.org/2000/svg" xmlns:xlink="http://www.w3.org/1999/xlink" viewBox="0 0 84.01 107.51"><defs><style>.cls-1{fill:url(#linear-gradient);}.cls-2{fill:url(#linear-gradient-2);}.cls-3{fill:url(#linear-gradient-3);}.cls-4{fill:url(#linear-gradient-4);}.cls-5{fill:url(#linear-gradient-5);}.cls-6{fill:url(#linear-gradient-6);}.cls-7{fill:url(#linear-gradient-7);}.cls-8{fill:url(#linear-gradient-8);}.cls-9{fill:url(#linear-gradient-9);}.cls-10{fill:url(#linear-gradient-10);}.cls-11{fill:url(#linear-gradient-11);}.cls-12{fill:url(#linear-gradient-12);}.cls-13{fill:url(#linear-gradient-13);}</style><linearGradient id="linear-gradient" y1="53.75" x2="84.01" y2="53.75" gradientUnits="userSpaceOnUse"><stop offset="0" stop-color="#f2a710"/><stop offset="0.53" stop-color="#f2a612"/><stop offset="0.72" stop-color="#f2a319"/><stop offset="0.85" stop-color="#f29d24"/><stop offset="0.96" stop-color="#f19635"/><stop offset="1" stop-color="#f1923d"/></linearGradient><linearGradient id="linear-gradient-2" x1="8.35" y1="71.92" x2="32.27" y2="71.92" xlink:href="#linear-gradient"/><linearGradient id="linear-gradient-3" x1="10" y1="64.93" x2="29.32" y2="64.93" xlink:href="#linear-gradient"/><linearGradient id="linear-gradient-4" x1="8.35" y1="82.16" x2="32.24" y2="82.16" xlink:href="#linear-gradient"/><linearGradient id="linear-gradient-5" x1="8.35" y1="76.93" x2="32.24" y2="76.93" xlink:href="#linear-gradient"/><linearGradient id="linear-gradient-6" x1="9.35" y1="87.87" x2="18.62" y2="87.87" xlink:href="#linear-gradient"/><linearGradient id="linear-gradient-7" x1="47.17" y1="48.3" x2="57.59" y2="48.3" xlink:href="#linear-gradient"/><linearGradient id="linear-gradient-8" x1="49.27" y1="42.38" x2="55.52" y2="42.38" xlink:href="#linear-gradient"/><linearGradient id="linear-gradient-9" x1="59.14" y1="35.28" x2="62.99" y2="35.28" xlink:href="#linear-gradient"/><linearGradient id="linear-gradient-10" x1="41.7" y1="35.28" x2="45.55" y2="35.28" xlink:href="#linear-gradient"/><linearGradient id="linear-gradient-11" x1="40.3" y1="30.96" x2="45.83" y2="30.96" xlink:href="#linear-gradient"/><linearGradient id="linear-gradient-12" x1="58.97" y1="30.98" x2="64.36" y2="30.98" xlink:href="#linear-gradient"/><linearGradient id="linear-gradient-13" x1="67.22" y1="90.33" x2="69.28" y2="90.33" xlink:href="#linear-gradient"/></defs><title>specialized-translation</title><g id="Layer_2" data-name="Layer 2"><g id="Layer_1-2" data-name="Layer 1"><path class="cls-1" d="M37.83,52.87a23.7,23.7,0,0,1-5.4-9.29c-.14-.49-.39-.62-.87-.76-3.4-1-4.92-3.92-3.49-7.23a10.73,10.73,0,0,0,.74-4.44c0-3-.17-6.12.69-9.11C32.1,13,38,7.31,47,4.94c1.21-.32,1.81-.59,1.51-1.95s.64-1.87,1.53-1c2.08,2,3.43.88,4.89-.71A3.38,3.38,0,0,1,57.21,0c0,1.65-1.83,3.22-.87,4.33s2.8.89,4.21,1.42A23.8,23.8,0,0,1,76,28c0,2.8-.13,5.55.83,8.36,1.11,3.24-.41,5.42-3.79,6.5-.63.2-.75.58-.89,1.06A21.12,21.12,0,0,1,61.77,56.55c2,.6,3.84,1,5.58,1.71A26.23,26.23,0,0,1,84,82.93c0,5.46,0,10.93,0,16.39,0,2.9-.84,3.74-3.78,3.75q-21.19,0-42.39,0H35.4c-.44.75.62,1.64-.23,2.2s-1.58,0-2.24-.37c-1.26-.69-1.44.22-1.78,1-.28.64-.38,1.53-1.29,1.56s-1-1-1.3-1.55c-.43-.83-.77-1.72-1.16-2.58,0,0-.1,0-.33-.09-.48,1.08-1,2.2-1.46,3.3-.21.46-.41,1-1.06,1s-.86-.5-1-1c-.43-1.63-1.09-2.13-2.87-1.31-2.18,1-1.68-.76-1.45-2.13-5,0-9.83,0-14.7,0-4,0-4.53-.57-4.53-4.53V56.81c0-3.32.62-3.94,4-3.94Zm-36,3.54q0,21.5-.09,43c0,1.46.56,1.89,1.94,1.88,5,0,10-.07,15.06,0A2.07,2.07,0,0,0,21,98.64c-.22-1.2-.9-2.28-1.16-3.67a9.31,9.31,0,0,1,.73-5.82c1.31-3.5,7-5.25,10.48-3.06,2.49,1.55,4.81,4.8,3.94,8.3a29.13,29.13,0,0,0-1.47,4.36,2.48,2.48,0,0,0,.79,2.3c.68.55,1.69.3,2.54.14s.82-1.06.82-1.77q0-21.49-.07-43c.32-1.33-.2-1.81-1.57-1.81q-16.3.06-32.61,0C2.08,54.6,1.53,55.06,1.83,56.41ZM38.69,25.87a23.75,23.75,0,0,1-4.8,7.45A2.16,2.16,0,0,0,33.5,35c0,1.53,0,3.06.09,4.58a18.84,18.84,0,0,0,37.29,2.08c.78-4.26.22-8.56.38-12.84a1,1,0,0,0-.39-1,17,17,0,0,1-4.7-5.36c-3,3.49-6.08,6.55-10.62,7.85.27-1.88,2.26-2.95,1.55-5.14C55,26.89,53,28.52,50.2,28.85c.88-1.3,1.83-2.35,1.32-4A38.84,38.84,0,0,1,46.16,28c-2.79,1.09-2.86,1.05-2.51-1.74.05-.34.23-.8-.24-1.13-.76,1.07-1.44,2.1-2.19,3.07a5.87,5.87,0,0,1-2.95,2.34C38.31,29.1,39.27,27.87,38.69,25.87ZM66.47,60.06c.58,1.8,1,3.24,1.5,4.67,1.56,4.72,1.58,4.76-2.81,7-1.16.6-1.56,1.19-.8,2.32A4,4,0,0,1,64,79.25C59.9,84.5,58.74,90.47,59.33,97c.35,4,.06,4,4,4,3.58,0,3.58,0,3.85-3.43,0-.14,0-.29,0-.43.06-.65.32-1.13,1-1.15s1,.49,1,1.13a14.43,14.43,0,0,1,0,2.18c-.17,1.35.34,1.77,1.69,1.73,3.06-.09,6.12-.1,9.18,0,1.59,0,1.94-.61,1.92-2.06-.07-5.68.06-11.36-.06-17a24.1,24.1,0,0,0-5-14.13c-.82-1.1-1.52-1.08-2.52-.34A11.94,11.94,0,0,0,69.61,75c-.54,2.75-.19,5.52-.32,8.28,0,.7-.18,1.36-1.06,1.34a1,1,0,0,1-1-1.18c.07-2.91-.29-5.82.23-8.71A14.52,14.52,0,0,1,74.29,65,24,24,0,0,0,66.47,60.06ZM39.67,77.44V97c0,4.29,0,4.24,4.23,4.11,1.13,0,1.49-.34,1.47-1.49-.07-3.77,0-7.54,0-11.32A3,3,0,0,0,45,86.61C43.27,83.68,41.58,80.74,39.67,77.44ZM27.21,99.91c1.29-1.54,3.31-1.19,4.39-2.22a5.82,5.82,0,0,0,1.8-4.08,7.31,7.31,0,0,0-1.69-4.35,6.89,6.89,0,0,0-4.05-1.9,7.15,7.15,0,0,0-4.2,1.57,7.19,7.19,0,0,0-2,4.23A7.24,7.24,0,0,0,23,97.38C23.9,98.55,26,98.27,27.21,99.91Zm21.43-33c-3.07,2.4-3.15,2.53-2.54,5.75a66.53,66.53,0,0,1,1.19,14.08c-.12,4.22,0,8.44,0,12.65,0,.66-.55,1.79.78,1.86s.88-1.1.91-1.77c.43-8.56.74-17.13,1.25-25.7A15.63,15.63,0,0,0,48.64,66.9Zm7.46,0c-.66,1.84-1.64,3.53-1.55,5.58.4,8.88.75,17.76,1.12,26.63a12.81,12.81,0,0,0,.14,1.52c.09.53.47.68,1,.64s.59-.37.61-.75c0-.58,0-1.16,0-1.74.2-8.65-.78-17.36,1.24-25.89C59.32,70.05,58.38,68.33,56.1,66.88Zm8.07-6.77c-3.94,7.18-3.63,15-4.77,22.43,1.14-1.59,2.06-3.23,3.05-4.84a2.16,2.16,0,0,0,.28-2c-1.48-4.23-1.46-4.24,2.56-6.34a4.71,4.71,0,0,1,.58-.32c.87-.3,1-.85.74-1.7C65.79,65,65,62.66,64.17,60.11ZM45.09,82.47c-1-7.5-.55-15.28-4.51-22.24-1.29,2.44-.75,4.89-.94,7.26a2.32,2.32,0,0,0,1.75,2.79c2.11.65,2.4,1.9,1.41,3.82-.48.92-1.52,1.87-.74,3.17C43.09,79,44.08,80.74,45.09,82.47ZM58.84,66.94C60,64.38,61.11,62,62.19,59.66c.16-.35.56-.95-.1-1-1.32-.14-2.67-.88-4,0s-2.78,1.8-4.32,2.8ZM45.72,58.27c-3.5-.05-3.71.26-2.44,3l.17.41c2.68,5.81,2.93,5.83,6.83.53.09-.11.2-.21.29-.33s.25-.55,0-.73C48.81,60.14,47.28,58.76,45.72,58.27ZM31.8,37.8h-.05a3.53,3.53,0,0,0,0-.65c-.2-.85.55-2.33-.49-2.44-1.34-.15-1.62,1.39-1.86,2.53a3.65,3.65,0,0,0,.27,2.13c.33.84.81,1.8,1.77,1.59s.25-1.22.35-1.86A8.05,8.05,0,0,0,31.8,37.8ZM73,34.45v5.19c0,.14,0,.28,0,.43,0,.33-.14.74.32.9s.68-.11,1-.33C76,39.22,75.52,35.71,73,34.45ZM33.11,102.88c-.88-1.26-.68-2.47-1.86-2.68a2.24,2.24,0,0,0-2.29.92c-.61,1,.42,1.78.87,3.2C30.38,102.56,31.37,102.29,33.11,102.88Zm-8.49,1c.41-1,1.57-1.73.84-2.77a2.14,2.14,0,0,0-2.22-1c-1.21.32-1.07,1.5-1.48,2.57C23,102.42,24.12,102.37,24.62,103.85ZM50.3,58.71c1.42,1.54,2.68,1.75,4,0Z"/><path class="cls-2" d="M20.14,72.86c-3.35,0-6.69,0-10,0-.75,0-1.83.19-1.75-1,.07-1,1.05-.83,1.74-.83q10.26,0,20.51,0c.72,0,1.67,0,1.67.93s-.93.94-1.66.94Z"/><path class="cls-3" d="M19.52,65.86c-2.71,0-5.41,0-8.11,0-.6,0-1.48.19-1.41-1,.05-1,.85-.82,1.41-.82Q19.69,64,28,64c.58,0,1.34-.05,1.35.93s-.76.94-1.35.94C25.15,65.87,22.33,65.86,19.52,65.86Z"/><path class="cls-4" d="M20.59,81.28c3.33,0,6.67,0,10,0,.7,0,1.66-.13,1.64.91s-1,.84-1.7.84Q20.2,83,9.86,83c-.63,0-1.47.13-1.51-.79-.06-1.1.87-.95,1.57-.95C13.47,81.27,17,81.28,20.59,81.28Z"/><path class="cls-5" d="M20.14,77.8c-3.41,0-6.82,0-10.23,0-.62,0-1.48.19-1.55-.74s.81-1,1.53-1H30.78c.67,0,1.45,0,1.46.88s-.79.87-1.44.87C27.24,77.81,23.69,77.8,20.14,77.8Z"/><path class="cls-6" d="M13.91,88.73H10.42c-.55,0-1.05-.2-1.07-.82s.46-.89,1-.9c2.4,0,4.8,0,7.19,0,.57,0,1.06.24,1.07.85,0,.77-.61.88-1.22.89-1.17,0-2.33,0-3.49,0Z"/><path class="cls-7" d="M52.44,50.19a6.92,6.92,0,0,1-4.59-1.81c-.5-.45-1-1-.41-1.67s1-.09,1.47.25c2.72,2,4.21,2,6.88,0,.45-.33.84-.93,1.47-.34s.13,1.19-.33,1.64A6.8,6.8,0,0,1,52.44,50.19Z"/><path class="cls-8" d="M49.27,41.37c.09-.58-.23-1.56.86-1.59.89,0,.88.8.89,1.46,0,1,.13,2,1.43,1.94s1.34-1.11,1.32-2.12c0-.6,0-1.26.81-1.27s.89.73.93,1.4a3.31,3.31,0,0,1-3,3.79C50.61,45.07,49.27,43.62,49.27,41.37Z"/><path class="cls-9" d="M61.14,33.34c1.11.23,1.9.78,1.85,2a1.93,1.93,0,0,1-3.85-.12A2,2,0,0,1,61.14,33.34Z"/><path class="cls-10" d="M43.66,33.34c1.21.24,2,.83,1.88,2.07a1.74,1.74,0,0,1-2,1.81,1.76,1.76,0,0,1-1.83-2A1.94,1.94,0,0,1,43.66,33.34Z"/><path class="cls-11" d="M41.58,32.12a1,1,0,0,1-1.23-.61c-.2-.63.27-.93.8-1,1.21-.26,2.41-.48,3.63-.68a.87.87,0,0,1,1,.63c.16.59-.22.95-.8,1.07C43.86,31.71,42.72,31.91,41.58,32.12Z"/><path class="cls-12" d="M63.17,32.14c-1.4-.27-2.47-.46-3.54-.68a.77.77,0,0,1-.64-1,.79.79,0,0,1,.95-.69c1.08.14,2.15.33,3.22.54.64.13,1.42.29,1.15,1.21A.87.87,0,0,1,63.17,32.14Z"/><path class="cls-13" d="M67.23,90.38c0-.94,0-1.87,0-2.81a1,1,0,0,1,1.13-1,1,1,0,0,1,.88,1.06c0,1.88,0,3.75,0,5.62a.87.87,0,0,1-1,.9,1,1,0,0,1-1-.93C67.19,92.26,67.24,91.32,67.23,90.38Z"/></g></g></svg>