<svg xmlns="http://www.w3.org/2000/svg" width="134.9552" height="140.6294" viewBox="0 0 134.9552 140.6294"><title>woman-avatar</title><g id="Layer_2" data-name="Layer 2"><g id="Layer_1-2" data-name="Layer 1"><path d="M64.75.66a6.8589,6.8589,0,0,0,4.7827.1974C73.7286-.8006,77.5737.24,81.2519,2.4417c3.2536,1.9472,5.7406,4.752,8.313,7.46a.9016.9016,0,0,0,.8993.7073l-.03,0c.2225,1.2368,1.2019,2.01,1.8611,2.97,9.0767,13.21,11.8088,27.7868,9.43,43.4771-4.5389.1368-6.338-1.2444-8.4177-6.461,1.6959-1.76,1.6648-4.16,2.2676-6.3055,1.02-3.6305-1.1756-6.7623-5.0395-7.4213A33.9714,33.9714,0,0,1,71.5146,25.9306c-2.3353-2.6445-5.8558-2.25-8.4843.3485-1.6768,1.6576-3.1366,3.55-5.23,4.7473a29.192,29.192,0,0,1-1.3248-6.1c-.6153-7.808,2.5036-14.37,6.5466-20.6779C63.7373,3.1328,64.9207,2.2127,64.75.66Z" fill="#945231"/><path d="M113.6764,24.7058c9.2275,8.1274,15.0713,18.3564,18.5706,30.0193a61.4184,61.4184,0,0,1,2.6874,19.3514,64.2185,64.2185,0,0,1-2.9578,18.7642c-.1944.5807-.1971,1.2963-.8728,1.6318-1.986-.5842-2.5892-2.6542-4.11-3.8069-3.85-2.9186-7.8262-5.6383-11.8251-8.34-6.0824-4.1087-6.9547-6.5611-5.5348-14.2644,1.7083-9.2684,2.9932-18.4155.6516-27.7461C108.8519,34.6025,109.6419,29.2778,113.6764,24.7058Z" fill="#f1923d"/><path d="M3.9,94.4728C1.5609,90.5311,1.2382,86.027.6158,81.6787A63.5676,63.5676,0,0,1,4.3087,50.0614C7.9614,40.28,13.3459,31.6076,21.3314,24.709,25.45,29.37,26.0564,34.78,24.6923,40.5946a46.8713,46.8713,0,0,0-1.5338,12.3993,98.8832,98.8832,0,0,0,2.3048,15.6013c1.0624,5.2878.3478,9.9373-4.7276,13.1172-3.3919,2.1251-6.688,4.4226-9.8879,6.828C8.4182,90.3667,6.2079,92.4846,3.9,94.4728Z" fill="#f1923d"/><path d="M3.9,94.4728c2.3079-1.9882,4.5182-4.1061,6.9478-5.9324,3.2-2.4054,6.496-4.7029,9.8879-6.828,5.0754-3.18,5.79-7.8294,4.7276-13.1172a98.8832,98.8832,0,0,1-2.3048-15.6013,46.8713,46.8713,0,0,1,1.5338-12.3993C26.0564,34.78,25.45,29.37,21.3314,24.709c6.17-6.4684,13.7248-10.7882,21.9292-14.0849a3.4392,3.4392,0,0,1,1.3261.0494,14.2533,14.2533,0,0,1-.8106,1.4009C32.77,27.0271,30.3414,43.676,33.96,61.5318c.3575,1.764.915,3.4747,2.6384,4.26a45.4872,45.4872,0,0,0,15.9824,4.4227c.3616.7729,1.2858,1.2565,1.1708,2.2747-.9952.4242-1.9731.8957-2.9884,1.2646-5.0612,1.8392-9.4707,4.4652-11.825,9.6241-4.5986,1.3186-8.5907,3.9872-12.9632,5.824-8.52,3.5791-13.6193,10.1338-15.8547,19.0155C7.4334,103.9135,4.9905,99.4991,3.9,94.4728Z" fill="#e2873b"/><path d="M113.6764,24.7058c-4.0345,4.572-4.8245,9.8967-3.3908,15.61,2.3416,9.3306,1.0567,18.4777-.6516,27.7461-1.42,7.7033-.5476,10.1557,5.5348,14.2644,3.9989,2.7013,7.9753,5.421,11.8251,8.34,1.5207,1.1527,2.1239,3.2227,4.11,3.8069-1.093,5.0245-3.53,9.4405-6.2218,13.7409-1.6588-6.953-5.2149-12.7877-11.2939-16.5369a103.12,103.12,0,0,0-17.5193-8.3044,16.1068,16.1068,0,0,0-7.1533-7.5371c-2.5116-1.2321-5.1209-2.2651-7.6867-3.3867-.0427-.9877.8577-1.4749,1.1989-2.2589,4.5232-.1068,8.6652-1.7727,12.9312-3.0163,3.87-1.1283,5.7182-3.5818,6.1124-7.4047.0932-.9037.1705-1.809.255-2.7135,2.3782-15.69-.3539-30.2664-9.4306-43.4767-.6592-.9594-1.6386-1.7329-1.8611-2.97,2.5831-.0432,4.6829,1.3432,6.8371,2.4443C103.2993,16.1336,109.0434,19.6467,113.6764,24.7058Z" fill="#e2873b"/><path d="M79.5311,139.4878a63.8417,63.8417,0,0,1-24.0709-.0063c-.1273-.9849-.2029-1.98-.3888-2.9533-1.7546-9.1875-3.37-18.3912-3.4735-27.7848,4.91,1.3262,8.32-.4812,10.7564-4.8416.8047-1.44,1.5038-3.1171,3.1-4.0129l4.13.0088a31.31,31.31,0,0,1,3.1087,4.0354c2.3882,4.3765,5.8324,6.1237,10.7141,4.811.22,3.7439-.4646,7.4232-.7942,11.1278C82.0249,126.4794,80.3988,132.9241,79.5311,139.4878Z" fill="#d2dbf9"/><path d="M52.5805,70.2146a45.492,45.492,0,0,1-15.982-4.4229c-1.7234-.7852-2.2809-2.4959-2.6384-4.26-3.6187-17.8558-1.19-34.5047,9.816-49.4574a14.2533,14.2533,0,0,0,.8106-1.4009l-.0233-.0446q.3235-.2937.6468-.5863c2.6854-2.6757,5.1265-5.6282,8.4515-7.5857C57.1187.4217,60.7133-.8439,64.75.66c.1707,1.553-1.0127,2.4731-1.7279,3.5888-4.043,6.3076-7.1619,12.87-6.5466,20.6779a29.2,29.2,0,0,0,1.3246,6.1q-.0653.1986-.1424.3931a37.4194,37.4194,0,0,1-13.2033,5.4438c-3.4035.6191-5.69,3.2751-5.27,6.39a30.5565,30.5565,0,0,0,1.3,5.2557,3.5589,3.5589,0,0,0,3.9382,2.6519c.368,1.008.8044,1.9968,1.0927,3.027A55.2532,55.2532,0,0,0,52.5805,70.2146Z" fill="#763718"/><path d="M96.0688,83.3721a103.12,103.12,0,0,1,17.5193,8.3044c6.079,3.7492,9.6351,9.5839,11.2939,16.5369a45.2225,45.2225,0,0,1-6.8539,9.3553c-.2691-4.2288-2.9911-6.8984-6.0232-9.324-.8831-.7064-1.8781-1.6693-3.1884-.8576a3.6312,3.6312,0,0,0-1.8155,3.4228c.0884,5.5736.0566,11.1491.07,16.7239a49.2184,49.2184,0,0,1-14.8047,8.1684c-.9192-.7455-.42-1.5945-.2748-2.4927,1.0373-6.4369,2.2456-12.8426,3.03-19.326.6637-5.4879,1.3224-10.9706,1.8043-16.4782C97.2391,92.6818,97.6888,87.9769,96.0688,83.3721Z" fill="#fec73a"/><path d="M96.0688,83.3721c1.62,4.6048,1.17,9.31.7571,14.0332-.4819,5.5076-1.1406,10.99-1.8043,16.4782-.7842,6.4834-1.9925,12.8891-3.03,19.326-.1448.8982-.6444,1.7472.2748,2.4927-4.0085,2.0574-8.378,2.9-12.7352,3.7857.8674-6.5638,2.4935-13.0085,3.0815-19.616.33-3.7046,1.0145-7.3839.7942-11.1278a86.1043,86.1043,0,0,0-.4764-22.8315c-.174-1.7166.3025-3.51-.6089-5.14a12.3819,12.3819,0,0,0-2.168-7.7037c.2109-.4622.646-.5364,1.075-.621,2.5658,1.1216,5.1751,2.1546,7.6867,3.3867A16.1068,16.1068,0,0,1,96.0688,83.3721Z" fill="#fedc41"/><path d="M10.12,108.2173c2.2354-8.8817,7.3346-15.4364,15.8547-19.0155,4.3725-1.8368,8.3646-4.5054,12.9632-5.8234C36.696,91.3414,38.12,99.22,39.4805,107.1l-.0028,1.0788a21.5446,21.5446,0,0,0-8.3256,1.2476c-4.7615,1.7022-6.837,4.709-7.0458,9.6285-.0715,1.6858.5557,3.4629-.4985,5.0568A57.9837,57.9837,0,0,1,10.12,108.2173Z" fill="#feb233"/><path d="M39.4777,108.1791q.0014-.5394.003-1.0788c1.47-2.5056,3.3986-4.4887,6.4136-4.8663a44.126,44.126,0,0,1,5.16-.0708q.2719,3.29.5438,6.58c.103,9.3936,1.7189,18.5973,3.4735,27.7848.1859.9737.2615,1.9684.3888,2.9533a51.12,51.12,0,0,1-12.1837-3.5248,10.6609,10.6609,0,0,0-.2339-2.6782C41.5817,124.9519,39.8661,116.6585,39.4777,108.1791Z" fill="#fedc41"/><path d="M39.4777,108.1791c.3884,8.4794,2.104,16.7728,3.5649,25.0994a10.6609,10.6609,0,0,1,.2339,2.6782A58.1665,58.1665,0,0,1,23.6077,124.112c1.0543-1.5939.4271-3.371.4986-5.0568.2088-4.9195,2.2843-7.9263,7.0458-9.6285A21.5446,21.5446,0,0,1,39.4777,108.1791Z" fill="#fec73a"/><path d="M107.0713,127.5338c-.0137-5.5748.0181-11.15-.07-16.7239a3.6312,3.6312,0,0,1,1.8155-3.4228c1.31-.8117,2.3053.1512,3.1884.8576,3.0321,2.4256,5.7541,5.0952,6.0232,9.324A46.1078,46.1078,0,0,1,107.0713,127.5338Z" fill="#feb233"/><path d="M90.4642,10.6088a.9016.9016,0,0,1-.8993-.7073C90.0275,9.9305,90.4321,10.0329,90.4642,10.6088Z" fill="#fb90cc"/><path d="M45.21,10.0426q-.3234.2928-.6468.5863C44.573,10.2068,44.82,10.0459,45.21,10.0426Z" fill="#fa90cc"/><path d="M81.2288,72.4483c-.429.0846-.8641.1588-1.0751.621l-1.1485,1.079c-1.1153,1.0788-2.1924,1.13-3.6651.4241-7.1-3.4031-11.2826-9.2213-13.9608-16.357-3.2476-8.6528-3.9446-17.6608-3.7216-26.7961q.0773-.1944.1424-.3931c2.0936-1.1972,3.5534-3.09,5.23-4.7471,2.6285-2.5982,6.149-2.993,8.4843-.3485A33.9712,33.9712,0,0,0,90.5359,36.8675c1.0039,4.7614.2837,9.5263.0287,14.29-.7367.7859-.7441,1.8544-1.0056,2.8a55.3533,55.3533,0,0,1-7.1313,16.2321C82.0865,70.9734,81.1861,71.4606,81.2288,72.4483Z" fill="#fec6aa"/><path d="M82.4277,70.1894A55.3533,55.3533,0,0,0,89.559,53.9573c.2615-.9452.2689-2.0137,1.0057-2.8a5.5367,5.5367,0,0,0,2.7429-.5633c2.08,5.2166,3.8788,6.5978,8.4177,6.461-.0835.9041-.1608,1.8094-.254,2.7131-.3942,3.8229-2.242,6.2764-6.1124,7.4047C91.0929,68.4167,86.9509,70.0826,82.4277,70.1894Z" fill="#763718"/><path d="M93.3076,50.5943a5.5367,5.5367,0,0,1-2.7429.5633c.2549-4.7638.9751-9.5287-.0288-14.29,3.8637.659,6.0591,3.7908,5.0393,7.4213C94.9724,46.4345,95.0035,48.8343,93.3076,50.5943Z" fill="#fda97b"/><path d="M57.6577,31.4193c-.223,9.1353.474,18.1433,3.7216,26.7961C64.0575,65.3511,68.24,71.1693,75.34,74.5724c1.4727.7059,2.55.6547,3.6653-.424a7.1342,7.1342,0,0,0,3.3164,6.6246c.9114,1.6292.4349,3.423.6086,5.1384a20.8687,20.8687,0,0,1-10.3077,9.4465c-2.1586.9584-3.2351,2.2129-3.0384,4.54q-2.0649-.0044-4.13-.0084c.102-2.084-.6048-3.62-2.74-4.3256a9.1736,9.1736,0,0,1-1.7989-1.0914,25.071,25.071,0,0,0,5.2262-9.4458c1.35-4.2106,1.2936-4.2747-2.5587-5.946-2.9324-1.2722-5.2543-3.5072-8.068-4.9541l-.6553-1.06c-.2319-.4558-.668-.52-1.1075-.577.115-1.0182-.8092-1.5018-1.1708-2.2747a55.24,55.24,0,0,1-7.0658-16.0269c-.2883-1.03-.7247-2.019-1.0927-3.0271-.2191-4.7663-.9676-9.5338.032-14.2973A37.4194,37.4194,0,0,0,57.6577,31.4193Z" fill="#fda97b"/><path d="M53.7517,72.4891c.44.0574.8756.1212,1.1076.577A11.73,11.73,0,0,0,52.7034,80.24c-.7377,1.8329-.5522,3.7707-.645,5.6769a58.6427,58.6427,0,0,0-.7578,15.6245l-.2465.6222a44.126,44.126,0,0,0-5.16.0708c-3.015.3776-4.9437,2.3607-6.4136,4.8663-1.3609-7.88-2.7847-15.7589-.5424-23.7219,2.3543-5.1595,6.7638-7.7855,11.825-9.6247C51.7786,73.3848,52.7565,72.9133,53.7517,72.4891Z" fill="#fec73a"/><path d="M69.5843,99.8977c-.1967-2.3269.88-3.5814,3.0384-4.54A20.8687,20.8687,0,0,0,82.93,85.9114a86.1018,86.1018,0,0,1,.4767,22.8327c-4.8817,1.3127-8.3259-.4345-10.7141-4.811A31.31,31.31,0,0,0,69.5843,99.8977Z" fill="#deecfb"/><path d="M51.0541,102.1632q.1233-.3111.2461-.6221a12.3578,12.3578,0,0,1,9.0488-7.0562l.566-.0126a9.1736,9.1736,0,0,0,1.7989,1.0914c2.1352.7061,2.842,2.2416,2.74,4.3256-1.5958.8954-2.2949,2.572-3.1,4.0125-2.4359,4.36-5.846,6.1678-10.7564,4.8416Q51.3261,105.4533,51.0541,102.1632Z" fill="#ddedfe"/><path d="M44.4544,36.8631c-1,4.7635-.2511,9.531-.032,14.2973a3.5588,3.5588,0,0,1-3.9382-2.6518,30.5565,30.5565,0,0,1-1.3-5.2557C38.7648,40.1382,41.0509,37.4822,44.4544,36.8631Z" fill="#fb9460"/><path d="M82.3218,80.773a7.1342,7.1342,0,0,1-3.3164-6.6246q.5739-.54,1.1483-1.0791A12.3813,12.3813,0,0,1,82.3218,80.773Z" fill="#feb233"/><path d="M60.915,94.4723l-.5659.0126a24.3488,24.3488,0,0,1-8.2907-8.5684c.0928-1.9062-.0927-3.844.6448-5.6773,2.37-1.3789,2.9034-3.6019,2.8113-6.1128,2.8137,1.4469,5.1356,3.6819,8.068,4.9541,3.8523,1.6713,3.9089,1.7354,2.5587,5.946A25.071,25.071,0,0,1,60.915,94.4723Z" fill="#fb9460"/><path d="M55.5145,74.1264c.0921,2.5109-.4417,4.7339-2.8113,6.1128a11.7306,11.7306,0,0,1,2.1561-7.1731Q55.1868,73.5962,55.5145,74.1264Z" fill="#feb233"/><path d="M52.0584,85.9165a24.3488,24.3488,0,0,0,8.2907,8.5684A12.3577,12.3577,0,0,0,51.3,101.5411,58.66,58.66,0,0,1,52.0584,85.9165Z" fill="#d5daee"/></g></g></svg>