<svg xmlns="http://www.w3.org/2000/svg" viewBox="0 0 26.91 27.14"><defs><style>.cls-1{fill:#fff;}</style></defs><title>call</title><g id="Layer_2" data-name="Layer 2"><g id="Layer_1-2" data-name="Layer 1"><path class="cls-1" d="M19.94,27.14c-1.33-.41-2.71-.72-4-1.25a28.8,28.8,0,0,1-11.5-9.12A23.13,23.13,0,0,1,.19,8.55,3.56,3.56,0,0,1,.82,5c1-1.21,2-2.46,3.06-3.66A7.15,7.15,0,0,1,5,.43,1.55,1.55,0,0,1,7.35.72a29.21,29.21,0,0,1,3.58,6,1.79,1.79,0,0,1-.52,2.27c-.45.39-.92.77-1.34,1.19a.65.65,0,0,0-.15.56,12.05,12.05,0,0,0,7.3,7.3.69.69,0,0,0,.59-.17c.4-.39.74-.85,1.12-1.26a1.74,1.74,0,0,1,2.4-.52,11.08,11.08,0,0,1,1.66.81c1.33.81,2.65,1.63,3.93,2.5a1.66,1.66,0,0,1,.44,2.75,19.85,19.85,0,0,1-5.63,4.68A5.09,5.09,0,0,1,20,27Zm5.12-6.2a29.51,29.51,0,0,0-5.4-3.22c-.12-.06-.38.05-.5.17-.54.57-1.05,1.16-1.57,1.75a1,1,0,0,1-1.22.3A13.78,13.78,0,0,1,7,10.53a1,1,0,0,1,.29-1.17c.54-.49,1.07-1,1.63-1.46A.62.62,0,0,0,9.09,7C8.53,6,8,5,7.48,4.07,7,3.32,6.52,2.61,6,1.84A23.62,23.62,0,0,0,1.85,6.72a.74.74,0,0,0-.06.53,23.69,23.69,0,0,0,.93,3.11A27.61,27.61,0,0,0,12.84,22.19a17,17,0,0,0,6.81,2.93.88.88,0,0,0,.62-.1A23.4,23.4,0,0,0,25.06,20.94Z"/><path class="cls-1" d="M26.06,12.13a3.8,3.8,0,0,1-.13.81.81.81,0,0,1-.94.54.92.92,0,0,1-.78-.9,17.35,17.35,0,0,0-.39-2.71,9.83,9.83,0,0,0-9.31-7.16c-.42,0-.83-.09-1-.52a1,1,0,0,1,.06-.87,1.46,1.46,0,0,1,1-.4A11.66,11.66,0,0,1,25.68,9.84C25.86,10.62,26,11.42,26.06,12.13Z"/><path class="cls-1" d="M14.59,5.4a7.23,7.23,0,0,1,6.93,7c0,.67-.31,1.08-.85,1.11s-.92-.38-1-1.06A5.41,5.41,0,0,0,14.5,7.2c-.69,0-1.1-.39-1.07-1S13.87,5.39,14.59,5.4Z"/></g></g></svg>