<svg xmlns="http://www.w3.org/2000/svg" viewBox="0 0 14 11.36"><defs><style>.cls-1{fill:#9c9a9e;}</style></defs><title>contact</title><g id="Layer_2" data-name="Layer 2"><g id="Layer_1-2" data-name="Layer 1"><path  d="M7,11.35H1.64C.51,11.34,0,10.89,0,9.77,0,7,0,4.29,0,1.55A1.4,1.4,0,0,1,1.58,0h11A1.31,1.31,0,0,1,14,1.42q0,4.22,0,8.43a1.39,1.39,0,0,1-1.61,1.5ZM8.47,5.83,7.11,7.47C6.44,6.75,6,6.27,5.56,5.81L1.81,1.87V8.58L5.58,5.77,2.78,9.58h8.47c-1-1.35-1.91-2.56-2.8-3.77l3.76,2.76V1.8Zm3.1-4H2.43C4,2.94,5.24,3.93,6.57,4.88a.93.93,0,0,0,.86,0C8.76,3.93,10.05,2.93,11.57,1.79Z"/></g></g></svg>