<svg xmlns="http://www.w3.org/2000/svg" width="38.3018" height="38.2037" viewBox="0 0 38.3018 38.2037">
	<title>
		email
	</title>
	<g id="Layer_2" data-name="Layer 2">
		<g id="Layer_1-2" data-name="Layer 1">
			<path d="M19.1514,38.2037H1.4207c-1.0317,0-1.3782-.3464-1.38-1.3742C.0318,30.0386.03,23.2477,0,16.4568a1.754,1.754,0,0,1,.866-1.6382C2.4887,13.745,4.08,12.6234,5.6716,11.504a.6345.6345,0,0,0,.2049-.4582c.0155-3.0709.0161-6.1419.02-9.2129,0-.2317-.0047-.4638.0051-.6952A1.1375,1.1375,0,0,1,7.0326.0049c.1966-.0092.394-.0026.591-.0027l23.3975,0c.0695,0,.1391-.0008.2086.0006A1.135,1.135,0,0,1,32.443,1.2258c0,3.21,0,6.42-.0191,9.63a.9039.9039,0,0,0,.4445.8751c1.576,1.06,3.1192,2.1693,4.69,3.2372a1.5247,1.5247,0,0,1,.7288,1.3913q-.01,10.221.0144,20.4422c.001.9957-.4038,1.398-1.3851,1.3979q-8.8827-.0012-17.7653,0ZM30.1306,2.2911H29.74q-10.5684,0-21.1368-.0076c-.3421-.0005-.4189.103-.4186.43q.0083,8.187-.0122,16.374a.6594.6594,0,0,0,.3162.626q3.41,2.3368,6.8007,4.7017c.2008.14.3048.0618.4479-.05q1.315-1.0265,2.6345-2.0474a1.1783,1.1783,0,0,1,1.6139.0075c.8784.6822,1.761,1.3591,2.6343,2.0478a.2908.2908,0,0,0,.4187.02q3.3881-2.3711,6.79-4.7226a.6362.6362,0,0,0,.3183-.59q-.0083-8.2218.0033-16.4435C30.15,2.5353,30.1388,2.4342,30.1306,2.2911ZM19.1726,24.6028,4.6183,35.8943H33.6106l.0179-.0777ZM24.731,26.006,35.9656,34.72V18.1951ZM2.3287,34.76,13.59,26.0244,2.3287,18.2425Zm.8457-18.7287,2.685,1.852v-3.7Zm31.8738.0029-2.5836-1.7956v3.59Z" fill="#faf9f9" />
			<path d="M20.5857,15.38c-1.1551,1.0224-2.2811,1.2058-3.3245.4635a3.4431,3.4431,0,0,1-1.1063-1.25A4.4951,4.4951,0,0,1,16.46,9.8619a2.9176,2.9176,0,0,1,2.9716-1.325,6.8291,6.8291,0,0,1,1.2313.4349,1.62,1.62,0,0,0,.0572-.168.4673.4673,0,0,1,.5046-.3924c.3078.0035.616-.0067.9236.0019.4261.0119.5674.1862.5183.6107q-.2565,2.22-.5091,4.44a4.0273,4.0273,0,0,0-.03.59c.012.345.1938.4871.5353.43a1.8052,1.8052,0,0,0,1.0747-.6694,4.3826,4.3826,0,0,0-.46-5.84,5.3,5.3,0,0,0-5.7968-1.1385,5.267,5.267,0,0,0-3.559,4.5935,5.5326,5.5326,0,0,0,6.4711,6.3566,19.074,19.074,0,0,0,2.7758-.7127.9628.9628,0,0,1,1.0284.185.8016.8016,0,0,1,.1917.9509,1.0328,1.0328,0,0,1-.4585.4957,9.8388,9.8388,0,0,1-7.3063.4269,7.1888,7.1888,0,0,1-4.8131-7.1472,7.4114,7.4114,0,0,1,7.9508-7.181A6.8721,6.8721,0,0,1,25.755,8.26a5.7133,5.7133,0,0,1-1.1015,7.1157,3.4865,3.4865,0,0,1-2.0435.8522A2.113,2.113,0,0,1,20.5857,15.38ZM17.64,12.51l.0574.0275a6.7011,6.7011,0,0,0,.126.7977,1.1476,1.1476,0,0,0,.7426.9365,1.228,1.228,0,0,0,1.26-.4323A2.52,2.52,0,0,0,20.5,11.6659a1.4281,1.4281,0,0,0-1.12-1.181,1.2113,1.2113,0,0,0-1.3479.7413A9.1778,9.1778,0,0,0,17.64,12.51Z" fill="#faf9f9" />
		</g>
	</g>
</svg>
