<svg xmlns="http://www.w3.org/2000/svg" viewBox="0 0 19.98 40.05"><defs><style>.cls-1{fill:#faf9f9;}</style></defs><title>facebook</title><g id="Layer_2" data-name="Layer 2"><g id="Layer_1-2" data-name="Layer 1"><path class="cls-1" d="M5.75,40.05V22.18H0V15.06H5.77c0-.41,0-.73,0-1.06a57.82,57.82,0,0,1,.3-7.1C6.71,2.83,9.41.41,13.57.07A62.45,62.45,0,0,1,20,.15V6.6l-.82.05c-1.23,0-2.46,0-3.68.08A2.41,2.41,0,0,0,13,9.22c-.08,1.9,0,3.8,0,5.81h6.42c-.18,1.52-.36,3-.54,4.44a18.31,18.31,0,0,0-.23,1.94c0,.64-.3.77-.87.76-1.57,0-3.13,0-4.81,0V40.05Z"/></g></g></svg>