<svg xmlns="http://www.w3.org/2000/svg" viewBox="0 0 51.12 32.04"><defs><style>.cls-1{fill:#faf9f9;}</style></defs><title>google-plus</title><g id="Layer_2" data-name="Layer 2"><g id="Layer_1-2" data-name="Layer 1"><path class="cls-1" d="M25,19.22H16.06V13.79c.3,0,.56-.06.82-.06,4.43,0,8.87,0,13.3,0,.68,0,1,.15,1.07.91C32.1,21,29.06,27.36,23.72,30.2A16.44,16.44,0,0,1,5.34,28,16,16,0,0,1,25.75,3.38c.3.24.59.51.58.58L22.47,8.33c-4.83-3.18-9.35-3.14-12.93,0A10.22,10.22,0,0,0,7.12,20.49,10,10,0,0,0,18,26C21.66,25.31,24.69,22.42,25,19.22Z"/><path class="cls-1" d="M46.61,23.54H41.93V19H37.3V14.3h4.53V9.69h4.71V14.2h4.58v4.71H46.61Z"/></g></g></svg>