<svg xmlns="http://www.w3.org/2000/svg" viewBox="0 0 34.81 34.82"><defs><style>.cls-1{fill:#faf9f9;}</style></defs><title>instagram</title><g id="Layer_2" data-name="Layer 2"><g id="Layer_1-2" data-name="Layer 1"><path class="cls-1" d="M17.36,34.78c-2.57,0-5.14.1-7.71,0-3.74-.18-6.76-1.71-8.51-5.19a11.11,11.11,0,0,1-1.11-5Q0,17.49,0,10.42A14.1,14.1,0,0,1,.47,7.19a9.07,9.07,0,0,1,8-6.95A28.76,28.76,0,0,1,11.89,0c4.38,0,8.78,0,13.16.12A9.46,9.46,0,0,1,32.89,4a10.21,10.21,0,0,1,1.88,6.1c0,5.16.11,10.33-.11,15.48-.23,5.39-4,9-9.46,9.19C22.59,34.87,20,34.78,17.36,34.78Zm0-3.14h0c2.54,0,5.09.07,7.64,0,3.64-.13,5.91-2.13,6.44-5.63a23,23,0,0,0,.21-3.61c0-4.34,0-8.69-.17-13a5.89,5.89,0,0,0-4.63-5.79,8.69,8.69,0,0,0-1.95-.3c-5,0-10-.11-15,0-4,.1-6.51,2.39-6.61,6.1-.16,5.38-.13,10.78,0,16.16a5.84,5.84,0,0,0,4.5,5.75,8.75,8.75,0,0,0,2.15.33C12.44,31.67,14.92,31.64,17.4,31.64Z"/><path class="cls-1" d="M8.44,17.46a9,9,0,1,1,9,9A9,9,0,0,1,8.44,17.46Zm14.78,0a5.81,5.81,0,1,0-5.79,5.83A5.83,5.83,0,0,0,23.22,17.44Z"/><path class="cls-1" d="M28.83,8.1a2.09,2.09,0,1,1-4.18,0,2.09,2.09,0,0,1,4.18,0Z"/></g></g></svg>