<svg xmlns="http://www.w3.org/2000/svg" viewBox="0 0 14 14"><defs><style>.cls-1{fill:#9c9a9e;}</style></defs><title>language</title><g id="Layer_2" data-name="Layer 2"><g id="Layer_1-2" data-name="Layer 1"><path d="M7,14A7.08,7.08,0,0,1,0,7,7.09,7.09,0,0,1,7,0a7.08,7.08,0,0,1,7,7.1A7.06,7.06,0,0,1,7,14ZM4.56,12.62a5.42,5.42,0,0,0,4.84,0c.77-.38,1.79-.95,2-1.64a17.69,17.69,0,0,0,.3-4.14c0-.48-.22-.72-.76-.85a2.46,2.46,0,0,1-2.1-2.45,9.39,9.39,0,0,1,.64-2.15A5.26,5.26,0,0,0,5.7,1a.89.89,0,0,0-.45.6,3.53,3.53,0,0,1-3,2.74c-.66,0-1,.25-1.1.85A12,12,0,0,0,.94,8a5.54,5.54,0,0,0,2.58,4,12.75,12.75,0,0,1,0-1.41,1.41,1.41,0,0,0-1-1.74,1.16,1.16,0,0,1-.71-.74,13.23,13.23,0,0,1,0-2.27c0-.19.19-.54.3-.54.82,0,1.64-.31,2.43.3A6.08,6.08,0,0,0,6.79,6.88c1,.21,1.23.69,1,1.5a3.12,3.12,0,0,1-.66,1.26C6.37,10.62,5.5,11.56,4.56,12.62Z"/></g></g></svg>