<svg xmlns="http://www.w3.org/2000/svg" viewBox="0 0 24.74 37.19"><defs><style>.cls-1{fill:#fff;}</style></defs><title>location</title><g id="Layer_2" data-name="Layer 2"><g id="Layer_1-2" data-name="Layer 1"><path class="cls-1" d="M7.86,27.28C6.58,25.62,5.31,24,4.1,22.41A19.26,19.26,0,0,1,.39,15.49a12.37,12.37,0,1,1,23,2.41A40.05,40.05,0,0,1,20,23.2c-1,1.39-2.06,2.68-3.16,4.1.69.15,1.33.24,1.94.43A31.55,31.55,0,0,1,22,28.83,6.24,6.24,0,0,1,23.63,30a2.61,2.61,0,0,1,0,4.3,10.36,10.36,0,0,1-2.88,1.62,25.16,25.16,0,0,1-10.44,1.24,20.72,20.72,0,0,1-6.65-1.38,10.21,10.21,0,0,1-2.15-1.18c-2-1.45-2-3.52,0-4.91a15.29,15.29,0,0,1,3.31-1.59A24.68,24.68,0,0,1,7.86,27.28Zm4.51,3.52.34-.42c1.9-2.48,3.83-4.93,5.68-7.44a56.35,56.35,0,0,0,3.44-5.11,10.7,10.7,0,0,0,1.31-7.07A10.89,10.89,0,0,0,1.48,11.85a11.82,11.82,0,0,0,2.27,7.49c1.82,2.56,3.77,5,5.66,7.54Zm.37,4.94c.63,0,1.62-.07,2.6-.17a16.54,16.54,0,0,0,6.39-1.74c.7-.38,1.49-.8,1.5-1.71s-.78-1.35-1.47-1.74a14.45,14.45,0,0,0-5.59-1.64.94.94,0,0,0-.68.37c-.82,1.05-1.59,2.13-2.38,3.2-.53.7-1,.69-1.49,0s-.9-1.26-1.36-1.88c-1.37-1.85-1.38-1.87-3.63-1.36A10.11,10.11,0,0,0,2.14,31c-.89.75-.92,1.54,0,2.24a8.65,8.65,0,0,0,2.14,1.2A23.72,23.72,0,0,0,12.74,35.74Z"/><path class="cls-1" d="M17.45,12.33a5.09,5.09,0,1,1-5.07-5.07A5.1,5.1,0,0,1,17.45,12.33Zm-1.45,0A3.63,3.63,0,1,0,12.36,16,3.65,3.65,0,0,0,16,12.31Z"/><path class="cls-1" d="M21.81,11.85c0,.23,0,.38,0,.52,0,.45-.26.74-.73.73s-.67-.29-.73-.74A14.19,14.19,0,0,0,20,10a7.74,7.74,0,0,0-4.43-5c-.07,0-1-.37-1-1s.65-.65,1.08-.57A7,7,0,0,1,19,5.65,9.46,9.46,0,0,1,21.81,11.85Z"/><circle class="cls-1" cx="12.37" cy="3.63" r="0.73"/></g></g></svg>