<svg xmlns="http://www.w3.org/2000/svg" width="14" height="13.9636" viewBox="0 0 14 13.9636"><title>safsavcsa</title><g id="Layer_2" data-name="Layer 2"><g id="Layer_1-2" data-name="Layer 1"><path d="M6.967,13.9551c-.7585.0006-1.5171.0026-2.2757,0a4.5618,4.5618,0,0,1-4.688-4.7q-.0052-2.32.0005-4.639A4.5379,4.5379,0,0,1,4.6781.0011,15.3749,15.3749,0,0,1,8.71.4481a3.8044,3.8044,0,0,1,2.6041,3.4193c.1634,1.1906.2924,1.3629,1.45,1.37A1.0782,1.0782,0,0,1,13.9642,6.42c.0372,1.1365.0592,2.2782-.005,3.4125A4.5768,4.5768,0,0,1,9.68,13.95C8.7767,13.9776,7.8715,13.9545,6.967,13.9551Zm.02-3.4517q1.2228,0,2.4454,0c.6068,0,1.0574-.2587,1.0656-.8927.0084-.64-.4429-.9045-1.0483-.9058-1.63-.0035-3.26-.0005-4.8908-.0017-.6068-.0005-1.06.2507-1.0633.89-.0035.6336.4337.9087,1.0461.9093Q5.7639,10.5044,6.9866,10.5034Zm-1.281-5.26V5.24a3.6193,3.6193,0,0,0,1.2937-.0343,1.4509,1.4509,0,0,0,.826-.8933c.0366-.24-.4687-.7749-.7787-.8147a10.3139,10.3139,0,0,0-2.6919-.0017,1.2109,1.2109,0,0,0-.81.8719c.0114.3021.5015.7029.8658.843A3.82,3.82,0,0,0,5.7056,5.2437Z" /></g></g></svg>