<svg xmlns="http://www.w3.org/2000/svg" xmlns:xlink="http://www.w3.org/1999/xlink" width="25.9944" height="25.9964" viewBox="0 0 25.9944 25.9964"><defs><linearGradient id="linear-gradient" y1="12.9982" x2="25.9944" y2="12.9982" gradientUnits="userSpaceOnUse"><stop offset="0" stop-color="#f2a710"/><stop offset="0.528" stop-color="#f2a612"/><stop offset="0.7181" stop-color="#f2a319"/><stop offset="0.8537" stop-color="#f29d24"/><stop offset="0.9626" stop-color="#f19635"/><stop offset="1" stop-color="#f1923d"/></linearGradient></defs><title>Search</title><g id="Layer_2" data-name="Layer 2"><g id="Layer_1-2" data-name="Layer 1"><path d="M18.748,17.3957c2.2236,2.2194,4.4225,4.4141,6.6211,6.6091a5.0838,5.0838,0,0,1,.3759.3888.96.96,0,0,1-1.3761,1.3358c-.1229-.1021-.2306-.2227-.3439-.336q-3.084-3.0832-6.1644-6.17a4.32,4.32,0,0,1-.3865-.5174A10.7157,10.7157,0,0,1,2.1265,16.9668a10.5959,10.5959,0,1,1,16.6215.4289Zm-8.14,1.86A8.6651,8.6651,0,1,0,1.9233,10.58,8.6823,8.6823,0,0,0,10.6078,19.256Z" fill="url(#linear-gradient)"/></g></g></svg>