<svg xmlns="http://www.w3.org/2000/svg" xmlns:xlink="http://www.w3.org/1999/xlink" viewBox="0 0 25.99 26"><defs><style>.cls-1{fill:url(#linear-gradient);}</style><linearGradient id="linear-gradient" y1="13" x2="25.99" y2="13" gradientUnits="userSpaceOnUse"><stop offset="0" stop-color="#f2a710"/><stop offset="0.53" stop-color="#f2a612"/><stop offset="0.72" stop-color="#f2a319"/><stop offset="0.85" stop-color="#f29d24"/><stop offset="0.96" stop-color="#f19635"/><stop offset="1" stop-color="#f1923d"/></linearGradient></defs><title>search</title><g id="Layer_2" data-name="Layer 2"><g id="Layer_1-2" data-name="Layer 1"><path class="cls-1" d="M18.75,17.4,25.37,24c.13.13.26.25.38.39a1,1,0,0,1-1.38,1.34c-.12-.1-.23-.22-.35-.34l-6.16-6.17a6.26,6.26,0,0,1-.39-.51A10.71,10.71,0,0,1,2.13,17a10.6,10.6,0,1,1,16.62.43Zm-8.14,1.86a8.67,8.67,0,1,0-8.69-8.68A8.68,8.68,0,0,0,10.61,19.26Z"/></g></g></svg>