<svg xmlns="http://www.w3.org/2000/svg" viewBox="0 0 36.22 29.81"><defs><style>.cls-1{fill:#faf9f9;}</style></defs><title>twitter</title><g id="Layer_2" data-name="Layer 2"><g id="Layer_1-2" data-name="Layer 1"><path class="cls-1" d="M0,26.47a15.47,15.47,0,0,0,10.7-3.1,8.22,8.22,0,0,1-4.31-1.59A7.38,7.38,0,0,1,3.78,18.1H6.83a8,8,0,0,1-5.74-7.46l3.1.86.11-.19a7.58,7.58,0,0,1-3.08-5.5,7.23,7.23,0,0,1,1-4.38A21.39,21.39,0,0,0,17.52,9.24a22.15,22.15,0,0,1,.16-3.11A7.07,7.07,0,0,1,22.62.44,7.15,7.15,0,0,1,30,1.91a1.18,1.18,0,0,0,1.34.3c1.26-.47,2.54-.92,3.88-1.4a7.53,7.53,0,0,1-2.87,3.72l.11.19,3.66-1,.14.12a36.16,36.16,0,0,1-2.81,2.86,2.18,2.18,0,0,0-.87,1.91A21.16,21.16,0,0,1,16,29.26,21.07,21.07,0,0,1,.59,27a4.94,4.94,0,0,1-.49-.3S.06,26.6,0,26.47Z"/></g></g></svg>