<svg xmlns="http://www.w3.org/2000/svg" viewBox="0 0 83.77 26.69"><defs><style>.cls-1{fill:#777;}</style></defs><title>visa</title><g id="Layer_2" data-name="Layer 2"><g id="Layer_1-2" data-name="Layer 1"><path  d="M83.77,26.33a36.61,36.61,0,0,0-4.21,0c-1.54.2-2-.54-2.19-1.86-.33-2.16-.37-2.16-2.48-2.16-1.84,0-3.68.05-5.52,0a1.58,1.58,0,0,0-1.78,1.26c-1,2.76-1.06,2.74-4.05,2.74H59.65c.85-2,1.61-3.84,2.41-5.67C64.64,14.78,67.28,8.93,69.81,3A3.72,3.72,0,0,1,73.71.46c1.35.06,2.71-.06,4.06.06a1.57,1.57,0,0,1,1.15.93c1.62,7.94,3.17,15.89,4.73,23.84C83.71,25.58,83.72,25.86,83.77,26.33ZM74.08,7.76l-.42,0c-1.18,3.1-2.37,6.2-3.59,9.41H76Z"/><path  d="M0,.64A9.55,9.55,0,0,1,1.18.48c3.15,0,6.29,0,9.44,0,2.85,0,3.64.78,4.12,3.56q1.15,6.63,2.35,13.26a6.93,6.93,0,0,0,.2.67c.26-.48.46-.76.59-1.07,2.09-5,4.21-9.95,6.22-15A2,2,0,0,1,26.35.45c1.68.08,3.37,0,5.31,0-1,2.27-1.84,4.3-2.72,6.32-2.7,6.14-5.43,12.26-8.1,18.41a1.53,1.53,0,0,1-1.69,1.15,35.56,35.56,0,0,0-4.5,0c-1.11.08-1.49-.37-1.74-1.38C11.38,18.66,9.75,12.36,8.25,6A4,4,0,0,0,5.39,2.75C3.58,2.18,1.8,1.52,0,.9Z"/><path  d="M41.66,20.11A36.14,36.14,0,0,0,47,21.33a10.1,10.1,0,0,0,4.37-.54c2-.74,2.06-2.69.35-3.94a23.5,23.5,0,0,0-2.11-1.26c-.84-.48-1.7-.92-2.53-1.42-5.44-3.3-3.85-9.31-.24-11.78C50.56-.19,54.72-.41,59,.45c2.32.47,2.31.54,1.78,2.88-.22,1-.48,2-.62,2.52-2.53-.16-4.85-.32-7.17-.43a2.43,2.43,0,0,0-1.1.31c-1.79.84-2,2.47-.35,3.58,1.15.79,2.41,1.41,3.63,2.1,2.66,1.48,4.8,3.31,4.62,6.73a7.85,7.85,0,0,1-5.08,7.15c-4.66,2.08-9.37,1.6-14.26.12Z"/><path  d="M41.48.47c-1.32,5.76-2.57,11.2-3.83,16.65-.64,2.77-1.28,5.54-2,8.3-.08.35-.53.85-.83.87-1.88.08-3.75,0-5.9,0,.47-2.11.89-4,1.33-5.93C31.69,14.25,33.15,8.11,34.52,2c.25-1.12.7-1.55,1.83-1.5C38,.53,39.62.47,41.48.47Z"/></g></g></svg>